<?xml version="1.0" encoding="utf-8"?>
<!-- Generator: Adobe Illustrator 24.1.2, SVG Export Plug-In . SVG Version: 6.00 Build 0)  -->
<svg version="1.1" xmlns="http://www.w3.org/2000/svg" xmlns:xlink="http://www.w3.org/1999/xlink" x="0px" y="0px"
	 viewBox="0 0 800 600" style="enable-background:new 0 0 800 600;" xml:space="preserve">
<g id="earth">
	<g style="enable-background:new    ;">
		<defs>
			<path id="SVGID_1_" style="enable-background:new    ;" d="M364.18,89.15c15.11-2.65,30.67-3.66,46.22-2.99
				c23.64,1.01,45.69,18.36,63.03,49.99c20.07,36.61,31.42,87.95,31.95,144.58c0.54,56.62-9.8,111.75-29.12,155.23
				c-18.95,42.67-44.33,69.1-71.59,73.85c-1.52-0.06-3.44,0-4.29,0.15c-0.85,0.15-0.31,0.32,1.21,0.39c1.52,0.06,3.44,0,4.29-0.15
				c0.85-0.15,0.31-0.32-1.21-0.39c27.27-4.75,52.64-31.18,71.59-73.85c19.31-43.47,29.65-98.6,29.12-155.23
				c-0.54-56.63-11.88-107.97-31.95-144.58c-17.34-31.63-39.4-48.98-63.03-49.99c2.98,0.15,5.56,0.28,9.14,0.59
				c4.66,0.41,6.64,0.66,10.24,1.11c1.76,0.22,3.15,0.4,9.67,1.52c1.84,0.32,4.28,0.83,6.11,1.2c4.02,0.81,9.35,2.11,13.29,3.26
				c2.87,0.84,6.69,1.99,9.53,2.92c2.29,0.75,5.3,1.87,7.57,2.68c2.57,0.91,5.96,2.26,8.45,3.38c2.25,1.01,5.27,2.31,7.49,3.36
				c2.37,1.12,5.53,2.64,7.84,3.9c2.18,1.19,5.12,2.75,7.28,4c2.24,1.29,5.19,3.07,7.38,4.45c4.26,2.68,9.74,6.56,13.82,9.5
				c4.32,3.11,9.28,7.35,13.28,10.76c0.04,0.04,5.72,5.11,8.13,7.52c5,5,7.29,7.28,11.78,12.39c3.34,3.8,7.57,9.07,10.62,13.11
				c4.96,6.54,11.16,16.15,13.85,21.02c1.21,2.2,2.87,5.1,4.03,7.33c1.16,2.21,2.65,5.19,3.72,7.44c3.95,8.31,6.52,15.24,6.55,15.31
				c2.35,6.35,3.57,9.83,5.32,15.79c1.02,3.47,2.54,8.92,4.07,16.22c0.81,3.86,1.85,9.23,2.79,16.58c0.32,2.52,0.69,5.89,0.91,8.42
				c0.22,2.54,0.41,5.93,0.58,8.47c0.43,6.26,0.29,19.34-0.26,25.57c-0.22,2.52-0.47,5.89-0.75,8.41c-0.27,2.51-0.7,5.86-1.08,8.36
				c-1.03,6.94-2.27,12.79-3.12,16.46c-2.35,10.16-5.54,20.7-10.03,31.76c-1.87,4.62-4.62,10.69-6.85,15.15
				c-1.12,2.24-2.68,5.2-3.89,7.4c-1.21,2.19-2.92,5.06-4.17,7.22c-0.03,0.06-3.75,6.37-9.26,14.04c-2.95,4.11-7.18,9.38-10.37,13.3
				c-1.62,1.99-3.88,4.56-5.64,6.42c-1.76,1.86-4.08,4.36-5.88,6.18c-1.78,1.8-4.21,4.16-6.06,5.89
				c-4.23,3.96-8.13,7.33-12.64,10.94c-1.96,1.57-4.62,3.61-6.65,5.1c-1.99,1.46-4.71,3.33-6.72,4.75
				c-4.38,3.09-14.61,9.32-21.46,12.75c-4.32,2.16-10.14,4.95-14.6,6.82c-7.07,2.97-12.19,4.69-15.25,5.72
				c-3.08,1.04-8.21,2.63-15.14,4.37c-2.06,0.52-8.66,2.07-14.4,3.03c-5.71,0.96-9.65,1.54-16.63,2.23
				c-4.42,0.44-10.6,0.81-15.37,0.93c-2.46,0.06-8.98,0.23-16.89-0.12c-8.29-0.36-14.14-1.04-16.96-1.37
				c-4.72-0.55-11.07-1.56-15.79-2.51c-6.85-1.38-8.96-1.92-16.85-4.08c-3.16-0.87-7.34-2.18-10.43-3.29
				c-2.57-0.93-6.01-2.17-8.56-3.17c-2.24-0.88-5.21-2.1-7.4-3.1c-2.37-1.07-5.52-2.52-7.85-3.66c-2.19-1.07-5.07-2.57-7.22-3.73
				c-6.4-3.46-11.02-6.37-14.33-8.52c-6.21-4.03-10.74-7.42-13.62-9.63c-2.01-1.54-4.64-3.65-6.58-5.26
				c-1.92-1.6-4.41-3.82-6.3-5.45c-4.7-4.07-13.88-13.35-17.96-18.18c-3.26-3.87-7.6-9.05-10.62-13.11
				c-4.24-5.68-7.53-10.68-9.54-13.88c-3.44-5.48-9.55-15.63-15.49-29.51c-2.17-5.07-4.17-10.31-5.93-15.56
				c-1.59-4.74-3.38-11.16-4.69-15.99c-0.02-0.07-1.87-7.14-3.43-16.42c-0.84-4.99-1.6-11.69-2.14-16.72
				c-0.27-2.54-0.46-5.94-0.58-8.49c-0.12-2.56-0.17-5.97-0.25-8.53c-0.07-2.56,0.01-5.99,0.09-8.55
				c0.17-5.86,0.53-11.08,1.17-16.91c1.02-9.41,2.46-16.56,2.47-16.63c0.51-2.45,1.15-5.74,1.72-8.18c0.56-2.44,1.33-5.7,2.04-8.11
				c0.71-2.4,1.55-5.63,2.35-8.01c1.6-4.73,3.85-10.98,5.63-15.64c0.02-0.06,2.72-6.91,6.87-15.2c2.5-4.98,5.21-9.9,8.06-14.62
				c2.9-4.8,6.01-9.51,9.25-14.01c5.52-7.69,10.36-13.29,10.4-13.34c3.52-4.06,6.84-7.9,11.54-12.61
				c7.61-7.63,12.87-12.02,13.85-12.82c5.18-4.26,9.27-7.63,13.36-10.45c2.11-1.46,4.86-3.48,7.02-4.85
				c4.22-2.67,9.91-6.13,14.24-8.63c0.06-0.04,6.53-3.71,15.39-7.71c7.32-3.3,13.54-5.57,15.87-6.39c2.19-0.77,5.12-1.77,7.33-2.46
				c2.79-0.87,6.53-1.97,9.35-2.71C350.4,91.99,356.24,90.55,364.18,89.15z"/>
		</defs>
		<use xlink:href="#SVGID_1_"  style="overflow:visible;fill:#4DB9DA;"/>
		<clipPath id="SVGID_2_">
			<use xlink:href="#SVGID_1_"  style="overflow:visible;"/>
		</clipPath>
	</g>
	<g style="enable-background:new    ;">
		<defs>
			<path id="SVGID_3_" style="enable-background:new    ;" d="M410.41,86.16c-3.72-0.16-7.48,0.09-11.27,0.75
				C402.92,86.25,406.68,86,410.41,86.16c9.63,0.41,20.16,1.58,28.89,3.2c1.84,0.34,4.28,0.8,6.11,1.19
				c2.53,0.55,5.9,1.31,8.41,1.95c2.2,0.56,5.12,1.35,7.3,1.99c2.49,0.73,5.8,1.72,8.24,2.59c2.27,0.81,5.31,1.85,7.57,2.71
				c2.41,0.92,5.59,2.2,7.96,3.22c5.14,2.2,10.23,4.62,15.12,7.19c5.01,2.63,9.77,5.38,14.55,8.4c4.25,2.69,9.73,6.57,13.82,9.51
				c5.07,3.65,15.28,12.19,21.32,18.22c5.01,5.02,7.3,7.31,11.76,12.38c3.34,3.8,7.56,9.07,10.62,13.11
				c5.84,7.7,11.83,17.38,13.83,21.01c1.21,2.2,2.86,5.1,4.03,7.32c1.16,2.21,2.65,5.19,3.72,7.44c3.95,8.32,6.52,15.24,6.54,15.31
				c2.43,6.58,3.6,9.95,5.32,15.79c1.02,3.47,2.54,8.92,4.06,16.21c0.8,3.86,1.85,9.23,2.79,16.58c0.32,2.51,0.68,5.87,0.91,8.4
				c0.22,2.54,0.41,5.94,0.58,8.49c0.43,6.27,0.29,19.35-0.26,25.57c-0.22,2.52-0.47,5.89-0.75,8.41c-0.27,2.51-0.7,5.86-1.08,8.36
				c-1.03,6.96-2.27,12.79-3.12,16.47c-1.5,6.48-4.42,17.93-10.02,31.74c-2.08,5.13-4.4,10.25-6.88,15.2
				c-2.24,4.47-5.54,10.27-8.05,14.6c-0.03,0.06-3.76,6.38-9.27,14.05c-2.95,4.11-7.18,9.37-10.37,13.3
				c-1.62,1.99-3.88,4.57-5.65,6.43c-1.77,1.86-4.08,4.36-5.89,6.18c-1.79,1.81-4.22,4.17-6.07,5.9
				c-4.25,3.97-8.16,7.35-12.68,10.95c-1.98,1.58-4.66,3.63-6.7,5.13c-1.99,1.46-4.71,3.32-6.73,4.74
				c-4.52,3.18-14.76,9.4-21.81,12.91c-4.33,2.15-10.15,4.93-14.61,6.78c-7.33,3.04-12.05,4.61-15.85,5.87
				c-2.91,0.96-6.84,2.09-9.79,2.91c-2.09,0.58-4.9,1.25-7,1.76c-4.87,1.19-12.63,2.54-12.71,2.55c-13.99,2.33-24.82,2.84-32.7,3.02
				c-4.92,0.11-9.37,0.01-10.84-0.02c-3.96-0.09-11.98-0.4-21.24-1.51c-4.31-0.52-9.7-1.34-13.39-2.05
				c-2.26-0.43-9.12-1.75-15.33-3.46c-2.46-0.68-5.73-1.6-8.16-2.35c-2.24-0.69-5.2-1.67-7.4-2.45c-7.83-2.76-13.69-5.36-15.3-6.09
				c-2.29-1.04-5.34-2.45-7.59-3.56c-2.19-1.08-5.07-2.58-7.21-3.74c-4.95-2.69-9.47-5.38-14.21-8.47
				c-4.81-3.13-8.99-6.09-13.55-9.6c-4.62-3.55-4.62-3.55-12.85-10.7c-4.82-4.19-13.88-13.36-17.93-18.16
				c-1.64-1.94-3.85-4.49-5.45-6.46c-1.6-1.97-3.68-4.64-5.2-6.68c-4.51-6.04-7.89-11.26-9.5-13.83c-1.37-2.19-4.59-7.32-8.34-14.47
				c-2.56-4.89-4.97-9.95-7.15-15.04c-2.17-5.07-4.16-10.31-5.93-15.55c-1.59-4.74-3.38-11.16-4.69-15.99
				c-0.02-0.07-1.87-7.13-3.43-16.4c-0.42-2.49-0.91-5.83-1.23-8.34c-0.32-2.51-0.64-5.88-0.91-8.4c-0.27-2.54-0.46-5.94-0.58-8.48
				c-0.12-2.56-0.17-5.97-0.25-8.53c-0.07-2.56,0.01-5.99,0.09-8.55c0.42-14.04,2.22-28.08,5.36-41.72c2.07-9,4.38-16.05,4.4-16.12
				c1.6-4.73,3.85-10.98,5.63-15.64c0.89-2.34,2.24-5.39,3.29-7.67c1.04-2.28,2.43-5.32,3.59-7.54c2.33-4.43,5.55-10.27,8.05-14.59
				c1.03-1.79,5.31-8.59,9.27-14.05c2.97-4.1,7.18-9.37,10.37-13.3c1.62-1.99,3.95-4.51,5.65-6.43c1.49-1.67,5.76-6.33,13.37-13.39
				c5.03-4.67,11.42-9.84,13.12-11.12c4.03-3.02,9.48-6.94,13.62-9.8c2.13-1.46,5.06-3.26,7.27-4.6c2.25-1.36,5.27-3.15,7.6-4.38
				c4.38-2.3,10.29-5.24,14.76-7.36c2.45-1.16,5.8-2.52,8.32-3.54c2.25-0.9,5.28-2.03,7.55-2.85c2.77-1.01,6.51-2.24,9.33-3.08
				c3.81-1.13,8.92-2.5,12.78-3.45c1.89-0.47,4.42-1.03,6.33-1.4c7.45-1.43,7.45-1.43,11.92-2.1c3.63-0.54,11.07-1.52,20.14-1.99
				C399.71,85.75,406.93,86.03,410.41,86.16z"/>
		</defs>
		<use xlink:href="#SVGID_3_"  style="overflow:visible;fill:#4DB9DA;"/>
		<clipPath id="SVGID_4_">
			<use xlink:href="#SVGID_3_"  style="overflow:visible;"/>
		</clipPath>
	</g>
	<g style="enable-background:new    ;">
		<defs>
			<path id="SVGID_5_" style="enable-background:new    ;" d="M189.04,300.89c-0.16-5.26,0.17-12.28,0.55-17.53
				c0.37-5.17,0.97-12.08,1.95-17.17c0.96-4.97,1.89-11.69,3.26-16.57c1.36-4.83,2.98-11.32,4.52-16.09
				c1.55-4.79,3.91-11.08,5.81-15.74c1.9-4.65,4.57-10.81,7.02-15.19c4.78-8.55,11.62-19.71,17.06-27.86
				c2.77-4.16,7.04-9.3,10.27-13.11c3.29-3.88,7.83-8.94,11.47-12.49c6.93-6.74,16.8-15.06,24.36-21.08
				c4.1-3.27,10.1-6.93,14.46-9.85c3.94-2.64,9.49-5.69,13.71-7.85c5.25-2.69,12.34-6.15,17.82-8.32c4.02-1.59,9.4-3.65,13.49-5.03
				c3.79-1.28,8.93-2.71,12.77-3.83c5.34-1.55,12.63-3.01,18.1-3.98c6.53-1.17,14.67-2.16,21.24-2.6c2.29-0.15,6.11-0.41,11.42-0.48
				c5.03-0.07,8.61,0.07,11.23,0.17c52.49,2.24,94.37,85.24,95.4,194.51c1.1,116.43-44.58,219.27-101.84,229.25
				c57.26-9.98,102.94-112.82,101.84-229.25c-1.03-109.27-42.92-192.27-95.4-194.51c9.51,0.45,20.04,1.76,31.29,3.89
				c10.03,1.9,19.44,4.36,27.96,7.33c10.12,3.52,19.52,7.51,27.94,11.86c4.2,2.17,9.72,5.22,13.76,7.69
				c4.23,2.58,9.81,6.16,13.79,9.13c7.32,5.47,14.89,11.12,24.96,20.98c9.84,9.64,17.16,18.7,21.57,24.6
				c2.49,3.33,10.05,13.46,17.64,27.74c4.65,8.74,9.82,20.95,13.19,30.26c0.55,1.51,5.44,15.29,8.46,32.84
				c1.75,10.19,2.88,23.98,3.1,34.31c0.08,3.62-0.01,8.46-0.23,12.08c-0.31,5.2-0.8,12.13-1.52,17.29
				c-1.4,10.01-4.46,23.16-6.98,32.95c-3.14,12.21-13.2,35.38-19.75,45.75c-2.61,4.14-5.95,9.76-8.73,13.79
				c-2.83,4.11-6.81,9.45-9.95,13.32c-6.93,8.56-14.5,16.57-22.67,23.96c-3.58,3.24-8.51,7.4-12.34,10.36
				c-4.12,3.18-9.85,7.1-14.12,10.08c-4.99,3.49-12.03,7.61-17.5,10.29c-7.93,3.87-18.58,8.99-26.93,11.83
				c-4.82,1.64-11.26,3.77-16.18,5.06c-9.74,2.57-16.1,3.74-19.02,4.21c-2.91,0.47-6.79,1.06-9.7,1.45
				c-0.4,0.05-2.62,0.34-6.63,0.73c-3.35,0.32-8.77,0.74-15.49,0.88c-4.48,0.1-8.19,0.01-9.59-0.02
				c-8.39-0.19-15.51-0.95-21.38-1.68c-2.87-0.35-6.69-0.92-9.54-1.41c-2.93-0.5-6.82-1.27-9.73-1.86
				c-4.09-0.84-9.46-2.33-13.48-3.45c-3.69-1.02-8.55-2.64-12.15-3.95c-4.36-1.6-10.12-3.9-14.37-5.76
				c-4.27-1.87-15.56-7.09-28.04-15.08c-9.28-5.95-18.02-12.52-25.97-19.53c-3.07-2.71-12.42-10.95-22.8-23.35
				c-6.27-7.49-13.57-18.32-18.94-26.48c-2.74-4.17-5.8-10.09-8.04-14.54c-2.22-4.42-4.78-10.5-6.82-15.01
				c-2.08-4.59-4.35-10.94-5.72-15.79c-2.35-8.27-5.45-19.34-6.8-27.83C190.52,325,189.35,311.22,189.04,300.89z"/>
		</defs>
		<clipPath id="SVGID_6_">
			<use xlink:href="#SVGID_5_"  style="overflow:visible;"/>
		</clipPath>
		<path style="clip-path:url(#SVGID_6_);fill:#56BB5F;" d="M441.48,507.03c-0.03,0.01-0.05,0.02-0.08,0.02
			c-0.03,0.01-0.06,0.02-0.08,0.02c-0.03,0.01-0.06,0.02-0.09,0.02c-0.03,0.01-0.06,0.02-0.09,0.02c-0.03,0.01-0.06,0.02-0.09,0.02
			s-0.06,0.02-0.09,0.02c-0.03,0.01-0.06,0.02-0.09,0.02c-0.03,0.01-0.06,0.02-0.09,0.02c1.71-0.32,3.99-0.76,5.7-1.12l6.86-1.62
			C449.41,505.47,445.41,506.11,441.48,507.03"/>
		<path style="clip-path:url(#SVGID_6_);fill:#56BB5F;" d="M589.67,393.25c-5.18,11.2-13.01,28.12-34.93,51.78l0.68-0.71
			c14.04-16.06,14.3-16.36,20.62-25.53c11.47-18.14,11.69-18.48,16.51-28.51c2.18-5.05,5.24-11.72,7.2-16.85
			C596.93,380.31,592.78,386.51,589.67,393.25"/>
		<path style="clip-path:url(#SVGID_6_);fill:#56BB5F;" d="M449.53,93.75c0.5,0.18,0.99,0.36,1.49,0.55
			c21.63,6.39,52.55,17.59,77.02,34.63c-0.01-0.01-0.02-0.02-0.03-0.03l-4.31-3.16c-17.22-11.35-17.89-11.8-28.51-17.17
			c-16.25-7.47-18.34-8.43-31.58-12.77c-3.2-0.94-7.47-2.14-10.7-2.98l-0.15-0.03c-0.63-0.09-0.63-0.09-2.5-0.56
			c-0.01,0-0.02,0-0.03-0.01c-0.01,0-0.02,0-0.03-0.01c-0.01,0-0.02,0-0.03-0.01c-0.01,0-0.02,0-0.03-0.01c-0.01,0-0.02,0-0.03-0.01
			c-0.01,0-0.02,0-0.03-0.01c-0.01,0-0.02,0-0.03-0.01c-0.01,0-0.02,0-0.03-0.01c0.82,0.23,0.82,0.23,1.52,0.54
			c-0.2,0.17-0.2,0.17-4,0.11C448.33,93.31,448.33,93.31,449.53,93.75"/>
		<path style="clip-path:url(#SVGID_6_);fill:#F8FCFA;" d="M444.73,92.21c1.83,0.59,2.94,0.95,5.26,1.85
			c0.17,0.07,0.39,0.18,0.56,0.22c0.15,0.03,0.31,0.01,0.47,0.02c-2.95-1.05-3.39-1.24-3.58-1.43c0.09-0.05,0.11-0.06,0.75-0.01
			c1.52,0.13,3.36,0.23,3.48,0.01c-0.17-0.28-1.26-0.58-1.68-0.69c-2.62-0.43-7.66-0.99-7.7-0.99c-0.13-0.01-0.3-0.02-0.42,0.02
			C442.12,91.36,442.38,91.45,444.73,92.21"/>
		<path style="clip-path:url(#SVGID_6_);fill:#9AD8BE;" d="M452.44,92.69c0.1,0.03,0.23,0.06,0.32,0.09
			c0.05,0.01,0.1,0.02,0.15,0.03l-0.52-0.13C452.4,92.68,452.42,92.69,452.44,92.69"/>
		<path style="clip-path:url(#SVGID_6_);fill:#5BC096;" d="M450.51,92.28c0.69,0.17,1.28,0.32,1.64,0.4c0.2,0.04,0.41,0.06,0.61,0.1
			c-0.12-0.03-0.25-0.07-0.37-0.1l-1.33-0.32c-0.01,0-0.02,0-0.03-0.01c-0.02,0-0.05-0.01-0.07-0.01s-0.05-0.01-0.08-0.01
			c-0.03,0-0.05-0.01-0.08-0.01c-0.03,0-0.05-0.01-0.08-0.01c-0.03,0-0.05-0.01-0.08-0.01c-0.03,0-0.05-0.01-0.08-0.01
			s-0.05-0.01-0.08-0.01c-0.03,0-0.05-0.01-0.08-0.01c-0.03,0-0.05-0.01-0.08-0.01s-0.05-0.01-0.08-0.01
			C450.33,92.24,450.43,92.26,450.51,92.28"/>
		<path style="clip-path:url(#SVGID_6_);fill:#56BB5F;" d="M189.55,284c-0.3,5.34-0.64,22.88,0.94,32.1
			c0.92-1.75,0.92-1.75,1.17-8.03c1.73-42.08,4.93-47.24,13.48-61.03c5.16-8.32,46.24-29.6,46.55-29.66
			c2.15,5.19-17.51,23.6-17.83,23.5c-9.5-3.13-9.5-3.13-15.59,7.6c-1.38,2.44-2.4,10.08,1.35,17.52
			c7.43,14.74,30.01,21.24,32.41,19.56c2.17-1.53,42.75-71.94,42.98-72.52c2.52-6.54,1.77-11.76,1.41-14.27
			c-0.38-2.67-0.86-5.99,0.54-7.2c0.66-0.57,1.69-1.16,2.5-1.48c7.95-3.21,16.8-0.5,24.73-3.78c6.38-2.63,10.89-20.18,15.87-12.17
			c2.32,3.72-4.92,11.5,0.47,11.43c3.7-0.05,4-0.05,13.63-11.62c2.16-8.06,19.1-19.57,23.55-15.98c0.04,0.43,0.09,1.01,0.13,1.44
			c-5.35,6.36-13.56,8.46-19.88,13.39c0.72,0.65,0.72,0.65,3.85,1.65c0.05,0.56,0.12,1.31,0.17,1.87c3.38,7.51,5.43,9.1,12.51,5.17
			c-0.03-0.43-0.07-1.01-0.1-1.44c-7.88-1.61-7.88-1.61-8.71-2.69c1.38-3.23,22.16-18.21,26.83-15.72c4.75,2.54,11.03-0.7,15.21,4
			l20.95,17.62c4.91,1.98,14.57,2.81,19.66,0.91c7.19-2.68,5.43-23.31-12.2-22.76c-13.52,0.42-13.52,0.42-15.51-4.42
			c-2.45-5.94,7.34-5.48,9.78-9.5c-1.87-3.25-4-3.43-10.31-3.96c-2.18-0.18-8.24-1.11-17.57-5.74c-8.31-4.13-10.07-5.94-9.9-10.2
			c0.03-0.76-0.3-2.01-0.98-2.35c-0.03-0.01-2.75-0.86-3.55,1.21c-6.59,17.05-26.78-0.51-26.92-0.83c-0.3-0.64-0.44-1.6-0.63-2.28
			c1.95-3.32,6.71-3.3,8.32-7.02c0.8-1.84-1.67-3.17-3.47-4.15c2.75-6.23,9.35,3.23,9.41,3.35c0.17,0.38,0.03,0.98,0.05,1.4
			c-1.18,1.09-2.52,1.98-3.74,3.02c0.03,0.13,3.91,12.83,12.43,10.01c0.77-9.46,22.88-7.87,15.4-14.41
			c-19.28-16.84-27.69-14.87-44.43-10.94c-8.56,2.01-22.89,5.36-29.93,0.96c-0.73-3.58-0.66-4.2,0.66-5.09
			c-6.58,2.82-15.31,6.7-21.72,9.89c-17.91,10.26-18.61,10.66-28.17,17.7c-16.58,13.3-16.9,13.55-24.87,21.61
			c-14.41,15.74-14.69,16.04-21.23,25.07c-11.9,17.85-12.12,18.19-17.18,28.1c-9.08,19.66-9.25,20.04-12.71,30.69
			c-5.95,21.17-6.07,21.57-7.81,32.83l-1.84,15.85C189.64,282.75,189.58,283.47,189.55,284"/>
		<path style="clip-path:url(#SVGID_6_);fill:#56BB5F;" d="M245.38,306.71c1.81,9.47,5.63,16.22,5.79,16.5
			c0.77,1.35,1.88,3.12,2.69,4.45c10.06,16.37,30.58,23.08,38.41,41.52c5.38,12.69,1.42,28.08,11.4,39.45
			c7.04,8.02,20.5,9.19,23.22,21.8c1.13,5.23,26.47,25.32,26.72,25.49c12.78,8.79,26.28,9.67,28.73,6.8
			c0.26-0.3,18.91-45.82,11.15-63.62c-2.33-5.34-5.22-11.98-4.06-20.14c0.22-1.51,0.62-3.52,1.04-4.99
			c2.91-10.3,13.96-16.34,14.6-27.83c0.31-5.65-6.41-10.61-1.65-16.7l25.19-11.58c14.56-0.97,27.94,5.02,41.99,7.08
			c5.02,0.74,15.46,2.27,33.85-18.45c0.42-8.47,0.6-17.04,0.51-25.7c-0.15-15.49-1.11-30.45-2.82-44.72
			c-19.17-28.13-35.33-45.29-97.86-46.43c-3.02,0.19-7.15,0.46-6.68,6.55c0.33,4.32,0.75,9.69-27.1,17.17
			c-7.68,2.06-12.56-7.16-20.26-5.02c-6.38,1.77-12.02,5.88-18.91,6.05c-0.46,0.01-1.07,0.03-1.53,0.02
			c-11.55-0.2-19.89-0.34-30.19,26.81c-26.15,68.9-41.82,63.72-47.73,61.77c-4.03-1.33-4.11-1.3-6.1-0.59
			C245.42,303.65,245.19,305.43,245.38,306.71"/>
		<path style="clip-path:url(#SVGID_6_);fill:#56BB5F;" d="M277.28,411.41c0.31,0.43,31.48,41.06,33.31,28.25
			c0.28-1.98-2.21-6.74-2.24-6.78c-0.13-0.23-0.32-0.53-0.47-0.75c-2.47-3.65-5.94-6.47-8.42-10.12c-1.72-2.54-1.91-5.82-4-8.17
			c-3.03-3.4-7.8-3.62-11.29-6.19c-3.41-2.51-5.39-6.44-8.83-8.91c-0.76-0.55-1.13-0.57-1.73-0.61
			C269.22,398.9,277.19,411.29,277.28,411.41"/>
		<path style="clip-path:url(#SVGID_6_);fill:#56BB5F;" d="M412.69,135.37c0.83,2.5,13.12,5.76,13.24,5.79
			c0.03,0.01,3.44,0.18,4.48-1.54c0.06-0.1,0.35-0.62,0.24-1.37c-0.23-1.5-2.05-2.83-2.65-3.27c-1.42-1.04-3.37-2.46-3.44-4.01
			c-0.05-1.14,1.02-2.19,1.93-2.87c1.51-1.13,2.44-2.03,1.56-4.07c-0.01-0.03-1.65-2.94-5.69-3.17c-1.65,0-2.58,0.52-2.88,0.96
			c-0.46,0.7-0.54,0.93-0.72,2.25c-0.17,1.28-0.48,3.16-1.17,4.7c-0.93,2.08-2.16,3-2.97,3.61c-0.79,0.59-1.47,1.1-1.84,1.84
			C412.65,134.51,412.56,134.98,412.69,135.37"/>
		<path style="clip-path:url(#SVGID_6_);fill:#56BB5F;" d="M497.06,116.8c2.24,1.54,9.54,3.92,9.61,3.94
			c1.89,0.57,1.69-0.3,1.62-0.58c-0.28-1.18-4.87-4.11-6.34-4.44c-0.7-0.09-1.41,0-2.12-0.06c-0.02-0.01-0.03-0.02-0.05-0.03
			c-0.02-0.01-0.03-0.02-0.05-0.03c-0.02-0.01-0.03-0.02-0.05-0.03c-0.02-0.01-0.03-0.02-0.05-0.03c-0.02-0.01-0.03-0.02-0.05-0.03
			c-0.02-0.01-0.03-0.02-0.05-0.03c-0.02-0.01-0.03-0.02-0.05-0.03c-0.02-0.01-0.03-0.02-0.05-0.03c-3.07-0.47-3.8-0.58-4.08-0.41
			C495.25,115.52,496.76,116.59,497.06,116.8"/>
		<path style="clip-path:url(#SVGID_6_);fill:#4DB9DA;" d="M355.14,174.26c2.28,0.69,4.57,1.38,6.85,2.07
			c0.55-1.72,0.3-1.99-2.21-2.41c-1.59-0.26-1.77-0.61-1.95-0.98c2.31-2.13,5.07-3.41,8.57-5.03c4.9-2.27,8.59-4.89,10.96-7.78
			c1.96-2.39-1.43-3.3-1.86-3.32c-0.06,0-0.14,0-0.2,0c-0.54,0.07-1.2,0.16-2,0.64c-1.52,0.91-2.83,2.1-4.34,3.04
			c-2.84,1.76-5.85,3.22-8.67,5.02c-0.7,0.45-1.57,1.13-2.21,1.65c-3.09,2.51-3.61,5.2-3.92,6.8
			C354.47,174.05,354.85,174.17,355.14,174.26"/>
		<path style="clip-path:url(#SVGID_6_);fill:#56BB5F;" d="M432.8,136.51c2.43,5.91,13.27,9.81,14.28,6.32
			c0.85-2.95-6.01-8.46-10.64-8.55C435.19,134.29,431.88,134.29,432.8,136.51"/>
	</g>
	<g style="enable-background:new    ;">
		<defs>
			<path id="SVGID_7_" style="enable-background:new    ;" d="M392.03,510.79c-2.27-0.11-5.3-0.3-7.57-0.49
				c-2.63-0.23-6.14-0.58-8.76-0.91c-6.93-0.89-11.51-1.58-19.22-3.16c-2.83-0.58-6.71-1.38-18.2-4.76
				c-3.69-1.09-8.49-2.89-12.11-4.17c-6.94-2.46-15.96-6.49-22.42-10.03c-4.75-2.6-11.07-6.12-15.66-9
				c-4.07-2.54-9.38-6.14-13.19-9.05c-4.06-3.1-9.4-7.33-13.25-10.69c-3.66-3.18-8.36-7.63-11.76-11.09
				c-4.45-4.52-12.7-13.31-21.21-25.19c-4.44-6.2-10.87-15.82-17.1-28.22c-2.25-4.48-5.03-10.57-6.93-15.21
				c-1.88-4.61-4.03-10.91-5.67-15.61c-1.32-3.79-4.72-14.61-7.66-32.98c-1.39-8.72-2.32-20.5-2.3-29.33
				c0.02-10.34,0.9-24.15,2.45-34.36c0.77-5.06,2.09-11.76,3.27-16.73c1.16-4.88,3.15-11.27,4.51-16.09
				c1.36-4.84,3.69-11.15,5.79-15.71c2.06-4.49,4.65-10.55,6.89-14.96c2.26-4.43,5.34-10.33,8.08-14.47
				c2.7-4.08,6.17-9.62,9.03-13.59c2.9-4.02,6.97-9.23,10.17-13.01c9.19-10.88,17.73-18.75,22.96-23.32
				c13.89-12.11,26.04-19.45,26.16-19.51c4.52-2.66,10.43-6.44,15.14-8.75c7.78-3.82,18.27-8.76,26.44-11.66
				c9.03-3.21,11.86-4.05,23.18-6.92c2.69-0.68,6.32-1.42,9.05-1.95c2.53-0.49,5.91-1.05,8.45-1.45c4.41-0.69,8.84-1.13,11.48-1.4
				c0.8-0.08,3.8-0.37,8.61-0.63c2.64-0.14,5.78-0.22,6.21-0.22c0.95,0,1.9-0.03,2.85-0.04c1.66-0.01,2.79,0,2.92,0
				c2.74,0.03,4.54,0.08,6.88,0.18c-3.44-0.15-6.92,0.05-10.44,0.61c3.52-0.56,7-0.76,10.44-0.61c0,0,0,0,0,0
				c2.54,0.15,5.92,0.39,8.45,0.6c1.46,0.12,3.4,0.34,4.85,0.51c7.38,0.89,10.9,1.51,16.23,2.44c3.47,0.61,8.06,1.57,11.48,2.4
				c1.72,0.42,4.01,0.97,5.72,1.43c2.2,0.6,5.15,1.37,7.3,2.11c4.04,1.4,9.47,3.12,13.43,4.72c5.52,2.23,12.81,5.4,18.14,8.05
				c4.23,2.11,9.77,5.13,13.82,7.57c4.51,2.72,10.47,6.45,14.69,9.6c8.57,6.4,15.34,11.45,25.28,21.14
				c7.88,7.68,15.18,15.98,21.7,24.67c10.03,13.36,15.81,24.21,17.71,27.77c4.66,8.74,9.84,20.94,13.22,30.25
				c0.55,1.51,5.45,15.24,8.5,32.87c1.76,10.18,2.89,23.97,3.13,34.3c0.19,8.35-0.55,20.92-1.72,29.37
				c-1.39,10.01-4.46,23.17-6.95,32.96c-1.24,4.88-3.42,11.26-5.41,15.88c-1.96,4.54-4.39,10.68-6.53,15.14
				c-2.15,4.49-5.09,10.46-7.74,14.67c-2.6,4.15-5.94,9.77-8.71,13.8c-2.8,4.08-6.75,9.38-9.86,13.24
				c-8.91,11.06-17.26,19.11-22.41,23.81c-3.72,3.39-8.75,7.86-12.83,10.81c-7.7,5.56-18.24,12.62-26.38,17.52
				c-4.17,2.51-10.02,5.38-14.46,7.4c-5.22,2.38-12.31,5.31-17.7,7.27c-5.57,2.02-13.14,4.33-18.89,5.77
				c-7.64,1.92-13.71,3.15-20.96,4.25c-6.59,1-13.51,1.69-20.56,2.07c-3.27,0.17-6.42,0.24-6.61,0.24c-1.02,0-2.05,0.04-3.07,0.04
				c-1.68,0.01-3.12,0-3.13,0C395.45,510.93,393.09,510.84,392.03,510.79z"/>
		</defs>
		<clipPath id="SVGID_8_">
			<use xlink:href="#SVGID_7_"  style="overflow:visible;"/>
		</clipPath>
		<path style="clip-path:url(#SVGID_8_);fill:#56BB5F;" d="M592.54,390.27c-10.22,19.35-10.22,19.35-16.51,28.51
			c-12.99,17.43-12.99,17.43-20.62,25.53l-0.68,0.71c-36.2,36.64-75.12,52.55-101.41,59.44l-6.86,1.62
			c54.12-12.72,84.65-60.6,84.94-61.08c1.73-2.83,2.77-5.61,3.1-8.27c0.85-6.74-5.9-10.46-6.6-16.59
			c-0.75-6.64-2.07-12.94-2.09-12.99c-3.77-16.66,0.97-26.4,12.33-40.7c3.36-4.23,8.43-10.61,5.6-19.73
			c-3.52-11.37,22.59-24.5,22.88-24.56c0.43-0.02,1.01-0.11,1.43-0.05c4.82,0.66,7.83,5.56,12.95,5.53
			c3.36-0.02,7.07-6.11,9.58-2.21c2.74,4.24-0.2,9.75,3.11,13.87c2.05,2.55,6.17,3.01,6.9,6.88c0.77,4.05-0.84,27.12-0.88,27.23
			C597.6,378.48,595,385.36,592.54,390.27"/>
		<path style="clip-path:url(#SVGID_8_);fill:#56BB5F;" d="M463.6,95.79c16.82,5.91,18.98,6.67,31.58,12.77
			c18.07,9.9,18.77,10.28,28.51,17.17l4.31,3.16c-21.02-15.33-40.72-24.61-46.14-25.96c0,0.12,0.01,0.27,0.02,0.39
			c-1.38,0.02-7.01-2.48-8.19-3.18c-0.06-0.04-7.11-3.86-19.85-7.13c-0.31-0.07-0.62-0.13-0.93-0.19
			C456.13,93.66,460.43,94.77,463.6,95.79"/>
		<path style="clip-path:url(#SVGID_8_);fill:#9AD8BE;" d="M451.79,92.52c0.2,0.05,0.4,0.11,0.6,0.16l0.52,0.13
			c0.31,0.06,0.62,0.13,0.93,0.19c-0.43-0.11-0.85-0.23-1.28-0.34c-0.02,0-0.04-0.01-0.06-0.01c-0.02,0-0.04-0.01-0.06-0.01
			c-0.02,0-0.04-0.01-0.07-0.01c-0.02,0-0.04-0.01-0.07-0.01s-0.04-0.01-0.07-0.01c-0.02,0-0.04-0.01-0.07-0.01
			c-0.02,0-0.04-0.01-0.07-0.01s-0.05-0.01-0.07-0.01c-0.02,0-0.05-0.01-0.07-0.01s-0.05-0.01-0.07-0.01
			c-0.02,0-0.05-0.01-0.07-0.01c-0.02,0-0.05-0.01-0.07-0.01c-0.02,0-0.05-0.01-0.07-0.01s-0.05-0.01-0.07-0.01
			c-0.02,0-0.05-0.01-0.07-0.01c-0.02,0-0.05-0.01-0.07-0.01C451.56,92.46,451.69,92.5,451.79,92.52"/>
		<path style="clip-path:url(#SVGID_8_);fill:#5BC096;" d="M452.39,92.68c-0.31-0.08-0.61-0.16-0.92-0.24
			c-0.02,0-0.05-0.01-0.07-0.01s-0.05-0.01-0.07-0.01c-0.02,0-0.05-0.01-0.07-0.01c-0.02,0-0.05-0.01-0.07-0.01
			s-0.05-0.01-0.07-0.01l-0.04-0.01L452.39,92.68"/>
		<path style="clip-path:url(#SVGID_8_);fill:#56BB5F;" d="M372.12,131.78c-5.11,6.02-11.35-5.11-16.74,0.57
			c0.06,0.42,0.14,0.98,0.2,1.4c2.24,0.88,2.24,0.88,3.64,2.82c-25.33,5.76-23.26,12.57-22.37,15.47
			c3.11,10.19-4.56,16.45-6.87,15.72c-0.17-0.05-11.5-13.09-6.44-20.3c3.46-4.91,8.19-11.64-1.11-9.74
			c-4.19,0.86-5.22,6.94-10.34,6.25c-11.85-1.61-11.85-1.61-14.71-0.28c-1.23,0.57-7.44,3.74-8.61,9.69
			c1.47,1.87,1.47,1.87,4.22,2.32c0.17,0.01,0.17,0.01,0.18,0.01c0,0,0.01,0,0.01,0c0,0,0.01,0,0.01,0c0,0,0.01,0,0.01,0
			s0.01,0,0.01,0s0.01,0,0.01,0c0,0,0.01,0,0.01,0c0,0,0.01,0,0.01,0c7.87,1.23,11.48,21.46,6.75,28.05
			c-3.99-8.63-3.99-8.63-4.38-8.95c-0.93,0.23-2.2,0.7-2.91,1.35c-4.11,3.83-5.66,9.43-9.39,13.52c-3.96,4.34-10.62,4.74-14.13,9.73
			c-4.14,5.89-2.69,9.72-0.54,13.77c3.67,6.91-1.99,10.01-2.05,10.03c-1.2,0.42-5.2,1.07-6.31-7.95c-1.23-10-1.23-10-1.99-10.94
			c-2.03-2.51-4.55,1-6.83,0.02c-0.05-0.89-0.12-2.09-0.17-2.98c-0.41-0.1-0.96-0.24-1.37-0.34c-7.08,5.31-1.83,8.1,2,10.15
			c-7.3,14.63,0.38,31.89-8.15,46.3c-11.94,20.15-20.79,18.56-29.36,17.02c-14.91,16.8,18.82,40.04-2.6,52.48
			c-6.98-3.94-3.62-12.26-7.43-17.53c-0.42,0.05-0.98,0.12-1.4,0.18c-2.97,4.97-3.25,9.12,6.06,30.61
			c6.09,14.05,5.65,15.08,4.99,16.63c-0.13-0.04-13.3-14.64-14.24-44.28c-0.55-17.06-2.21-19.06-2.83-19.81
			c-0.38,0.1-0.89,0.22-1.27,0.32c-4.23-9.47,3.26-19.69-1.88-29.1c-2.53,3.36-3.72,13.85-4.12,18.21l1.84-15.85
			c4.32-22.07,4.32-22.07,7.81-32.83c7.64-20.73,7.64-20.73,12.71-30.69c10.67-19.09,10.67-19.09,17.18-28.1
			c13.4-17.13,13.4-17.13,21.23-25.07c15.5-14.56,15.79-14.84,24.87-21.61c17.03-11.69,17.69-12.15,28.17-17.7
			c6.45-3.11,15.11-7.14,21.72-9.89l-0.19,0.08c-9.12,4.01-10.94,5.17-12.54,6.19c0.25,0.31,0.57,0.72,0.82,1.03
			c-0.76,1.34-1.9,2.43-2.58,3.82c0.51,0.24,0.51,0.24,7.06-0.16c2.47,4.28,2.91,5.05,19.25,7.39
			c19.18,2.75,35.34,11.79,35.43,11.87C372.34,131.02,372.28,131.48,372.12,131.78"/>
		<path style="clip-path:url(#SVGID_8_);fill:#56BB5F;" d="M514.94,122.47c5.08,3.44,9.85,8.96,11.19,10.57
			c-0.22,0.31-0.51,0.72-0.73,1.03c-3.4-1.23-13.14-5.45-13.15-5.46c0.29-0.7,0.59-1.66,0.77-2.4c-2.87-4.63-10.56-7.27-10.63-7.29
			c-0.3,0.19-0.7,0.43-1,0.62c3.38,5.28,7.09,9.49,9,11.53c0.03,0.36,0.07,0.84,0.11,1.2c-0.71,0.28-1.69,0.57-2.43,0.73
			c-0.18,0.28-0.42,0.66-0.6,0.94c-8.33,2.74-9.6,11.77,0.53,17.24c4.31,2.33,9.45,1.5,13.83,3.59c4.77,2.27,3.18,10.92,10.14,10.74
			c0.19-12.4-10.4-19.93-13.87-30.68c0.24-0.27,0.55-0.63,0.79-0.9c6.34,0.65,9.7,6.2,14.76,8.96c0.06-0.74,0.06-0.74-0.72-3.69
			c5.39,2.06,31.34,26.19,35.71,35.15c-0.28,0.24-0.66,0.55-0.94,0.79c-5.14-0.96-5.47-10.88-11.63-8.22
			c-1.33,4.03,2.82,10.73,7.03,13.19c8.34,4.87,5.4,11.17,1.85,10.84c-2.1-0.2-4.59-3.23-6.27-0.77l-7.14,20.49
			c-3.35,20.46-3.35,20.46-3.66,20.79c-7.12,7.74-10.07,10.94-6.42,24.66c4.38,16.46-3.91,10.07-4.59,8.81
			c-8.65-16.12-8.65-16.12-14.89-15.42c-0.21,0.02-22.7,3.4-28.65,6.68c-3.69,2.03-8.02,8.24-10.3,14.76
			c-7.97,22.81,6.71,33.85,16.77,29.17c6.54-3.04,6.99-11.73,13.61-14.68c1.77-0.79,7.15,1.08,6.12,5.88
			c-1.27,5.9-9.1,10.07-4.81,17.43c3.55,6.08,15.33-1.21,15.62,6.82c0.23,6.39-5.42,12.18-1.95,18.91
			c2.05,3.97,11.67,3.93,8.88,9.32c-1.88,3.63-14.5-4.13-17.32-8.16c-9.33-13.35-11.55-16.52-30.81-22.08
			c-33.02-9.53-33.02-9.53-33.55-9.89c-3.81-2.59-5.21-4.95-5.74-5.84c-2.85-4.82,0.08-10.57-2.52-15.43
			c-5.05-9.43-14.11-15.8-19.23-25.17c-1.12-2.06-1.62-5.23-2.02-7.54c-1.2,3.73-1.2,3.73,8.11,33.3
			c-4.82-2.76-9.81-5.62-13.05-11.57c-0.53-0.98-1.23-2.31-1.64-3.35c-2.83-7.12-2.6-15.01-5.53-22.11
			c-2.98-7.23-9.77-12.39-11.1-20.51c-1.26-7.68,0.75-10.6,16.4-33.25c2.19-3.17,2.22-4.33,2.24-5.35l-1.58-22.53
			c-1.34-8.12-4.78-11.53-7.42-12.96c-8.31-4.5-8.31-4.5-53.93,8.01c-0.25-0.28-0.59-0.65-0.84-0.93c1.15-1.27,2.81-2.04,3.55-3.69
			c-3.54-5.5-3.54-5.5,15.77-14.24c-0.03-0.78-0.03-0.78-1.65-3.97c0.07-0.08,26.14-11.7,29.63-12.3
			c12.32-2.12,24.5,1.64,36.79,0.86c14.91-0.94,29.72,3.05,44.65,0.87c5.53-0.81,3.97-3.05,0.87-7.51c0.31-0.24,0.73-0.56,1.04-0.81
			c2.59,1.09,4.84,2.9,7.65,3.52c-2.32-3.31-6.19-5.18-8.18-8.81c0.19-0.22,0.43-0.51,0.62-0.73
			C496.86,111.48,511.71,120.28,514.94,122.47"/>
		<path style="clip-path:url(#SVGID_8_);fill:#56BB5F;" d="M365.35,468.84c0.23,3.99-8.52,22.59-13.61,23.26
			c-1.12,0.15-4.08,0.54-9.1-0.7c-1.65-0.41-1.65-0.41-14.1-7.53c-7.45-4.26-13.34-7.62-18.09-7.08c-3.57,0.41-4.81,4.72-8.44,5.03
			c-1.35,0.12-4.84-1.72-7.04-3.72c-27.16-24.62-27.16-24.62-28.43-28.35c-1.51-4.42,4.2-5.13,5.59-8.18
			c1.57-3.43-0.12-7.36,1.66-10.75c0.77-1.47,1.77-2.5,4.13-2.75c2.23-0.24,4.31,0.94,6.54,0.7c0.35-0.04,1.4-0.15,2.27-1.65
			c3.87-6.63,3.87-6.63,9.27-6.61c0.3,0.03,0.71,0.06,1.01,0.09c0.13,0.01,12.4,1.88,10.99,7.33c-1.83,7.08,9.33,11.25,9.45,11.29
			c7,2.56,6.78-4.1,6.61-8.96c-0.18-5.25-0.33-9.77,4.24-6.59c0.99,0.69,1.08,0.81,2.29,2.28c4.41,5.37,7.45,11.69,11.79,17.11
			c5.94,7.41,12.07,12.11,15.74,14.92C362.9,461.66,365.13,465.01,365.35,468.84"/>
		<path style="clip-path:url(#SVGID_8_);fill:#56BB5F;" d="M354.84,413.98c-0.24,0.84-1.08,1.76-3.68,1.4
			c-6.74-0.94-10.19-4.25-12.05-6.03c-1.45-1.39-4.15-3.98-7.84-3.45c-1.62,0.23-2.78,0.93-3.63,1.44
			c-1.09,0.66-4.43,2.66-10.78,1.37c-9.24-1.87-9.91-3.52-10.32-4.5c-0.64-1.56,0.46-3.24-0.33-4.79c-0.95-1.88-1.93-3.82-4.91-5.56
			c-5.24-3.06-11.98-2.5-16.65-6.93c-0.12-0.11-10.85-11.42-2.39-11.49c5.89,0.75,7.61,8.92,14.39,8.08c4.26-0.52,8.22-3,12.72-1.97
			c0.35,0.08,0.82,0.22,1.16,0.32c4,1.25,16.83,7.24,18.8,8.29c11.8,6.27,14.29,11.06,16.92,16.14c1.65,3.18,5.39,3.54,7.76,5.75
			C354.37,412.38,355.1,413.07,354.84,413.98"/>
		<path style="clip-path:url(#SVGID_8_);fill:#56BB5F;" d="M238.35,348.88c-0.38,1.3-1.7,2.21-1.54,3.74c0.08,0.72,0.69,1.55,1,2.2
			c0.3,0.63,1.8,4.01,1.86,8.67c0,0.17-0.89,18.15-1.23,18.64c-1.64,2.38-11.09-0.47-16.05-10.04c-0.8-1.54-4.72-9.45-3.42-13.93
			c1.07-3.7,4.73-5.17,6.85-7.97c2.16-2.86,2.5-6.58,4.54-9.5c0.57-0.81,0.83-0.83,1.39-0.86C232.46,340,239.6,344.65,238.35,348.88
			"/>
		<path style="clip-path:url(#SVGID_8_);fill:#56BB5F;" d="M248.43,407.07c-10.76-1-18.72-5.53-26.6-15.17
			c-6.96-8.51-24.18-41.44-23.16-45.64c0.1-0.04,0.23-0.1,0.32-0.15c0.43,0.29,0.92,0.84,1.25,1.26
			c0.3,0.37,17.58,29.37,17.73,29.63c2.79,4.91,4.26,8.19,5.96,11.99c1.07,2.39,2.08,3.85,2.47,4.37c2.47,3.3,4.22,3.76,8.47,4.87
			c6.43,1.69,8.83,2.32,13.77,8.86C248.59,407.09,248.5,407.08,248.43,407.07"/>
		<path style="clip-path:url(#SVGID_8_);fill:#56BB5F;" d="M296.4,227.84c-1.34,2.77-4.07,4.21-6.07,5.25
			c-4,2.1-8.5,2.82-12.64,4.55c-4.57,1.91-5.33,3.13-6.13,4.41c-0.7,1.13-1.31,2.11-2.06,2.41c-1.69,0.68-3.81-2.21-4.31-4.04
			c-0.82-2.97,0.64-6.89,3.64-9.76c4.53-4.33,11.09-5.05,15.87-8.92c7.06-5.71,6.33-10.01,5.23-16.51
			c-1.4-8.23-0.03-10.59,0.03-10.68c0.83-1.36,1.95-2.25,4.67-2.19c4.92,0.76,9.42,5.57,9.45,6.28c0.03,0.59,0.09,1.82-2.39,3.81
			c-1.97,1.58-3.82,3.06-4.63,5.96c-1.67,6,1.44,12.04-0.14,18.04C296.82,226.88,296.59,227.44,296.4,227.84"/>
		<path style="clip-path:url(#SVGID_8_);fill:#56BB5F;" d="M386.56,501.76c0.07,0.34,0.07,0.34-1.49,1.9
			c-1.3,1.3-3.39,1.46-4.46,3.09c-0.4,0.61-0.41,1.42-0.98,1.95c-0.02,0.02-0.05,0.05-0.08,0.06c-0.73,0.4-3.85-0.57-4.22-0.8
			c-0.06-0.04-0.13-0.11-0.19-0.16c0-0.04-0.01-0.1-0.01-0.14c0.16-0.15,0.17-0.15,0.56-0.28c0.52-0.17,0.84-0.38,1.22-1.09
			c0.7-1.29,1.05-1.93,2.21-2.65c1.32-0.81,2.57-1.58-0.03-4.3c-1.28-1.34-1.58-1.66-0.71-2.36c0.31,0.17,0.73,0.4,1.04,0.58
			c1.25,0.73,2.27,1.78,3.52,2.51c1.37,0.81,1.5,0.85,3.16,1.33C386.22,501.43,386.51,501.51,386.56,501.76"/>
		<path style="clip-path:url(#SVGID_8_);fill:#56BB5F;" d="M261.51,366.17c-0.19,3.06-1.91,5.81-1.87,8.92
			c0.02,1.35,0.26,2.32,0.84,4.67c1.37,5.56,1.14,6.77,0.62,7.97c-0.65,1.52-7.55,3.01-9.24,0.94c-1.31-1.6-6.22-14.84-4.93-20.49
			c0.42-1.85,4.82-5.12,10.74-4.91C260.83,363.61,261.56,365.32,261.51,366.17"/>
		<path style="clip-path:url(#SVGID_8_);fill:#56BB5F;" d="M559.31,289.65c-6.18,1.9-7.62,0.86-12.35-2.61
			c-7.84-5.74-8.87-5.53-18.67-3.52c1.34-4.14,3.3-5.76,7.78-6.42c4.5-0.18,13.58,1.19,23.78,12.38
			C559.69,289.53,559.47,289.6,559.31,289.65"/>
		<path style="clip-path:url(#SVGID_8_);fill:#56BB5F;" d="M240.73,296.39c-0.25,2.61-1.58,4.96-1.81,7.57
			c-0.18,2.04,0.31,3.11,0.78,4.14c-0.72,0.73-1.21,1.24-1.9,1.96c-2.04-1.44-4.17-3.56-4.52-8.46c-0.01-0.11-0.29-10.7,3.1-11.48
			c0.23-0.05,0.55-0.03,0.79-0.04C238.71,290.29,241.22,291.38,240.73,296.39"/>
		<path style="clip-path:url(#SVGID_8_);fill:#56BB5F;" d="M574.53,293.84c-0.45,2.42-4.71,3.46-4.89,3.5
			c-2.73,0.65-4.56,0.44-9.45-0.1c2.67-6.02,4.53-8.24,7.36-8.8C569.89,288.27,575.2,290.23,574.53,293.84"/>
		<path style="clip-path:url(#SVGID_8_);fill:#56BB5F;" d="M247.82,314.3c-0.26,2.77-3.42,1.47-3.56,1.42
			c-2.78-1.17-4.18-3.92-6.47-5.65c0.68-0.72,1.18-1.23,1.9-1.96c2.83,0.82,4.12,1.19,5.55,2.28
			C246.76,311.55,247.89,313.59,247.82,314.3"/>
		<path style="clip-path:url(#SVGID_8_);fill:#56BB5F;" d="M358.32,159.53c-1.3,0.82-2.58,1.22-3.19,1.41
			c-2.41,0.75-4.91,1.16-7.34,1.87c3.09-3.19,5.09-3.74,9.47-4.94c0.44,0.49,0.88,0.99,1.33,1.48
			C358.51,159.41,358.4,159.48,358.32,159.53"/>
		<path style="clip-path:url(#SVGID_8_);fill:#89D1B3;" d="M512.5,132.61c0.39,0.6,0.39,0.6-5.04,1.34
			c0.02-0.76,0.34-0.99,1.72-1.21c1.46-0.23,1.69-0.56,1.2-1.67C511.27,131.6,512.2,132.15,512.5,132.61"/>
	</g>
</g>
<g id="face">
	<path id="smile_1_" style="fill:none;stroke:#5F5930;stroke-width:5;stroke-miterlimit:10;" d="M382.06,335.03
		c5.07,28.11,57.13,30.92,68,0"/>
	<g id="left_eye_1_">
		<circle style="fill:#5F5930;" cx="333.19" cy="251.3" r="21.25"/>
		<circle style="fill:#FFFFFF;" cx="345.94" cy="262.35" r="4.25"/>
		<circle style="fill:#FFFFFF;" cx="328.94" cy="242.8" r="8.5"/>
	</g>
	<g id="right_eye_1_">
		<circle style="fill:#5F5930;" cx="477.69" cy="251.3" r="21.25"/>
		<circle style="fill:#FFFFFF;" cx="488.73" cy="262.35" r="4.25"/>
		<circle style="fill:#FFFFFF;" cx="471.74" cy="242.8" r="8.5"/>
	</g>
</g>
<g id="ring">
	<path id="greenRing" style="fill:none;stroke:#56BB5F;stroke-width:8;stroke-miterlimit:10;" d="M401.61,528.83
		c-61.3,0-118.93-23.87-162.28-67.22c-43.35-43.35-67.22-100.98-67.22-162.28c0-61.3,23.87-118.93,67.22-162.28
		c43.35-43.35,100.98-67.22,162.28-67.22c61.3,0,118.93,23.87,162.28,67.22c43.35,43.35,67.22,100.98,67.22,162.28
		c0,61.3-23.87,118.93-67.22,162.28C520.54,504.95,462.91,528.83,401.61,528.83z"/>
</g>
<g id="leaf1">
	<g id="leaf4_1_">
		<g>
			<path style="fill:#38A53D;" d="M177.06,291.76c-0.05,0.47-0.11,0.95-0.16,1.42c-0.66,2.25-1.06,4.59-1.99,6.76
				c-0.19,1.62-1.17,2.83-1.97,4.14c-0.16,0.22-0.28,0.47-0.4,0.71c-0.55,0.88-1.24,1.64-1.84,2.47c-0.76,0.68-1.42,1.45-2.05,2.25
				c-0.43,0.39-0.87,0.78-1.34,1.13c-0.86,0.58-1.48,1.5-2.43,1.97c-0.58,0.46-1.17,0.9-1.82,1.25c-0.73,0.32-1.31,0.9-2,1.29
				c-2.42,1.27-4.83,2.55-7.41,3.45c-1.05,0.33-2.09,0.68-3.12,1.08c-0.1,0.04-0.21,0.07-0.32,0.1c-1.18,0.35-2.35,0.71-3.54,1.05
				c-1.12,0.45-2.29,0.67-3.45,0.98c-1.36,0.29-2.71,0.68-4.11,0.82c-1.16,0.02-2.24,0.57-3.41,0.6c-1.02,0.2-2.03,0.41-3.06,0.49
				c-1.43,0.28-2.88,0.38-4.32,0.56c-2.08,0.32-4.16,0.6-6.27,0.67c-1.31-0.06-2.59,0.32-3.89,0.29c-1.04,0.16-2.08,0.27-3.14,0.27
				c-1.44-0.07-2.87,0.27-4.31,0.25c-1.05,0.17-2.1,0.25-3.16,0.29c-1.61,0.12-3.22,0.16-4.81,0.45c-0.44,0.08-0.84,0.02-1.21-0.24
				c-0.1-0.09-0.14-0.2-0.12-0.33c1.09-0.95,2.53-0.89,3.77-1.39c0.97-0.21,1.93-0.48,2.85-0.89c0.49-0.25,1.03-0.36,1.54-0.56
				c0.58-0.13,1.13-0.35,1.68-0.6c1.33-0.51,2.65-1.09,3.99-1.58c1.26-0.56,2.54-1.07,3.81-1.6c1.17-0.4,2.25-1.04,3.38-1.53
				c0.42-0.23,0.87-0.39,1.27-0.64c0.88-0.47,1.74-0.98,2.62-1.44c0.89-0.56,1.83-1.02,2.7-1.61c0.3-0.21,0.66-0.29,0.96-0.51
				c1.25-0.8,2.51-1.58,3.75-2.41c1.29-0.72,2.43-1.67,3.66-2.5c0.36-0.19,0.71-0.41,1.01-0.7c0.9-0.7,1.87-1.3,2.69-2.11
				c0.47-0.44,1.03-0.72,1.53-1.11c2.01-1.77,4.15-3.39,5.99-5.37c0.49-0.29,0.88-0.72,1.28-1.12c0.75-0.73,1.43-1.53,2.26-2.17
				c0.5-0.39,0.86-0.9,1.24-1.4c2.11-2.25,4.19-4.53,6.17-6.9c0.1-0.13,0.2-0.25,0.31-0.37c0.71-0.79,1.34-1.66,2.06-2.44
				c0.6-0.72,1.12-1.51,1.78-2.18c0.37-0.45,0.72-0.91,1.08-1.38c0.73-1.06,1.57-2.03,2.28-3.11c0.28-0.39,0.6-0.76,0.87-1.16
				c0.5-0.79,1.18-1.43,1.59-2.29c1.29-1.78,2.54-3.6,3.81-5.4c0.25-0.35,0.5-0.79,0.99-0.69c0.43,0.08,0.52,0.55,0.64,0.92
				c0.59,1.89,1.06,3.8,1.45,5.74c0.25,1.45,0.51,2.89,0.75,4.34c0.22,1.37,0.54,2.74,0.22,4.14c0,1.26,0.01,2.52,0.01,3.79
				C177.3,289.06,177.18,290.41,177.06,291.76z"/>
			<path style="fill:#56BB5F;" d="M126.41,313.76c-0.08,0-0.14,0.02-0.2,0.07c-1.13,0.59-2.27,1.18-3.4,1.78
				c-0.75,0.73-1.6,1.21-2.65,1.26c-0.34,0.18-0.68,0.36-1.02,0.55c-1.27,0.55-2.53,1.1-3.8,1.65c-0.44,0.56-1.08,0.64-1.71,0.74
				c-1.04,0.4-2.07,0.8-3.11,1.19c-0.69,0.1-1.32,0.4-1.93,0.74c-0.97,0.52-1.93,1.06-3.07,1c-0.31,0.16-0.71,0.03-0.97,0.32
				c-1.19,0.37-2.38,0.75-3.57,1.12c-0.4,0.12-0.84,0.08-1.19,0.36c-0.22,0.13-0.42,0.3-0.7,0.21c-0.4-0.04-0.76,0.27-1.17,0.1
				c0.29-0.81,1.2-1.07,1.54-1.84c0.97-0.93,1.86-1.93,2.59-3.08c0.86-1.45,1.97-2.71,2.94-4.08c0.21-0.25,0.4-0.51,0.59-0.77
				c0.78-1.11,1.56-2.21,2.33-3.32c0.41-0.63,0.78-1.28,1.32-1.8c0.41-0.49,0.68-1.1,1.08-1.6c0.67-0.84,1.15-1.83,1.85-2.65
				c0.47-0.58,0.89-1.2,1.31-1.82c0.26-0.41,0.5-0.84,0.84-1.19c1.78-2.37,3.44-4.83,5.22-7.2c0.1-0.13,0.2-0.24,0.31-0.36
				c0.2-0.23,0.38-0.48,0.57-0.72c0.35-0.44,0.68-0.88,1.02-1.32c0.29-0.36,0.58-0.73,0.82-1.12c0.67-1.17,1.71-2.03,2.48-3.13
				c0.37-0.45,0.72-0.92,1.12-1.34c0.51-0.6,1.05-1.17,1.51-1.81c0.8-0.84,1.57-1.73,2.34-2.6c0.28-0.31,0.54-0.66,0.86-0.94
				c1.03-0.99,1.95-2.11,3.02-3.05c1.07-1.02,2.09-2.11,3.25-3.02c0.2-0.17,0.4-0.34,0.6-0.52c1.33-1.16,2.75-2.19,4.18-3.22
				c0.95-0.69,1.95-1.3,2.93-1.93c0.68-0.39,1.32-0.87,2.05-1.17c0.5-0.2,0.97-0.46,1.44-0.71c1.09-0.47,2.19-0.89,3.27-1.37
				c2.68-0.95,5.44-1.49,8.26-1.7c0.85,0.06,1.7-0.14,2.54-0.04c1.21,0.09,2.43,0.13,3.62,0.39c0.47,0.2,0.96,0.3,1.47,0.34
				c0.18,0.03,0.36,0.07,0.53,0.14c0.38,0.19,0.8,0.21,1.21,0.32c0.94,0.42,2.01,0.47,2.86,1.12c0.25,1.09-0.34,1.79-1.09,2.41
				c-1.71,2.56-3.43,5.11-5.14,7.67c-0.29,0.36-0.31,0.91-0.8,1.11c-0.24,0.3-0.48,0.61-0.71,0.91c-0.11,0.72-0.49,1.24-1.13,1.56
				c-0.68,0.9-1.35,1.79-2.03,2.69c-0.35,0.45-0.7,0.9-1.05,1.35c-0.73,0.88-1.45,1.77-2.18,2.65c-0.75,0.66-1.36,1.44-1.96,2.24
				c-0.1,0.46-0.39,0.73-0.8,0.89c-3.44,3.61-6.94,7.16-10.77,10.34c-1.05,0.87-2.1,1.73-3.15,2.6c-1.29,0.97-2.58,1.94-3.88,2.91
				c-0.03,0.21-0.15,0.31-0.35,0.31c-1.15,0.54-2.13,1.36-3.17,2.08c-0.43,0.65-1.06,0.99-1.78,1.18c-0.7,0.26-1.32,0.67-1.92,1.12
				c-0.45,0.2-0.91,0.39-1.27,0.75c-0.32,0.3-0.71,0.47-1.1,0.64C127.2,313.49,126.63,313.28,126.41,313.76z"/>
		</g>
		<g>
			<path style="fill:#38A53D;" d="M174.4,246.18c0.01-0.36,0.02-0.73,0.03-1.09c-0.25-1.77-0.29-3.58-0.75-5.32
				c0.04-1.24-0.57-2.27-1.03-3.34c-0.1-0.18-0.16-0.38-0.22-0.58c-0.32-0.72-0.76-1.37-1.12-2.07c-0.5-0.59-0.91-1.25-1.3-1.92
				c-0.28-0.34-0.57-0.69-0.89-1c-0.59-0.54-0.95-1.29-1.62-1.75c-0.39-0.41-0.79-0.81-1.24-1.14c-0.52-0.32-0.89-0.82-1.37-1.2
				c-1.69-1.22-3.37-2.46-5.21-3.42c-0.76-0.36-1.5-0.74-2.23-1.16c-0.07-0.04-0.15-0.08-0.23-0.11c-0.85-0.39-1.7-0.8-2.55-1.18
				c-0.79-0.46-1.66-0.76-2.49-1.12c-1-0.37-1.97-0.81-3.01-1.07c-0.88-0.14-1.63-0.67-2.5-0.82c-0.74-0.26-1.49-0.53-2.26-0.71
				c-1.05-0.37-2.13-0.6-3.19-0.9c-1.53-0.47-3.08-0.91-4.65-1.2c-0.99-0.1-1.92-0.53-2.9-0.65c-0.77-0.24-1.54-0.43-2.34-0.55
				c-1.1-0.11-2.13-0.52-3.22-0.67c-0.77-0.24-1.56-0.42-2.35-0.57c-1.2-0.27-2.41-0.47-3.58-0.87c-0.32-0.11-0.63-0.11-0.94,0.05
				c-0.08,0.06-0.13,0.14-0.13,0.24c0.72,0.84,1.81,0.95,2.69,1.47c0.71,0.26,1.4,0.58,2.05,0.98c0.35,0.24,0.74,0.38,1.1,0.59
				c0.42,0.16,0.82,0.39,1.2,0.64c0.95,0.53,1.88,1.11,2.84,1.63c0.89,0.56,1.8,1.09,2.7,1.62c0.84,0.43,1.58,1.03,2.38,1.53
				c0.29,0.22,0.61,0.39,0.89,0.62c0.61,0.45,1.2,0.93,1.82,1.38c0.61,0.52,1.27,0.97,1.86,1.51c0.21,0.19,0.47,0.29,0.67,0.49
				c0.85,0.74,1.72,1.47,2.56,2.23c0.9,0.68,1.65,1.53,2.48,2.29c0.25,0.18,0.49,0.39,0.69,0.64c0.6,0.62,1.27,1.18,1.8,1.89
				c0.3,0.38,0.7,0.66,1.03,1.01c1.32,1.56,2.76,3.02,3.93,4.71c0.34,0.27,0.58,0.64,0.84,0.99c0.48,0.63,0.91,1.31,1.47,1.89
				c0.34,0.35,0.55,0.78,0.78,1.19c1.34,1.93,2.66,3.88,3.9,5.88c0.06,0.11,0.13,0.21,0.19,0.32c0.45,0.67,0.82,1.4,1.29,2.06
				c0.37,0.61,0.68,1.26,1.1,1.84c0.23,0.38,0.45,0.77,0.66,1.16c0.44,0.88,0.96,1.71,1.38,2.59c0.17,0.33,0.37,0.64,0.52,0.97
				c0.29,0.65,0.73,1.21,0.95,1.9c0.78,1.49,1.52,2.99,2.28,4.49c0.15,0.29,0.29,0.65,0.67,0.63c0.33-0.02,0.46-0.36,0.58-0.62
				c0.65-1.36,1.22-2.75,1.73-4.17c0.35-1.06,0.7-2.13,1.05-3.19c0.32-1.01,0.71-2,0.62-3.1c0.14-0.95,0.28-1.9,0.42-2.85
				C174.29,248.24,174.35,247.21,174.4,246.18z"/>
			<path style="fill:#56BB5F;" d="M138.61,224.01c-0.06-0.01-0.11-0.03-0.15-0.07c-0.79-0.57-1.58-1.14-2.37-1.71
				c-0.48-0.63-1.07-1.09-1.86-1.24c-0.24-0.17-0.47-0.35-0.71-0.52c-0.9-0.55-1.79-1.11-2.69-1.66c-0.27-0.47-0.75-0.6-1.21-0.74
				c-0.74-0.41-1.48-0.83-2.22-1.24c-0.51-0.15-0.95-0.45-1.37-0.77c-0.67-0.5-1.34-1.01-2.21-1.09c-0.22-0.15-0.53-0.1-0.7-0.35
				c-0.86-0.41-1.71-0.83-2.57-1.24c-0.29-0.14-0.63-0.15-0.86-0.4c-0.15-0.12-0.29-0.28-0.51-0.24c-0.3-0.01-0.55-0.29-0.87-0.2
				c0.13,0.65,0.79,0.94,0.96,1.56c0.63,0.81,1.19,1.66,1.62,2.61c0.49,1.19,1.19,2.26,1.77,3.4c0.13,0.21,0.24,0.43,0.36,0.64
				c0.46,0.92,0.93,1.84,1.4,2.76c0.24,0.52,0.45,1.05,0.8,1.5c0.26,0.42,0.39,0.9,0.64,1.33c0.41,0.71,0.67,1.5,1.1,2.2
				c0.29,0.49,0.54,1,0.78,1.52c0.15,0.34,0.28,0.69,0.5,0.99c1.08,1.98,2.07,4.02,3.14,6.01c0.06,0.11,0.13,0.2,0.19,0.3
				c0.13,0.19,0.23,0.4,0.35,0.6c0.21,0.37,0.42,0.74,0.63,1.11c0.18,0.31,0.35,0.61,0.49,0.94c0.38,0.96,1.07,1.72,1.52,2.63
				c0.23,0.38,0.44,0.78,0.7,1.14c0.32,0.51,0.67,1,0.94,1.54c0.51,0.72,0.99,1.47,1.48,2.22c0.18,0.27,0.33,0.55,0.54,0.8
				c0.67,0.86,1.24,1.8,1.95,2.63c0.7,0.89,1.34,1.82,2.12,2.64c0.13,0.15,0.27,0.3,0.4,0.46c0.87,1.02,1.84,1.95,2.8,2.89
				c0.64,0.62,1.33,1.19,2,1.78c0.47,0.37,0.9,0.8,1.42,1.11c0.35,0.2,0.68,0.45,1.01,0.69c0.77,0.47,1.56,0.91,2.32,1.39
				c1.92,1.01,3.94,1.72,6.05,2.19c0.65,0.05,1.26,0.3,1.92,0.31c0.92,0.06,1.85,0.17,2.77,0.11c0.38-0.1,0.76-0.12,1.15-0.09
				c0.14,0,0.28-0.02,0.42-0.04c0.31-0.1,0.63-0.07,0.95-0.11c0.75-0.21,1.57-0.14,2.28-0.53c0.31-0.8-0.06-1.39-0.56-1.94
				c-1.01-2.12-2.02-4.23-3.03-6.35c-0.18-0.3-0.14-0.72-0.48-0.93c-0.15-0.26-0.29-0.51-0.44-0.77c-0.01-0.56-0.23-0.99-0.68-1.3
				c-0.41-0.75-0.82-1.5-1.23-2.25c-0.22-0.38-0.43-0.75-0.65-1.13c-0.45-0.75-0.9-1.49-1.35-2.24c-0.49-0.58-0.87-1.24-1.23-1.9
				c-0.02-0.36-0.22-0.59-0.51-0.76c-2.2-3.1-4.45-6.16-6.99-8.98c-0.69-0.77-1.39-1.54-2.09-2.31c-0.87-0.88-1.74-1.75-2.6-2.62
				c0-0.16-0.08-0.25-0.23-0.27c-0.81-0.53-1.46-1.26-2.17-1.92c-0.25-0.54-0.69-0.86-1.21-1.09c-0.5-0.27-0.92-0.65-1.32-1.06
				c-0.32-0.2-0.64-0.39-0.87-0.71c-0.21-0.26-0.49-0.43-0.76-0.6C139.18,224.3,138.72,224.39,138.61,224.01z"/>
		</g>
	</g>
	<g id="leaf3_4_">
		<g>
			<path style="fill:#38A53D;" d="M281.8,103.48c-0.44,0.18-0.88,0.37-1.32,0.55c-2.29,0.53-4.52,1.33-6.87,1.58
				c-1.5,0.63-3.04,0.37-4.57,0.31c-0.27-0.04-0.54-0.02-0.82,0c-1.03-0.05-2.04-0.28-3.06-0.39c-0.96-0.33-1.96-0.52-2.97-0.69
				c-0.56-0.19-1.11-0.38-1.64-0.62c-0.93-0.47-2.03-0.55-2.91-1.15c-0.68-0.28-1.36-0.58-1.98-0.97c-0.64-0.48-1.42-0.71-2.11-1.11
				c-2.29-1.49-4.59-2.96-6.64-4.77c-0.8-0.76-1.61-1.49-2.47-2.19c-0.09-0.07-0.17-0.15-0.24-0.23c-0.88-0.86-1.77-1.7-2.65-2.57
				c-0.94-0.76-1.71-1.67-2.54-2.53c-0.92-1.05-1.92-2.03-2.72-3.18c-0.59-1.01-1.59-1.68-2.19-2.68c-0.67-0.79-1.35-1.57-1.93-2.43
				c-0.95-1.11-1.74-2.32-2.6-3.49c-1.3-1.65-2.56-3.34-3.65-5.13c-0.59-1.17-1.55-2.1-2.16-3.25c-0.65-0.83-1.26-1.68-1.77-2.6
				c-0.65-1.29-1.64-2.37-2.33-3.63c-0.66-0.83-1.25-1.71-1.8-2.61c-0.89-1.34-1.72-2.73-2.75-3.97c-0.28-0.34-0.43-0.72-0.38-1.17
				c0.03-0.13,0.11-0.22,0.23-0.27c1.36,0.49,2.02,1.77,3.06,2.61c0.66,0.75,1.37,1.45,2.17,2.05c0.46,0.31,0.82,0.73,1.24,1.07
				c0.4,0.44,0.86,0.82,1.34,1.17c1.1,0.91,2.25,1.77,3.33,2.7c1.11,0.82,2.18,1.69,3.26,2.54c0.92,0.83,2.01,1.45,2.99,2.2
				c0.4,0.25,0.76,0.56,1.18,0.8c0.84,0.54,1.71,1.03,2.54,1.58c0.92,0.5,1.79,1.09,2.72,1.57c0.33,0.16,0.58,0.44,0.91,0.59
				c1.31,0.7,2.61,1.42,3.94,2.08c1.26,0.77,2.65,1.3,3.97,1.96c0.35,0.22,0.71,0.42,1.11,0.54c1.05,0.45,2.05,1,3.16,1.31
				c0.61,0.19,1.13,0.55,1.72,0.79c2.53,0.88,4.99,1.95,7.61,2.6c0.49,0.29,1.05,0.41,1.6,0.57c1,0.29,2.04,0.5,3,0.91
				c0.58,0.25,1.21,0.31,1.83,0.4c2.99,0.73,6,1.43,9.04,2c0.16,0.02,0.32,0.05,0.48,0.09c1.04,0.24,2.1,0.35,3.14,0.61
				c0.92,0.17,1.86,0.24,2.77,0.48c0.57,0.11,1.15,0.18,1.73,0.26c1.28,0.12,2.54,0.37,3.82,0.46c0.48,0.06,0.95,0.15,1.44,0.18
				c0.93,0.05,1.83,0.32,2.77,0.26c2.19,0.25,4.38,0.46,6.57,0.67c0.43,0.04,0.93,0.05,1.09,0.52c0.14,0.41-0.23,0.73-0.49,1.01
				c-1.36,1.44-2.8,2.78-4.3,4.08c-1.14,0.93-2.27,1.86-3.42,2.78c-1.09,0.86-2.12,1.81-3.5,2.22c-1.1,0.62-2.2,1.24-3.3,1.86
				C284.27,102.37,283.03,102.93,281.8,103.48z"/>
			<path style="fill:#56BB5F;" d="M237.81,70.1c-0.04-0.07-0.09-0.11-0.16-0.14c-1.07-0.7-2.14-1.4-3.21-2.09
				c-1-0.29-1.84-0.8-2.4-1.69c-0.33-0.21-0.65-0.42-0.98-0.62c-1.1-0.84-2.2-1.67-3.3-2.51c-0.71-0.11-1.08-0.63-1.48-1.13
				c-0.85-0.71-1.71-1.42-2.56-2.13c-0.43-0.56-1-0.95-1.59-1.32c-0.93-0.59-1.87-1.16-2.37-2.19c-0.29-0.19-0.37-0.6-0.76-0.69
				c-0.91-0.85-1.82-1.71-2.73-2.56c-0.3-0.29-0.48-0.69-0.9-0.86c-0.22-0.12-0.47-0.22-0.53-0.51c-0.16-0.36-0.61-0.53-0.66-0.97
				c0.85-0.15,1.52,0.52,2.36,0.44c1.29,0.39,2.59,0.68,3.95,0.75c1.69,0.03,3.33,0.39,5,0.57c0.32,0.06,0.64,0.1,0.96,0.14
				c1.35,0.13,2.69,0.28,4.04,0.41c0.75,0.05,1.5,0.06,2.22,0.27c0.63,0.12,1.29,0.05,1.92,0.16c1.06,0.17,2.15,0.11,3.21,0.31
				c0.74,0.12,1.48,0.19,2.23,0.24c0.49,0.02,0.98,0.02,1.45,0.15c2.94,0.39,5.9,0.64,8.83,1.02c0.16,0.02,0.31,0.06,0.46,0.09
				c0.3,0.07,0.6,0.1,0.9,0.14c0.55,0.09,1.1,0.17,1.65,0.24c0.46,0.07,0.92,0.15,1.38,0.16c1.35,0.01,2.61,0.5,3.94,0.63
				c0.57,0.1,1.16,0.18,1.72,0.32c0.77,0.15,1.54,0.34,2.32,0.43c1.13,0.29,2.27,0.52,3.41,0.77c0.41,0.09,0.84,0.15,1.24,0.29
				c1.37,0.42,2.79,0.67,4.14,1.14c1.41,0.44,2.86,0.79,4.23,1.35c0.25,0.09,0.5,0.18,0.75,0.27c1.66,0.59,3.26,1.33,4.85,2.07
				c1.07,0.49,2.08,1.06,3.12,1.61c0.67,0.41,1.4,0.72,2.02,1.21c0.42,0.34,0.88,0.62,1.32,0.91c0.94,0.72,1.85,1.48,2.8,2.18
				c2.14,1.87,3.96,4.01,5.53,6.37c0.37,0.77,0.96,1.41,1.28,2.2c0.51,1.1,1.07,2.18,1.44,3.35c0.06,0.51,0.21,0.99,0.42,1.45
				c0.07,0.17,0.11,0.35,0.14,0.53c0.02,0.42,0.21,0.81,0.31,1.21c0.09,1.02,0.57,1.98,0.42,3.04c-0.83,0.75-1.73,0.58-2.63,0.23
				c-3.07-0.24-6.13-0.48-9.2-0.73c-0.45-0.08-0.95,0.17-1.36-0.15c-0.38-0.06-0.76-0.12-1.14-0.17c-0.68,0.25-1.32,0.18-1.91-0.22
				c-1.11-0.15-2.22-0.3-3.34-0.45c-0.56-0.09-1.13-0.17-1.69-0.26c-1.13-0.2-2.25-0.4-3.38-0.6c-0.94-0.33-1.92-0.48-2.91-0.61
				c-0.45,0.14-0.83,0.01-1.17-0.26c-4.83-1.23-9.64-2.55-14.29-4.33c-1.27-0.49-2.54-0.98-3.81-1.47c-1.48-0.65-2.96-1.3-4.44-1.95
				c-0.2,0.07-0.34,0.02-0.44-0.16c-1.03-0.74-2.23-1.19-3.37-1.75c-0.78-0.06-1.38-0.44-1.9-0.97c-0.57-0.49-1.23-0.83-1.92-1.12
				c-0.4-0.29-0.78-0.6-1.28-0.74c-0.42-0.13-0.76-0.39-1.1-0.65C238.43,70.66,238.33,70.06,237.81,70.1z"/>
		</g>
		<g>
			<path style="fill:#38A53D;" d="M320.32,77.27c0.32-0.17,0.64-0.34,0.97-0.51c1.42-1.09,2.98-2.01,4.27-3.26
				c1.1-0.58,1.7-1.61,2.4-2.54c0.11-0.18,0.25-0.33,0.4-0.48c0.47-0.63,0.83-1.33,1.26-1.99c0.27-0.73,0.65-1.41,1.04-2.08
				c0.16-0.42,0.32-0.83,0.44-1.26c0.18-0.77,0.66-1.46,0.74-2.27c0.17-0.54,0.32-1.08,0.39-1.64c0.03-0.61,0.28-1.18,0.37-1.78
				c0.24-2.07,0.49-4.14,0.42-6.22c-0.06-0.84-0.09-1.67-0.09-2.51c0-0.09-0.01-0.17-0.02-0.25c-0.08-0.93-0.14-1.87-0.22-2.8
				c0.01-0.92-0.15-1.82-0.25-2.72c-0.17-1.05-0.26-2.12-0.54-3.15c-0.31-0.83-0.21-1.75-0.51-2.59c-0.14-0.78-0.26-1.56-0.49-2.31
				c-0.19-1.09-0.52-2.15-0.78-3.22c-0.34-1.57-0.71-3.13-1.24-4.64c-0.4-0.91-0.48-1.93-0.86-2.85c-0.17-0.78-0.38-1.56-0.66-2.31
				c-0.44-1.01-0.59-2.11-1-3.14c-0.17-0.79-0.39-1.56-0.66-2.33c-0.35-1.18-0.77-2.33-0.99-3.55c-0.06-0.33-0.22-0.6-0.5-0.79
				c-0.09-0.05-0.18-0.04-0.27,0.01c-0.38,1.04,0.06,2.04,0.04,3.07c0.12,0.75,0.18,1.51,0.15,2.27c-0.04,0.42,0.03,0.83,0.02,1.25
				c0.06,0.45,0.06,0.9,0.03,1.36c0,1.09-0.05,2.18-0.03,3.27c-0.06,1.05-0.07,2.1-0.09,3.15c0.04,0.95-0.12,1.88-0.16,2.83
				c-0.05,0.36-0.04,0.72-0.11,1.08c-0.09,0.75-0.22,1.5-0.31,2.26c-0.15,0.78-0.23,1.58-0.4,2.36c-0.06,0.27-0.02,0.55-0.1,0.82
				c-0.23,1.11-0.44,2.22-0.69,3.33c-0.16,1.12-0.52,2.19-0.78,3.29c-0.04,0.31-0.1,0.62-0.22,0.91c-0.25,0.83-0.41,1.69-0.76,2.49
				c-0.18,0.45-0.23,0.93-0.37,1.39c-0.71,1.92-1.28,3.88-2.18,5.73c-0.07,0.43-0.27,0.82-0.45,1.22c-0.31,0.73-0.7,1.44-0.93,2.2
				c-0.14,0.46-0.41,0.86-0.66,1.27c-1.03,2.12-2.08,4.22-3.22,6.28c-0.06,0.1-0.12,0.21-0.18,0.32c-0.37,0.72-0.82,1.4-1.17,2.14
				c-0.35,0.62-0.76,1.21-1.07,1.86c-0.22,0.39-0.45,0.76-0.69,1.14c-0.55,0.81-1.02,1.67-1.59,2.47c-0.2,0.31-0.37,0.64-0.59,0.93
				c-0.42,0.57-0.7,1.23-1.19,1.75c-0.91,1.41-1.86,2.79-2.8,4.19c-0.18,0.27-0.42,0.57-0.22,0.89c0.18,0.28,0.54,0.22,0.83,0.2
				c1.5-0.1,3-0.29,4.49-0.54c1.1-0.22,2.2-0.43,3.3-0.65c1.04-0.22,2.09-0.37,3.01-0.97c0.9-0.34,1.8-0.69,2.7-1.03
				C318.47,78.18,319.4,77.73,320.32,77.27z"/>
			<path style="fill:#56BB5F;" d="M322.12,35.21c-0.02-0.05-0.02-0.11-0.01-0.16c0.11-0.97,0.22-1.94,0.33-2.91
				c0.31-0.73,0.42-1.47,0.17-2.23c0.04-0.29,0.07-0.58,0.11-0.88c0.04-1.05,0.09-2.1,0.13-3.16c0.28-0.47,0.16-0.94,0.06-1.42
				c0-0.85,0-1.69,0-2.54c-0.12-0.52-0.07-1.05,0-1.57c0.11-0.83,0.23-1.66-0.13-2.46c0.03-0.26-0.17-0.51-0.04-0.78
				c-0.06-0.95-0.12-1.9-0.18-2.85c-0.02-0.32-0.17-0.62-0.07-0.95c0.04-0.19,0.1-0.39-0.04-0.56c-0.14-0.27-0.01-0.62-0.25-0.86
				c-0.5,0.43-0.43,1.15-0.89,1.6c-0.4,0.94-0.86,1.85-1.48,2.69c-0.8,1.01-1.39,2.14-2.1,3.21c-0.12,0.21-0.25,0.42-0.38,0.63
				c-0.58,0.86-1.15,1.72-1.72,2.57c-0.33,0.46-0.69,0.91-0.92,1.44c-0.24,0.43-0.59,0.78-0.84,1.21c-0.41,0.71-0.98,1.32-1.38,2.04
				c-0.29,0.49-0.61,0.96-0.94,1.43c-0.22,0.3-0.46,0.58-0.62,0.92c-1.2,1.91-2.49,3.77-3.7,5.68c-0.06,0.1-0.12,0.21-0.17,0.32
				c-0.11,0.21-0.24,0.4-0.35,0.6c-0.22,0.37-0.44,0.73-0.66,1.09c-0.18,0.3-0.36,0.61-0.58,0.89c-0.65,0.8-0.98,1.78-1.55,2.62
				c-0.22,0.39-0.46,0.76-0.65,1.17c-0.29,0.53-0.54,1.07-0.88,1.57c-0.38,0.8-0.8,1.59-1.21,2.37c-0.15,0.29-0.32,0.56-0.43,0.87
				c-0.42,1.01-0.97,1.96-1.34,2.99c-0.43,1.04-0.93,2.06-1.26,3.14c-0.07,0.19-0.13,0.38-0.21,0.57c-0.46,1.26-0.81,2.56-1.15,3.85
				c-0.23,0.86-0.39,1.74-0.57,2.61c-0.09,0.59-0.26,1.18-0.27,1.78c-0.01,0.41-0.06,0.81-0.11,1.22c-0.03,0.9-0.03,1.8-0.08,2.71
				c0.06,2.17,0.43,4.28,1.05,6.35c0.27,0.59,0.36,1.25,0.67,1.82c0.4,0.84,0.76,1.69,1.27,2.47c0.27,0.28,0.48,0.6,0.64,0.95
				c0.07,0.12,0.15,0.24,0.24,0.34c0.24,0.22,0.37,0.51,0.56,0.77c0.55,0.55,0.89,1.3,1.58,1.72c0.85-0.12,1.18-0.73,1.41-1.44
				c1.35-1.92,2.7-3.84,4.05-5.75c0.17-0.3,0.56-0.47,0.57-0.87c0.15-0.25,0.3-0.5,0.45-0.76c0.48-0.28,0.75-0.69,0.8-1.23
				c0.45-0.73,0.91-1.45,1.36-2.18c0.22-0.37,0.45-0.75,0.67-1.12c0.43-0.76,0.86-1.52,1.29-2.28c0.26-0.71,0.65-1.36,1.06-2.01
				c0.3-0.2,0.41-0.48,0.42-0.82c1.63-3.44,3.19-6.9,4.41-10.49c0.33-0.98,0.66-1.97,0.99-2.95c0.34-1.19,0.68-2.37,1.01-3.56
				c0.14-0.08,0.18-0.19,0.12-0.34c0.07-0.97,0.38-1.89,0.61-2.83c0.35-0.49,0.42-1.02,0.36-1.59c-0.01-0.57,0.11-1.12,0.27-1.67
				c0.02-0.38,0.03-0.75,0.19-1.11c0.13-0.31,0.14-0.63,0.15-0.96C322.15,35.84,321.84,35.49,322.12,35.21z"/>
		</g>
	</g>
	<g id="leaf2_1_">
		<g>
			<path style="fill:#38A53D;" d="M491.52,84.18c-0.28-0.38-0.57-0.77-0.85-1.15c-1.05-2.1-2.35-4.08-3.16-6.3
				c-0.97-1.31-1.08-2.87-1.38-4.37c-0.03-0.27-0.11-0.53-0.19-0.79c-0.2-1.01-0.21-2.04-0.34-3.07c0.09-1.01,0.05-2.03-0.03-3.04
				c0.05-0.58,0.11-1.17,0.21-1.74c0.23-1.02,0.06-2.1,0.43-3.1c0.11-0.73,0.25-1.46,0.48-2.15c0.31-0.74,0.35-1.55,0.58-2.31
				c0.91-2.58,1.8-5.16,3.07-7.58c0.55-0.95,1.07-1.92,1.55-2.91c0.05-0.1,0.1-0.2,0.16-0.29c0.63-1.06,1.24-2.13,1.87-3.18
				c0.51-1.09,1.22-2.06,1.86-3.06c0.8-1.14,1.52-2.35,2.44-3.4c0.84-0.81,1.26-1.94,2.09-2.76c0.61-0.84,1.2-1.68,1.9-2.45
				c0.85-1.18,1.85-2.23,2.78-3.35c1.3-1.65,2.64-3.28,4.13-4.76c0.99-0.85,1.67-2,2.65-2.87c0.65-0.83,1.34-1.62,2.11-2.34
				c1.1-0.93,1.92-2.15,2.98-3.12c0.65-0.84,1.36-1.62,2.11-2.37c1.09-1.18,2.25-2.31,3.21-3.61c0.26-0.36,0.6-0.59,1.05-0.65
				c0.13,0,0.24,0.05,0.31,0.16c-0.15,1.44-1.24,2.38-1.81,3.59c-0.57,0.82-1.08,1.67-1.48,2.59c-0.19,0.52-0.51,0.96-0.75,1.46
				c-0.33,0.49-0.59,1.03-0.82,1.58c-0.63,1.29-1.19,2.6-1.84,3.88c-0.54,1.27-1.13,2.51-1.7,3.77c-0.58,1.09-0.94,2.29-1.43,3.43
				c-0.15,0.45-0.37,0.88-0.5,1.34c-0.32,0.94-0.6,1.9-0.93,2.84c-0.27,1.01-0.64,1.99-0.88,3.02c-0.08,0.36-0.29,0.66-0.36,1.03
				c-0.37,1.44-0.76,2.87-1.1,4.32c-0.46,1.41-0.64,2.88-0.97,4.32c-0.14,0.39-0.24,0.79-0.26,1.2c-0.19,1.12-0.49,2.23-0.53,3.38
				c-0.04,0.64-0.27,1.23-0.36,1.86c-0.26,2.67-0.72,5.31-0.73,8.01c-0.16,0.55-0.15,1.12-0.17,1.69c-0.05,1.04,0,2.1-0.17,3.13
				c-0.1,0.62-0.01,1.25,0.05,1.87c-0.01,3.08,0.02,6.17,0.19,9.25c0.02,0.16,0.02,0.32,0.03,0.48c0.01,1.06,0.16,2.13,0.15,3.19
				c0.06,0.94,0.2,1.87,0.19,2.81c0.03,0.58,0.09,1.16,0.15,1.74c0.18,1.27,0.24,2.56,0.45,3.83c0.06,0.48,0.07,0.96,0.16,1.44
				c0.17,0.91,0.12,1.85,0.4,2.75c0.27,2.19,0.59,4.37,0.9,6.55c0.06,0.43,0.17,0.92-0.25,1.18c-0.37,0.23-0.76-0.05-1.09-0.24
				c-1.71-0.98-3.37-2.06-4.98-3.21c-1.17-0.89-2.34-1.77-3.51-2.66c-1.1-0.85-2.26-1.63-2.99-2.88c-0.86-0.92-1.73-1.84-2.59-2.76
				C493.18,86.31,492.35,85.24,491.52,84.18z"/>
			<path style="fill:#56BB5F;" d="M513.58,33.55c0.05-0.05,0.09-0.11,0.1-0.19c0.43-1.21,0.85-2.41,1.28-3.62
				c0.05-1.04,0.34-1.98,1.08-2.73c0.13-0.37,0.25-0.73,0.38-1.1c0.55-1.27,1.1-2.53,1.66-3.8c-0.06-0.71,0.36-1.2,0.75-1.71
				c0.49-1,0.98-2,1.46-2.99c0.44-0.55,0.69-1.19,0.91-1.85c0.35-1.04,0.69-2.09,1.57-2.82c0.12-0.33,0.5-0.5,0.49-0.9
				c0.62-1.09,1.23-2.17,1.85-3.26c0.21-0.36,0.56-0.63,0.63-1.08c0.07-0.25,0.1-0.51,0.37-0.63c0.32-0.24,0.37-0.72,0.79-0.87
				c0.34,0.79-0.15,1.6,0.12,2.4c-0.07,1.34-0.05,2.68,0.2,4.02c0.36,1.65,0.41,3.33,0.63,4.99c0.02,0.32,0.06,0.64,0.09,0.96
				c0.19,1.34,0.36,2.68,0.55,4.02c0.13,0.74,0.3,1.47,0.26,2.22c0.03,0.64,0.25,1.27,0.3,1.91c0.08,1.07,0.4,2.12,0.45,3.2
				c0.05,0.75,0.17,1.48,0.29,2.22c0.09,0.48,0.21,0.95,0.2,1.44c0.32,2.95,0.77,5.88,1.09,8.83c0.02,0.16,0.02,0.31,0.02,0.47
				c0.01,0.3,0.05,0.61,0.07,0.91c0.04,0.55,0.1,1.11,0.15,1.66c0.04,0.46,0.07,0.92,0.17,1.38c0.3,1.32,0.13,2.66,0.32,3.98
				c0.03,0.58,0.1,1.17,0.09,1.75c0.03,0.79,0.03,1.57,0.13,2.36c-0.01,1.16,0.03,2.33,0.06,3.5c0.01,0.42,0.05,0.85,0.01,1.27
				c-0.08,1.43,0.01,2.87-0.13,4.29c-0.09,1.48-0.09,2.96-0.32,4.43c-0.03,0.26-0.06,0.53-0.08,0.79c-0.18,1.76-0.52,3.48-0.86,5.2
				c-0.22,1.15-0.54,2.28-0.82,3.41c-0.24,0.75-0.37,1.53-0.7,2.25c-0.23,0.48-0.39,1-0.57,1.5c-0.48,1.08-1,2.14-1.46,3.23
				c-1.32,2.52-2.97,4.8-4.88,6.88c-0.66,0.54-1.14,1.26-1.84,1.76c-0.95,0.76-1.87,1.56-2.91,2.19c-0.48,0.18-0.91,0.44-1.31,0.75
				c-0.15,0.11-0.31,0.19-0.48,0.27c-0.41,0.12-0.73,0.39-1.1,0.59c-0.97,0.33-1.79,1.02-2.86,1.12c-0.93-0.63-0.97-1.54-0.84-2.51
				c-0.49-3.04-0.98-6.07-1.47-9.11c-0.03-0.46-0.39-0.88-0.17-1.36c-0.03-0.38-0.07-0.77-0.1-1.15c-0.41-0.6-0.48-1.24-0.24-1.91
				c-0.12-1.12-0.23-2.23-0.35-3.35c-0.05-0.57-0.1-1.13-0.15-1.7c-0.07-1.14-0.14-2.29-0.21-3.43c0.1-0.99,0.02-1.98-0.09-2.97
				c-0.24-0.4-0.21-0.8-0.02-1.2c0.05-4.99,0.2-9.97,0.84-14.91c0.17-1.35,0.36-2.7,0.53-4.05c0.28-1.59,0.57-3.18,0.85-4.78
				c-0.12-0.17-0.1-0.33,0.05-0.47c0.48-1.18,0.64-2.45,0.9-3.68c-0.13-0.77,0.1-1.45,0.49-2.08c0.34-0.67,0.51-1.39,0.64-2.13
				c0.19-0.45,0.4-0.9,0.41-1.41c0.03-0.44,0.2-0.83,0.37-1.22C513.17,34.29,513.74,34.05,513.58,33.55z"/>
		</g>
		<g>
			<path style="fill:#38A53D;" d="M526.7,114.37c0.24,0.27,0.48,0.55,0.72,0.82c1.39,1.13,2.65,2.42,4.18,3.38
				c0.82,0.93,1.96,1.27,3.03,1.74c0.2,0.07,0.38,0.17,0.56,0.27c0.72,0.31,1.49,0.49,2.23,0.75c0.77,0.09,1.52,0.3,2.26,0.52
				c0.44,0.06,0.89,0.11,1.33,0.13c0.8-0.01,1.58,0.3,2.38,0.18c0.56,0.03,1.12,0.05,1.68-0.01c0.6-0.11,1.21-0.01,1.82-0.06
				c2.07-0.26,4.14-0.5,6.14-1.06c0.8-0.25,1.6-0.48,2.42-0.68c0.08-0.02,0.16-0.05,0.24-0.08c0.89-0.29,1.79-0.57,2.67-0.87
				c0.89-0.2,1.73-0.57,2.58-0.88c0.98-0.41,2-0.75,2.93-1.27c0.74-0.49,1.65-0.62,2.39-1.1c0.72-0.32,1.45-0.62,2.13-1.02
				c1.02-0.44,1.97-1.01,2.95-1.52c1.44-0.7,2.87-1.43,4.22-2.3c0.79-0.6,1.76-0.92,2.57-1.51c0.72-0.35,1.42-0.73,2.08-1.19
				c0.88-0.67,1.91-1.08,2.81-1.71c0.73-0.35,1.43-0.75,2.11-1.19c1.06-0.62,2.09-1.3,3.21-1.8c0.31-0.14,0.53-0.35,0.65-0.67
				c0.02-0.1,0-0.19-0.07-0.26c-1.1-0.12-1.97,0.54-2.97,0.76c-0.7,0.29-1.42,0.53-2.17,0.68c-0.42,0.06-0.8,0.23-1.21,0.32
				c-0.42,0.17-0.86,0.27-1.31,0.35c-1.06,0.26-2.13,0.47-3.19,0.74c-1.03,0.19-2.06,0.43-3.08,0.65c-0.91,0.26-1.86,0.33-2.79,0.51
				c-0.36,0.04-0.71,0.13-1.08,0.15c-0.76,0.09-1.51,0.14-2.27,0.23c-0.8,0.04-1.59,0.15-2.39,0.16c-0.28,0-0.54,0.11-0.82,0.1
				c-1.13,0.04-2.26,0.1-3.4,0.11c-1.12,0.11-2.25,0.01-3.38,0.02c-0.31,0.04-0.62,0.05-0.94,0c-0.87-0.05-1.74,0-2.6-0.16
				c-0.48-0.07-0.96,0-1.44-0.03c-2.03-0.24-4.07-0.33-6.08-0.76c-0.44,0.03-0.86-0.07-1.29-0.15c-0.79-0.13-1.56-0.34-2.36-0.38
				c-0.48-0.02-0.93-0.19-1.39-0.34c-2.3-0.5-4.59-1.02-6.86-1.65c-0.12-0.04-0.24-0.07-0.36-0.1c-0.79-0.18-1.56-0.46-2.35-0.63
				c-0.69-0.19-1.36-0.46-2.06-0.6c-0.43-0.12-0.85-0.26-1.27-0.4c-0.92-0.34-1.86-0.6-2.78-0.96c-0.35-0.12-0.71-0.21-1.05-0.35
				c-0.65-0.28-1.36-0.39-1.99-0.74c-1.58-0.56-3.15-1.15-4.73-1.73c-0.31-0.11-0.65-0.28-0.92-0.01c-0.23,0.24-0.09,0.57,0,0.85
				c0.45,1.44,0.99,2.84,1.58,4.23c0.47,1.02,0.94,2.03,1.41,3.05c0.46,0.95,0.85,1.95,1.66,2.69c0.55,0.79,1.09,1.59,1.64,2.38
				C525.37,112.79,526.04,113.58,526.7,114.37z"/>
			<path style="fill:#56BB5F;" d="M567.99,106.19c0.05-0.03,0.1-0.05,0.16-0.04c0.97-0.12,1.93-0.24,2.9-0.36
				c0.78,0.13,1.53,0.07,2.21-0.36c0.29-0.03,0.59-0.07,0.88-0.1c1.03-0.2,2.07-0.41,3.1-0.61c0.52,0.16,0.95-0.07,1.39-0.28
				c0.82-0.2,1.65-0.4,2.47-0.6c0.48-0.24,1-0.32,1.53-0.37c0.83-0.09,1.67-0.17,2.36-0.71c0.26-0.04,0.46-0.29,0.75-0.22
				c0.91-0.28,1.82-0.56,2.73-0.84c0.3-0.1,0.56-0.31,0.91-0.29c0.19-0.01,0.4,0.01,0.53-0.17c0.23-0.2,0.6-0.16,0.78-0.44
				c-0.53-0.38-1.22-0.15-1.76-0.48c-1.01-0.16-2.01-0.4-2.96-0.81c-1.17-0.54-2.41-0.85-3.61-1.28c-0.24-0.07-0.47-0.15-0.7-0.22
				c-0.97-0.36-1.94-0.71-2.9-1.07c-0.53-0.21-1.05-0.46-1.61-0.56c-0.47-0.13-0.9-0.39-1.37-0.53c-0.79-0.24-1.51-0.65-2.31-0.86
				c-0.55-0.16-1.08-0.37-1.61-0.58c-0.34-0.15-0.68-0.31-1.04-0.38c-2.14-0.71-4.25-1.53-6.4-2.25c-0.11-0.04-0.23-0.06-0.35-0.09
				c-0.23-0.05-0.44-0.14-0.67-0.2c-0.41-0.12-0.81-0.25-1.21-0.38c-0.34-0.1-0.68-0.21-1-0.35c-0.93-0.44-1.96-0.53-2.91-0.89
				c-0.43-0.12-0.85-0.27-1.29-0.36c-0.58-0.15-1.17-0.28-1.74-0.48c-0.87-0.18-1.73-0.4-2.59-0.62c-0.31-0.07-0.62-0.18-0.94-0.22
				c-1.08-0.17-2.13-0.48-3.22-0.6c-1.12-0.17-2.22-0.41-3.35-0.48c-0.2-0.02-0.4-0.04-0.6-0.07c-1.34-0.15-2.68-0.18-4.01-0.2
				c-0.89-0.02-1.78,0.03-2.67,0.06c-0.6,0.05-1.2,0.03-1.79,0.16c-0.4,0.09-0.81,0.13-1.21,0.18c-0.88,0.18-1.76,0.39-2.65,0.56
				c-2.09,0.57-4.06,1.43-5.92,2.52c-0.51,0.4-1.13,0.65-1.61,1.08c-0.72,0.58-1.46,1.14-2.1,1.81c-0.21,0.33-0.47,0.6-0.77,0.85
				c-0.1,0.1-0.19,0.2-0.28,0.32c-0.16,0.28-0.41,0.48-0.62,0.73c-0.4,0.67-1.05,1.17-1.3,1.94c0.32,0.79,0.99,0.97,1.73,1.03
				c2.18,0.86,4.37,1.72,6.55,2.58c0.33,0.1,0.59,0.43,0.98,0.35c0.28,0.09,0.56,0.17,0.84,0.26c0.38,0.4,0.85,0.56,1.38,0.49
				c0.81,0.27,1.62,0.54,2.44,0.81c0.41,0.13,0.83,0.26,1.24,0.39c0.84,0.24,1.68,0.48,2.52,0.72c0.75,0.09,1.48,0.31,2.2,0.55
				c0.26,0.25,0.56,0.29,0.89,0.21c3.72,0.77,7.46,1.48,11.24,1.81c1.03,0.09,2.07,0.18,3.1,0.26c1.23,0.05,2.46,0.1,3.7,0.14
				c0.11,0.12,0.23,0.13,0.35,0.04c0.96-0.16,1.93-0.07,2.89-0.07c0.55,0.22,1.09,0.16,1.63-0.03c0.55-0.14,1.12-0.16,1.69-0.13
				c0.37-0.07,0.74-0.15,1.12-0.08c0.33,0.05,0.65-0.01,0.97-0.08C567.38,106.37,567.65,105.99,567.99,106.19z"/>
		</g>
	</g>
	<g id="leaf1_2_">
		<g>
			<path style="fill:#38A53D;" d="M623.12,217.46c0.01-0.48,0.03-0.95,0.04-1.43c0.46-2.3,0.65-4.66,1.39-6.91
				c0.04-1.63,0.91-2.93,1.6-4.29c0.14-0.23,0.24-0.49,0.34-0.74c0.47-0.92,1.09-1.74,1.62-2.63c0.7-0.74,1.28-1.57,1.85-2.42
				c0.4-0.43,0.8-0.85,1.24-1.24c0.81-0.66,1.34-1.62,2.25-2.17c0.54-0.51,1.09-1,1.7-1.4c0.7-0.39,1.23-1.01,1.88-1.46
				c2.3-1.47,4.59-2.96,7.08-4.08c1.02-0.42,2.02-0.86,3.01-1.35c0.1-0.05,0.2-0.09,0.31-0.13c1.14-0.45,2.28-0.92,3.43-1.36
				c1.07-0.54,2.22-0.87,3.35-1.27c1.33-0.41,2.64-0.92,4.02-1.18c1.16-0.12,2.19-0.76,3.34-0.89c0.99-0.29,1.99-0.59,3.01-0.76
				c1.4-0.41,2.83-0.63,4.25-0.94c2.04-0.5,4.1-0.96,6.18-1.22c1.31-0.06,2.55-0.55,3.85-0.63c1.02-0.25,2.05-0.45,3.1-0.55
				c1.44-0.06,2.83-0.52,4.27-0.63c1.03-0.26,2.07-0.44,3.12-0.57c1.59-0.26,3.19-0.44,4.75-0.87c0.43-0.12,0.83-0.09,1.22,0.13
				c0.11,0.08,0.16,0.19,0.15,0.32c-1,1.04-2.44,1.11-3.64,1.72c-0.95,0.29-1.88,0.65-2.76,1.13c-0.47,0.29-1,0.44-1.49,0.69
				c-0.57,0.18-1.1,0.45-1.62,0.74c-1.28,0.63-2.54,1.32-3.83,1.92c-1.2,0.67-2.44,1.29-3.66,1.92c-1.13,0.5-2.15,1.23-3.24,1.82
				c-0.4,0.27-0.83,0.46-1.21,0.75c-0.83,0.55-1.64,1.13-2.48,1.67c-0.84,0.63-1.73,1.18-2.55,1.84c-0.28,0.23-0.64,0.35-0.91,0.59
				c-1.18,0.91-2.37,1.8-3.52,2.73c-1.22,0.83-2.28,1.88-3.42,2.81c-0.35,0.22-0.67,0.47-0.95,0.79c-0.84,0.77-1.75,1.46-2.5,2.34
				c-0.43,0.48-0.97,0.81-1.43,1.24c-1.85,1.94-3.83,3.74-5.5,5.87c-0.47,0.33-0.81,0.79-1.18,1.23c-0.68,0.79-1.29,1.65-2.06,2.36
				c-0.47,0.43-0.78,0.98-1.11,1.51c-1.9,2.43-3.78,4.88-5.54,7.41c-0.09,0.14-0.18,0.27-0.28,0.4c-0.64,0.85-1.18,1.77-1.84,2.61
				c-0.53,0.77-0.99,1.6-1.58,2.33c-0.33,0.48-0.64,0.97-0.95,1.47c-0.64,1.12-1.38,2.16-2,3.29c-0.25,0.42-0.53,0.81-0.76,1.23
				c-0.43,0.83-1.05,1.53-1.38,2.42c-1.13,1.89-2.22,3.81-3.32,5.71c-0.22,0.37-0.43,0.83-0.92,0.77c-0.43-0.05-0.57-0.51-0.72-0.86
				c-0.75-1.83-1.39-3.7-1.95-5.59c-0.38-1.42-0.76-2.84-1.13-4.26c-0.34-1.35-0.77-2.68-0.59-4.1c-0.11-1.26-0.23-2.51-0.34-3.77
				C623.11,220.17,623.12,218.82,623.12,217.46z"/>
			<path style="fill:#56BB5F;" d="M671.65,191.12c0.07-0.01,0.14-0.04,0.2-0.09c1.08-0.69,2.15-1.38,3.23-2.07
				c0.68-0.79,1.49-1.35,2.53-1.49c0.32-0.21,0.65-0.42,0.97-0.63c1.21-0.66,2.43-1.32,3.64-1.98c0.39-0.6,1.02-0.73,1.64-0.88
				c1-0.49,2-0.97,3-1.46c0.68-0.16,1.28-0.52,1.86-0.9c0.92-0.6,1.83-1.23,2.97-1.26c0.3-0.18,0.7-0.09,0.94-0.41
				c1.15-0.48,2.31-0.95,3.46-1.43c0.39-0.16,0.83-0.15,1.16-0.47c0.2-0.15,0.4-0.34,0.68-0.27c0.4,0.01,0.74-0.34,1.16-0.2
				c-0.22,0.83-1.1,1.17-1.37,1.97c-0.88,1.01-1.69,2.08-2.31,3.29c-0.73,1.52-1.73,2.87-2.58,4.32c-0.18,0.26-0.35,0.54-0.52,0.81
				c-0.68,1.17-1.36,2.34-2.04,3.51c-0.35,0.66-0.67,1.34-1.16,1.91c-0.37,0.53-0.58,1.15-0.94,1.69c-0.6,0.9-0.99,1.92-1.61,2.8
				c-0.42,0.62-0.78,1.27-1.14,1.93c-0.22,0.43-0.42,0.88-0.73,1.26c-1.56,2.52-3.01,5.11-4.57,7.63c-0.08,0.13-0.18,0.26-0.28,0.38
				c-0.18,0.24-0.33,0.51-0.5,0.76c-0.31,0.46-0.6,0.93-0.9,1.4c-0.25,0.39-0.51,0.77-0.72,1.19c-0.57,1.23-1.53,2.18-2.19,3.33
				c-0.33,0.48-0.64,0.98-1,1.44c-0.46,0.64-0.95,1.26-1.35,1.94c-0.73,0.91-1.41,1.86-2.1,2.79c-0.26,0.34-0.48,0.7-0.77,1.01
				c-0.94,1.08-1.76,2.27-2.75,3.3c-0.98,1.11-1.9,2.28-2.97,3.29c-0.19,0.19-0.37,0.38-0.55,0.57c-1.22,1.27-2.55,2.42-3.88,3.57
				c-0.88,0.77-1.82,1.46-2.75,2.18c-0.65,0.44-1.24,0.98-1.94,1.34c-0.48,0.24-0.92,0.54-1.37,0.83c-1.04,0.56-2.11,1.08-3.14,1.65
				c-2.59,1.18-5.29,1.96-8.08,2.42c-0.85,0.02-1.68,0.29-2.53,0.26c-1.21,0.01-2.43,0.08-3.64-0.07c-0.49-0.16-0.99-0.21-1.49-0.21
				c-0.18-0.01-0.37-0.04-0.54-0.09c-0.4-0.15-0.82-0.14-1.23-0.22c-0.97-0.34-2.04-0.3-2.94-0.87c-0.34-1.07,0.18-1.81,0.88-2.49
				c1.48-2.7,2.97-5.39,4.45-8.09c0.25-0.38,0.23-0.93,0.7-1.18c0.21-0.32,0.42-0.65,0.63-0.97c0.05-0.73,0.38-1.28,0.99-1.65
				c0.59-0.95,1.19-1.9,1.78-2.86c0.31-0.48,0.62-0.96,0.93-1.43c0.65-0.94,1.29-1.89,1.94-2.83c0.69-0.72,1.23-1.55,1.76-2.4
				c0.06-0.47,0.33-0.76,0.72-0.96c3.11-3.9,6.29-7.74,9.83-11.24c0.97-0.96,1.94-1.91,2.91-2.86c1.2-1.08,2.4-2.16,3.61-3.24
				c0.01-0.21,0.12-0.32,0.33-0.34c1.1-0.63,2.01-1.54,2.98-2.35c0.37-0.69,0.97-1.08,1.67-1.34c0.68-0.32,1.26-0.78,1.81-1.29
				c0.43-0.24,0.87-0.46,1.2-0.86c0.29-0.33,0.67-0.53,1.04-0.73C670.88,191.45,671.47,191.61,671.65,191.12z"/>
		</g>
		<g>
			<path style="fill:#38A53D;" d="M628.03,262.06c0.02,0.36,0.04,0.73,0.06,1.09c0.41,1.74,0.6,3.54,1.22,5.23
				c0.07,1.24,0.76,2.21,1.32,3.24c0.12,0.17,0.19,0.37,0.27,0.56c0.38,0.69,0.87,1.3,1.29,1.96c0.55,0.55,1.01,1.17,1.46,1.8
				c0.31,0.32,0.63,0.63,0.97,0.92c0.63,0.48,1.06,1.21,1.76,1.6c0.42,0.37,0.85,0.73,1.33,1.03c0.54,0.28,0.96,0.74,1.47,1.07
				c1.79,1.07,3.57,2.15,5.49,2.95c0.78,0.29,1.56,0.61,2.33,0.96c0.08,0.04,0.16,0.06,0.24,0.09c0.88,0.32,1.76,0.64,2.65,0.96
				c0.83,0.39,1.72,0.61,2.58,0.89c1.03,0.28,2.03,0.64,3.09,0.8c0.88,0.06,1.68,0.53,2.57,0.6c0.76,0.19,1.53,0.4,2.31,0.51
				c1.07,0.28,2.17,0.41,3.26,0.61c1.57,0.34,3.14,0.64,4.74,0.78c1,0.01,1.95,0.36,2.95,0.39c0.78,0.17,1.57,0.3,2.37,0.35
				c1.1,0.01,2.17,0.33,3.27,0.38c0.79,0.17,1.59,0.29,2.39,0.36c1.22,0.16,2.44,0.26,3.64,0.56c0.33,0.08,0.64,0.05,0.93-0.13
				c0.08-0.06,0.11-0.15,0.11-0.25c-0.79-0.77-1.89-0.79-2.81-1.23c-0.73-0.2-1.45-0.45-2.13-0.8c-0.37-0.21-0.77-0.32-1.15-0.49
				c-0.44-0.13-0.85-0.31-1.25-0.53c-0.99-0.45-1.97-0.94-2.97-1.38c-0.93-0.48-1.89-0.92-2.83-1.38c-0.88-0.36-1.67-0.89-2.51-1.31
				c-0.31-0.19-0.64-0.33-0.94-0.54c-0.65-0.4-1.28-0.82-1.93-1.21c-0.65-0.46-1.35-0.86-1.99-1.34c-0.22-0.17-0.49-0.25-0.71-0.43
				c-0.92-0.67-1.85-1.31-2.75-2c-0.95-0.6-1.78-1.38-2.67-2.06c-0.27-0.16-0.52-0.35-0.74-0.58c-0.66-0.57-1.37-1.07-1.96-1.72
				c-0.34-0.35-0.76-0.59-1.12-0.91c-1.45-1.44-3.01-2.76-4.33-4.34c-0.36-0.24-0.64-0.58-0.93-0.91c-0.54-0.59-1.02-1.23-1.63-1.75
				c-0.36-0.31-0.62-0.72-0.88-1.12c-1.51-1.81-2.99-3.63-4.4-5.52c-0.07-0.1-0.14-0.2-0.22-0.3c-0.51-0.63-0.94-1.32-1.47-1.94
				c-0.42-0.58-0.79-1.2-1.26-1.74c-0.26-0.36-0.51-0.73-0.76-1.1c-0.51-0.84-1.1-1.62-1.6-2.46c-0.2-0.31-0.43-0.6-0.61-0.92
				c-0.34-0.62-0.83-1.14-1.11-1.81c-0.91-1.41-1.78-2.85-2.66-4.28c-0.17-0.28-0.35-0.62-0.72-0.57c-0.33,0.04-0.42,0.4-0.53,0.67
				c-0.53,1.41-0.97,2.85-1.36,4.31c-0.26,1.09-0.51,2.18-0.76,3.27c-0.23,1.03-0.53,2.06-0.35,3.14c-0.06,0.96-0.12,1.92-0.17,2.88
				C627.97,260,628,261.03,628.03,262.06z"/>
			<path style="fill:#56BB5F;" d="M665.63,281.01c0.06,0,0.11,0.02,0.15,0.06c0.84,0.5,1.67,1,2.51,1.5
				c0.54,0.59,1.17,0.99,1.96,1.08c0.25,0.15,0.5,0.31,0.75,0.46c0.94,0.47,1.88,0.95,2.82,1.42c0.31,0.45,0.8,0.53,1.27,0.64
				c0.77,0.35,1.54,0.7,2.32,1.04c0.52,0.11,0.98,0.36,1.44,0.65c0.71,0.44,1.42,0.89,2.29,0.89c0.23,0.13,0.54,0.05,0.73,0.29
				c0.89,0.34,1.78,0.67,2.67,1.01c0.3,0.11,0.64,0.1,0.89,0.33c0.16,0.11,0.31,0.25,0.53,0.19c0.3-0.01,0.57,0.24,0.89,0.13
				c-0.19-0.63-0.87-0.87-1.09-1.47c-0.7-0.75-1.33-1.55-1.84-2.45c-0.59-1.14-1.38-2.15-2.06-3.23c-0.15-0.2-0.28-0.4-0.41-0.61
				c-0.54-0.88-1.09-1.75-1.63-2.63c-0.28-0.49-0.54-1.01-0.93-1.43c-0.29-0.39-0.47-0.86-0.75-1.26c-0.47-0.67-0.8-1.44-1.29-2.1
				c-0.33-0.46-0.62-0.95-0.91-1.44c-0.18-0.33-0.34-0.66-0.58-0.94c-1.25-1.88-2.41-3.82-3.66-5.71c-0.07-0.1-0.14-0.19-0.22-0.29
				c-0.14-0.18-0.27-0.38-0.4-0.57c-0.24-0.35-0.48-0.7-0.72-1.05c-0.2-0.29-0.41-0.58-0.57-0.89c-0.46-0.92-1.21-1.62-1.75-2.49
				c-0.26-0.36-0.51-0.73-0.8-1.07c-0.36-0.48-0.75-0.94-1.07-1.45c-0.58-0.68-1.12-1.38-1.67-2.08c-0.2-0.25-0.38-0.52-0.61-0.75
				c-0.74-0.8-1.39-1.69-2.17-2.45c-0.77-0.82-1.5-1.69-2.34-2.44c-0.15-0.14-0.29-0.28-0.43-0.42c-0.96-0.94-2-1.79-3.04-2.63
				c-0.69-0.57-1.42-1.07-2.14-1.6c-0.5-0.32-0.96-0.72-1.51-0.98c-0.37-0.17-0.71-0.39-1.07-0.6c-0.81-0.4-1.63-0.77-2.43-1.19
				c-2-0.84-4.08-1.37-6.22-1.66c-0.65,0.01-1.28-0.18-1.94-0.14c-0.93,0.02-1.85,0-2.77,0.14c-0.37,0.13-0.75,0.19-1.13,0.19
				c-0.14,0.01-0.28,0.04-0.41,0.08c-0.3,0.12-0.62,0.13-0.93,0.19c-0.73,0.28-1.55,0.27-2.22,0.73c-0.23,0.82,0.18,1.38,0.73,1.88
				c1.19,2.02,2.39,4.04,3.58,6.06c0.2,0.28,0.2,0.71,0.56,0.88c0.17,0.24,0.34,0.48,0.5,0.73c0.06,0.55,0.32,0.96,0.79,1.24
				c0.48,0.71,0.95,1.42,1.43,2.13c0.25,0.36,0.5,0.71,0.74,1.07c0.51,0.7,1.03,1.41,1.54,2.11c0.54,0.53,0.98,1.15,1.39,1.79
				c0.05,0.36,0.27,0.57,0.57,0.72c2.46,2.9,4.97,5.75,7.75,8.34c0.76,0.71,1.52,1.41,2.28,2.11c0.94,0.8,1.88,1.59,2.82,2.39
				c0.02,0.16,0.1,0.24,0.26,0.25c0.85,0.46,1.56,1.13,2.32,1.72c0.3,0.52,0.76,0.8,1.3,0.98c0.52,0.23,0.98,0.56,1.41,0.94
				c0.33,0.17,0.68,0.33,0.93,0.63c0.23,0.24,0.52,0.39,0.81,0.54C665.04,280.78,665.48,280.64,665.63,281.01z"/>
		</g>
	</g>
	<g id="leaf5">
		<g>
			<path style="fill:#38A53D;" d="M250.82,473.79c0.29,0.38,0.58,0.75,0.88,1.13c1.1,2.07,2.45,4.02,3.31,6.22
				c1,1.29,1.15,2.84,1.48,4.34c0.03,0.27,0.12,0.53,0.21,0.79c0.22,1.01,0.26,2.04,0.41,3.06c-0.07,1.01,0,2.03,0.11,3.04
				c-0.03,0.58-0.08,1.17-0.17,1.75c-0.21,1.02-0.01,2.11-0.36,3.11c-0.1,0.73-0.21,1.46-0.43,2.17c-0.3,0.74-0.31,1.56-0.53,2.32
				c-0.84,2.6-1.67,5.2-2.89,7.65c-0.52,0.97-1.02,1.95-1.48,2.95c-0.05,0.1-0.1,0.2-0.16,0.3c-0.6,1.07-1.18,2.16-1.79,3.22
				c-0.49,1.1-1.17,2.08-1.78,3.11c-0.77,1.16-1.46,2.38-2.36,3.46c-0.82,0.83-1.21,1.97-2.02,2.81c-0.59,0.85-1.16,1.71-1.84,2.49
				c-0.82,1.2-1.79,2.28-2.69,3.42c-1.26,1.69-2.56,3.34-4.01,4.86c-0.97,0.87-1.62,2.04-2.58,2.93c-0.63,0.84-1.3,1.65-2.05,2.39
				c-1.08,0.96-1.86,2.2-2.9,3.2c-0.63,0.85-1.32,1.65-2.05,2.42c-1.06,1.21-2.19,2.37-3.12,3.69c-0.26,0.36-0.59,0.6-1.03,0.67
				c-0.13,0.01-0.24-0.05-0.32-0.16c0.12-1.44,1.19-2.41,1.72-3.64c0.55-0.83,1.04-1.7,1.42-2.63c0.18-0.52,0.49-0.98,0.71-1.48
				c0.32-0.5,0.57-1.04,0.78-1.6c0.59-1.3,1.13-2.63,1.75-3.92c0.5-1.28,1.07-2.54,1.61-3.81c0.56-1.11,0.88-2.31,1.35-3.46
				c0.14-0.46,0.35-0.88,0.46-1.35c0.3-0.95,0.55-1.92,0.87-2.86c0.24-1.02,0.59-2.01,0.81-3.04c0.07-0.36,0.27-0.67,0.33-1.03
				c0.33-1.45,0.69-2.89,0.99-4.35c0.42-1.42,0.57-2.9,0.86-4.35c0.13-0.39,0.22-0.79,0.23-1.21c0.16-1.13,0.43-2.24,0.45-3.39
				c0.03-0.64,0.24-1.24,0.31-1.86c0.2-2.67,0.59-5.33,0.53-8.02c0.15-0.55,0.13-1.13,0.13-1.7c0.02-1.05-0.05-2.1,0.1-3.13
				c0.09-0.63-0.02-1.25-0.09-1.87c-0.07-3.08-0.17-6.16-0.41-9.25c-0.02-0.16-0.03-0.32-0.04-0.48c-0.04-1.06-0.21-2.12-0.23-3.19
				c-0.08-0.93-0.25-1.86-0.25-2.8c-0.05-0.58-0.12-1.16-0.19-1.74c-0.21-1.27-0.3-2.55-0.54-3.81c-0.07-0.48-0.1-0.96-0.19-1.44
				c-0.19-0.91-0.16-1.85-0.46-2.74c-0.32-2.18-0.7-4.35-1.05-6.52c-0.07-0.42-0.19-0.91,0.22-1.18c0.36-0.24,0.76,0.03,1.1,0.21
				c1.74,0.94,3.42,1.98,5.05,3.09c1.19,0.86,2.39,1.71,3.57,2.58c1.12,0.83,2.3,1.58,3.05,2.8c0.88,0.9,1.77,1.8,2.65,2.7
				C249.11,471.7,249.97,472.75,250.82,473.79z"/>
			<path style="fill:#56BB5F;" d="M229.99,524.93c-0.05,0.05-0.09,0.12-0.1,0.19c-0.4,1.22-0.79,2.43-1.19,3.65
				c-0.03,1.04-0.3,1.98-1.01,2.75c-0.12,0.37-0.23,0.74-0.35,1.11c-0.52,1.28-1.04,2.56-1.56,3.84c0.08,0.71-0.33,1.21-0.71,1.72
				c-0.46,1.01-0.93,2.02-1.39,3.03c-0.43,0.56-0.66,1.21-0.86,1.88c-0.33,1.05-0.64,2.11-1.5,2.86c-0.11,0.33-0.49,0.51-0.47,0.91
				c-0.59,1.1-1.18,2.2-1.77,3.3c-0.2,0.36-0.55,0.64-0.6,1.09c-0.06,0.25-0.09,0.51-0.36,0.64c-0.31,0.25-0.35,0.73-0.77,0.89
				c-0.36-0.78,0.11-1.6-0.18-2.39c0.04-1.34-0.02-2.68-0.3-4.01c-0.4-1.64-0.49-3.32-0.75-4.97c-0.03-0.32-0.07-0.64-0.11-0.96
				c-0.22-1.33-0.43-2.67-0.65-4.01c-0.14-0.73-0.33-1.46-0.31-2.21c-0.05-0.64-0.28-1.26-0.34-1.9c-0.11-1.07-0.45-2.11-0.53-3.18
				c-0.07-0.74-0.21-1.48-0.34-2.22c-0.1-0.48-0.23-0.95-0.23-1.44c-0.39-2.94-0.91-5.86-1.31-8.8c-0.02-0.16-0.02-0.31-0.03-0.47
				c-0.01-0.3-0.06-0.61-0.09-0.91c-0.06-0.55-0.12-1.11-0.19-1.66c-0.05-0.46-0.1-0.92-0.2-1.38c-0.34-1.31-0.2-2.65-0.42-3.97
				c-0.05-0.58-0.13-1.16-0.14-1.75c-0.05-0.79-0.07-1.57-0.19-2.36c-0.01-1.16-0.09-2.33-0.15-3.49c-0.02-0.42-0.07-0.85-0.04-1.27
				c0.05-1.43-0.08-2.87,0.03-4.3c0.05-1.48,0.02-2.97,0.21-4.43c0.02-0.26,0.05-0.53,0.07-0.79c0.14-1.76,0.44-3.49,0.74-5.22
				c0.2-1.16,0.48-2.29,0.74-3.43c0.22-0.75,0.33-1.54,0.65-2.27c0.22-0.49,0.37-1,0.53-1.51c0.45-1.09,0.95-2.17,1.38-3.27
				c1.25-2.55,2.85-4.87,4.72-7c0.65-0.55,1.11-1.29,1.79-1.81c0.93-0.78,1.83-1.6,2.86-2.25c0.47-0.19,0.9-0.46,1.29-0.78
				c0.15-0.11,0.31-0.2,0.48-0.28c0.4-0.13,0.72-0.41,1.09-0.61c0.96-0.35,1.77-1.06,2.83-1.19c0.94,0.61,1.01,1.52,0.9,2.49
				c0.56,3.02,1.12,6.05,1.68,9.07c0.04,0.45,0.41,0.87,0.2,1.35c0.04,0.38,0.09,0.77,0.13,1.15c0.42,0.59,0.51,1.23,0.28,1.9
				c0.14,1.11,0.29,2.23,0.43,3.34c0.06,0.57,0.13,1.13,0.19,1.7c0.1,1.14,0.2,2.28,0.3,3.42c-0.07,0.99,0.03,1.98,0.16,2.97
				c0.25,0.4,0.23,0.8,0.05,1.2c0.07,4.99,0.04,9.97-0.48,14.92c-0.14,1.35-0.29,2.71-0.44,4.06c-0.24,1.6-0.49,3.2-0.73,4.79
				c0.12,0.17,0.11,0.33-0.04,0.47c-0.45,1.19-0.58,2.46-0.82,3.7c0.15,0.77-0.06,1.45-0.44,2.09c-0.32,0.68-0.48,1.4-0.59,2.14
				c-0.18,0.46-0.38,0.91-0.38,1.42c-0.02,0.44-0.18,0.83-0.34,1.23C230.37,524.19,229.82,524.44,229.99,524.93z"/>
		</g>
		<g>
			<path style="fill:#38A53D;" d="M215.52,443.38c-0.25-0.27-0.49-0.53-0.74-0.8c-1.42-1.09-2.71-2.35-4.26-3.27
				c-0.84-0.91-1.99-1.22-3.07-1.66c-0.2-0.06-0.38-0.16-0.57-0.26c-0.73-0.29-1.5-0.45-2.25-0.7c-0.77-0.08-1.52-0.26-2.27-0.47
				c-0.44-0.05-0.89-0.09-1.33-0.09c-0.79,0.03-1.58-0.26-2.38-0.12c-0.56-0.02-1.13-0.03-1.68,0.05c-0.6,0.13-1.21,0.04-1.81,0.1
				c-2.06,0.31-4.12,0.6-6.12,1.2c-0.79,0.27-1.59,0.52-2.4,0.74c-0.08,0.02-0.16,0.05-0.24,0.08c-0.88,0.32-1.77,0.62-2.65,0.94
				c-0.89,0.23-1.71,0.61-2.56,0.95c-0.97,0.43-1.98,0.8-2.9,1.34c-0.73,0.51-1.64,0.66-2.37,1.16c-0.71,0.33-1.44,0.66-2.11,1.07
				c-1.01,0.47-1.94,1.06-2.91,1.59c-1.43,0.73-2.83,1.5-4.16,2.4c-0.78,0.62-1.74,0.96-2.53,1.57c-0.71,0.37-1.41,0.77-2.06,1.24
				c-0.86,0.69-1.89,1.12-2.77,1.78c-0.72,0.37-1.41,0.79-2.08,1.24c-1.04,0.65-2.06,1.35-3.17,1.88c-0.31,0.15-0.53,0.36-0.64,0.69
				c-0.02,0.1,0,0.19,0.08,0.26c1.1,0.1,1.96-0.59,2.95-0.84c0.69-0.31,1.41-0.57,2.15-0.73c0.41-0.07,0.8-0.25,1.2-0.35
				c0.42-0.18,0.85-0.29,1.3-0.38c1.05-0.28,2.12-0.52,3.17-0.82c1.03-0.22,2.04-0.48,3.07-0.73c0.9-0.28,1.85-0.37,2.77-0.58
				c0.36-0.05,0.71-0.15,1.07-0.18c0.75-0.1,1.51-0.17,2.26-0.29c0.8-0.05,1.58-0.19,2.38-0.22c0.28-0.01,0.54-0.12,0.82-0.12
				c1.13-0.07,2.26-0.15,3.39-0.19c1.12-0.14,2.25-0.06,3.38-0.1c0.31-0.05,0.62-0.06,0.94-0.02c0.87,0.02,1.74-0.04,2.6,0.09
				c0.48,0.06,0.96-0.02,1.44,0c2.03,0.19,4.08,0.23,6.1,0.62c0.43-0.04,0.86,0.05,1.29,0.12c0.79,0.11,1.57,0.3,2.37,0.33
				c0.48,0.01,0.94,0.17,1.39,0.31c2.31,0.44,4.61,0.91,6.9,1.48c0.12,0.04,0.24,0.06,0.36,0.09c0.79,0.17,1.57,0.42,2.37,0.57
				c0.69,0.18,1.37,0.42,2.07,0.55c0.43,0.11,0.86,0.24,1.28,0.37c0.93,0.32,1.88,0.55,2.8,0.89c0.35,0.11,0.71,0.2,1.06,0.33
				c0.66,0.26,1.37,0.36,2,0.7c1.6,0.52,3.18,1.07,4.77,1.62c0.31,0.11,0.66,0.26,0.92-0.02c0.23-0.24,0.07-0.58-0.02-0.85
				c-0.48-1.43-1.06-2.82-1.68-4.19c-0.49-1.01-0.98-2.01-1.48-3.01c-0.48-0.94-0.9-1.93-1.72-2.65c-0.56-0.78-1.13-1.56-1.69-2.34
				C216.87,444.93,216.2,444.16,215.52,443.38z"/>
			<path style="fill:#56BB5F;" d="M174.43,452.56c-0.05,0.03-0.1,0.05-0.16,0.05c-0.96,0.14-1.93,0.29-2.89,0.43
				c-0.79-0.11-1.53-0.03-2.2,0.41c-0.29,0.04-0.58,0.08-0.88,0.12c-1.03,0.23-2.06,0.46-3.08,0.69c-0.53-0.15-0.95,0.09-1.39,0.31
				c-0.82,0.22-1.64,0.44-2.45,0.66c-0.47,0.25-0.99,0.34-1.52,0.41c-0.83,0.11-1.66,0.21-2.34,0.76c-0.26,0.04-0.45,0.3-0.75,0.24
				c-0.9,0.3-1.8,0.61-2.71,0.91c-0.3,0.1-0.55,0.33-0.9,0.31c-0.19,0.02-0.4,0-0.53,0.19c-0.23,0.2-0.59,0.17-0.77,0.46
				c0.54,0.37,1.22,0.12,1.77,0.44c1.01,0.14,2.01,0.35,2.98,0.73c1.18,0.51,2.43,0.79,3.64,1.19c0.24,0.06,0.47,0.13,0.71,0.21
				c0.98,0.33,1.95,0.66,2.93,1c0.53,0.2,1.06,0.44,1.62,0.52c0.48,0.12,0.91,0.37,1.38,0.5c0.79,0.22,1.53,0.61,2.33,0.8
				c0.55,0.15,1.09,0.34,1.62,0.54c0.34,0.14,0.68,0.29,1.05,0.36c2.16,0.66,4.29,1.43,6.45,2.1c0.12,0.03,0.23,0.06,0.35,0.08
				c0.23,0.05,0.45,0.12,0.67,0.19c0.41,0.11,0.82,0.23,1.22,0.35c0.34,0.09,0.68,0.19,1.01,0.32c0.94,0.42,1.97,0.49,2.93,0.82
				c0.43,0.11,0.86,0.25,1.3,0.32c0.58,0.14,1.17,0.25,1.75,0.44c0.87,0.16,1.74,0.36,2.61,0.55c0.32,0.07,0.63,0.16,0.95,0.19
				c1.08,0.15,2.15,0.42,3.23,0.52c1.12,0.15,2.23,0.36,3.36,0.4c0.2,0.02,0.4,0.03,0.6,0.05c1.34,0.12,2.68,0.11,4.02,0.11
				c0.89,0,1.78-0.07,2.67-0.12c0.59-0.07,1.2-0.05,1.79-0.2c0.4-0.1,0.8-0.15,1.21-0.21c0.88-0.2,1.75-0.44,2.63-0.62
				c2.08-0.62,4.02-1.52,5.86-2.66c0.5-0.42,1.11-0.67,1.59-1.12c0.7-0.6,1.44-1.17,2.06-1.86c0.2-0.33,0.46-0.62,0.75-0.87
				c0.1-0.1,0.19-0.21,0.27-0.32c0.15-0.29,0.4-0.49,0.6-0.74c0.39-0.68,1.02-1.19,1.26-1.97c-0.34-0.78-1.01-0.95-1.75-0.99
				c-2.2-0.81-4.41-1.61-6.61-2.42c-0.34-0.09-0.6-0.42-0.99-0.33c-0.28-0.08-0.57-0.16-0.85-0.24c-0.39-0.39-0.86-0.54-1.39-0.46
				c-0.82-0.25-1.64-0.5-2.46-0.75c-0.42-0.12-0.84-0.24-1.25-0.36c-0.84-0.22-1.69-0.44-2.53-0.66c-0.76-0.07-1.49-0.27-2.21-0.5
				c-0.27-0.24-0.57-0.27-0.9-0.19c-3.74-0.68-7.49-1.3-11.28-1.53c-1.04-0.07-2.07-0.13-3.11-0.19c-1.23-0.02-2.46-0.04-3.7-0.06
				c-0.11-0.11-0.23-0.12-0.36-0.03c-0.95,0.19-1.92,0.12-2.89,0.14c-0.56-0.21-1.1-0.14-1.63,0.07c-0.55,0.16-1.11,0.18-1.69,0.17
				c-0.37,0.08-0.73,0.17-1.12,0.1c-0.33-0.04-0.65,0.03-0.97,0.1C175.03,452.36,174.77,452.75,174.43,452.56z"/>
		</g>
	</g>
	<g id="leaf6">
		<g>
			<path style="fill:#38A53D;" d="M612.05,395.5c0.31-0.36,0.63-0.72,0.94-1.08c1.82-1.48,3.47-3.18,5.46-4.45
				c1.07-1.23,2.57-1.68,3.97-2.29c0.26-0.09,0.5-0.22,0.73-0.36c0.95-0.41,1.95-0.65,2.92-1c1.01-0.13,1.99-0.4,2.96-0.69
				c0.58-0.08,1.16-0.15,1.75-0.17c1.04,0.01,2.07-0.4,3.12-0.25c0.74-0.05,1.47-0.08,2.21,0c0.79,0.15,1.59,0.01,2.38,0.07
				c2.71,0.33,5.43,0.63,8.06,1.35c1.05,0.32,2.11,0.63,3.18,0.88c0.11,0.02,0.22,0.06,0.32,0.1c1.17,0.38,2.34,0.74,3.51,1.13
				c1.17,0.26,2.27,0.74,3.39,1.15c1.29,0.53,2.62,0.97,3.85,1.65c0.97,0.64,2.17,0.8,3.15,1.44c0.95,0.41,1.91,0.81,2.8,1.33
				c1.34,0.57,2.58,1.32,3.87,1.98c1.9,0.91,3.77,1.86,5.55,2.99c1.05,0.79,2.32,1.2,3.37,1.96c0.95,0.46,1.87,0.96,2.74,1.55
				c1.15,0.87,2.52,1.4,3.7,2.23c0.96,0.45,1.88,0.98,2.77,1.55c1.39,0.81,2.74,1.69,4.22,2.35c0.41,0.18,0.7,0.46,0.86,0.88
				c0.03,0.13,0,0.24-0.09,0.34c-1.44,0.17-2.59-0.7-3.9-0.99c-0.92-0.38-1.87-0.69-2.85-0.88c-0.55-0.08-1.05-0.29-1.59-0.41
				c-0.55-0.22-1.13-0.35-1.72-0.46c-1.39-0.33-2.8-0.6-4.18-0.95c-1.36-0.25-2.7-0.56-4.05-0.84c-1.19-0.33-2.44-0.42-3.66-0.65
				c-0.47-0.05-0.93-0.17-1.41-0.19c-0.99-0.11-1.99-0.17-2.98-0.29c-1.05-0.04-2.08-0.19-3.13-0.2c-0.37,0-0.71-0.14-1.08-0.12
				c-1.49-0.05-2.97-0.12-4.46-0.13c-1.47-0.14-2.95,0-4.43-0.01c-0.41-0.05-0.82-0.06-1.23,0.01c-1.14,0.06-2.28,0.01-3.41,0.22
				c-0.63,0.1-1.26,0.01-1.89,0.05c-2.66,0.33-5.34,0.45-7.98,1.03c-0.57-0.04-1.13,0.09-1.69,0.2c-1.03,0.18-2.05,0.45-3.09,0.51
				c-0.63,0.03-1.22,0.26-1.82,0.45c-3.01,0.66-6.02,1.36-8.99,2.19c-0.15,0.05-0.31,0.09-0.47,0.13c-1.04,0.25-2.04,0.61-3.08,0.84
				c-0.9,0.26-1.78,0.6-2.7,0.79c-0.56,0.16-1.11,0.34-1.67,0.53c-1.2,0.46-2.44,0.79-3.64,1.27c-0.46,0.16-0.92,0.28-1.37,0.47
				c-0.85,0.37-1.78,0.52-2.6,0.99c-2.08,0.74-4.13,1.53-6.2,2.3c-0.4,0.15-0.86,0.37-1.2,0.01c-0.31-0.31-0.12-0.75-0.01-1.12
				c0.58-1.89,1.28-3.73,2.05-5.56c0.61-1.34,1.22-2.67,1.83-4.01c0.59-1.25,1.1-2.56,2.16-3.54c0.71-1.04,1.42-2.08,2.13-3.13
				C610.32,397.59,611.19,396.55,612.05,395.5z"/>
			<path style="fill:#56BB5F;" d="M666.26,406.03c0.06,0.04,0.13,0.06,0.21,0.06c1.27,0.15,2.54,0.31,3.81,0.46
				c1.03-0.18,2-0.09,2.9,0.46c0.38,0.04,0.77,0.09,1.15,0.13c1.36,0.26,2.71,0.53,4.07,0.79c0.68-0.21,1.25,0.09,1.83,0.36
				c1.08,0.26,2.16,0.52,3.24,0.78c0.63,0.31,1.31,0.41,2.01,0.48c1.09,0.12,2.19,0.22,3.1,0.91c0.34,0.05,0.6,0.38,0.99,0.28
				c1.19,0.36,2.39,0.73,3.58,1.09c0.4,0.12,0.74,0.41,1.19,0.38c0.25,0.01,0.52-0.01,0.7,0.23c0.3,0.26,0.79,0.21,1.02,0.58
				c-0.7,0.51-1.6,0.2-2.31,0.64c-1.33,0.22-2.63,0.53-3.88,1.07c-1.53,0.71-3.16,1.12-4.73,1.7c-0.31,0.09-0.61,0.19-0.92,0.3
				c-1.27,0.47-2.54,0.94-3.8,1.41c-0.69,0.28-1.37,0.61-2.11,0.74c-0.62,0.17-1.18,0.52-1.8,0.71c-1.03,0.31-1.98,0.85-3.02,1.14
				c-0.72,0.21-1.41,0.49-2.11,0.76c-0.45,0.19-0.88,0.41-1.36,0.51c-2.81,0.95-5.57,2.03-8.38,2.99c-0.15,0.05-0.3,0.09-0.46,0.12
				c-0.3,0.07-0.58,0.18-0.87,0.27c-0.53,0.16-1.06,0.34-1.59,0.51c-0.44,0.14-0.89,0.27-1.31,0.46c-1.22,0.58-2.56,0.71-3.81,1.18
				c-0.56,0.16-1.12,0.35-1.69,0.47c-0.76,0.2-1.53,0.37-2.28,0.64c-1.14,0.24-2.27,0.54-3.4,0.82c-0.41,0.1-0.82,0.24-1.24,0.29
				c-1.41,0.23-2.8,0.63-4.22,0.8c-1.46,0.23-2.91,0.55-4.39,0.65c-0.26,0.03-0.53,0.05-0.79,0.09c-1.75,0.21-3.51,0.25-5.26,0.29
				c-1.17,0.03-2.34-0.03-3.51-0.06c-0.78-0.07-1.58-0.03-2.35-0.2c-0.52-0.12-1.06-0.17-1.59-0.23c-1.16-0.23-2.31-0.51-3.48-0.72
				c-2.75-0.74-5.33-1.85-7.78-3.27c-0.67-0.53-1.48-0.84-2.12-1.41c-0.95-0.76-1.93-1.48-2.77-2.37c-0.28-0.43-0.62-0.79-1.02-1.11
				c-0.14-0.12-0.25-0.27-0.36-0.41c-0.21-0.37-0.54-0.63-0.81-0.95c-0.53-0.87-1.39-1.53-1.72-2.54c0.42-1.04,1.29-1.28,2.26-1.37
				c2.86-1.14,5.72-2.27,8.58-3.41c0.44-0.13,0.77-0.57,1.29-0.46c0.37-0.12,0.74-0.23,1.1-0.35c0.5-0.53,1.11-0.74,1.81-0.65
				c1.06-0.36,2.13-0.71,3.19-1.07c0.54-0.17,1.09-0.34,1.63-0.51c1.1-0.32,2.2-0.64,3.3-0.95c0.99-0.12,1.94-0.41,2.88-0.74
				c0.34-0.33,0.74-0.38,1.17-0.28c4.88-1.03,9.77-1.97,14.73-2.42c1.36-0.12,2.71-0.24,4.07-0.36c1.62-0.07,3.23-0.14,4.85-0.21
				c0.14-0.15,0.3-0.17,0.47-0.05c1.25,0.21,2.53,0.09,3.79,0.08c0.73-0.29,1.43-0.22,2.13,0.03c0.73,0.19,1.47,0.2,2.22,0.16
				c0.49,0.09,0.97,0.2,1.47,0.1c0.43-0.07,0.85,0.02,1.27,0.1C665.45,405.8,665.81,406.3,666.26,406.03z"/>
		</g>
		<g>
			<path style="fill:#38A53D;" d="M589.05,436.03c-0.21,0.29-0.43,0.59-0.64,0.88c-0.8,1.6-1.78,3.12-2.39,4.81
				c-0.73,1-0.81,2.19-1.04,3.34c-0.02,0.21-0.08,0.41-0.14,0.61c-0.15,0.77-0.15,1.56-0.25,2.34c0.08,0.77,0.04,1.55-0.02,2.32
				c0.04,0.44,0.08,0.89,0.17,1.33c0.18,0.77,0.05,1.6,0.34,2.36c0.09,0.56,0.19,1.11,0.37,1.64c0.24,0.56,0.27,1.18,0.45,1.76
				c0.7,1.96,1.38,3.93,2.37,5.77c0.42,0.73,0.82,1.46,1.19,2.22c0.04,0.08,0.08,0.15,0.13,0.22c0.48,0.8,0.95,1.62,1.43,2.42
				c0.39,0.83,0.94,1.56,1.42,2.33c0.61,0.87,1.16,1.79,1.87,2.58c0.64,0.61,0.96,1.48,1.6,2.1c0.47,0.64,0.92,1.28,1.46,1.86
				c0.65,0.9,1.42,1.7,2.13,2.55c1,1.26,2.02,2.49,3.16,3.62c0.76,0.64,1.28,1.52,2.03,2.18c0.5,0.63,1.03,1.23,1.61,1.78
				c0.84,0.71,1.47,1.63,2.28,2.37c0.5,0.64,1.04,1.23,1.62,1.8c0.84,0.9,1.72,1.76,2.46,2.75c0.2,0.27,0.46,0.45,0.8,0.49
				c0.1,0,0.18-0.04,0.24-0.12c-0.12-1.1-0.95-1.81-1.39-2.73c-0.44-0.62-0.83-1.27-1.14-1.97c-0.15-0.39-0.4-0.73-0.57-1.11
				c-0.26-0.38-0.45-0.78-0.63-1.2c-0.48-0.98-0.92-1.98-1.41-2.95c-0.41-0.97-0.87-1.91-1.31-2.87c-0.45-0.83-0.72-1.74-1.1-2.61
				c-0.11-0.34-0.28-0.67-0.38-1.02c-0.25-0.72-0.46-1.45-0.72-2.16c-0.21-0.77-0.49-1.52-0.68-2.3c-0.06-0.27-0.22-0.51-0.27-0.78
				c-0.28-1.1-0.59-2.19-0.85-3.29c-0.35-1.07-0.5-2.2-0.75-3.29c-0.1-0.3-0.18-0.6-0.2-0.92c-0.14-0.86-0.38-1.7-0.41-2.57
				c-0.03-0.48-0.21-0.94-0.28-1.41c-0.21-2.03-0.56-4.05-0.58-6.1c-0.13-0.42-0.12-0.86-0.14-1.29c-0.04-0.8-0.01-1.6-0.14-2.39
				c-0.08-0.47-0.01-0.95,0.03-1.43c-0.01-2.35,0-4.7,0.12-7.05c0.01-0.12,0.02-0.25,0.02-0.37c0.01-0.81,0.11-1.62,0.11-2.43
				c0.04-0.71,0.15-1.43,0.13-2.14c0.02-0.44,0.07-0.89,0.11-1.33c0.14-0.97,0.18-1.95,0.33-2.92c0.04-0.37,0.05-0.73,0.12-1.1
				c0.13-0.7,0.08-1.41,0.29-2.1c0.2-1.67,0.44-3.33,0.66-4.99c0.04-0.32,0.13-0.7-0.19-0.9c-0.28-0.17-0.58,0.04-0.83,0.18
				c-1.3,0.75-2.56,1.58-3.79,2.46c-0.89,0.68-1.78,1.36-2.67,2.04c-0.83,0.65-1.72,1.25-2.27,2.2c-0.66,0.7-1.31,1.41-1.97,2.11
				C590.31,434.4,589.68,435.22,589.05,436.03z"/>
			<path style="fill:#56BB5F;" d="M606.02,474.57c0.04,0.04,0.07,0.09,0.08,0.14c0.33,0.92,0.66,1.84,0.98,2.75
				c0.04,0.79,0.27,1.51,0.83,2.08c0.1,0.28,0.19,0.56,0.29,0.84c0.42,0.96,0.85,1.93,1.27,2.89c-0.04,0.54,0.28,0.92,0.58,1.3
				c0.37,0.76,0.75,1.52,1.12,2.28c0.34,0.42,0.53,0.91,0.7,1.41c0.27,0.79,0.53,1.59,1.2,2.15c0.09,0.25,0.38,0.38,0.38,0.69
				c0.47,0.83,0.94,1.65,1.42,2.48c0.16,0.27,0.43,0.48,0.48,0.82c0.05,0.19,0.08,0.39,0.29,0.48c0.24,0.18,0.29,0.55,0.6,0.66
				c0.26-0.6-0.12-1.22,0.09-1.83c-0.06-1.02-0.05-2.04,0.14-3.06c0.27-1.26,0.3-2.54,0.46-3.81c0.01-0.24,0.04-0.49,0.07-0.73
				c0.14-1.02,0.27-2.04,0.41-3.07c0.09-0.56,0.22-1.12,0.19-1.69c0.02-0.49,0.19-0.97,0.22-1.46c0.06-0.82,0.3-1.62,0.34-2.44
				c0.04-0.57,0.12-1.13,0.21-1.7c0.07-0.36,0.16-0.73,0.15-1.1c0.23-2.25,0.57-4.49,0.81-6.73c0.01-0.12,0.01-0.24,0.01-0.36
				c0-0.23,0.04-0.46,0.05-0.69c0.03-0.42,0.07-0.85,0.11-1.27c0.03-0.35,0.05-0.7,0.12-1.05c0.23-1,0.09-2.03,0.23-3.03
				c0.02-0.44,0.07-0.89,0.07-1.33c0.02-0.6,0.02-1.2,0.09-1.8c-0.01-0.89,0.02-1.78,0.04-2.66c0-0.32,0.04-0.65,0.01-0.97
				c-0.07-1.09,0-2.19-0.11-3.27c-0.07-1.13-0.08-2.26-0.26-3.37c-0.02-0.2-0.05-0.4-0.07-0.6c-0.14-1.34-0.41-2.65-0.67-3.96
				c-0.17-0.88-0.42-1.73-0.64-2.6c-0.18-0.57-0.29-1.17-0.54-1.71c-0.18-0.37-0.3-0.76-0.44-1.14c-0.37-0.82-0.77-1.63-1.12-2.46
				c-1.01-1.92-2.28-3.65-3.74-5.23c-0.51-0.41-0.87-0.96-1.41-1.34c-0.73-0.57-1.43-1.18-2.23-1.66c-0.37-0.13-0.69-0.33-1-0.57
				c-0.12-0.08-0.24-0.14-0.37-0.2c-0.31-0.09-0.56-0.3-0.84-0.44c-0.74-0.25-1.37-0.77-2.18-0.85c-0.7,0.49-0.74,1.18-0.63,1.91
				c-0.36,2.32-0.73,4.63-1.09,6.95c-0.02,0.35-0.3,0.67-0.13,1.04c-0.02,0.29-0.05,0.59-0.07,0.88c-0.31,0.46-0.37,0.95-0.18,1.46
				c-0.09,0.85-0.17,1.7-0.26,2.55c-0.04,0.43-0.07,0.87-0.11,1.3c-0.05,0.87-0.1,1.74-0.15,2.61c0.08,0.76,0.02,1.51-0.06,2.27
				c-0.19,0.31-0.16,0.61-0.01,0.92c0.06,3.8,0.18,7.6,0.68,11.36c0.14,1.03,0.28,2.06,0.42,3.08c0.22,1.21,0.44,2.43,0.66,3.64
				c-0.09,0.13-0.08,0.25,0.04,0.35c0.37,0.9,0.49,1.86,0.7,2.81c-0.1,0.59,0.08,1.1,0.38,1.58c0.26,0.51,0.4,1.06,0.49,1.62
				c0.15,0.35,0.31,0.69,0.32,1.08c0.02,0.33,0.16,0.63,0.29,0.93C605.71,474.01,606.14,474.19,606.02,474.57z"/>
		</g>
	</g>
	<g id="leaf7">
		<g>
			<path style="fill:#38A53D;" d="M467.8,523.17c0.47,0.06,0.95,0.12,1.42,0.18c2.25,0.68,4.58,1.1,6.74,2.05
				c1.62,0.2,2.82,1.19,4.12,2.01c0.22,0.17,0.46,0.29,0.71,0.41c0.87,0.56,1.63,1.26,2.46,1.86c0.67,0.77,1.44,1.43,2.23,2.07
				c0.39,0.44,0.77,0.88,1.12,1.35c0.58,0.87,1.49,1.49,1.95,2.45c0.45,0.58,0.89,1.18,1.23,1.83c0.32,0.73,0.88,1.32,1.28,2.01
				c1.25,2.43,2.51,4.86,3.38,7.44c0.32,1.05,0.66,2.1,1.05,3.13c0.04,0.1,0.07,0.21,0.1,0.32c0.34,1.18,0.69,2.36,1.02,3.54
				c0.44,1.12,0.65,2.3,0.95,3.46c0.28,1.37,0.66,2.72,0.78,4.11c0.01,1.16,0.55,2.25,0.57,3.41c0.19,1.02,0.39,2.03,0.47,3.07
				c0.27,1.43,0.35,2.88,0.52,4.32c0.31,2.08,0.56,4.17,0.62,6.27c-0.07,1.31,0.3,2.59,0.26,3.89c0.15,1.04,0.25,2.09,0.25,3.14
				c-0.08,1.44,0.24,2.87,0.22,4.31c0.16,1.05,0.24,2.1,0.26,3.16c0.11,1.61,0.13,3.22,0.41,4.82c0.08,0.44,0.01,0.84-0.25,1.21
				c-0.09,0.1-0.2,0.14-0.33,0.12c-0.94-1.1-0.87-2.54-1.36-3.79c-0.2-0.98-0.47-1.93-0.86-2.86c-0.24-0.5-0.35-1.04-0.55-1.55
				c-0.13-0.58-0.34-1.14-0.58-1.68c-0.5-1.34-1.07-2.66-1.55-4c-0.55-1.26-1.05-2.55-1.56-3.82c-0.39-1.18-1.02-2.26-1.5-3.4
				c-0.23-0.42-0.38-0.87-0.63-1.28c-0.46-0.88-0.97-1.74-1.42-2.63c-0.55-0.89-1-1.84-1.58-2.71c-0.2-0.3-0.28-0.67-0.5-0.96
				c-0.79-1.26-1.56-2.53-2.38-3.77c-0.71-1.3-1.65-2.45-2.47-3.68c-0.19-0.37-0.41-0.71-0.7-1.02c-0.69-0.91-1.28-1.89-2.09-2.71
				c-0.43-0.47-0.71-1.04-1.1-1.54c-1.76-2.03-3.36-4.18-5.31-6.04c-0.29-0.5-0.71-0.88-1.11-1.29c-0.72-0.75-1.52-1.45-2.15-2.28
				c-0.38-0.5-0.9-0.87-1.39-1.25c-2.23-2.13-4.49-4.23-6.84-6.23c-0.13-0.1-0.25-0.21-0.37-0.31c-0.78-0.72-1.65-1.35-2.42-2.09
				c-0.72-0.6-1.5-1.14-2.16-1.8c-0.44-0.38-0.91-0.73-1.37-1.09c-1.05-0.74-2.02-1.58-3.09-2.31c-0.39-0.29-0.75-0.61-1.16-0.88
				c-0.78-0.5-1.42-1.19-2.27-1.61c-1.77-1.31-3.57-2.58-5.37-3.86c-0.35-0.25-0.78-0.51-0.68-0.99c0.09-0.43,0.56-0.52,0.92-0.63
				c1.89-0.57,3.81-1.02,5.76-1.4c1.45-0.24,2.9-0.48,4.35-0.72c1.37-0.21,2.74-0.51,4.14-0.19c1.26,0.01,2.52,0.02,3.79,0.02
				C465.11,522.9,466.45,523.04,467.8,523.17z"/>
			<path style="fill:#56BB5F;" d="M489.35,574.01c0,0.08,0.02,0.14,0.07,0.2c0.58,1.14,1.16,2.28,1.75,3.42
				c0.72,0.75,1.2,1.61,1.24,2.66c0.18,0.34,0.36,0.69,0.54,1.03c0.54,1.27,1.08,2.54,1.62,3.82c0.56,0.45,0.63,1.09,0.72,1.72
				c0.39,1.04,0.78,2.08,1.17,3.12c0.1,0.69,0.39,1.32,0.72,1.93c0.51,0.97,1.04,1.94,0.97,3.08c0.15,0.31,0.02,0.71,0.32,0.98
				c0.36,1.19,0.73,2.39,1.09,3.58c0.12,0.4,0.07,0.84,0.35,1.2c0.13,0.22,0.3,0.43,0.2,0.71c-0.04,0.4,0.27,0.77,0.09,1.17
				c-0.81-0.3-1.06-1.21-1.82-1.56c-0.92-0.98-1.91-1.88-3.05-2.62c-1.45-0.87-2.69-2-4.05-2.98c-0.25-0.21-0.5-0.4-0.76-0.6
				c-1.1-0.79-2.2-1.58-3.3-2.36c-0.62-0.42-1.27-0.8-1.79-1.34c-0.49-0.42-1.09-0.69-1.59-1.1c-0.83-0.68-1.82-1.17-2.63-1.87
				c-0.58-0.47-1.19-0.9-1.81-1.32c-0.41-0.26-0.83-0.5-1.18-0.85c-2.35-1.8-4.8-3.49-7.16-5.28c-0.12-0.1-0.24-0.2-0.35-0.31
				c-0.22-0.21-0.47-0.38-0.71-0.57c-0.43-0.35-0.87-0.69-1.31-1.03c-0.36-0.29-0.72-0.58-1.12-0.83c-1.16-0.68-2.02-1.73-3.11-2.5
				c-0.45-0.38-0.92-0.73-1.33-1.14c-0.59-0.52-1.16-1.06-1.8-1.53c-0.84-0.81-1.71-1.58-2.58-2.36c-0.31-0.29-0.65-0.55-0.93-0.87
				c-0.98-1.04-2.09-1.97-3.02-3.05c-1.01-1.08-2.09-2.11-2.99-3.28c-0.17-0.2-0.34-0.41-0.52-0.6c-1.15-1.34-2.17-2.77-3.18-4.21
				c-0.68-0.95-1.28-1.96-1.91-2.94c-0.38-0.69-0.86-1.32-1.15-2.06c-0.19-0.5-0.45-0.97-0.7-1.45c-0.46-1.09-0.87-2.2-1.34-3.29
				c-0.93-2.69-1.44-5.46-1.63-8.28c0.07-0.85-0.13-1.7-0.01-2.55c0.1-1.21,0.16-2.43,0.42-3.62c0.2-0.47,0.31-0.96,0.35-1.47
				c0.03-0.18,0.08-0.36,0.14-0.53c0.19-0.38,0.22-0.8,0.33-1.2c0.43-0.93,0.49-2,1.15-2.85c1.1-0.24,1.79,0.36,2.4,1.11
				c2.54,1.74,5.08,3.47,7.62,5.21c0.35,0.29,0.91,0.32,1.1,0.81c0.3,0.24,0.6,0.48,0.91,0.72c0.72,0.12,1.23,0.5,1.55,1.14
				c0.89,0.68,1.78,1.37,2.67,2.05c0.45,0.35,0.89,0.71,1.34,1.07c0.88,0.73,1.76,1.47,2.63,2.2c0.65,0.75,1.43,1.38,2.22,1.98
				c0.46,0.1,0.73,0.4,0.89,0.81c3.58,3.47,7.1,7.01,10.24,10.86c0.86,1.06,1.71,2.11,2.57,3.17c0.96,1.3,1.92,2.6,2.88,3.9
				c0.21,0.03,0.31,0.15,0.3,0.36c0.53,1.16,1.34,2.14,2.05,3.19c0.65,0.44,0.98,1.07,1.17,1.79c0.25,0.7,0.65,1.33,1.11,1.93
				c0.2,0.45,0.38,0.91,0.74,1.27c0.3,0.32,0.46,0.72,0.63,1.11C489.09,573.22,488.88,573.79,489.35,574.01z"/>
		</g>
		<g>
			<path style="fill:#38A53D;" d="M421.34,526.74c-0.36-0.01-0.73-0.03-1.09-0.04c-1.77,0.24-3.58,0.26-5.32,0.71
				c-1.24-0.05-2.27,0.55-3.35,1c-0.18,0.1-0.38,0.16-0.58,0.22c-0.72,0.31-1.38,0.74-2.08,1.1c-0.6,0.49-1.26,0.9-1.93,1.28
				c-0.35,0.28-0.69,0.57-1.01,0.88c-0.54,0.58-1.3,0.94-1.77,1.6c-0.41,0.38-0.81,0.78-1.15,1.23c-0.33,0.51-0.83,0.89-1.21,1.36
				c-1.24,1.68-2.49,3.34-3.46,5.18c-0.37,0.75-0.75,1.5-1.18,2.22c-0.04,0.07-0.08,0.15-0.11,0.23c-0.4,0.85-0.81,1.69-1.21,2.54
				c-0.47,0.79-0.77,1.65-1.14,2.48c-0.38,0.99-0.83,1.96-1.1,3c-0.15,0.87-0.69,1.62-0.85,2.5c-0.27,0.74-0.55,1.48-0.73,2.25
				c-0.38,1.04-0.62,2.12-0.93,3.19c-0.49,1.53-0.94,3.07-1.24,4.64c-0.11,0.99-0.55,1.91-0.67,2.9c-0.24,0.77-0.45,1.54-0.57,2.33
				c-0.12,1.1-0.54,2.13-0.69,3.22c-0.25,0.77-0.44,1.55-0.59,2.34c-0.28,1.2-0.5,2.41-0.9,3.57c-0.11,0.32-0.11,0.63,0.04,0.94
				c0.05,0.09,0.13,0.13,0.24,0.13c0.84-0.71,0.97-1.8,1.49-2.68c0.27-0.71,0.59-1.4,1-2.04c0.24-0.34,0.39-0.74,0.6-1.1
				c0.17-0.42,0.39-0.81,0.65-1.19c0.54-0.95,1.13-1.87,1.66-2.82c0.57-0.88,1.1-1.79,1.65-2.68c0.44-0.84,1.04-1.57,1.55-2.37
				c0.22-0.29,0.39-0.61,0.63-0.89c0.46-0.61,0.94-1.19,1.39-1.81c0.52-0.6,0.98-1.26,1.52-1.85c0.19-0.2,0.3-0.47,0.49-0.66
				c0.75-0.85,1.49-1.71,2.26-2.54c0.69-0.89,1.54-1.64,2.31-2.46c0.19-0.25,0.39-0.49,0.65-0.68c0.63-0.6,1.2-1.26,1.9-1.78
				c0.38-0.3,0.66-0.7,1.02-1.02c1.57-1.31,3.04-2.73,4.74-3.89c0.28-0.34,0.64-0.58,0.99-0.83c0.64-0.48,1.32-0.9,1.9-1.45
				c0.35-0.33,0.78-0.54,1.2-0.77c1.94-1.32,3.9-2.63,5.92-3.84c0.11-0.06,0.21-0.12,0.32-0.19c0.68-0.45,1.41-0.81,2.08-1.27
				c0.61-0.36,1.27-0.67,1.85-1.08c0.38-0.23,0.77-0.44,1.16-0.65c0.88-0.43,1.72-0.94,2.61-1.35c0.33-0.17,0.64-0.37,0.98-0.52
				c0.65-0.28,1.22-0.72,1.91-0.93c1.49-0.77,3.01-1.5,4.51-2.24c0.29-0.14,0.65-0.28,0.64-0.66c-0.01-0.33-0.36-0.46-0.62-0.59
				c-1.35-0.66-2.74-1.24-4.16-1.77c-1.06-0.36-2.12-0.72-3.18-1.08c-1.01-0.33-2-0.72-3.09-0.65c-0.95-0.15-1.9-0.3-2.85-0.45
				C423.4,526.87,422.37,526.8,421.34,526.74z"/>
			<path style="fill:#56BB5F;" d="M398.86,562.33c-0.01,0.06-0.03,0.11-0.08,0.15c-0.58,0.78-1.16,1.57-1.74,2.35
				c-0.64,0.48-1.1,1.06-1.26,1.85c-0.18,0.24-0.35,0.47-0.53,0.71c-0.56,0.89-1.12,1.78-1.69,2.67c-0.48,0.27-0.6,0.74-0.76,1.2
				c-0.42,0.74-0.84,1.47-1.26,2.21c-0.16,0.51-0.46,0.94-0.78,1.37c-0.5,0.67-1.02,1.33-1.11,2.2c-0.15,0.22-0.1,0.53-0.36,0.7
				c-0.42,0.85-0.84,1.71-1.26,2.56c-0.14,0.29-0.16,0.62-0.41,0.86c-0.13,0.15-0.28,0.28-0.24,0.51c-0.02,0.3-0.3,0.54-0.21,0.87
				c0.65-0.12,0.95-0.78,1.56-0.95c0.82-0.62,1.67-1.18,2.62-1.59c1.2-0.48,2.27-1.17,3.42-1.74c0.21-0.13,0.43-0.24,0.65-0.35
				c0.93-0.46,1.85-0.92,2.77-1.37c0.52-0.24,1.05-0.44,1.51-0.79c0.42-0.25,0.91-0.38,1.33-0.63c0.71-0.41,1.51-0.65,2.21-1.08
				c0.49-0.29,1.01-0.53,1.53-0.77c0.34-0.15,0.69-0.28,0.99-0.49c1.99-1.06,4.04-2.03,6.04-3.09c0.11-0.06,0.21-0.12,0.31-0.19
				c0.19-0.13,0.4-0.23,0.61-0.34c0.37-0.21,0.74-0.41,1.11-0.62c0.31-0.17,0.61-0.35,0.94-0.49c0.96-0.37,1.73-1.05,2.65-1.5
				c0.38-0.23,0.78-0.43,1.14-0.69c0.51-0.32,1-0.66,1.54-0.93c0.73-0.51,1.48-0.98,2.23-1.46c0.27-0.18,0.56-0.33,0.81-0.54
				c0.87-0.66,1.81-1.22,2.65-1.92c0.89-0.69,1.83-1.33,2.66-2.1c0.15-0.13,0.31-0.26,0.46-0.39c1.03-0.86,1.97-1.82,2.91-2.77
				c0.63-0.63,1.2-1.31,1.8-1.98c0.37-0.47,0.81-0.89,1.12-1.41c0.21-0.35,0.46-0.67,0.7-1c0.48-0.77,0.92-1.55,1.41-2.31
				c1.03-1.91,1.76-3.93,2.25-6.03c0.06-0.65,0.31-1.26,0.32-1.91c0.07-0.92,0.18-1.84,0.13-2.77c-0.09-0.38-0.11-0.76-0.08-1.15
				c0-0.14-0.01-0.28-0.04-0.42c-0.1-0.31-0.07-0.63-0.1-0.95c-0.21-0.75-0.12-1.57-0.51-2.28c-0.8-0.31-1.39,0.05-1.94,0.54
				c-2.13,0.99-4.25,1.99-6.38,2.98c-0.3,0.17-0.72,0.13-0.93,0.47c-0.26,0.14-0.51,0.29-0.77,0.43c-0.56,0-0.99,0.23-1.31,0.67
				c-0.75,0.4-1.51,0.81-2.26,1.21c-0.38,0.21-0.76,0.42-1.14,0.64c-0.75,0.44-1.5,0.89-2.25,1.33c-0.58,0.49-1.24,0.86-1.91,1.22
				c-0.36,0.02-0.6,0.21-0.77,0.5c-3.12,2.17-6.2,4.39-9.04,6.91c-0.78,0.69-1.55,1.38-2.32,2.07c-0.88,0.86-1.77,1.72-2.65,2.58
				c-0.16,0-0.25,0.08-0.27,0.23c-0.54,0.81-1.27,1.45-1.94,2.15c-0.54,0.25-0.87,0.68-1.1,1.2c-0.28,0.5-0.66,0.92-1.07,1.31
				c-0.21,0.31-0.4,0.64-0.72,0.87c-0.26,0.21-0.44,0.48-0.61,0.76C399.15,561.76,399.24,562.22,398.86,562.33z"/>
		</g>
	</g>
</g>
</svg>
