<?xml version="1.0" encoding="utf-8"?>
<!-- Generator: Adobe Illustrator 24.1.2, SVG Export Plug-In . SVG Version: 6.00 Build 0)  -->
<svg version="1.1" id="Layer_1" xmlns="http://www.w3.org/2000/svg" xmlns:xlink="http://www.w3.org/1999/xlink" x="0px" y="0px"
	 viewBox="0 0 1920 250" style="enable-background:new 0 0 1920 250;" xml:space="preserve">
<style type="text/css">
	.st0{fill:#7AC17A;}
	.st1{fill:#5DAF5D;}
</style>
<g>
	<path class="st0" d="M1261.73,50.24c-9.79,1.35-19.53,2.77-29.23,4.24c218.57,33.21,391.31,102.73,478,194.52H1917V66.54
		C1739.82,24.7,1509.17,16.04,1261.73,50.24z"/>
	<path class="st1" d="M588.56,249c6.18-2.24,12.39-4.43,18.64-6.51l124.12-42.89c92.86-43.07,200.66-80.37,318.76-109.09
		c58.48-14.22,119.47-26.34,182.42-36.02c-129.24-19.95-274.76-26.8-427.97-17.49C730.8,41.48,659.3,49.46,590.91,60.48
		c-119.94,19.33-230.26,48.03-326.12,83.64l-127.02,32.98C89.95,188.99,43.69,205.88-1,218.96V249H588.56z"/>
	<path class="st1" d="M1232.5,54.48c-63.97,9.68-125.95,21.8-185.37,36.02c-120.01,28.73-229.56,66.03-323.93,109.09l-126.13,42.89
		c-6.35,2.09-12.66,4.27-18.95,6.51H1710.5C1623.81,157.21,1451.07,87.69,1232.5,54.48z"/>
</g>
</svg>
