<?xml version="1.0" encoding="utf-8"?>
<!-- Generator: Adobe Illustrator 24.1.2, SVG Export Plug-In . SVG Version: 6.00 Build 0)  -->
<svg version="1.1" xmlns="http://www.w3.org/2000/svg" xmlns:xlink="http://www.w3.org/1999/xlink" x="0px" y="0px"
	 viewBox="0 0 250 2000" style="enable-background:new 0 0 250 2000;" xml:space="preserve">
<g id="Layer_1" style="display:none;">
	
		<rect x="-0.26" y="250" style="display:inline;fill:none;stroke:#043A04;stroke-width:3;stroke-miterlimit:10;" width="250" height="250"/>
	
		<rect x="-0.26" y="500" style="display:inline;fill:none;stroke:#043A04;stroke-width:3;stroke-miterlimit:10;" width="250" height="250"/>
	
		<rect x="-0.26" y="750" style="display:inline;fill:none;stroke:#043A04;stroke-width:3;stroke-miterlimit:10;" width="250" height="250"/>
	
		<rect x="-0.26" y="1000" style="display:inline;fill:none;stroke:#043A04;stroke-width:3;stroke-miterlimit:10;" width="250" height="250"/>
	
		<rect x="-0.26" y="1250" style="display:inline;fill:none;stroke:#043A04;stroke-width:3;stroke-miterlimit:10;" width="250" height="250"/>
	
		<rect x="-0.26" y="1500" style="display:inline;fill:none;stroke:#043A04;stroke-width:3;stroke-miterlimit:10;" width="250" height="250"/>
	<rect x="-0.26" style="display:inline;fill:none;stroke:#043A04;stroke-width:3;stroke-miterlimit:10;" width="250" height="250"/>
	
		<rect x="-0.26" y="1750" style="display:inline;fill:none;stroke:#043A04;stroke-width:3;stroke-miterlimit:10;" width="250" height="250"/>
</g>
<g id="Layer_2">
	<g>
		<g>
			<path style="fill-rule:evenodd;clip-rule:evenodd;fill:#FFC000;" d="M115.47,416.73c1.1,0,2,1.34,2,3c0,1.13,0.09,2.27,0.26,3.4
				c-0.76-0.27-1.51-0.4-2.26-0.4c-1.1,0-2-1.34-2-3S114.36,416.73,115.47,416.73z"/>
			<path style="fill-rule:evenodd;clip-rule:evenodd;fill:#FFC000;" d="M129.83,412.76c0.54,1.21-0.08,2.66-1.38,3.25
				c-0.89,0.4-1.74,0.89-2.54,1.48c-0.16-0.92-0.43-1.79-0.8-2.62c-0.54-1.21,0.08-2.66,1.38-3.25
				C127.8,411.04,129.29,411.55,129.83,412.76z"/>
			<path style="fill-rule:evenodd;clip-rule:evenodd;fill:#FFC000;" d="M122.72,396.03c1.21,0.55,1.71,2.04,1.12,3.35
				c-0.4,0.89-0.71,1.82-0.92,2.8c-0.73-0.58-1.51-1.06-2.33-1.43c-1.21-0.55-1.71-2.05-1.12-3.35
				C120.05,396.09,121.51,395.48,122.72,396.03z"/>
			<path style="fill-rule:evenodd;clip-rule:evenodd;fill:#FFC000;" d="M126.59,430.83c0.68,1.14,0.24,2.65-0.99,3.39
				c-0.84,0.5-1.62,1.09-2.35,1.78c-0.27-0.89-0.64-1.73-1.1-2.51c-0.68-1.14-0.24-2.65,0.99-3.39S125.91,429.69,126.59,430.83z"/>
		</g>
		<path style="fill-rule:evenodd;clip-rule:evenodd;fill:#7F6000;" d="M144.54,450.19c5.87,4.65,9.17,8.56,10.6,11.78l0.16,0.58
			l0.64,0.19c3.06,1.31,5.11,3.56,5.46,6.02l0.03,0.01l2.47,1.02c2.31,1.23,4,3.01,4.68,5.01c0.66,1.94,0.32,3.94-0.96,5.61
			c2.4,2.74,6.83,10.07,1.03,9.1c-5.65-0.95-6.29,6.12-12.12,6.08c-0.3,2.49-4.42-0.99-7.61-0.85c-3.19,0.14-7.19,4.2-11.51,1.71
			c-1.84,3.28-8.14,0.74-12.6,0.6c-4.53-0.14-8.39-2.12-13.42,0.83l-1.49-0.25l0.06,0.31c0.09,0.47,0.13,0.72,0.05,0.54l-0.12-0.85
			l-1.1-0.19c-2.45-0.34-4.55-0.45-7.32-1.28c-3.69-1.1-8.41,0.21-12.4-2.04c-4.51-0.12-8.5-2.53-9.43-5.71
			c-0.67-2.3,0.39-4.59,2.8-6.03c-3.02-1.66-4.5-4.37-3.78-6.9c0.84-2.97,4.5-4.97,8.8-4.82c0.03-0.05,0.06-0.09,0.09-0.14
			c-0.25-3.04,1.41-5.9,4.53-7.8c1.23-0.75,2.62-1.31,4.1-1.68l0.19-0.04l-0.32-0.69c-0.8-3.09,2.67-5.08,9.19-8.22
			C104.96,458.23,129.26,477.42,144.54,450.19z"/>
	</g>
	<g>
		<path style="fill-rule:evenodd;clip-rule:evenodd;fill:#7F6000;" d="M144.54,698.47c5.87,4.65,9.17,8.56,10.6,11.78l0.16,0.58
			l0.64,0.19c3.06,1.3,5.11,3.56,5.46,6.02l0.03,0.01l2.47,1.02c2.31,1.23,4,3.01,4.68,5.01c0.66,1.94,0.32,3.94-0.96,5.61
			c2.4,2.74,6.83,10.07,1.03,9.1c-5.65-0.95-6.29,6.12-12.12,6.08c-0.3,2.49-4.42-0.99-7.61-0.85c-3.19,0.14-7.19,4.2-11.51,1.71
			c-1.84,3.28-8.14,0.74-12.6,0.6c-4.53-0.14-8.39-2.12-13.42,0.84l-1.49-0.25l0.06,0.31c0.09,0.47,0.13,0.72,0.05,0.54l-0.12-0.85
			l-1.1-0.19c-2.45-0.34-4.55-0.45-7.32-1.28c-3.69-1.1-8.41,0.21-12.4-2.04c-4.51-0.12-8.5-2.53-9.43-5.71
			c-0.67-2.3,0.39-4.59,2.8-6.03c-3.02-1.66-4.5-4.37-3.78-6.9c0.84-2.97,4.5-4.97,8.8-4.82c0.03-0.05,0.06-0.09,0.09-0.14
			c-0.25-3.04,1.41-5.9,4.53-7.8c1.23-0.75,2.62-1.31,4.1-1.68l0.19-0.04l-0.32-0.69c-0.8-3.09,2.67-5.09,9.19-8.22
			C104.96,706.51,129.26,725.69,144.54,698.47z"/>
		<path style="fill-rule:evenodd;clip-rule:evenodd;fill:#70AD47;" d="M95.17,688.42c-2.67-3.78-1.41-10.53,2.81-15.06
			c4.22-4.53,9.81-5.14,12.48-1.35c2.67,3.79,1.41,10.53-2.81,15.06C103.42,691.6,97.84,692.21,95.17,688.42z"/>
		<path style="fill-rule:evenodd;clip-rule:evenodd;fill:#70AD47;" d="M122.5,712.22c5.71-15.75,12.91-42.48-10.64-39.15l0.25-1.35
			c28.2-4.74,16.63,25.13,15.15,40.5H122.5z"/>
	</g>
	<g>
		<path style="fill-rule:evenodd;clip-rule:evenodd;fill:#7F6000;" d="M144.42,950.55c5.87,4.65,9.17,8.56,10.6,11.78l0.16,0.58
			l0.64,0.19c3.06,1.3,5.11,3.56,5.46,6.02l0.03,0.01l2.47,1.02c2.31,1.23,4,3.01,4.68,5.01c0.66,1.94,0.32,3.94-0.96,5.61
			c2.4,2.74,6.83,10.07,1.03,9.1c-5.65-0.95-6.29,6.12-12.12,6.08c-0.3,2.49-4.42-0.99-7.61-0.85c-3.19,0.14-7.19,4.2-11.51,1.71
			c-1.84,3.28-8.14,0.74-12.6,0.6c-4.53-0.14-8.39-2.12-13.42,0.84l-1.49-0.25l0.06,0.31c0.09,0.47,0.13,0.72,0.05,0.54l-0.12-0.85
			l-1.1-0.19c-2.45-0.34-4.55-0.45-7.32-1.28c-3.69-1.1-8.41,0.21-12.4-2.04c-4.51-0.12-8.5-2.53-9.43-5.71
			c-0.67-2.3,0.39-4.59,2.8-6.03c-3.02-1.66-4.5-4.37-3.78-6.9c0.84-2.97,4.5-4.97,8.8-4.82c0.03-0.05,0.06-0.09,0.09-0.14
			c-0.25-3.04,1.41-5.9,4.53-7.8c1.23-0.75,2.62-1.31,4.1-1.68l0.19-0.04l-0.32-0.69c-0.8-3.09,2.67-5.09,9.19-8.22
			C104.84,958.59,129.13,977.78,144.42,950.55z"/>
		<path style="fill-rule:evenodd;clip-rule:evenodd;fill:#70AD47;" d="M120.45,964.35c5.95-22.82,7.25-50.58-2.82-64.04l0.09-0.63
			c10.77,10.43,13.02,42.74,11.47,65L120.45,964.35z"/>
		<g>
			<defs>
				<rect id="SVGID_1_" x="118.64" y="885.68" width="53" height="53"/>
			</defs>
			<clipPath id="SVGID_2_">
				<use xlink:href="#SVGID_1_"  style="overflow:visible;"/>
			</clipPath>
			<g style="clip-path:url(#SVGID_2_);">
				<g>
					<defs>
						<rect id="SVGID_3_" x="118.64" y="885.68" width="53" height="53"/>
					</defs>
					<clipPath id="SVGID_4_">
						<use xlink:href="#SVGID_3_"  style="overflow:visible;"/>
					</clipPath>
					<g style="clip-path:url(#SVGID_4_);">
						<g>
							<defs>
								<rect id="SVGID_5_" x="118.64" y="885.68" width="53" height="53"/>
							</defs>
							<clipPath id="SVGID_6_">
								<use xlink:href="#SVGID_5_"  style="overflow:visible;"/>
							</clipPath>
							<g style="clip-path:url(#SVGID_6_);">
								<path style="fill:#70AD47;" d="M143.76,896.73c-8.56,0-15.46,6.9-15.46,15.46c0,2.71,0.72,5.24,1.93,7.45
									c1.16-1.21,2.43-2.43,3.81-3.75c3.48-3.26,7.56-6.57,10.99-9c0.22-0.17,0.44-0.28,0.72-0.28c0.61,0,1.1,0.5,1.1,1.1
									c0,0.39-0.17,0.66-0.44,0.88l0,0c-4.91,3.53-11.43,9-15.85,13.97c0,0-0.61,0.66-0.88,0.99l0,0
									c-2.48,2.93-4.14,5.58-4.14,7.45h3.31c0-1.21,1.93-3.86,4.86-7.01c2.71,2.32,6.18,3.7,10.05,3.7c2.76,0,5.41-0.72,7.67-2.04
									l0,0c11.81-6.57,13.3-18.66,13.3-32.24C164.74,893.41,151.87,896.95,143.76,896.73z"/>
							</g>
						</g>
					</g>
				</g>
			</g>
		</g>
	</g>
	<g>
		<g>
			<defs>
				
					<rect id="SVGID_7_" x="73.11" y="1117.06" transform="matrix(0.9795 -0.2016 0.2016 0.9795 -228.4416 43.5352)" width="52.88" height="52.88"/>
			</defs>
			<clipPath id="SVGID_8_">
				<use xlink:href="#SVGID_7_"  style="overflow:visible;"/>
			</clipPath>
			<g style="clip-path:url(#SVGID_8_);">
				<g>
					<defs>
						
							<rect id="SVGID_9_" x="73.11" y="1117.06" transform="matrix(0.9795 -0.2016 0.2016 0.9795 -228.4416 43.5352)" width="52.88" height="52.88"/>
					</defs>
					<clipPath id="SVGID_10_">
						<use xlink:href="#SVGID_9_"  style="overflow:visible;"/>
					</clipPath>
					<g style="clip-path:url(#SVGID_10_);">
						<g>
							<defs>
								
									<rect id="SVGID_11_" x="73.11" y="1117.06" transform="matrix(0.9795 -0.2016 0.2016 0.9795 -228.4416 43.5352)" width="52.88" height="52.88"/>
							</defs>
							<clipPath id="SVGID_12_">
								<use xlink:href="#SVGID_11_"  style="overflow:visible;"/>
							</clipPath>
							<g style="clip-path:url(#SVGID_12_);">
								<path style="fill:#70AD47;" d="M97.79,1128.12c8.36-1.72,16.5,3.64,18.22,12c0.54,2.64,0.35,5.27-0.39,7.67
									c-1.38-0.95-2.86-1.89-4.48-2.9c-4.05-2.48-8.71-4.9-12.55-6.59c-0.25-0.12-0.49-0.18-0.76-0.13
									c-0.59,0.12-0.98,0.71-0.86,1.3c0.08,0.38,0.3,0.61,0.61,0.77l0,0c5.51,2.46,12.98,6.5,18.29,10.46c0,0,0.73,0.53,1.06,0.79
									l0,0c3.02,2.36,5.17,4.62,5.55,6.45l-3.24,0.67c-0.24-1.19-2.67-3.39-6.16-5.88c-2.18,2.81-5.3,4.86-9.08,5.64
									c-2.7,0.56-5.43,0.39-7.91-0.45l0,0c-12.87-4.04-16.76-15.56-19.49-28.83C76.62,1129.1,89.91,1129.96,97.79,1128.12z"/>
							</g>
						</g>
					</g>
				</g>
			</g>
		</g>
		<g>
			<path style="fill-rule:evenodd;clip-rule:evenodd;fill:#70AD47;" d="M113.02,1213.58c6.94-36.86,8.46-81.71-3.29-103.45l0.1-1.01
				c12.56,16.84,15.18,69.04,13.39,105L113.02,1213.58z"/>
			<g>
				<defs>
					
						<rect id="SVGID_13_" x="114.4" y="1135.64" transform="matrix(0.1062 -0.9943 0.9943 0.1062 -1030.1835 1189.2437)" width="64.05" height="64.05"/>
				</defs>
				<clipPath id="SVGID_14_">
					<use xlink:href="#SVGID_13_"  style="overflow:visible;"/>
				</clipPath>
				<g style="clip-path:url(#SVGID_14_);">
					<g>
						<defs>
							
								<rect id="SVGID_15_" x="114.4" y="1135.64" transform="matrix(0.1062 -0.9943 0.9943 0.1062 -1030.1835 1189.2437)" width="64.05" height="64.05"/>
						</defs>
						<clipPath id="SVGID_16_">
							<use xlink:href="#SVGID_15_"  style="overflow:visible;"/>
						</clipPath>
						<g style="clip-path:url(#SVGID_16_);">
							<g>
								<defs>
									
										<rect id="SVGID_17_" x="114.4" y="1135.64" transform="matrix(0.1062 -0.9943 0.9943 0.1062 -1030.1835 1189.2437)" width="64.05" height="64.05"/>
								</defs>
								<clipPath id="SVGID_18_">
									<use xlink:href="#SVGID_17_"  style="overflow:visible;"/>
								</clipPath>
								<g style="clip-path:url(#SVGID_18_);">
									<path style="fill:#70AD47;" d="M146.76,1148.91c-10.28-1.1-19.46,6.31-20.56,16.59c-0.35,3.25,0.19,6.39,1.37,9.2
										c1.55-1.31,3.23-2.61,5.06-4.02c4.6-3.47,9.93-6.92,14.36-9.4c0.29-0.17,0.57-0.28,0.9-0.24c0.73,0.08,1.26,0.74,1.19,1.47
										c-0.05,0.46-0.28,0.77-0.64,1l0,0c-6.36,3.62-14.89,9.35-20.83,14.75c0,0-0.81,0.72-1.19,1.08l0,0
										c-3.36,3.2-5.69,6.17-5.93,8.42l3.98,0.43c0.16-1.46,2.82-4.4,6.74-7.8c2.95,3.13,6.96,5.24,11.6,5.73
										c3.32,0.35,6.59-0.17,9.48-1.47l0,0c15.04-6.38,18.38-20.72,20.13-37.04C172.39,1147.62,156.48,1150.22,146.76,1148.91z"/>
								</g>
							</g>
						</g>
					</g>
				</g>
			</g>
			<path style="fill-rule:evenodd;clip-rule:evenodd;fill:#7F6000;" d="M136.78,1198.94c5.87,4.66,9.17,8.56,10.6,11.78l0.16,0.58
				l0.64,0.19c3.06,1.3,5.11,3.56,5.46,6.02l0.03,0.01l2.47,1.02c2.31,1.23,4,3.01,4.68,5.01c0.66,1.94,0.32,3.94-0.96,5.61
				c2.4,2.74,6.83,10.07,1.03,9.1c-5.65-0.95-6.29,6.12-12.12,6.08c-0.3,2.49-4.42-0.99-7.61-0.85c-3.19,0.14-7.19,4.2-11.51,1.71
				c-1.84,3.28-8.14,0.74-12.6,0.6c-4.53-0.14-8.39-2.12-13.42,0.84l-1.49-0.25l0.06,0.31c0.09,0.47,0.13,0.72,0.05,0.54l-0.12-0.85
				l-1.1-0.19c-2.45-0.34-4.55-0.45-7.32-1.28c-3.69-1.1-8.41,0.21-12.4-2.04c-4.51-0.11-8.5-2.53-9.43-5.71
				c-0.67-2.3,0.39-4.59,2.8-6.03c-3.02-1.66-4.5-4.37-3.78-6.9c0.84-2.97,4.5-4.97,8.8-4.82c0.03-0.05,0.06-0.09,0.09-0.14
				c-0.25-3.04,1.41-5.9,4.53-7.8c1.23-0.75,2.62-1.31,4.1-1.68l0.19-0.04l-0.32-0.69c-0.8-3.09,2.67-5.08,9.19-8.22
				C97.2,1206.98,121.5,1226.17,136.78,1198.94z"/>
		</g>
	</g>
	<g>
		<path style="fill-rule:evenodd;clip-rule:evenodd;fill:#70AD47;" d="M114.13,1464.84c7.93-48.1,9.66-106.61-3.76-134.98l0.12-1.32
			c14.36,21.98,17.35,90.08,15.3,137L114.13,1464.84z"/>
		<g>
			<defs>
				<rect id="SVGID_19_" x="113.37" y="1321.54" width="55" height="54"/>
			</defs>
			<clipPath id="SVGID_20_">
				<use xlink:href="#SVGID_19_"  style="overflow:visible;"/>
			</clipPath>
			<g style="clip-path:url(#SVGID_20_);">
				<g>
					<defs>
						<rect id="SVGID_21_" x="113.37" y="1321.54" width="55" height="54"/>
					</defs>
					<clipPath id="SVGID_22_">
						<use xlink:href="#SVGID_21_"  style="overflow:visible;"/>
					</clipPath>
					<g style="clip-path:url(#SVGID_22_);">
						<g>
							<defs>
								<rect id="SVGID_23_" x="113.37" y="1321.54" width="55" height="54"/>
							</defs>
							<clipPath id="SVGID_24_">
								<use xlink:href="#SVGID_23_"  style="overflow:visible;"/>
							</clipPath>
							<g style="clip-path:url(#SVGID_24_);">
								<path style="fill:#70AD47;" d="M139.44,1332.79c-8.88,0-16.04,7.03-16.04,15.75c0,2.76,0.74,5.34,2.01,7.59
									c1.2-1.24,2.52-2.48,3.95-3.82c3.61-3.32,7.85-6.69,11.4-9.17c0.23-0.17,0.46-0.28,0.74-0.28c0.63,0,1.15,0.51,1.15,1.13
									c0,0.39-0.17,0.67-0.46,0.9l0,0c-5.1,3.6-11.86,9.17-16.44,14.23c0,0-0.63,0.68-0.92,1.01l0,0c-2.58,2.98-4.3,5.68-4.3,7.59
									h3.44c0-1.24,2.01-3.94,5.04-7.14c2.81,2.36,6.42,3.77,10.43,3.77c2.86,0,5.61-0.73,7.96-2.08l0,0
									c12.26-6.69,13.81-19.01,13.81-32.85C161.21,1329.42,147.86,1333.02,139.44,1332.79z"/>
							</g>
						</g>
					</g>
				</g>
			</g>
		</g>
		<g>
			<defs>
				
					<rect id="SVGID_25_" x="70.83" y="1359.35" transform="matrix(0.9706 -0.2405 0.2405 0.9706 -330.6495 64.2969)" width="54.44" height="54.44"/>
			</defs>
			<clipPath id="SVGID_26_">
				<use xlink:href="#SVGID_25_"  style="overflow:visible;"/>
			</clipPath>
			<g style="clip-path:url(#SVGID_26_);">
				<g>
					<defs>
						
							<rect id="SVGID_27_" x="70.83" y="1359.35" transform="matrix(0.9706 -0.2405 0.2405 0.9706 -330.6495 64.2969)" width="54.44" height="54.44"/>
					</defs>
					<clipPath id="SVGID_28_">
						<use xlink:href="#SVGID_27_"  style="overflow:visible;"/>
					</clipPath>
					<g style="clip-path:url(#SVGID_28_);">
						<g>
							<defs>
								
									<rect id="SVGID_29_" x="70.83" y="1359.35" transform="matrix(0.9706 -0.2405 0.2405 0.9706 -330.6495 64.2969)" width="54.44" height="54.44"/>
							</defs>
							<clipPath id="SVGID_30_">
								<use xlink:href="#SVGID_29_"  style="overflow:visible;"/>
							</clipPath>
							<g style="clip-path:url(#SVGID_30_);">
								<path style="fill:#70AD47;" d="M95.61,1370.81c8.53-2.11,17.12,3.06,19.23,11.59c0.67,2.7,0.58,5.41-0.08,7.91
									c-1.46-0.92-3.02-1.82-4.73-2.8c-4.27-2.39-9.16-4.68-13.18-6.26c-0.26-0.11-0.51-0.17-0.78-0.1
									c-0.61,0.15-0.98,0.77-0.83,1.37c0.1,0.39,0.33,0.62,0.66,0.77l0,0c5.77,2.31,13.62,6.15,19.25,10.01
									c0,0,0.77,0.51,1.13,0.77l0,0c3.2,2.3,5.51,4.54,5.97,6.41l-3.3,0.82c-0.3-1.21-2.88-3.38-6.58-5.79
									c-2.12,2.98-5.25,5.22-9.1,6.17c-2.75,0.68-5.57,0.62-8.16-0.14l0,0c-13.4-3.63-17.88-15.32-21.23-28.86
									C73.87,1372.69,87.57,1373.04,95.61,1370.81z"/>
							</g>
						</g>
					</g>
				</g>
			</g>
		</g>
		<g>
			<defs>
				
					<rect id="SVGID_31_" x="117.44" y="1372.12" transform="matrix(0.1345 -0.9909 0.9909 0.1345 -1261.9902 1362.88)" width="63.49" height="63.49"/>
			</defs>
			<clipPath id="SVGID_32_">
				<use xlink:href="#SVGID_31_"  style="overflow:visible;"/>
			</clipPath>
			<g style="clip-path:url(#SVGID_32_);">
				<g>
					<defs>
						
							<rect id="SVGID_33_" x="117.44" y="1372.12" transform="matrix(0.1345 -0.9909 0.9909 0.1345 -1261.9902 1362.88)" width="63.49" height="63.49"/>
					</defs>
					<clipPath id="SVGID_34_">
						<use xlink:href="#SVGID_33_"  style="overflow:visible;"/>
					</clipPath>
					<g style="clip-path:url(#SVGID_34_);">
						<g>
							<defs>
								
									<rect id="SVGID_35_" x="117.44" y="1372.12" transform="matrix(0.1345 -0.9909 0.9909 0.1345 -1261.9902 1362.88)" width="63.49" height="63.49"/>
							</defs>
							<clipPath id="SVGID_36_">
								<use xlink:href="#SVGID_35_"  style="overflow:visible;"/>
							</clipPath>
							<g style="clip-path:url(#SVGID_36_);">
								<path style="fill:#70AD47;" d="M150.04,1385.3c-10.16-1.38-19.46,5.7-20.84,15.86c-0.43,3.21,0.01,6.34,1.09,9.16
									c1.57-1.26,3.28-2.49,5.13-3.84c4.65-3.31,10.04-6.58,14.49-8.91c0.29-0.16,0.57-0.26,0.9-0.21
									c0.72,0.1,1.23,0.77,1.13,1.49c-0.06,0.46-0.3,0.76-0.67,0.98l0,0c-6.4,3.4-15.02,8.84-21.06,14.03c0,0-0.83,0.69-1.21,1.04
									l0,0c-3.42,3.07-5.81,5.95-6.12,8.18l3.93,0.53c0.2-1.44,2.92-4.28,6.9-7.54c2.84,3.19,6.74,5.39,11.33,6.01
									c3.28,0.44,6.54,0.02,9.44-1.19l0,0c15.08-5.9,18.8-20.01,20.99-36.13C175.48,1384.74,159.64,1386.87,150.04,1385.3z"/>
							</g>
						</g>
					</g>
				</g>
			</g>
		</g>
		<path style="fill-rule:evenodd;clip-rule:evenodd;fill:#7F6000;" d="M138.78,1449.19c5.87,4.65,9.17,8.56,10.6,11.78l0.16,0.58
			l0.64,0.19c3.06,1.31,5.11,3.56,5.46,6.02l0.03,0.01l2.47,1.02c2.31,1.23,4,3.01,4.68,5.01c0.66,1.94,0.32,3.94-0.96,5.61
			c2.4,2.74,6.83,10.07,1.03,9.1c-5.65-0.95-6.29,6.12-12.12,6.08c-0.3,2.49-4.42-0.99-7.61-0.85c-3.19,0.14-7.19,4.2-11.51,1.71
			c-1.84,3.28-8.14,0.74-12.6,0.6c-4.53-0.14-8.39-2.12-13.42,0.83l-1.49-0.25l0.06,0.31c0.09,0.47,0.13,0.72,0.05,0.54l-0.12-0.85
			l-1.1-0.19c-2.45-0.34-4.55-0.45-7.32-1.28c-3.69-1.1-8.41,0.21-12.4-2.04c-4.51-0.12-8.5-2.53-9.43-5.71
			c-0.67-2.3,0.39-4.59,2.8-6.03c-3.02-1.66-4.5-4.37-3.78-6.9c0.84-2.97,4.5-4.97,8.8-4.82c0.03-0.05,0.06-0.09,0.09-0.14
			c-0.25-3.04,1.41-5.9,4.53-7.8c1.23-0.75,2.62-1.31,4.1-1.68l0.19-0.04l-0.32-0.69c-0.8-3.09,2.67-5.09,9.19-8.22
			C99.2,1457.23,123.5,1476.42,138.78,1449.19z"/>
	</g>
	<g>
		<path style="fill-rule:evenodd;clip-rule:evenodd;fill:#70AD47;" d="M105.81,1714.09c13.95-61.93,17-137.29-6.61-173.82l0.21-1.7
			c25.26,28.3,30.53,116,26.92,176.42L105.81,1714.09z"/>
		<g>
			<defs>
				
					<rect id="SVGID_37_" x="117.32" y="1573.15" transform="matrix(0.1724 -0.985 0.985 0.1724 -1456.9321 1468.527)" width="56.24" height="56.23"/>
			</defs>
			<clipPath id="SVGID_38_">
				<use xlink:href="#SVGID_37_"  style="overflow:visible;"/>
			</clipPath>
			<g style="clip-path:url(#SVGID_38_);">
				<g>
					<defs>
						
							<rect id="SVGID_39_" x="117.32" y="1573.15" transform="matrix(0.1724 -0.985 0.985 0.1724 -1456.9321 1468.527)" width="56.24" height="56.23"/>
					</defs>
					<clipPath id="SVGID_40_">
						<use xlink:href="#SVGID_39_"  style="overflow:visible;"/>
					</clipPath>
					<g style="clip-path:url(#SVGID_40_);">
						<g>
							<defs>
								
									<rect id="SVGID_41_" x="117.32" y="1573.15" transform="matrix(0.1724 -0.985 0.985 0.1724 -1456.9321 1468.527)" width="56.24" height="56.23"/>
							</defs>
							<clipPath id="SVGID_42_">
								<use xlink:href="#SVGID_41_"  style="overflow:visible;"/>
							</clipPath>
							<g style="clip-path:url(#SVGID_42_);">
								<path style="fill:#70AD47;" d="M146.83,1584.86c-8.94-1.56-17.42,4.39-18.98,13.33c-0.49,2.83-0.21,5.61,0.66,8.14
									c1.43-1.06,2.98-2.09,4.67-3.23c4.23-2.77,9.11-5.48,13.13-7.4c0.26-0.13,0.51-0.21,0.8-0.16c0.63,0.11,1.06,0.72,0.95,1.36
									c-0.07,0.4-0.29,0.66-0.62,0.84l0,0c-5.78,2.79-13.59,7.32-19.11,11.7c0,0-0.76,0.58-1.1,0.88l0,0
									c-3.13,2.6-5.35,5.07-5.69,7.03l3.46,0.61c0.22-1.27,2.73-3.69,6.36-6.44c2.4,2.92,5.79,5,9.83,5.7
									c2.89,0.5,5.79,0.24,8.39-0.73l0,0c13.55-4.71,17.32-17.07,19.8-31.26C169.36,1585.23,155.27,1586.57,146.83,1584.86z"/>
							</g>
						</g>
					</g>
				</g>
			</g>
		</g>
		<g>
			<defs>
				
					<rect id="SVGID_43_" x="62.24" y="1610.68" transform="matrix(0.9706 -0.2405 0.2405 0.9706 -391.8815 70.2745)" width="59.35" height="59.35"/>
			</defs>
			<clipPath id="SVGID_44_">
				<use xlink:href="#SVGID_43_"  style="overflow:visible;"/>
			</clipPath>
			<g style="clip-path:url(#SVGID_44_);">
				<g>
					<defs>
						
							<rect id="SVGID_45_" x="62.24" y="1610.68" transform="matrix(0.9706 -0.2405 0.2405 0.9706 -391.8815 70.2745)" width="59.35" height="59.35"/>
					</defs>
					<clipPath id="SVGID_46_">
						<use xlink:href="#SVGID_45_"  style="overflow:visible;"/>
					</clipPath>
					<g style="clip-path:url(#SVGID_46_);">
						<g>
							<defs>
								
									<rect id="SVGID_47_" x="62.24" y="1610.68" transform="matrix(0.9706 -0.2405 0.2405 0.9706 -391.8815 70.2745)" width="59.35" height="59.35"/>
							</defs>
							<clipPath id="SVGID_48_">
								<use xlink:href="#SVGID_47_"  style="overflow:visible;"/>
							</clipPath>
							<g style="clip-path:url(#SVGID_48_);">
								<path style="fill:#70AD47;" d="M89.25,1623.19c9.3-2.31,18.66,3.34,20.97,12.64c0.73,2.94,0.63,5.89-0.09,8.62
									c-1.59-1.01-3.29-1.99-5.15-3.05c-4.66-2.6-9.99-5.1-14.37-6.82c-0.28-0.12-0.55-0.18-0.85-0.11
									c-0.66,0.16-1.07,0.84-0.9,1.5c0.1,0.42,0.36,0.68,0.72,0.84l0,0c6.29,2.52,14.85,6.7,20.99,10.91c0,0,0.84,0.56,1.23,0.84
									l0,0c3.49,2.51,6,4.95,6.51,6.99l-3.6,0.89c-0.33-1.32-3.14-3.68-7.17-6.31c-2.32,3.25-5.72,5.69-9.93,6.73
									c-3,0.74-6.07,0.68-8.89-0.15l0,0c-14.61-3.96-19.49-16.7-23.15-31.46C65.56,1625.24,80.49,1625.61,89.25,1623.19z"/>
							</g>
						</g>
					</g>
				</g>
			</g>
		</g>
		<g>
			<defs>
				
					<rect id="SVGID_49_" x="117.77" y="1617.92" transform="matrix(0.1345 -0.9909 0.9909 0.1345 -1505.7887 1583.5925)" width="71.76" height="71.76"/>
			</defs>
			<clipPath id="SVGID_50_">
				<use xlink:href="#SVGID_49_"  style="overflow:visible;"/>
			</clipPath>
			<g style="clip-path:url(#SVGID_50_);">
				<g>
					<defs>
						
							<rect id="SVGID_51_" x="117.77" y="1617.92" transform="matrix(0.1345 -0.9909 0.9909 0.1345 -1505.7887 1583.5925)" width="71.76" height="71.76"/>
					</defs>
					<clipPath id="SVGID_52_">
						<use xlink:href="#SVGID_51_"  style="overflow:visible;"/>
					</clipPath>
					<g style="clip-path:url(#SVGID_52_);">
						<g>
							<defs>
								
									<rect id="SVGID_53_" x="117.77" y="1617.92" transform="matrix(0.1345 -0.9909 0.9909 0.1345 -1505.7887 1583.5925)" width="71.76" height="71.76"/>
							</defs>
							<clipPath id="SVGID_54_">
								<use xlink:href="#SVGID_53_"  style="overflow:visible;"/>
							</clipPath>
							<g style="clip-path:url(#SVGID_54_);">
								<path style="fill:#70AD47;" d="M154.62,1632.81c-11.48-1.56-22,6.44-23.55,17.92c-0.49,3.63,0.01,7.17,1.24,10.35
									c1.78-1.42,3.7-2.82,5.79-4.34c5.26-3.74,11.35-7.44,16.37-10.07c0.33-0.18,0.65-0.29,1.01-0.24
									c0.82,0.11,1.4,0.87,1.29,1.68c-0.08,0.52-0.35,0.86-0.75,1.1l0,0c-7.24,3.85-16.98,9.99-23.81,15.85
									c0,0-0.94,0.78-1.37,1.17l0,0c-3.87,3.47-6.57,6.73-6.91,9.25l4.44,0.6c0.22-1.63,3.3-4.83,7.79-8.52
									c3.21,3.6,7.62,6.09,12.81,6.79c3.71,0.5,7.39,0.02,10.67-1.34l0,0c17.04-6.66,21.25-22.61,23.72-40.83
									C183.37,1632.19,165.46,1634.59,154.62,1632.81z"/>
							</g>
						</g>
					</g>
				</g>
			</g>
		</g>
		<g>
			<defs>
				
					<rect id="SVGID_55_" x="69.38" y="1554.02" transform="matrix(0.9706 -0.2405 0.2405 0.9706 -377.3461 69.4457)" width="52.82" height="52.82"/>
			</defs>
			<clipPath id="SVGID_56_">
				<use xlink:href="#SVGID_55_"  style="overflow:visible;"/>
			</clipPath>
			<g style="clip-path:url(#SVGID_56_);">
				<g>
					<defs>
						
							<rect id="SVGID_57_" x="69.38" y="1554.02" transform="matrix(0.9706 -0.2405 0.2405 0.9706 -377.3461 69.4457)" width="52.82" height="52.82"/>
					</defs>
					<clipPath id="SVGID_58_">
						<use xlink:href="#SVGID_57_"  style="overflow:visible;"/>
					</clipPath>
					<g style="clip-path:url(#SVGID_58_);">
						<g>
							<defs>
								
									<rect id="SVGID_59_" x="69.38" y="1554.02" transform="matrix(0.9706 -0.2405 0.2405 0.9706 -377.3461 69.4457)" width="52.82" height="52.82"/>
							</defs>
							<clipPath id="SVGID_60_">
								<use xlink:href="#SVGID_59_"  style="overflow:visible;"/>
							</clipPath>
							<g style="clip-path:url(#SVGID_60_);">
								<path style="fill:#70AD47;" d="M93.42,1565.14c8.28-2.05,16.61,2.97,18.66,11.25c0.65,2.62,0.56,5.25-0.08,7.67
									c-1.41-0.9-2.93-1.77-4.59-2.72c-4.15-2.32-8.89-4.54-12.79-6.07c-0.25-0.11-0.49-0.16-0.76-0.09
									c-0.59,0.15-0.95,0.75-0.8,1.33c0.09,0.37,0.32,0.6,0.64,0.75l0,0c5.6,2.24,13.21,5.97,18.68,9.71c0,0,0.75,0.5,1.09,0.75
									l0,0c3.1,2.23,5.34,4.4,5.79,6.22l-3.2,0.79c-0.29-1.17-2.8-3.28-6.38-5.62c-2.06,2.89-5.09,5.06-8.83,5.99
									c-2.67,0.66-5.41,0.6-7.91-0.14l0,0c-13-3.52-17.34-14.86-20.6-28C72.33,1566.97,85.63,1567.3,93.42,1565.14z"/>
							</g>
						</g>
					</g>
				</g>
			</g>
		</g>
		<g>
			<defs>
				
					<rect id="SVGID_61_" x="85" y="1516.37" transform="matrix(0.5 -0.866 0.866 0.5 -1276.1902 847.5861)" width="21.82" height="25.2"/>
			</defs>
			<clipPath id="SVGID_62_">
				<use xlink:href="#SVGID_61_"  style="overflow:visible;"/>
			</clipPath>
			<g style="clip-path:url(#SVGID_62_);">
				<g>
					<defs>
						
							<rect id="SVGID_63_" x="85" y="1516.37" transform="matrix(0.5 -0.866 0.866 0.5 -1276.1902 847.5861)" width="21.82" height="25.2"/>
					</defs>
					<clipPath id="SVGID_64_">
						<use xlink:href="#SVGID_63_"  style="overflow:visible;"/>
					</clipPath>
					<g style="clip-path:url(#SVGID_64_);">
						<g>
							<defs>
								
									<rect id="SVGID_65_" x="85" y="1516.37" transform="matrix(0.5 -0.866 0.866 0.5 -1276.1902 847.5861)" width="21.82" height="25.2"/>
							</defs>
							<clipPath id="SVGID_66_">
								<use xlink:href="#SVGID_65_"  style="overflow:visible;"/>
							</clipPath>
							<g style="clip-path:url(#SVGID_66_);">
								<path style="fill:#70AD47;" d="M89.26,1525.79c-1.76,3.05-0.34,7.15,3.18,9.19c1.11,0.64,2.31,0.99,3.47,1.08
									c-0.26-0.7-0.5-1.44-0.76-2.25c-0.63-2.01-1.15-4.26-1.44-6.06c-0.02-0.12-0.02-0.22,0.03-0.32
									c0.13-0.22,0.43-0.28,0.68-0.13c0.16,0.09,0.24,0.22,0.27,0.37l0,0c0.44,2.59,1.35,6.21,2.49,8.97c0,0,0.15,0.37,0.23,0.55
									l0,0c0.69,1.58,1.44,2.8,2.22,3.25l0.68-1.18c-0.5-0.29-1.19-1.61-1.89-3.4c1.51-0.41,2.8-1.33,3.59-2.7
									c0.57-0.98,0.82-2.1,0.74-3.22l0,0c-0.27-5.77-4.94-9.18-10.54-12.41C92.22,1517.52,91.02,1522.94,89.26,1525.79z"/>
							</g>
						</g>
					</g>
				</g>
			</g>
		</g>
		<path style="fill-rule:evenodd;clip-rule:evenodd;fill:#7F6000;" d="M135.78,1699.92c5.87,4.66,9.17,8.56,10.6,11.78l0.16,0.58
			l0.64,0.19c3.06,1.31,5.11,3.56,5.46,6.02l0.03,0.01l2.47,1.02c2.31,1.23,4,3.01,4.68,5.01c0.66,1.94,0.32,3.94-0.96,5.61
			c2.4,2.74,6.83,10.07,1.03,9.1c-5.65-0.95-6.29,6.12-12.12,6.08c-0.3,2.49-4.42-0.99-7.61-0.85c-3.19,0.14-7.19,4.2-11.51,1.71
			c-1.84,3.28-8.14,0.74-12.6,0.6c-4.53-0.14-8.39-2.12-13.42,0.83l-1.49-0.25l0.06,0.31c0.09,0.47,0.13,0.72,0.05,0.54l-0.12-0.85
			l-1.1-0.19c-2.45-0.34-4.55-0.45-7.32-1.28c-3.69-1.1-8.41,0.21-12.4-2.04c-4.51-0.11-8.5-2.53-9.43-5.71
			c-0.67-2.3,0.39-4.59,2.8-6.03c-3.02-1.66-4.5-4.37-3.78-6.9c0.84-2.97,4.5-4.97,8.8-4.82c0.03-0.05,0.06-0.09,0.09-0.14
			c-0.25-3.04,1.41-5.9,4.53-7.8c1.23-0.75,2.62-1.31,4.1-1.68l0.19-0.04l-0.32-0.69c-0.8-3.09,2.67-5.08,9.19-8.22
			C96.2,1707.97,120.5,1727.15,135.78,1699.92z"/>
	</g>
	<g>
		<path style="fill-rule:evenodd;clip-rule:evenodd;fill:#70AD47;" d="M107.93,1967.49c12.96-62.65,15.79-138.87-6.14-175.82
			l0.19-1.72c23.47,28.62,28.36,117.34,25,178.45L107.93,1967.49z"/>
		<g>
			<defs>
				<polygon id="SVGID_67_" points="123.11,1840.09 174.56,1848.58 165.55,1897.13 114.11,1888.63 				"/>
			</defs>
			<clipPath id="SVGID_68_">
				<use xlink:href="#SVGID_67_"  style="overflow:visible;"/>
			</clipPath>
			<g style="clip-path:url(#SVGID_68_);">
				<g>
					<defs>
						<polygon id="SVGID_69_" points="123.11,1840.09 174.56,1848.58 165.55,1897.13 114.11,1888.63 						"/>
					</defs>
					<clipPath id="SVGID_70_">
						<use xlink:href="#SVGID_69_"  style="overflow:visible;"/>
					</clipPath>
					<g style="clip-path:url(#SVGID_70_);">
						<g>
							<defs>
								<polygon id="SVGID_71_" points="123.11,1840.09 174.56,1848.58 165.55,1897.13 114.11,1888.63 								"/>
							</defs>
							<clipPath id="SVGID_72_">
								<use xlink:href="#SVGID_71_"  style="overflow:visible;"/>
							</clipPath>
							<g style="clip-path:url(#SVGID_72_);">
								<path style="fill:#70AD47;" d="M145.62,1854.23c-8.31-1.37-16.18,3.84-17.63,11.68c-0.46,2.48-0.19,4.92,0.61,7.14
									c1.33-0.93,2.77-1.84,4.34-2.83c3.93-2.43,8.46-4.81,12.19-6.48c0.24-0.12,0.48-0.18,0.74-0.14
									c0.59,0.1,0.99,0.63,0.88,1.19c-0.07,0.35-0.27,0.58-0.58,0.74l0,0c-5.37,2.45-12.62,6.41-17.75,10.25
									c0,0-0.7,0.51-1.03,0.77l0,0c-2.91,2.28-4.97,4.44-5.28,6.16l3.22,0.53c0.21-1.11,2.53-3.23,5.91-5.64
									c2.23,2.56,5.37,4.38,9.12,5c2.68,0.44,5.37,0.21,7.8-0.64l0,0c12.58-4.12,16.08-14.96,18.39-27.4
									C166.55,1854.56,153.46,1855.73,145.62,1854.23z"/>
							</g>
						</g>
					</g>
				</g>
			</g>
		</g>
		<g>
			<defs>
				<polygon id="SVGID_73_" points="114.05,1870.06 60.54,1882.57 73.81,1933.06 127.31,1920.55 				"/>
			</defs>
			<clipPath id="SVGID_74_">
				<use xlink:href="#SVGID_73_"  style="overflow:visible;"/>
			</clipPath>
			<g style="clip-path:url(#SVGID_74_);">
				<g>
					<defs>
						<polygon id="SVGID_75_" points="114.05,1870.06 60.54,1882.57 73.81,1933.06 127.31,1920.55 						"/>
					</defs>
					<clipPath id="SVGID_76_">
						<use xlink:href="#SVGID_75_"  style="overflow:visible;"/>
					</clipPath>
					<g style="clip-path:url(#SVGID_76_);">
						<g>
							<defs>
								<polygon id="SVGID_77_" points="114.05,1870.06 60.54,1882.57 73.81,1933.06 127.31,1920.55 								"/>
							</defs>
							<clipPath id="SVGID_78_">
								<use xlink:href="#SVGID_77_"  style="overflow:visible;"/>
							</clipPath>
							<g style="clip-path:url(#SVGID_78_);">
								<path style="fill:#70AD47;" d="M91.45,1886.51c8.64-2.02,17.33,2.92,19.47,11.08c0.68,2.58,0.59,5.17-0.09,7.56
									c-1.47-0.88-3.06-1.74-4.78-2.68c-4.33-2.28-9.28-4.47-13.34-5.98c-0.26-0.11-0.51-0.16-0.79-0.09
									c-0.61,0.14-0.99,0.73-0.84,1.31c0.1,0.37,0.33,0.59,0.67,0.74l0,0c5.84,2.21,13.79,5.87,19.49,9.56
									c0,0,0.78,0.49,1.14,0.74l0,0c3.24,2.2,5.57,4.33,6.04,6.12l-3.34,0.78c-0.3-1.16-2.92-3.23-6.66-5.53
									c-2.15,2.85-5.32,4.98-9.22,5.9c-2.79,0.65-5.64,0.59-8.26-0.13l0,0c-13.57-3.47-18.1-14.63-21.5-27.57
									C69.45,1888.31,83.32,1888.64,91.45,1886.51z"/>
							</g>
						</g>
					</g>
				</g>
			</g>
		</g>
		<g>
			<defs>
				<polygon id="SVGID_79_" points="123.42,1879.26 189.46,1887.72 180.49,1950.03 114.46,1941.57 				"/>
			</defs>
			<clipPath id="SVGID_80_">
				<use xlink:href="#SVGID_79_"  style="overflow:visible;"/>
			</clipPath>
			<g style="clip-path:url(#SVGID_80_);">
				<g>
					<defs>
						<polygon id="SVGID_81_" points="123.42,1879.26 189.46,1887.72 180.49,1950.03 114.46,1941.57 						"/>
					</defs>
					<clipPath id="SVGID_82_">
						<use xlink:href="#SVGID_81_"  style="overflow:visible;"/>
					</clipPath>
					<g style="clip-path:url(#SVGID_82_);">
						<g>
							<defs>
								<polygon id="SVGID_83_" points="123.42,1879.26 189.46,1887.72 180.49,1950.03 114.46,1941.57 								"/>
							</defs>
							<clipPath id="SVGID_84_">
								<use xlink:href="#SVGID_83_"  style="overflow:visible;"/>
							</clipPath>
							<g style="clip-path:url(#SVGID_84_);">
								<path style="fill:#70AD47;" d="M152.85,1896.25c-10.66-1.37-20.43,5.65-21.87,15.71c-0.45,3.18,0.01,6.28,1.15,9.07
									c1.65-1.24,3.43-2.47,5.38-3.81c4.89-3.27,10.54-6.52,15.22-8.83c0.3-0.16,0.59-0.25,0.94-0.21
									c0.76,0.1,1.29,0.76,1.19,1.47c-0.06,0.45-0.31,0.75-0.7,0.97l0,0c-6.72,3.37-15.76,8.76-22.11,13.89
									c0,0-0.86,0.68-1.26,1.03l0,0c-3.59,3.04-6.1,5.89-6.42,8.1l4.13,0.53c0.2-1.43,3.06-4.24,7.24-7.47
									c2.97,3.16,7.08,5.34,11.89,5.95c3.44,0.44,6.87,0.02,9.91-1.18l0,0c15.83-5.84,19.74-19.82,22.03-35.78
									C179.55,1895.71,162.92,1897.81,152.85,1896.25z"/>
							</g>
						</g>
					</g>
				</g>
			</g>
		</g>
		<g>
			<defs>
				<polygon id="SVGID_85_" points="83.5,1785.34 95.2,1766.22 115.46,1777.26 103.77,1796.38 				"/>
			</defs>
			<clipPath id="SVGID_86_">
				<use xlink:href="#SVGID_85_"  style="overflow:visible;"/>
			</clipPath>
			<g style="clip-path:url(#SVGID_86_);">
				<g>
					<defs>
						<polygon id="SVGID_87_" points="83.5,1785.34 95.2,1766.22 115.46,1777.26 103.77,1796.38 						"/>
					</defs>
					<clipPath id="SVGID_88_">
						<use xlink:href="#SVGID_87_"  style="overflow:visible;"/>
					</clipPath>
					<g style="clip-path:url(#SVGID_88_);">
						<g>
							<defs>
								<polygon id="SVGID_89_" points="83.5,1785.34 95.2,1766.22 115.46,1777.26 103.77,1796.38 								"/>
							</defs>
							<clipPath id="SVGID_90_">
								<use xlink:href="#SVGID_89_"  style="overflow:visible;"/>
							</clipPath>
							<g style="clip-path:url(#SVGID_90_);">
								<path style="fill:#70AD47;" d="M93.27,1778.58c-1.89,3.09-0.78,7.01,2.5,8.8c1.03,0.56,2.16,0.83,3.28,0.86
									c-0.21-0.67-0.39-1.38-0.6-2.16c-0.47-1.93-0.84-4.1-1.01-5.84c-0.02-0.11-0.01-0.22,0.05-0.32
									c0.13-0.22,0.44-0.29,0.66-0.17c0.15,0.08,0.22,0.2,0.24,0.34l0,0c0.27,2.51,0.92,6,1.84,8.63c0,0,0.12,0.36,0.19,0.53l0,0
									c0.57,1.51,1.21,2.66,1.93,3.05l0.73-1.19c-0.47-0.25-1.05-1.5-1.61-3.21c1.48-0.49,2.78-1.46,3.63-2.86
									c0.61-1,0.92-2.1,0.91-3.19l0,0c0.1-5.63-4.2-8.69-9.39-11.52C96.63,1770.32,95.14,1775.7,93.27,1778.58z"/>
							</g>
						</g>
					</g>
				</g>
			</g>
		</g>
		<g>
			<defs>
				<polygon id="SVGID_91_" points="116.13,1822.31 68.52,1833.45 80.32,1878.38 127.93,1867.24 				"/>
			</defs>
			<clipPath id="SVGID_92_">
				<use xlink:href="#SVGID_91_"  style="overflow:visible;"/>
			</clipPath>
			<g style="clip-path:url(#SVGID_92_);">
				<g>
					<defs>
						<polygon id="SVGID_93_" points="116.13,1822.31 68.52,1833.45 80.32,1878.38 127.93,1867.24 						"/>
					</defs>
					<clipPath id="SVGID_94_">
						<use xlink:href="#SVGID_93_"  style="overflow:visible;"/>
					</clipPath>
					<g style="clip-path:url(#SVGID_94_);">
						<g>
							<defs>
								<polygon id="SVGID_95_" points="116.13,1822.31 68.52,1833.45 80.32,1878.38 127.93,1867.24 								"/>
							</defs>
							<clipPath id="SVGID_96_">
								<use xlink:href="#SVGID_95_"  style="overflow:visible;"/>
							</clipPath>
							<g style="clip-path:url(#SVGID_96_);">
								<path style="fill:#70AD47;" d="M96.02,1836.95c7.69-1.8,15.42,2.6,17.33,9.86c0.6,2.29,0.52,4.6-0.08,6.72
									c-1.31-0.79-2.72-1.55-4.26-2.38c-3.85-2.03-8.26-3.98-11.87-5.32c-0.24-0.09-0.46-0.14-0.71-0.08
									c-0.55,0.13-0.88,0.65-0.75,1.17c0.09,0.33,0.3,0.53,0.59,0.66l0,0c5.2,1.96,12.27,5.23,17.34,8.51c0,0,0.69,0.43,1.01,0.66
									l0,0c2.88,1.96,4.96,3.86,5.38,5.45l-2.98,0.7c-0.27-1.03-2.6-2.87-5.93-4.92c-1.91,2.53-4.73,4.43-8.2,5.25
									c-2.48,0.58-5.02,0.53-7.35-0.12l0,0c-12.08-3.09-16.11-13.02-19.13-24.54C76.44,1838.55,88.78,1838.84,96.02,1836.95z"/>
							</g>
						</g>
					</g>
				</g>
			</g>
		</g>
		<g>
			<defs>
				<polygon id="SVGID_97_" points="98.6,1779.23 66.14,1797.26 85.24,1827.9 117.7,1809.87 				"/>
			</defs>
			<clipPath id="SVGID_98_">
				<use xlink:href="#SVGID_97_"  style="overflow:visible;"/>
			</clipPath>
			<g style="clip-path:url(#SVGID_98_);">
				<g>
					<defs>
						<polygon id="SVGID_99_" points="98.6,1779.23 66.14,1797.26 85.24,1827.9 117.7,1809.87 						"/>
					</defs>
					<clipPath id="SVGID_100_">
						<use xlink:href="#SVGID_99_"  style="overflow:visible;"/>
					</clipPath>
					<g style="clip-path:url(#SVGID_100_);">
						<g>
							<defs>
								<polygon id="SVGID_101_" points="98.6,1779.23 66.14,1797.26 85.24,1827.9 117.7,1809.87 								"/>
							</defs>
							<clipPath id="SVGID_102_">
								<use xlink:href="#SVGID_101_"  style="overflow:visible;"/>
							</clipPath>
							<g style="clip-path:url(#SVGID_102_);">
								<path style="fill:#70AD47;" d="M87.19,1794.16c5.24-2.91,11.96-1.27,15.04,3.68c0.98,1.56,1.45,3.28,1.5,4.97
									c-1.15-0.31-2.36-0.58-3.69-0.87c-3.3-0.7-7-1.23-9.97-1.47c-0.19-0.02-0.37-0.01-0.54,0.08c-0.37,0.21-0.5,0.66-0.28,1.01
									c0.14,0.22,0.34,0.33,0.59,0.36l0,0c4.28,0.37,10.24,1.32,14.74,2.69c0,0,0.61,0.18,0.9,0.27l0,0
									c2.58,0.85,4.55,1.82,5.22,2.9l-2.03,1.13c-0.44-0.7-2.58-1.58-5.5-2.4c-0.82,2.26-2.45,4.24-4.82,5.56
									c-1.69,0.94-3.57,1.43-5.44,1.43l0,0c-9.61,0.22-14.88-6.26-19.77-14.11C73.14,1799.38,82.3,1797.05,87.19,1794.16z"/>
							</g>
						</g>
					</g>
				</g>
			</g>
		</g>
		<g>
			<defs>
				<polygon id="SVGID_103_" points="104.42,1794.29 156.42,1789.75 161.24,1838.82 109.24,1843.36 				"/>
			</defs>
			<clipPath id="SVGID_104_">
				<use xlink:href="#SVGID_103_"  style="overflow:visible;"/>
			</clipPath>
			<g style="clip-path:url(#SVGID_104_);">
				<g>
					<defs>
						<polygon id="SVGID_105_" points="104.42,1794.29 156.42,1789.75 161.24,1838.82 109.24,1843.36 						"/>
					</defs>
					<clipPath id="SVGID_106_">
						<use xlink:href="#SVGID_105_"  style="overflow:visible;"/>
					</clipPath>
					<g style="clip-path:url(#SVGID_106_);">
						<g>
							<defs>
								<polygon id="SVGID_107_" points="104.42,1794.29 156.42,1789.75 161.24,1838.82 109.24,1843.36 								"/>
							</defs>
							<clipPath id="SVGID_108_">
								<use xlink:href="#SVGID_107_"  style="overflow:visible;"/>
							</clipPath>
							<g style="clip-path:url(#SVGID_108_);">
								<path style="fill:#70AD47;" d="M130.07,1802.36c-8.4,0.73-14.54,7.72-13.76,15.64c0.25,2.5,1.18,4.79,2.57,6.73
									c1.03-1.22,2.16-2.46,3.4-3.8c3.12-3.31,6.82-6.73,9.96-9.27c0.2-0.17,0.41-0.29,0.68-0.32c0.6-0.05,1.13,0.37,1.18,0.93
									c0.04,0.36-0.1,0.63-0.35,0.86l0,0c-4.5,3.69-10.4,9.31-14.28,14.29c0,0-0.54,0.67-0.78,1l0,0
									c-2.17,2.92-3.56,5.52-3.39,7.26l3.25-0.28c-0.11-1.12,1.54-3.74,4.13-6.91c2.87,1.91,6.4,2.89,10.2,2.56
									c2.71-0.24,5.24-1.13,7.34-2.55l0,0c11-7.1,11.36-18.42,10.12-30.99C150.35,1797.49,138.05,1801.87,130.07,1802.36z"/>
							</g>
						</g>
					</g>
				</g>
			</g>
		</g>
		<path style="fill-rule:evenodd;clip-rule:evenodd;fill:#7F6000;" d="M135.78,1952.78c5.87,4.39,9.17,8.07,10.6,11.12l0.16,0.55
			l0.64,0.18c3.06,1.23,5.11,3.36,5.46,5.68l0.03,0.01l2.47,0.96c2.31,1.16,4,2.84,4.68,4.73c0.66,1.83,0.32,3.72-0.96,5.29
			c2.4,2.59,6.83,9.5,1.03,8.58c-5.65-0.89-6.29,5.77-12.12,5.73c-0.3,2.35-4.42-0.94-7.61-0.8c-3.19,0.13-7.19,3.97-11.51,1.61
			c-1.84,3.1-8.14,0.7-12.6,0.57c-4.53-0.13-8.39-2-13.42,0.79l-1.49-0.24l0.06,0.29c0.09,0.44,0.13,0.68,0.05,0.51l-0.12-0.8
			l-1.1-0.18c-2.45-0.32-4.55-0.43-7.32-1.21c-3.69-1.04-8.41,0.2-12.4-1.93c-4.51-0.11-8.5-2.39-9.43-5.39
			c-0.67-2.17,0.39-4.33,2.8-5.69c-3.02-1.56-4.5-4.12-3.78-6.51c0.84-2.8,4.5-4.69,8.8-4.55c0.03-0.04,0.06-0.09,0.09-0.13
			c-0.25-2.87,1.41-5.57,4.53-7.36c1.23-0.71,2.62-1.24,4.1-1.59l0.19-0.03l-0.32-0.65c-0.8-2.92,2.67-4.8,9.19-7.76
			C96.2,1960.36,120.5,1978.47,135.78,1952.78z"/>
	</g>
	<path style="fill-rule:evenodd;clip-rule:evenodd;fill:#7F6000;" d="M144.54,199.4c5.87,4.65,9.17,8.56,10.6,11.78l0.16,0.58
		l0.64,0.19c3.06,1.31,5.11,3.56,5.46,6.02l0.03,0.01l2.47,1.02c2.31,1.23,4,3.01,4.68,5.01c0.66,1.94,0.32,3.94-0.96,5.61
		c2.4,2.74,6.83,10.07,1.03,9.1c-5.65-0.95-6.29,6.12-12.12,6.08c-0.3,2.49-4.42-0.99-7.61-0.85c-3.19,0.14-7.19,4.2-11.51,1.71
		c-1.84,3.28-8.14,0.74-12.6,0.6c-4.53-0.14-8.39-2.12-13.42,0.83l-1.49-0.25l0.06,0.31c0.09,0.47,0.13,0.72,0.05,0.54l-0.12-0.85
		l-1.1-0.19c-2.45-0.34-4.55-0.45-7.32-1.28c-3.69-1.1-8.41,0.21-12.4-2.04c-4.51-0.12-8.5-2.53-9.43-5.71
		c-0.67-2.3,0.39-4.59,2.8-6.03c-3.02-1.66-4.5-4.37-3.78-6.9c0.84-2.97,4.5-4.97,8.8-4.82c0.03-0.05,0.06-0.09,0.09-0.14
		c-0.25-3.04,1.41-5.9,4.53-7.8c1.23-0.75,2.62-1.31,4.1-1.68l0.19-0.04l-0.32-0.69c-0.8-3.09,2.67-5.08,9.19-8.22
		C104.96,207.44,129.26,226.62,144.54,199.4z"/>
</g>
</svg>
