<?xml version="1.0" encoding="utf-8"?>
<!-- Generator: Adobe Illustrator 24.1.2, SVG Export Plug-In . SVG Version: 6.00 Build 0)  -->
<svg version="1.1" xmlns="http://www.w3.org/2000/svg" xmlns:xlink="http://www.w3.org/1999/xlink" x="0px" y="0px"
	 viewBox="0 0 250 1920" style="enable-background:new 0 0 250 1920;" xml:space="preserve">
<g id="level0">
	<path style="fill-rule:evenodd;clip-rule:evenodd;fill:#7F6000;" d="M144.54,4c5.87,4.65,9.17,8.56,10.6,11.78l0.16,0.58l0.64,0.19
		c3.06,1.31,5.11,3.56,5.46,6.02l0.03,0.01l2.47,1.02c2.31,1.23,4,3.01,4.68,5.01c0.66,1.94,0.32,3.94-0.96,5.61
		c2.4,2.74,6.83,10.07,1.03,9.1c-5.65-0.95-6.29,6.12-12.12,6.08c-0.3,2.49-4.42-0.99-7.61-0.85c-3.19,0.14-7.19,4.2-11.51,1.71
		c-1.84,3.28-8.14,0.74-12.6,0.6c-4.53-0.14-8.39-2.12-13.42,0.83l-1.49-0.25l0.06,0.31c0.09,0.47,0.13,0.72,0.05,0.54l-0.12-0.85
		l-1.1-0.19c-2.45-0.34-4.55-0.45-7.32-1.28c-3.69-1.1-8.41,0.21-12.4-2.04c-4.51-0.12-8.5-2.53-9.43-5.71
		c-0.67-2.3,0.39-4.59,2.8-6.03c-3.02-1.66-4.5-4.37-3.78-6.9c0.84-2.97,4.5-4.97,8.8-4.82c0.03-0.05,0.06-0.09,0.09-0.14
		c-0.25-3.04,1.41-5.9,4.53-7.8c1.23-0.75,2.62-1.31,4.1-1.68l0.19-0.04l-0.32-0.69c-0.8-3.09,2.67-5.08,9.19-8.22
		C104.96,12.04,129.26,31.23,144.54,4z"/>
</g>
<g id="level1">
	<g>
		<g>
			<path style="fill-rule:evenodd;clip-rule:evenodd;fill:#FFC000;" d="M115.47,233.92c1.1,0,2,1.34,2,3c0,1.13,0.09,2.27,0.26,3.4
				c-0.76-0.27-1.51-0.4-2.26-0.4c-1.1,0-2-1.34-2-3S114.36,233.92,115.47,233.92z"/>
			<path style="fill-rule:evenodd;clip-rule:evenodd;fill:#FFC000;" d="M129.83,229.95c0.54,1.21-0.08,2.66-1.38,3.25
				c-0.89,0.4-1.74,0.89-2.54,1.48c-0.16-0.92-0.43-1.79-0.8-2.62c-0.54-1.21,0.08-2.66,1.38-3.25
				C127.8,228.23,129.29,228.74,129.83,229.95z"/>
			<path style="fill-rule:evenodd;clip-rule:evenodd;fill:#FFC000;" d="M122.72,213.21c1.21,0.55,1.71,2.04,1.12,3.35
				c-0.4,0.89-0.71,1.82-0.92,2.8c-0.73-0.58-1.51-1.06-2.33-1.43c-1.21-0.55-1.71-2.05-1.12-3.35
				C120.05,213.28,121.51,212.67,122.72,213.21z"/>
			<path style="fill-rule:evenodd;clip-rule:evenodd;fill:#FFC000;" d="M126.59,248.01c0.68,1.14,0.24,2.65-0.99,3.39
				c-0.84,0.5-1.62,1.09-2.35,1.78c-0.27-0.89-0.64-1.73-1.1-2.51c-0.68-1.14-0.24-2.65,0.99-3.39S125.91,246.88,126.59,248.01z"/>
		</g>
		<path style="fill-rule:evenodd;clip-rule:evenodd;fill:#7F6000;" d="M144.54,267.38c5.87,4.65,9.17,8.56,10.6,11.78l0.16,0.58
			l0.64,0.19c3.06,1.31,5.11,3.56,5.46,6.02l0.03,0.01l2.47,1.02c2.31,1.23,4,3.01,4.68,5.01c0.66,1.94,0.32,3.94-0.96,5.61
			c2.4,2.74,6.83,10.07,1.03,9.1c-5.65-0.95-6.29,6.12-12.12,6.08c-0.3,2.49-4.42-0.99-7.61-0.85c-3.19,0.14-7.19,4.2-11.51,1.71
			c-1.84,3.28-8.14,0.74-12.6,0.6c-4.53-0.14-8.39-2.12-13.42,0.83l-1.49-0.25l0.06,0.31c0.09,0.47,0.13,0.72,0.05,0.54l-0.12-0.85
			l-1.1-0.19c-2.45-0.34-4.55-0.45-7.32-1.28c-3.69-1.1-8.41,0.21-12.4-2.04c-4.51-0.12-8.5-2.53-9.43-5.71
			c-0.67-2.3,0.39-4.59,2.8-6.03c-3.02-1.66-4.5-4.37-3.78-6.9c0.84-2.97,4.5-4.97,8.8-4.82c0.03-0.05,0.06-0.09,0.09-0.14
			c-0.25-3.04,1.41-5.9,4.53-7.8c1.23-0.75,2.62-1.31,4.1-1.68l0.19-0.04l-0.32-0.69c-0.8-3.09,2.67-5.08,9.19-8.22
			C104.96,275.42,129.26,294.61,144.54,267.38z"/>
	</g>
</g>
<g id="level2">
	<g>
		<path style="fill-rule:evenodd;clip-rule:evenodd;fill:#7F6000;" d="M144.54,534.76c5.87,4.65,9.17,8.56,10.6,11.78l0.16,0.58
			l0.64,0.19c3.06,1.3,5.11,3.56,5.46,6.02l0.03,0.01l2.47,1.02c2.31,1.23,4,3.01,4.68,5.01c0.66,1.94,0.32,3.94-0.96,5.61
			c2.4,2.74,6.83,10.07,1.03,9.1c-5.65-0.95-6.29,6.12-12.12,6.08c-0.3,2.49-4.42-0.99-7.61-0.85c-3.19,0.14-7.19,4.2-11.51,1.71
			c-1.84,3.28-8.14,0.74-12.6,0.6c-4.53-0.14-8.39-2.12-13.42,0.84l-1.49-0.25l0.06,0.31c0.09,0.47,0.13,0.72,0.05,0.54l-0.12-0.85
			l-1.1-0.19c-2.45-0.34-4.55-0.45-7.32-1.28c-3.69-1.1-8.41,0.21-12.4-2.04c-4.51-0.12-8.5-2.53-9.43-5.71
			c-0.67-2.3,0.39-4.59,2.8-6.03c-3.02-1.66-4.5-4.37-3.78-6.9c0.84-2.97,4.5-4.97,8.8-4.82c0.03-0.05,0.06-0.09,0.09-0.14
			c-0.25-3.04,1.41-5.9,4.53-7.8c1.23-0.75,2.62-1.31,4.1-1.68l0.19-0.04l-0.32-0.69c-0.8-3.09,2.67-5.09,9.19-8.22
			C104.96,542.8,129.26,561.98,144.54,534.76z"/>
		<path style="fill-rule:evenodd;clip-rule:evenodd;fill:#70AD47;" d="M95.17,524.71c-2.67-3.79-1.41-10.53,2.81-15.06
			s9.81-5.14,12.48-1.35c2.67,3.78,1.41,10.53-2.81,15.06C103.42,527.89,97.84,528.5,95.17,524.71z"/>
		<path style="fill-rule:evenodd;clip-rule:evenodd;fill:#70AD47;" d="M122.5,548.51c5.71-15.75,12.91-42.48-10.64-39.15l0.25-1.35
			c28.2-4.74,16.63,25.13,15.15,40.5H122.5z"/>
	</g>
</g>
<g id="level3">
	<g>
		<path style="fill-rule:evenodd;clip-rule:evenodd;fill:#7F6000;" d="M144.42,802.14c5.87,4.66,9.17,8.56,10.6,11.78l0.16,0.58
			l0.64,0.19c3.06,1.31,5.11,3.56,5.46,6.02l0.03,0.01l2.47,1.02c2.31,1.23,4,3.01,4.68,5.01c0.66,1.94,0.32,3.94-0.96,5.61
			c2.4,2.74,6.83,10.07,1.03,9.1c-5.65-0.95-6.29,6.12-12.12,6.08c-0.3,2.49-4.42-0.99-7.61-0.85c-3.19,0.14-7.19,4.2-11.51,1.71
			c-1.84,3.28-8.14,0.74-12.6,0.6c-4.53-0.14-8.39-2.12-13.42,0.83l-1.49-0.25l0.06,0.31c0.09,0.47,0.13,0.72,0.05,0.54l-0.12-0.85
			l-1.1-0.19c-2.45-0.34-4.55-0.45-7.32-1.28c-3.69-1.1-8.41,0.21-12.4-2.04c-4.51-0.11-8.5-2.53-9.43-5.71
			c-0.67-2.3,0.39-4.59,2.8-6.03c-3.02-1.66-4.5-4.37-3.78-6.9c0.84-2.97,4.5-4.97,8.8-4.82c0.03-0.05,0.06-0.09,0.09-0.14
			c-0.25-3.04,1.41-5.9,4.53-7.8c1.23-0.75,2.62-1.31,4.1-1.68l0.19-0.04l-0.32-0.69c-0.8-3.09,2.67-5.08,9.19-8.22
			C104.84,810.18,129.13,829.36,144.42,802.14z"/>
		<path style="fill-rule:evenodd;clip-rule:evenodd;fill:#70AD47;" d="M120.45,815.94c5.95-22.82,7.25-50.58-2.82-64.04l0.09-0.63
			c10.77,10.43,13.02,42.74,11.47,65L120.45,815.94z"/>
		<g>
			<defs>
				<rect id="SVGID_1_" x="118.64" y="737.27" width="53" height="53"/>
			</defs>
			<clipPath id="SVGID_2_">
				<use xlink:href="#SVGID_1_"  style="overflow:visible;"/>
			</clipPath>
			<g style="clip-path:url(#SVGID_2_);">
				<g>
					<defs>
						<rect id="SVGID_3_" x="118.64" y="737.27" width="53" height="53"/>
					</defs>
					<clipPath id="SVGID_4_">
						<use xlink:href="#SVGID_3_"  style="overflow:visible;"/>
					</clipPath>
					<g style="clip-path:url(#SVGID_4_);">
						<g>
							<defs>
								<rect id="SVGID_5_" x="118.64" y="737.27" width="53" height="53"/>
							</defs>
							<clipPath id="SVGID_6_">
								<use xlink:href="#SVGID_5_"  style="overflow:visible;"/>
							</clipPath>
							<g style="clip-path:url(#SVGID_6_);">
								<path style="fill:#70AD47;" d="M143.76,748.31c-8.56,0-15.46,6.9-15.46,15.46c0,2.7,0.72,5.24,1.93,7.45
									c1.16-1.21,2.43-2.43,3.81-3.75c3.48-3.26,7.56-6.57,10.99-9c0.22-0.17,0.44-0.28,0.72-0.28c0.61,0,1.1,0.5,1.1,1.1
									c0,0.39-0.17,0.66-0.44,0.88l0,0c-4.91,3.53-11.43,9-15.85,13.97c0,0-0.61,0.66-0.88,0.99l0,0
									c-2.48,2.93-4.14,5.58-4.14,7.45h3.31c0-1.22,1.93-3.86,4.86-7.01c2.71,2.32,6.18,3.7,10.05,3.7c2.76,0,5.41-0.72,7.67-2.04
									l0,0c11.81-6.57,13.3-18.66,13.3-32.24C164.74,745,151.87,748.53,143.76,748.31z"/>
							</g>
						</g>
					</g>
				</g>
			</g>
		</g>
	</g>
</g>
<g id="level4">
	<g>
		<g>
			<defs>
				
					<rect id="SVGID_7_" x="73.11" y="958.63" transform="matrix(0.9795 -0.2016 0.2016 0.9795 -196.5091 40.2837)" width="52.88" height="52.88"/>
			</defs>
			<clipPath id="SVGID_8_">
				<use xlink:href="#SVGID_7_"  style="overflow:visible;"/>
			</clipPath>
			<g style="clip-path:url(#SVGID_8_);">
				<g>
					<defs>
						
							<rect id="SVGID_9_" x="73.11" y="958.63" transform="matrix(0.9795 -0.2016 0.2016 0.9795 -196.5091 40.2837)" width="52.88" height="52.88"/>
					</defs>
					<clipPath id="SVGID_10_">
						<use xlink:href="#SVGID_9_"  style="overflow:visible;"/>
					</clipPath>
					<g style="clip-path:url(#SVGID_10_);">
						<g>
							<defs>
								
									<rect id="SVGID_11_" x="73.11" y="958.63" transform="matrix(0.9795 -0.2016 0.2016 0.9795 -196.5091 40.2837)" width="52.88" height="52.88"/>
							</defs>
							<clipPath id="SVGID_12_">
								<use xlink:href="#SVGID_11_"  style="overflow:visible;"/>
							</clipPath>
							<g style="clip-path:url(#SVGID_12_);">
								<path style="fill:#70AD47;" d="M97.79,969.69c8.36-1.72,16.5,3.64,18.22,12c0.54,2.64,0.35,5.27-0.39,7.67
									c-1.38-0.95-2.86-1.89-4.48-2.9c-4.05-2.48-8.71-4.9-12.55-6.59c-0.25-0.12-0.49-0.18-0.76-0.13
									c-0.59,0.12-0.98,0.71-0.86,1.3c0.08,0.38,0.3,0.61,0.61,0.77l0,0c5.51,2.46,12.98,6.5,18.29,10.46c0,0,0.73,0.53,1.06,0.79
									l0,0c3.02,2.36,5.17,4.62,5.55,6.45l-3.24,0.67c-0.24-1.19-2.67-3.39-6.16-5.88c-2.18,2.81-5.3,4.86-9.08,5.64
									c-2.7,0.56-5.43,0.39-7.91-0.45l0,0c-12.87-4.04-16.76-15.56-19.49-28.83C76.62,970.67,89.91,971.54,97.79,969.69z"/>
							</g>
						</g>
					</g>
				</g>
			</g>
		</g>
		<g>
			<path style="fill-rule:evenodd;clip-rule:evenodd;fill:#70AD47;" d="M113.02,1055.15c6.94-36.86,8.46-81.71-3.29-103.45l0.1-1.01
				c12.56,16.84,15.18,69.04,13.39,105L113.02,1055.15z"/>
			<g>
				<defs>
					
						<rect id="SVGID_13_" x="114.4" y="977.21" transform="matrix(0.1062 -0.9943 0.9943 0.1062 -872.6531 1047.6443)" width="64.05" height="64.05"/>
				</defs>
				<clipPath id="SVGID_14_">
					<use xlink:href="#SVGID_13_"  style="overflow:visible;"/>
				</clipPath>
				<g style="clip-path:url(#SVGID_14_);">
					<g>
						<defs>
							
								<rect id="SVGID_15_" x="114.4" y="977.21" transform="matrix(0.1062 -0.9943 0.9943 0.1062 -872.6531 1047.6443)" width="64.05" height="64.05"/>
						</defs>
						<clipPath id="SVGID_16_">
							<use xlink:href="#SVGID_15_"  style="overflow:visible;"/>
						</clipPath>
						<g style="clip-path:url(#SVGID_16_);">
							<g>
								<defs>
									
										<rect id="SVGID_17_" x="114.4" y="977.21" transform="matrix(0.1062 -0.9943 0.9943 0.1062 -872.6531 1047.6443)" width="64.05" height="64.05"/>
								</defs>
								<clipPath id="SVGID_18_">
									<use xlink:href="#SVGID_17_"  style="overflow:visible;"/>
								</clipPath>
								<g style="clip-path:url(#SVGID_18_);">
									<path style="fill:#70AD47;" d="M146.76,990.49c-10.28-1.1-19.46,6.31-20.56,16.59c-0.35,3.25,0.19,6.39,1.37,9.2
										c1.55-1.31,3.23-2.61,5.06-4.02c4.6-3.47,9.93-6.92,14.36-9.4c0.29-0.17,0.57-0.28,0.9-0.24c0.73,0.08,1.26,0.74,1.19,1.47
										c-0.05,0.46-0.28,0.77-0.64,1l0,0c-6.36,3.62-14.89,9.35-20.83,14.75c0,0-0.81,0.72-1.19,1.08l0,0
										c-3.36,3.2-5.69,6.17-5.93,8.42l3.98,0.43c0.16-1.46,2.82-4.4,6.74-7.8c2.95,3.13,6.96,5.24,11.6,5.73
										c3.32,0.35,6.59-0.17,9.48-1.47l0,0c15.04-6.38,18.38-20.72,20.13-37.04C172.39,989.2,156.48,991.79,146.76,990.49z"/>
								</g>
							</g>
						</g>
					</g>
				</g>
			</g>
			<path style="fill-rule:evenodd;clip-rule:evenodd;fill:#7F6000;" d="M136.78,1040.52c5.87,4.65,9.17,8.56,10.6,11.78l0.16,0.58
				l0.64,0.19c3.06,1.31,5.11,3.56,5.46,6.02l0.03,0.01l2.47,1.02c2.31,1.23,4,3.01,4.68,5.01c0.66,1.94,0.32,3.94-0.96,5.61
				c2.4,2.74,6.83,10.07,1.03,9.1c-5.65-0.95-6.29,6.12-12.12,6.08c-0.3,2.49-4.42-0.99-7.61-0.85c-3.19,0.14-7.19,4.2-11.51,1.71
				c-1.84,3.28-8.14,0.74-12.6,0.6c-4.53-0.14-8.39-2.12-13.42,0.83l-1.49-0.25l0.06,0.31c0.09,0.47,0.13,0.72,0.05,0.54l-0.12-0.85
				l-1.1-0.19c-2.45-0.34-4.55-0.45-7.32-1.28c-3.69-1.1-8.41,0.21-12.4-2.04c-4.51-0.12-8.5-2.53-9.43-5.71
				c-0.67-2.3,0.39-4.59,2.8-6.03c-3.02-1.66-4.5-4.37-3.78-6.9c0.84-2.97,4.5-4.97,8.8-4.82c0.03-0.05,0.06-0.09,0.09-0.14
				c-0.25-3.04,1.41-5.9,4.53-7.8c1.23-0.75,2.62-1.31,4.1-1.68l0.19-0.04l-0.32-0.69c-0.8-3.09,2.67-5.09,9.19-8.22
				C97.2,1048.56,121.5,1067.74,136.78,1040.52z"/>
		</g>
	</g>
</g>
<g id="level5">
	<g>
		<path style="fill-rule:evenodd;clip-rule:evenodd;fill:#70AD47;" d="M114.13,1316.54c7.93-48.1,9.66-106.62-3.76-134.98l0.12-1.32
			c14.36,21.98,17.35,90.08,15.3,137L114.13,1316.54z"/>
		<g>
			<defs>
				<rect id="SVGID_19_" x="113.37" y="1173.24" width="55" height="54"/>
			</defs>
			<clipPath id="SVGID_20_">
				<use xlink:href="#SVGID_19_"  style="overflow:visible;"/>
			</clipPath>
			<g style="clip-path:url(#SVGID_20_);">
				<g>
					<defs>
						<rect id="SVGID_21_" x="113.37" y="1173.24" width="55" height="54"/>
					</defs>
					<clipPath id="SVGID_22_">
						<use xlink:href="#SVGID_21_"  style="overflow:visible;"/>
					</clipPath>
					<g style="clip-path:url(#SVGID_22_);">
						<g>
							<defs>
								<rect id="SVGID_23_" x="113.37" y="1173.24" width="55" height="54"/>
							</defs>
							<clipPath id="SVGID_24_">
								<use xlink:href="#SVGID_23_"  style="overflow:visible;"/>
							</clipPath>
							<g style="clip-path:url(#SVGID_24_);">
								<path style="fill:#70AD47;" d="M139.44,1184.49c-8.88,0-16.04,7.03-16.04,15.75c0,2.76,0.74,5.34,2.01,7.59
									c1.2-1.24,2.52-2.48,3.95-3.82c3.61-3.32,7.85-6.69,11.4-9.17c0.23-0.17,0.46-0.28,0.74-0.28c0.63,0,1.15,0.51,1.15,1.13
									c0,0.39-0.17,0.67-0.46,0.9l0,0c-5.1,3.6-11.86,9.17-16.44,14.23c0,0-0.63,0.68-0.92,1.01l0,0c-2.58,2.98-4.3,5.68-4.3,7.59
									h3.44c0-1.24,2.01-3.94,5.04-7.14c2.81,2.36,6.42,3.77,10.43,3.77c2.86,0,5.61-0.73,7.96-2.08l0,0
									c12.26-6.69,13.81-19.01,13.81-32.85C161.21,1181.12,147.86,1184.72,139.44,1184.49z"/>
							</g>
						</g>
					</g>
				</g>
			</g>
		</g>
		<g>
			<defs>
				
					<rect id="SVGID_25_" x="70.83" y="1211.05" transform="matrix(0.9706 -0.2405 0.2405 0.9706 -294.9777 59.9427)" width="54.44" height="54.44"/>
			</defs>
			<clipPath id="SVGID_26_">
				<use xlink:href="#SVGID_25_"  style="overflow:visible;"/>
			</clipPath>
			<g style="clip-path:url(#SVGID_26_);">
				<g>
					<defs>
						
							<rect id="SVGID_27_" x="70.83" y="1211.05" transform="matrix(0.9706 -0.2405 0.2405 0.9706 -294.9777 59.9427)" width="54.44" height="54.44"/>
					</defs>
					<clipPath id="SVGID_28_">
						<use xlink:href="#SVGID_27_"  style="overflow:visible;"/>
					</clipPath>
					<g style="clip-path:url(#SVGID_28_);">
						<g>
							<defs>
								
									<rect id="SVGID_29_" x="70.83" y="1211.05" transform="matrix(0.9706 -0.2405 0.2405 0.9706 -294.9777 59.9427)" width="54.44" height="54.44"/>
							</defs>
							<clipPath id="SVGID_30_">
								<use xlink:href="#SVGID_29_"  style="overflow:visible;"/>
							</clipPath>
							<g style="clip-path:url(#SVGID_30_);">
								<path style="fill:#70AD47;" d="M95.61,1222.52c8.53-2.11,17.12,3.06,19.23,11.59c0.67,2.7,0.58,5.41-0.08,7.91
									c-1.46-0.92-3.02-1.82-4.73-2.8c-4.27-2.39-9.16-4.68-13.18-6.26c-0.26-0.11-0.51-0.17-0.78-0.1
									c-0.61,0.15-0.98,0.77-0.83,1.37c0.1,0.39,0.33,0.62,0.66,0.77l0,0c5.77,2.31,13.62,6.15,19.25,10.01
									c0,0,0.77,0.51,1.13,0.77l0,0c3.2,2.3,5.51,4.54,5.97,6.41l-3.3,0.82c-0.3-1.21-2.88-3.38-6.58-5.79
									c-2.12,2.98-5.25,5.22-9.1,6.17c-2.75,0.68-5.57,0.62-8.16-0.14l0,0c-13.4-3.63-17.88-15.32-21.23-28.86
									C73.87,1224.4,87.57,1224.74,95.61,1222.52z"/>
							</g>
						</g>
					</g>
				</g>
			</g>
		</g>
		<g>
			<defs>
				
					<rect id="SVGID_31_" x="117.44" y="1223.82" transform="matrix(0.1345 -0.9909 0.9909 0.1345 -1115.0405 1234.5289)" width="63.49" height="63.49"/>
			</defs>
			<clipPath id="SVGID_32_">
				<use xlink:href="#SVGID_31_"  style="overflow:visible;"/>
			</clipPath>
			<g style="clip-path:url(#SVGID_32_);">
				<g>
					<defs>
						
							<rect id="SVGID_33_" x="117.44" y="1223.82" transform="matrix(0.1345 -0.9909 0.9909 0.1345 -1115.0405 1234.5289)" width="63.49" height="63.49"/>
					</defs>
					<clipPath id="SVGID_34_">
						<use xlink:href="#SVGID_33_"  style="overflow:visible;"/>
					</clipPath>
					<g style="clip-path:url(#SVGID_34_);">
						<g>
							<defs>
								
									<rect id="SVGID_35_" x="117.44" y="1223.82" transform="matrix(0.1345 -0.9909 0.9909 0.1345 -1115.0405 1234.5289)" width="63.49" height="63.49"/>
							</defs>
							<clipPath id="SVGID_36_">
								<use xlink:href="#SVGID_35_"  style="overflow:visible;"/>
							</clipPath>
							<g style="clip-path:url(#SVGID_36_);">
								<path style="fill:#70AD47;" d="M150.04,1237c-10.16-1.38-19.46,5.7-20.84,15.86c-0.43,3.21,0.01,6.34,1.09,9.16
									c1.57-1.26,3.28-2.49,5.13-3.84c4.65-3.31,10.04-6.58,14.49-8.91c0.29-0.16,0.57-0.26,0.9-0.21
									c0.72,0.1,1.23,0.77,1.13,1.49c-0.06,0.46-0.3,0.76-0.67,0.98l0,0c-6.4,3.4-15.02,8.84-21.06,14.03c0,0-0.83,0.69-1.21,1.04
									l0,0c-3.42,3.07-5.81,5.95-6.12,8.18l3.93,0.53c0.2-1.44,2.92-4.28,6.9-7.54c2.84,3.19,6.74,5.39,11.33,6.01
									c3.28,0.44,6.54,0.02,9.44-1.19l0,0c15.08-5.9,18.8-20.01,20.99-36.13C175.48,1236.45,159.64,1238.57,150.04,1237z"/>
							</g>
						</g>
					</g>
				</g>
			</g>
		</g>
		<path style="fill-rule:evenodd;clip-rule:evenodd;fill:#7F6000;" d="M138.78,1300.9c5.87,4.66,9.17,8.56,10.6,11.78l0.16,0.58
			l0.64,0.19c3.06,1.31,5.11,3.56,5.46,6.02l0.03,0.01l2.47,1.02c2.31,1.23,4,3.01,4.68,5.01c0.66,1.94,0.32,3.94-0.96,5.61
			c2.4,2.74,6.83,10.07,1.03,9.1c-5.65-0.95-6.29,6.12-12.12,6.08c-0.3,2.49-4.42-0.99-7.61-0.85c-3.19,0.14-7.19,4.2-11.51,1.71
			c-1.84,3.28-8.14,0.74-12.6,0.6c-4.53-0.14-8.39-2.12-13.42,0.83l-1.49-0.25l0.06,0.31c0.09,0.47,0.13,0.72,0.05,0.54l-0.12-0.85
			l-1.1-0.19c-2.45-0.34-4.55-0.45-7.32-1.28c-3.69-1.1-8.41,0.21-12.4-2.04c-4.51-0.11-8.5-2.53-9.43-5.71
			c-0.67-2.3,0.39-4.59,2.8-6.03c-3.02-1.66-4.5-4.37-3.78-6.9c0.84-2.97,4.5-4.97,8.8-4.82c0.03-0.05,0.06-0.09,0.09-0.14
			c-0.25-3.04,1.41-5.9,4.53-7.8c1.23-0.75,2.62-1.31,4.1-1.68l0.19-0.04l-0.32-0.69c-0.8-3.09,2.67-5.08,9.19-8.22
			C99.2,1308.94,123.5,1328.12,138.78,1300.9z"/>
	</g>
</g>
<g id="level6_1_">
	<g>
		<path style="fill-rule:evenodd;clip-rule:evenodd;fill:#70AD47;" d="M104.55,1570.38c14.87-66,18.12-146.3-7.04-185.23l0.22-1.81
			c26.92,30.16,32.54,123.62,28.68,188L104.55,1570.38z"/>
		<g>
			<defs>
				
					<rect id="SVGID_37_" x="116.82" y="1420.19" transform="matrix(0.1724 -0.985 0.985 0.1724 -1306.9657 1344.7791)" width="59.93" height="59.92"/>
			</defs>
			<clipPath id="SVGID_38_">
				<use xlink:href="#SVGID_37_"  style="overflow:visible;"/>
			</clipPath>
			<g style="clip-path:url(#SVGID_38_);">
				<g>
					<defs>
						
							<rect id="SVGID_39_" x="116.82" y="1420.19" transform="matrix(0.1724 -0.985 0.985 0.1724 -1306.9657 1344.7791)" width="59.93" height="59.92"/>
					</defs>
					<clipPath id="SVGID_40_">
						<use xlink:href="#SVGID_39_"  style="overflow:visible;"/>
					</clipPath>
					<g style="clip-path:url(#SVGID_40_);">
						<g>
							<defs>
								
									<rect id="SVGID_41_" x="116.82" y="1420.19" transform="matrix(0.1724 -0.985 0.985 0.1724 -1306.9657 1344.7791)" width="59.93" height="59.92"/>
							</defs>
							<clipPath id="SVGID_42_">
								<use xlink:href="#SVGID_41_"  style="overflow:visible;"/>
							</clipPath>
							<g style="clip-path:url(#SVGID_42_);">
								<path style="fill:#70AD47;" d="M148.26,1432.67c-9.53-1.67-18.56,4.67-20.23,14.2c-0.53,3.01-0.22,5.98,0.7,8.68
									c1.53-1.13,3.18-2.23,4.97-3.44c4.51-2.95,9.7-5.84,13.99-7.88c0.28-0.14,0.55-0.22,0.85-0.17
									c0.68,0.12,1.13,0.77,1.01,1.45c-0.08,0.43-0.31,0.71-0.66,0.9l0,0c-6.16,2.98-14.48,7.8-20.37,12.47
									c0,0-0.81,0.62-1.18,0.93l0,0c-3.34,2.77-5.7,5.4-6.06,7.49l3.69,0.65c0.24-1.35,2.91-3.93,6.78-6.86
									c2.56,3.11,6.17,5.32,10.47,6.08c3.07,0.54,6.17,0.26,8.95-0.78l0,0c14.44-5.01,18.46-18.19,21.1-33.32
									C172.27,1433.06,157.25,1434.49,148.26,1432.67z"/>
							</g>
						</g>
					</g>
				</g>
			</g>
		</g>
		<g>
			<defs>
				
					<rect id="SVGID_43_" x="58.12" y="1460.19" transform="matrix(0.9706 -0.2405 0.2405 0.9706 -356.2122 65.3902)" width="63.25" height="63.25"/>
			</defs>
			<clipPath id="SVGID_44_">
				<use xlink:href="#SVGID_43_"  style="overflow:visible;"/>
			</clipPath>
			<g style="clip-path:url(#SVGID_44_);">
				<g>
					<defs>
						
							<rect id="SVGID_45_" x="58.12" y="1460.19" transform="matrix(0.9706 -0.2405 0.2405 0.9706 -356.2122 65.3902)" width="63.25" height="63.25"/>
					</defs>
					<clipPath id="SVGID_46_">
						<use xlink:href="#SVGID_45_"  style="overflow:visible;"/>
					</clipPath>
					<g style="clip-path:url(#SVGID_46_);">
						<g>
							<defs>
								
									<rect id="SVGID_47_" x="58.12" y="1460.19" transform="matrix(0.9706 -0.2405 0.2405 0.9706 -356.2122 65.3902)" width="63.25" height="63.25"/>
							</defs>
							<clipPath id="SVGID_48_">
								<use xlink:href="#SVGID_47_"  style="overflow:visible;"/>
							</clipPath>
							<g style="clip-path:url(#SVGID_48_);">
								<path style="fill:#70AD47;" d="M86.91,1473.51c9.91-2.46,19.89,3.56,22.34,13.47c0.78,3.13,0.67,6.28-0.1,9.19
									c-1.69-1.07-3.51-2.12-5.49-3.26c-4.96-2.77-10.65-5.44-15.31-7.27c-0.3-0.13-0.59-0.19-0.91-0.11
									c-0.7,0.17-1.14,0.89-0.96,1.6c0.11,0.45,0.38,0.72,0.77,0.9l0,0c6.71,2.68,15.82,7.14,22.36,11.63c0,0,0.89,0.59,1.31,0.9
									l0,0c3.72,2.68,6.4,5.27,6.94,7.44l-3.84,0.95c-0.35-1.41-3.35-3.92-7.64-6.73c-2.47,3.46-6.1,6.06-10.58,7.17
									c-3.2,0.79-6.47,0.72-9.48-0.16l0,0c-15.57-4.22-20.77-17.8-24.67-33.53C61.65,1475.69,77.57,1476.09,86.91,1473.51z"/>
							</g>
						</g>
					</g>
				</g>
			</g>
		</g>
		<g>
			<defs>
				
					<rect id="SVGID_49_" x="117.3" y="1467.9" transform="matrix(0.1345 -0.9909 0.9909 0.1345 -1357.8347 1457.6528)" width="76.47" height="76.47"/>
			</defs>
			<clipPath id="SVGID_50_">
				<use xlink:href="#SVGID_49_"  style="overflow:visible;"/>
			</clipPath>
			<g style="clip-path:url(#SVGID_50_);">
				<g>
					<defs>
						
							<rect id="SVGID_51_" x="117.3" y="1467.9" transform="matrix(0.1345 -0.9909 0.9909 0.1345 -1357.8347 1457.6528)" width="76.47" height="76.47"/>
					</defs>
					<clipPath id="SVGID_52_">
						<use xlink:href="#SVGID_51_"  style="overflow:visible;"/>
					</clipPath>
					<g style="clip-path:url(#SVGID_52_);">
						<g>
							<defs>
								
									<rect id="SVGID_53_" x="117.3" y="1467.9" transform="matrix(0.1345 -0.9909 0.9909 0.1345 -1357.8347 1457.6528)" width="76.47" height="76.47"/>
							</defs>
							<clipPath id="SVGID_54_">
								<use xlink:href="#SVGID_53_"  style="overflow:visible;"/>
							</clipPath>
							<g style="clip-path:url(#SVGID_54_);">
								<path style="fill:#70AD47;" d="M156.56,1483.77c-12.23-1.66-23.44,6.87-25.1,19.1c-0.52,3.87,0.01,7.64,1.32,11.03
									c1.89-1.51,3.94-3,6.17-4.63c5.61-3.98,12.09-7.92,17.45-10.73c0.35-0.19,0.69-0.31,1.08-0.26
									c0.87,0.12,1.49,0.93,1.37,1.79c-0.08,0.55-0.37,0.91-0.8,1.18l0,0c-7.72,4.1-18.09,10.65-25.37,16.9c0,0-1,0.83-1.46,1.25
									l0,0c-4.12,3.7-7,7.17-7.37,9.85l4.74,0.64c0.24-1.74,3.51-5.15,8.3-9.08c3.42,3.84,8.12,6.49,13.65,7.24
									c3.95,0.53,7.87,0.02,11.37-1.43l0,0c18.16-7.1,22.64-24.1,25.28-43.51C187.2,1483.1,168.12,1485.66,156.56,1483.77z"/>
							</g>
						</g>
					</g>
				</g>
			</g>
		</g>
		<g>
			<defs>
				
					<rect id="SVGID_55_" x="65.73" y="1399.8" transform="matrix(0.9706 -0.2405 0.2405 0.9706 -340.7232 64.5073)" width="56.29" height="56.29"/>
			</defs>
			<clipPath id="SVGID_56_">
				<use xlink:href="#SVGID_55_"  style="overflow:visible;"/>
			</clipPath>
			<g style="clip-path:url(#SVGID_56_);">
				<g>
					<defs>
						
							<rect id="SVGID_57_" x="65.73" y="1399.8" transform="matrix(0.9706 -0.2405 0.2405 0.9706 -340.7232 64.5073)" width="56.29" height="56.29"/>
					</defs>
					<clipPath id="SVGID_58_">
						<use xlink:href="#SVGID_57_"  style="overflow:visible;"/>
					</clipPath>
					<g style="clip-path:url(#SVGID_58_);">
						<g>
							<defs>
								
									<rect id="SVGID_59_" x="65.73" y="1399.8" transform="matrix(0.9706 -0.2405 0.2405 0.9706 -340.7232 64.5073)" width="56.29" height="56.29"/>
							</defs>
							<clipPath id="SVGID_60_">
								<use xlink:href="#SVGID_59_"  style="overflow:visible;"/>
							</clipPath>
							<g style="clip-path:url(#SVGID_60_);">
								<path style="fill:#70AD47;" d="M91.35,1411.65c8.82-2.19,17.7,3.16,19.89,11.99c0.69,2.79,0.6,5.59-0.09,8.18
									c-1.51-0.96-3.12-1.88-4.89-2.9c-4.42-2.47-9.48-4.84-13.62-6.47c-0.27-0.11-0.53-0.17-0.81-0.1
									c-0.63,0.16-1.01,0.79-0.86,1.42c0.1,0.4,0.34,0.64,0.68,0.8l0,0c5.97,2.39,14.08,6.36,19.9,10.35c0,0,0.8,0.53,1.16,0.8
									l0,0c3.31,2.38,5.69,4.69,6.17,6.63l-3.41,0.85c-0.31-1.25-2.98-3.49-6.8-5.99c-2.2,3.08-5.43,5.39-9.41,6.38
									c-2.85,0.71-5.76,0.64-8.43-0.15l0,0c-13.86-3.75-18.48-15.84-21.95-29.84C68.88,1413.6,83.04,1413.96,91.35,1411.65z"/>
							</g>
						</g>
					</g>
				</g>
			</g>
		</g>
		<g>
			<defs>
				
					<rect id="SVGID_61_" x="82.37" y="1359.68" transform="matrix(0.5 -0.866 0.866 0.5 -1142.1599 767.9952)" width="23.26" height="26.85"/>
			</defs>
			<clipPath id="SVGID_62_">
				<use xlink:href="#SVGID_61_"  style="overflow:visible;"/>
			</clipPath>
			<g style="clip-path:url(#SVGID_62_);">
				<g>
					<defs>
						
							<rect id="SVGID_63_" x="82.37" y="1359.68" transform="matrix(0.5 -0.866 0.866 0.5 -1142.1599 767.9952)" width="23.26" height="26.85"/>
					</defs>
					<clipPath id="SVGID_64_">
						<use xlink:href="#SVGID_63_"  style="overflow:visible;"/>
					</clipPath>
					<g style="clip-path:url(#SVGID_64_);">
						<g>
							<defs>
								
									<rect id="SVGID_65_" x="82.37" y="1359.68" transform="matrix(0.5 -0.866 0.866 0.5 -1142.1599 767.9952)" width="23.26" height="26.85"/>
							</defs>
							<clipPath id="SVGID_66_">
								<use xlink:href="#SVGID_65_"  style="overflow:visible;"/>
							</clipPath>
							<g style="clip-path:url(#SVGID_66_);">
								<path style="fill:#70AD47;" d="M86.91,1369.71c-1.88,3.25-0.36,7.62,3.39,9.79c1.19,0.69,2.46,1.06,3.69,1.15
									c-0.28-0.75-0.53-1.54-0.81-2.4c-0.67-2.15-1.22-4.54-1.54-6.45c-0.02-0.13-0.02-0.24,0.04-0.34
									c0.13-0.23,0.46-0.29,0.73-0.14c0.17,0.1,0.25,0.23,0.29,0.39l0,0c0.47,2.76,1.44,6.62,2.65,9.56c0,0,0.16,0.4,0.24,0.59
									l0,0c0.74,1.69,1.54,2.99,2.36,3.46l0.73-1.26c-0.53-0.31-1.27-1.71-2.01-3.62c1.61-0.44,2.98-1.41,3.83-2.88
									c0.61-1.05,0.87-2.24,0.79-3.43l0,0c-0.29-6.15-5.27-9.78-11.23-13.22C90.06,1360.9,88.79,1366.68,86.91,1369.71z"/>
							</g>
						</g>
					</g>
				</g>
			</g>
		</g>
		<path style="fill-rule:evenodd;clip-rule:evenodd;fill:#7F6000;" d="M135.78,1556.27c5.87,4.66,9.17,8.56,10.6,11.78l0.16,0.58
			l0.64,0.19c3.06,1.31,5.11,3.56,5.46,6.02l0.03,0.01l2.47,1.02c2.31,1.23,4,3.01,4.68,5.01c0.66,1.94,0.32,3.94-0.96,5.61
			c2.4,2.74,6.83,10.07,1.03,9.1c-5.65-0.95-6.29,6.12-12.12,6.08c-0.3,2.49-4.42-0.99-7.61-0.85c-3.19,0.14-7.19,4.2-11.51,1.71
			c-1.84,3.28-8.14,0.74-12.6,0.6c-4.53-0.14-8.39-2.12-13.42,0.83l-1.49-0.25l0.06,0.31c0.09,0.47,0.13,0.72,0.05,0.54l-0.12-0.85
			l-1.1-0.19c-2.45-0.34-4.55-0.45-7.32-1.28c-3.69-1.1-8.41,0.21-12.4-2.04c-4.51-0.11-8.5-2.53-9.43-5.71
			c-0.67-2.3,0.39-4.59,2.8-6.03c-3.02-1.66-4.5-4.37-3.78-6.9c0.84-2.97,4.5-4.97,8.8-4.82c0.03-0.05,0.06-0.09,0.09-0.14
			c-0.25-3.04,1.41-5.9,4.53-7.8c1.23-0.75,2.62-1.31,4.1-1.68l0.19-0.04l-0.32-0.69c-0.8-3.09,2.67-5.08,9.19-8.22
			C96.2,1564.32,120.5,1583.5,135.78,1556.27z"/>
	</g>
</g>
<g id="level7">
	<g>
		<path style="fill-rule:evenodd;clip-rule:evenodd;fill:#70AD47;" d="M105.42,1887.1c14.87-76.18,18.12-168.87-7.04-213.8
			l0.22-2.09c26.93,34.81,32.54,142.69,28.69,217L105.42,1887.1z"/>
		<g>
			<defs>
				
					<rect id="SVGID_67_" x="117.22" y="1736.9" transform="matrix(0.1724 -0.985 0.985 0.1724 -1618.6011 1607.3064)" width="59.93" height="59.93"/>
			</defs>
			<clipPath id="SVGID_68_">
				<use xlink:href="#SVGID_67_"  style="overflow:visible;"/>
			</clipPath>
			<g style="clip-path:url(#SVGID_68_);">
				<g>
					<defs>
						
							<rect id="SVGID_69_" x="117.22" y="1736.9" transform="matrix(0.1724 -0.985 0.985 0.1724 -1618.6011 1607.3064)" width="59.93" height="59.93"/>
					</defs>
					<clipPath id="SVGID_70_">
						<use xlink:href="#SVGID_69_"  style="overflow:visible;"/>
					</clipPath>
					<g style="clip-path:url(#SVGID_70_);">
						<g>
							<defs>
								
									<rect id="SVGID_71_" x="117.22" y="1736.9" transform="matrix(0.1724 -0.985 0.985 0.1724 -1618.6011 1607.3064)" width="59.93" height="59.93"/>
							</defs>
							<clipPath id="SVGID_72_">
								<use xlink:href="#SVGID_71_"  style="overflow:visible;"/>
							</clipPath>
							<g style="clip-path:url(#SVGID_72_);">
								<path style="fill:#70AD47;" d="M148.66,1749.37c-9.53-1.67-18.56,4.67-20.23,14.2c-0.53,3.01-0.22,5.98,0.7,8.68
									c1.53-1.13,3.18-2.23,4.97-3.44c4.51-2.95,9.7-5.84,13.99-7.88c0.28-0.14,0.55-0.22,0.85-0.17
									c0.68,0.12,1.13,0.77,1.01,1.44c-0.08,0.43-0.31,0.71-0.66,0.9l0,0c-6.16,2.98-14.48,7.8-20.37,12.47
									c0,0-0.81,0.62-1.18,0.93l0,0c-3.34,2.77-5.7,5.4-6.06,7.49l3.69,0.65c0.24-1.35,2.91-3.93,6.78-6.86
									c2.56,3.11,6.17,5.33,10.47,6.08c3.07,0.54,6.17,0.26,8.95-0.78l0,0c14.44-5.01,18.46-18.19,21.1-33.32
									C172.67,1749.77,157.66,1751.2,148.66,1749.37z"/>
							</g>
						</g>
					</g>
				</g>
			</g>
		</g>
		<g>
			<defs>
				<polygon id="SVGID_73_" points="112.44,1768.63 51.04,1783.84 66.26,1845.24 127.65,1830.02 				"/>
			</defs>
			<clipPath id="SVGID_74_">
				<use xlink:href="#SVGID_73_"  style="overflow:visible;"/>
			</clipPath>
			<g style="clip-path:url(#SVGID_74_);">
				<g>
					<defs>
						<polygon id="SVGID_75_" points="112.44,1768.63 51.04,1783.84 66.26,1845.24 127.65,1830.02 						"/>
					</defs>
					<clipPath id="SVGID_76_">
						<use xlink:href="#SVGID_75_"  style="overflow:visible;"/>
					</clipPath>
					<g style="clip-path:url(#SVGID_76_);">
						<g>
							<defs>
								<polygon id="SVGID_77_" points="112.44,1768.63 51.04,1783.84 66.26,1845.24 127.65,1830.02 								"/>
							</defs>
							<clipPath id="SVGID_78_">
								<use xlink:href="#SVGID_77_"  style="overflow:visible;"/>
							</clipPath>
							<g style="clip-path:url(#SVGID_78_);">
								<path style="fill:#70AD47;" d="M86.51,1788.63c9.91-2.46,19.89,3.56,22.34,13.47c0.78,3.13,0.67,6.28-0.1,9.19
									c-1.69-1.07-3.51-2.12-5.49-3.26c-4.96-2.77-10.65-5.44-15.31-7.27c-0.3-0.13-0.59-0.19-0.91-0.11
									c-0.7,0.17-1.14,0.89-0.96,1.6c0.11,0.45,0.38,0.72,0.77,0.9l0,0c6.71,2.68,15.82,7.14,22.36,11.63c0,0,0.89,0.59,1.31,0.9
									l0,0c3.72,2.68,6.4,5.27,6.94,7.44l-3.84,0.95c-0.35-1.41-3.35-3.92-7.64-6.73c-2.47,3.46-6.1,6.06-10.58,7.17
									c-3.2,0.79-6.47,0.72-9.48-0.16l0,0c-15.57-4.22-20.77-17.8-24.67-33.53C61.25,1790.82,77.17,1791.22,86.51,1788.63z"/>
							</g>
						</g>
					</g>
				</g>
			</g>
		</g>
		<g>
			<defs>
				<polygon id="SVGID_79_" points="123.19,1779.81 198.96,1790.1 188.68,1865.87 112.91,1855.59 				"/>
			</defs>
			<clipPath id="SVGID_80_">
				<use xlink:href="#SVGID_79_"  style="overflow:visible;"/>
			</clipPath>
			<g style="clip-path:url(#SVGID_80_);">
				<g>
					<defs>
						<polygon id="SVGID_81_" points="123.19,1779.81 198.96,1790.1 188.68,1865.87 112.91,1855.59 						"/>
					</defs>
					<clipPath id="SVGID_82_">
						<use xlink:href="#SVGID_81_"  style="overflow:visible;"/>
					</clipPath>
					<g style="clip-path:url(#SVGID_82_);">
						<g>
							<defs>
								<polygon id="SVGID_83_" points="123.19,1779.81 198.96,1790.1 188.68,1865.87 112.91,1855.59 								"/>
							</defs>
							<clipPath id="SVGID_84_">
								<use xlink:href="#SVGID_83_"  style="overflow:visible;"/>
							</clipPath>
							<g style="clip-path:url(#SVGID_84_);">
								<path style="fill:#70AD47;" d="M156.95,1800.47c-12.23-1.66-23.44,6.87-25.1,19.1c-0.52,3.87,0.01,7.64,1.32,11.03
									c1.89-1.51,3.94-3,6.17-4.63c5.61-3.98,12.09-7.93,17.46-10.73c0.35-0.19,0.68-0.31,1.08-0.26
									c0.87,0.12,1.48,0.92,1.36,1.79c-0.07,0.55-0.36,0.92-0.8,1.18l0,0c-7.71,4.1-18.09,10.65-25.37,16.89
									c0,0-0.99,0.83-1.45,1.25l0,0c-4.12,3.7-7,7.17-7.37,9.85l4.74,0.64c0.23-1.74,3.51-5.15,8.31-9.08
									c3.41,3.84,8.12,6.49,13.64,7.24c3.95,0.54,7.88,0.02,11.37-1.43l0,0c18.17-7.1,22.65-24.1,25.28-43.51
									C187.59,1799.81,168.52,1802.37,156.95,1800.47z"/>
							</g>
						</g>
					</g>
				</g>
			</g>
		</g>
		<g>
			<defs>
				<polygon id="SVGID_85_" points="77.38,1665.6 90.81,1642.35 114.06,1655.78 100.64,1679.03 				"/>
			</defs>
			<clipPath id="SVGID_86_">
				<use xlink:href="#SVGID_85_"  style="overflow:visible;"/>
			</clipPath>
			<g style="clip-path:url(#SVGID_86_);">
				<g>
					<defs>
						<polygon id="SVGID_87_" points="77.38,1665.6 90.81,1642.35 114.06,1655.78 100.64,1679.03 						"/>
					</defs>
					<clipPath id="SVGID_88_">
						<use xlink:href="#SVGID_87_"  style="overflow:visible;"/>
					</clipPath>
					<g style="clip-path:url(#SVGID_88_);">
						<g>
							<defs>
								<polygon id="SVGID_89_" points="77.38,1665.6 90.81,1642.35 114.06,1655.78 100.64,1679.03 								"/>
							</defs>
							<clipPath id="SVGID_90_">
								<use xlink:href="#SVGID_89_"  style="overflow:visible;"/>
							</clipPath>
							<g style="clip-path:url(#SVGID_90_);">
								<path style="fill:#70AD47;" d="M88.58,1657.38c-2.17,3.76-0.89,8.53,2.87,10.7c1.18,0.69,2.48,1.01,3.76,1.04
									c-0.24-0.82-0.45-1.68-0.69-2.62c-0.54-2.35-0.96-4.98-1.16-7.1c-0.02-0.14-0.01-0.26,0.06-0.39
									c0.15-0.27,0.5-0.36,0.76-0.2c0.17,0.1,0.25,0.24,0.28,0.42l0,0c0.31,3.05,1.05,7.29,2.11,10.49c0,0,0.14,0.43,0.22,0.64
									l0,0c0.65,1.83,1.39,3.23,2.22,3.7l0.84-1.45c-0.54-0.31-1.21-1.83-1.85-3.91c1.7-0.6,3.19-1.78,4.17-3.47
									c0.7-1.21,1.06-2.56,1.05-3.88l0,0c0.11-6.85-4.82-10.56-10.78-14C92.44,1647.34,90.73,1653.88,88.58,1657.38z"/>
							</g>
						</g>
					</g>
				</g>
			</g>
		</g>
		<g>
			<defs>
				
					<rect id="SVGID_91_" x="66.13" y="1716.51" transform="matrix(0.9706 -0.2405 0.2405 0.9706 -416.8718 73.8955)" width="56.29" height="56.29"/>
			</defs>
			<clipPath id="SVGID_92_">
				<use xlink:href="#SVGID_91_"  style="overflow:visible;"/>
			</clipPath>
			<g style="clip-path:url(#SVGID_92_);">
				<g>
					<defs>
						
							<rect id="SVGID_93_" x="66.13" y="1716.51" transform="matrix(0.9706 -0.2405 0.2405 0.9706 -416.8718 73.8955)" width="56.29" height="56.29"/>
					</defs>
					<clipPath id="SVGID_94_">
						<use xlink:href="#SVGID_93_"  style="overflow:visible;"/>
					</clipPath>
					<g style="clip-path:url(#SVGID_94_);">
						<g>
							<defs>
								
									<rect id="SVGID_95_" x="66.13" y="1716.51" transform="matrix(0.9706 -0.2405 0.2405 0.9706 -416.8718 73.8955)" width="56.29" height="56.29"/>
							</defs>
							<clipPath id="SVGID_96_">
								<use xlink:href="#SVGID_95_"  style="overflow:visible;"/>
							</clipPath>
							<g style="clip-path:url(#SVGID_96_);">
								<path style="fill:#70AD47;" d="M91.75,1728.36c8.82-2.19,17.7,3.16,19.89,11.99c0.69,2.79,0.6,5.59-0.09,8.18
									c-1.51-0.96-3.12-1.88-4.89-2.9c-4.42-2.47-9.48-4.84-13.62-6.47c-0.27-0.11-0.53-0.17-0.81-0.1
									c-0.63,0.16-1.01,0.79-0.86,1.42c0.1,0.4,0.34,0.64,0.68,0.8l0,0c5.97,2.39,14.08,6.36,19.9,10.35c0,0,0.8,0.53,1.16,0.8
									l0,0c3.31,2.38,5.69,4.69,6.17,6.63l-3.41,0.85c-0.31-1.25-2.98-3.49-6.8-5.99c-2.2,3.08-5.43,5.39-9.41,6.38
									c-2.85,0.71-5.76,0.64-8.43-0.15l0,0c-13.86-3.75-18.48-15.84-21.95-29.84C69.28,1730.31,83.44,1730.66,91.75,1728.36z"/>
							</g>
						</g>
					</g>
				</g>
			</g>
		</g>
		<g>
			<defs>
				
					<rect id="SVGID_97_" x="65.43" y="1666.15" transform="matrix(0.8618 -0.5072 0.5072 0.8618 -844.0002 277.3433)" width="43.22" height="43.23"/>
			</defs>
			<clipPath id="SVGID_98_">
				<use xlink:href="#SVGID_97_"  style="overflow:visible;"/>
			</clipPath>
			<g style="clip-path:url(#SVGID_98_);">
				<g>
					<defs>
						
							<rect id="SVGID_99_" x="65.43" y="1666.15" transform="matrix(0.8618 -0.5072 0.5072 0.8618 -844.0002 277.3433)" width="43.22" height="43.23"/>
					</defs>
					<clipPath id="SVGID_100_">
						<use xlink:href="#SVGID_99_"  style="overflow:visible;"/>
					</clipPath>
					<g style="clip-path:url(#SVGID_100_);">
						<g>
							<defs>
								
									<rect id="SVGID_101_" x="65.43" y="1666.15" transform="matrix(0.8618 -0.5072 0.5072 0.8618 -844.0002 277.3433)" width="43.22" height="43.23"/>
							</defs>
							<clipPath id="SVGID_102_">
								<use xlink:href="#SVGID_101_"  style="overflow:visible;"/>
							</clipPath>
							<g style="clip-path:url(#SVGID_102_);">
								<path style="fill:#70AD47;" d="M81.61,1676.32c6.02-3.54,13.72-1.54,17.26,4.47c1.12,1.9,1.66,3.98,1.72,6.04
									c-1.32-0.37-2.71-0.7-4.23-1.06c-3.79-0.85-8.03-1.49-11.45-1.78c-0.22-0.03-0.42-0.01-0.62,0.1
									c-0.43,0.25-0.57,0.81-0.32,1.23c0.16,0.27,0.39,0.4,0.68,0.44l0,0c4.92,0.45,11.76,1.6,16.92,3.27c0,0,0.7,0.21,1.03,0.33
									l0,0c2.96,1.03,5.22,2.21,5.99,3.53l-2.33,1.37c-0.5-0.85-2.96-1.92-6.32-2.92c-0.94,2.75-2.82,5.16-5.53,6.76
									c-1.94,1.14-4.1,1.73-6.24,1.74l0,0c-11.02,0.27-17.07-7.61-22.69-17.16C65.5,1682.67,76,1679.84,81.61,1676.32z"/>
							</g>
						</g>
					</g>
				</g>
			</g>
		</g>
		<g>
			<defs>
				
					<rect id="SVGID_103_" x="104.02" y="1673.6" transform="matrix(0.9957 -0.0922 0.0922 0.9957 -156.5783 19.6237)" width="59.93" height="59.93"/>
			</defs>
			<clipPath id="SVGID_104_">
				<use xlink:href="#SVGID_103_"  style="overflow:visible;"/>
			</clipPath>
			<g style="clip-path:url(#SVGID_104_);">
				<g>
					<defs>
						
							<rect id="SVGID_105_" x="104.02" y="1673.6" transform="matrix(0.9957 -0.0922 0.0922 0.9957 -156.5783 19.6237)" width="59.93" height="59.93"/>
					</defs>
					<clipPath id="SVGID_106_">
						<use xlink:href="#SVGID_105_"  style="overflow:visible;"/>
					</clipPath>
					<g style="clip-path:url(#SVGID_106_);">
						<g>
							<defs>
								
									<rect id="SVGID_107_" x="104.02" y="1673.6" transform="matrix(0.9957 -0.0922 0.0922 0.9957 -156.5783 19.6237)" width="59.93" height="59.93"/>
							</defs>
							<clipPath id="SVGID_108_">
								<use xlink:href="#SVGID_107_"  style="overflow:visible;"/>
							</clipPath>
							<g style="clip-path:url(#SVGID_108_);">
								<path style="fill:#70AD47;" d="M130.82,1686.3c-9.63,0.89-16.68,9.38-15.79,19.02c0.28,3.05,1.36,5.83,2.95,8.19
									c1.18-1.49,2.48-2.99,3.9-4.62c3.58-4.03,7.83-8.19,11.43-11.28c0.23-0.21,0.47-0.36,0.78-0.39
									c0.68-0.06,1.29,0.44,1.36,1.13c0.04,0.44-0.12,0.76-0.41,1.04l0,0c-5.16,4.49-11.93,11.32-16.38,17.38
									c0,0-0.61,0.81-0.89,1.21l0,0c-2.49,3.55-4.08,6.71-3.88,8.82l3.73-0.35c-0.13-1.37,1.77-4.55,4.74-8.4
									c3.29,2.33,7.35,3.52,11.7,3.12c3.11-0.29,6.02-1.37,8.43-3.1l0,0c12.62-8.63,13.03-22.4,11.62-37.69
									C154.09,1680.38,139.98,1685.7,130.82,1686.3z"/>
							</g>
						</g>
					</g>
				</g>
			</g>
		</g>
		<path style="fill-rule:evenodd;clip-rule:evenodd;fill:#7F6000;" d="M135.78,1871.65c5.87,4.65,9.17,8.56,10.6,11.78l0.16,0.58
			l0.64,0.19c3.06,1.31,5.11,3.56,5.46,6.02l0.03,0.01l2.47,1.02c2.31,1.23,4,3.01,4.68,5.01c0.66,1.94,0.32,3.94-0.96,5.61
			c2.4,2.74,6.83,10.07,1.03,9.1c-5.65-0.95-6.29,6.12-12.12,6.08c-0.3,2.49-4.42-0.99-7.61-0.85c-3.19,0.14-7.19,4.2-11.51,1.71
			c-1.84,3.28-8.14,0.74-12.6,0.6c-4.53-0.14-8.39-2.12-13.42,0.83l-1.49-0.25l0.06,0.31c0.09,0.47,0.13,0.72,0.05,0.54l-0.12-0.85
			l-1.1-0.19c-2.45-0.34-4.55-0.45-7.32-1.28c-3.69-1.1-8.41,0.21-12.4-2.04c-4.51-0.12-8.5-2.53-9.43-5.71
			c-0.67-2.3,0.39-4.59,2.8-6.03c-3.02-1.66-4.5-4.37-3.78-6.9c0.84-2.97,4.5-4.97,8.8-4.82c0.03-0.05,0.06-0.09,0.09-0.14
			c-0.25-3.04,1.41-5.9,4.53-7.8c1.23-0.75,2.62-1.31,4.1-1.68l0.19-0.04l-0.32-0.69c-0.8-3.09,2.67-5.09,9.19-8.22
			C96.2,1879.69,120.5,1898.88,135.78,1871.65z"/>
	</g>
</g>
</svg>
