<?xml version="1.0" standalone="no"?>
<!DOCTYPE svg PUBLIC "-//W3C//DTD SVG 20010904//EN"
 "http://www.w3.org/TR/2001/REC-SVG-20010904/DTD/svg10.dtd">
<svg version="1.0" xmlns="http://www.w3.org/2000/svg"
 width="512.000000pt" height="512.000000pt" viewBox="0 0 512.000000 512.000000"
 preserveAspectRatio="xMidYMid meet">

<g transform="translate(0.000000,512.000000) scale(0.100000,-0.100000)"
fill="#000000" stroke="none">
<path d="M2465 4396 c-188 -61 -343 -176 -448 -331 -22 -33 -41 -61 -42 -62
-1 -2 -41 -14 -90 -28 -165 -48 -274 -114 -392 -239 -257 -270 -306 -677 -122
-1002 l41 -71 2 -189 c2 -173 5 -197 29 -277 37 -118 76 -204 141 -301 61 -91
201 -231 289 -290 124 -81 296 -147 433 -164 l59 -7 3 -378 2 -377 48 0 c26 0
111 3 190 7 l142 6 0 387 0 387 -47 -12 c-27 -7 -67 -15 -90 -19 l-43 -6 0
1495 c0 1417 -1 1495 -17 1495 -10 -1 -49 -11 -88 -24z"/>
</g>
</svg>
