<?xml version="1.0" encoding="utf-8"?>
<!-- Generator: Adobe Illustrator 24.1.2, SVG Export Plug-In . SVG Version: 6.00 Build 0)  -->
<svg version="1.1" id="main_x5F_picture" xmlns="http://www.w3.org/2000/svg" xmlns:xlink="http://www.w3.org/1999/xlink" x="0px"
	 y="0px" viewBox="0 0 1280 1024" style="enable-background:new 0 0 1280 1024;" xml:space="preserve">
<style type="text/css">
	.st0{fill:url(#SVGID_1_);}
	.st1{fill:#C9E2CE;}
	.st2{fill:#AED1AE;}
	.st3{fill:#6DB032;}
	.st4{fill:#5D992F;}
	.st5{fill:#5F3224;}
	.st6{fill:#9ABF41;}
	.st7{fill:#80A735;}
	.st8{fill:#95C233;}
	.st9{fill:#FFFFFF;}
	.st10{fill:#6DAE36;}
	.st11{fill:#92BC59;}
</style>
<g id="sky_1_">
	<linearGradient id="SVGID_1_" gradientUnits="userSpaceOnUse" x1="325.1631" y1="357.0916" x2="1254.0637" y2="893.3926">
		<stop  offset="0" style="stop-color:#FFFFFF"/>
		<stop  offset="0.2601" style="stop-color:#BEE2FC;stop-opacity:0.87"/>
		<stop  offset="0.5107" style="stop-color:#88CAF9;stop-opacity:0.7447"/>
		<stop  offset="0.7253" style="stop-color:#60B8F7;stop-opacity:0.6373"/>
		<stop  offset="0.8955" style="stop-color:#48ADF5;stop-opacity:0.5523"/>
		<stop  offset="1" style="stop-color:#3FA9F5;stop-opacity:0.5"/>
	</linearGradient>
	<path class="st0" d="M1261.43,318.6c-7.28-10.15-14.78-19.85-22.51-29.14c-38.65-46.43-82.98-82.59-133.24-114.57
		c-13.63-8.69-27.67-16.87-41.85-24.66c-28.36-15.59-57.32-29.66-84.75-43.35c-14.44-7.14-29.22-13.49-44.33-18.99
		c-45.31-16.5-93.47-25.4-143.42-25.4c-49.94,0-98.11,8.89-143.42,25.4c-15.1,5.5-29.89,11.85-44.3,19.02
		c-34.58,14.45-63.55,37.95-86.92,66.6c-7.79,9.55-14.96,19.68-21.5,30.23c-8.12,12.87-14.92,26.57-19.75,40.85
		c-4.83,14.28-7.71,29.15-8,44.33c5.07,67.89,46.7,123.65,72.08,185.61c36.55,84.68,25.38,195.18-56.86,251.97
		c-22.34,15.49-48.74,21.69-74.12,13.42c-43.66-12.39-77.16-43.37-116.76-65.06c-10.15-5.16-19.29-10.33-30.63-13.68
		c-12-4.14-24.28-6.71-36.96-6.97c-12.68-0.26-25.75,1.78-39.35,6.89c-12.23,5.07-23.73,11.96-34.25,20.33
		c-21.04,16.72-38.18,39.21-48.68,65.72c-13.37,33.99-18.26,69.88-16.03,105.33h1191.78V347.91
		C1272.83,337.89,1267.44,328.11,1261.43,318.6z"/>
</g>
<g>
	<path class="st1" d="M846.02,839.08h-3.09c-4.07,0-7.4-3.33-7.4-7.4c0,0,0-25.33,0-44.9c0-0.72,0-1.44,0-2.15
		c0.12-0.85,0.19-1.74,0.21-2.69c0.41-8.27-3.29-19.37,5.23-24.59c0.63-0.24,1.29-0.33,1.97-0.33h3.09c2.04,0,3.89,0.83,5.23,2.18
		c0.45,0.45,0.84,0.95,1.16,1.5c1.01,1.26,1.63,2.5,1.01,3.73c0,0,0,0.56,0,1.57c0,10.11,0,65.69,0,65.69
		C853.42,835.74,850.09,839.08,846.02,839.08z"/>
	<path class="st1" d="M844.79,767.5L844.79,767.5c-0.99,0-1.98-0.03-2.96-0.07c-9.38,0.69-20.48-1.16-27.08-8.3
		c-0.67-0.59-1.39-1.13-2.18-1.6c-0.84-0.57-1.66-1.17-2.47-1.78c-1.09,0.03-2.94,0.64-3.55,0.03c-4.94-4.94-6.17-11.11-12.34-16.04
		c-1.23-1.85-1.23-4.94-2.02-7.58c-0.24-0.89-0.45-1.79-0.67-2.69c-0.21-0.9-0.43-1.8-0.67-2.67c-4.67-8.04-2.82-17.91-5.77-26.38
		c0.08-0.59,0.17-1.18,0.26-1.77c0.37-2.35,0.74-4.67,0.63-6.99c-0.04-0.87-0.15-1.74-0.35-2.62c-0.68-2.99-4.38-6.69-1.91-9.16
		c5.55-7.4,5.55-14.19,3.76-21.93c-0.03-0.86-0.04-1.69-0.06-2.54c0-4.06,0-8.27,0-12.58c0-0.74,0-1.49,0-2.25
		c-0.12-2.01-0.79-4.04-1.67-6.05c-0.44-1-0.93-2-1.43-2.99c-0.92-1.8-1.11-3.5-0.85-5.13c0.13-0.81,0.38-1.61,0.69-2.42
		c3.26-9.53,1.41-19.4,3.26-28.62c0-0.82,0-1.63,0-2.45c0-0.77-0.02-1.56-0.13-2.39c-1.77-5.63-6.26-11.22-6.76-16.25
		c-0.08-0.84-0.06-1.66,0.07-2.5c4.98-7.91,4.98-15.93-2.49-22.39c0.01-0.84,0.07-1.67,0.17-2.51c0.91-7.56,5.04-15.32,1.36-22.9
		c-0.54-0.37-1.16-0.83-1.46-1.45c-1.54-3.6-0.51-7.2,0.38-10.62c0.17-0.71,0.34-1.42,0.48-2.13c2.22-3.91,5.92-8.23,5.31-12.54
		c-0.62-5.55-2.47-11.11-2.71-17.04c-0.16-0.88-0.31-1.75-0.43-2.62c-0.35-2.62-0.32-5.21,0.32-7.78c0.23-0.93,0.55-1.86,0.96-2.79
		c4.94-6.17,4.94-14.81,8.02-22.21c0.93-2.78,3.09-4.32,5.45-5.7c0.79-0.46,1.6-0.9,2.38-1.41c6.98-10.79,15-23.13,30.43-20.05
		c2.47,0.62,4.94-3.09,8.02-2.47c4.32,0,7.4,0.62,10.58-2.07c0.76-0.26,1.49-0.43,2.21-0.52c2.14-0.27,4.12,0.19,6.12,1.09
		c0.57,0.26,1.15,0.55,1.83,0.78c9.49-2.37,12.58,3.19,17.38,9.94c0.7,0.42,1.32,0.82,1.93,1.23c0.59,0.4,1.17,0.81,1.74,1.22
		c3.26,2.52,7.58,1.9,10.66,3.75c3.6,2.06,1.63,7.54,3.37,11.37c0.35,0.76,0.85,1.47,1.62,2.08c0.56,1.37,1.8,2.6,2.41,3.83
		c0.62,1.85-0.62,3.7,0,5.55c2.47,5.55,9.26,9.87,6.34,16.96c-0.14,0.83-0.21,1.67-0.23,2.49c-0.16,7.45,4.01,14.68,0.66,21.93
		c-0.16,0.81-0.18,1.62-0.1,2.43c0.32,3.22,2.38,6.38,4.43,9.26c0.43,0.77,0.62,1.49,0.63,2.19c0.01,0.69-0.15,1.35-0.37,2.01
		c-2.73,7.53-1.49,16.17-2.25,24.24c0.16,0.79,0.28,1.58,0.31,2.4c0.03,0.81-0.01,1.64-0.17,2.49c-0.62,1.23,1.23,3.09,1.23,4.32
		c0.31,0.93-0.15,2.01-0.72,3.15c-0.28,0.57-0.59,1.16-0.84,1.75c-0.29,3.13-1.52,6.83,0.33,9.92s0,6.17,0,9.26
		c0,1.23,1.23,1.85,1.85,2.47c0.62,2.47-0.62,4.32-1.3,6.76c-0.3,0.93-0.58,1.88-0.81,2.84c-1.65,6.71-1.52,14,3.34,19.4
		c1.85,1.85-0.62,4.32-2.06,6.15c-0.49,0.63-0.87,1.25-1.03,1.87c-1.23,6.79,3.7,12.96-2.58,18.41c-0.48,0.77-0.84,1.61-1.03,2.53
		c-0.09,1.01-0.09,2.01-0.09,3.01c0,1.09,0,2.18,0.01,3.25c4.93,7.98,1.84,16,0.11,24.58c-0.12,1-0.12,1.96-0.12,2.91
		c0,0.94,0,1.88,0,2.8c0,1.02,0,2.02,0,3.02c1.85,7.98,6.17,17.86,0.1,25.46c-0.09,0.68-0.1,1.34-0.1,1.99c0,0.83,0,1.63,0.01,2.44
		c-0.08,0.73-0.07,1.45,0.01,2.16s0.23,1.4,0.43,2.08c-0.27,5.42-1.49,10.69-2.48,16.08c-0.17,0.9-0.32,1.8-0.47,2.71
		c2.5,9.37-0.59,18-4.55,26.06c-0.38,0.75-0.8,1.47-1.26,2.17c-2.32,3.48-5.72,6.26-10.45,7.9c-0.75,0.52-1.5,1.02-2.27,1.5
		c-1.53,0.97-3.1,1.9-4.66,2.81c-0.83,0.46-1.69,0.88-2.57,1.25c-5.28,2.26-11.33,3.06-17.03,3.39c-0.79,0.17-1.58,0.32-2.37,0.46
		C851.35,767.21,848.1,767.5,844.79,767.5z"/>
</g>
<g>
	<path class="st1" d="M1008.11,845.52h-2.7c-3.56,0-6.47-3.1-6.47-6.89c0,0,0-23.57,0-41.79c0-0.67,0-1.34,0-2
		c0.11-0.79,0.16-1.62,0.18-2.5c0.36-7.69-2.88-18.03,4.57-22.89c0.55-0.22,1.13-0.31,1.72-0.31h2.7c1.78,0,3.4,0.78,4.57,2.02
		c0.39,0.42,0.73,0.89,1.02,1.4c0.88,1.17,1.42,2.32,0.88,3.47c0,0,0,0.52,0,1.46c0,9.41,0,61.14,0,61.14
		C1014.58,842.42,1011.67,845.52,1008.11,845.52z"/>
	<path class="st1" d="M1007.03,778.9L1007.03,778.9c-0.87,0-1.73-0.02-2.59-0.07c-8.19,0.64-17.9-1.08-23.66-7.72
		c-0.59-0.55-1.22-1.05-1.91-1.49c-0.73-0.53-1.45-1.08-2.16-1.66c-0.95,0.03-2.57,0.6-3.11,0.03c-4.31-4.59-5.39-10.34-10.78-14.93
		c-1.08-1.72-1.08-4.59-1.77-7.05c-0.21-0.83-0.4-1.66-0.58-2.5c-0.19-0.84-0.37-1.67-0.58-2.49c-4.08-7.48-2.46-16.67-5.04-24.55
		c0.07-0.55,0.15-1.1,0.23-1.64c0.32-2.19,0.65-4.34,0.55-6.51c-0.04-0.81-0.13-1.62-0.31-2.44c-0.59-2.78-3.82-6.23-1.67-8.52
		c4.85-6.89,4.85-13.21,3.28-20.41c-0.02-0.8-0.04-1.58-0.05-2.36c0-3.78,0-7.69,0-11.71c0-0.69,0-1.39,0-2.1
		c-0.11-1.87-0.69-3.76-1.46-5.63c-0.38-0.93-0.81-1.86-1.25-2.78c-0.8-1.68-0.97-3.25-0.74-4.77c0.11-0.76,0.33-1.5,0.6-2.25
		c2.85-8.87,1.23-18.05,2.85-26.64c0-0.76,0-1.52,0-2.28c0-0.72-0.02-1.45-0.11-2.23c-1.55-5.24-5.47-10.44-5.91-15.12
		c-0.07-0.78-0.05-1.55,0.06-2.33c4.35-7.36,4.35-14.83-2.18-20.84c0.01-0.78,0.06-1.56,0.15-2.34c0.8-7.04,4.4-14.26,1.19-21.31
		c-0.47-0.35-1.01-0.78-1.28-1.35c-1.35-3.35-0.45-6.7,0.33-9.89c0.15-0.66,0.3-1.32,0.42-1.98c1.94-3.64,5.18-7.66,4.64-11.68
		c-0.54-5.17-2.16-10.34-2.37-15.86c-0.14-0.82-0.27-1.63-0.37-2.44c-0.3-2.43-0.28-4.85,0.28-7.24c0.21-0.87,0.48-1.73,0.84-2.6
		c4.31-5.74,4.31-13.78,7.01-20.67c0.81-2.58,2.7-4.02,4.76-5.3c0.69-0.43,1.39-0.84,2.08-1.31c6.1-10.05,13.11-21.53,26.58-18.66
		c2.16,0.57,4.31-2.87,7.01-2.3c3.77,0,6.47,0.57,9.24-1.93c0.66-0.24,1.3-0.4,1.93-0.48c1.87-0.25,3.6,0.18,5.35,1.02
		c0.5,0.24,1,0.51,1.6,0.72c8.29-2.2,10.99,2.97,15.18,9.25c0.61,0.39,1.15,0.76,1.68,1.15c0.51,0.37,1.02,0.75,1.52,1.14
		c2.85,2.34,6.62,1.77,9.31,3.49c3.14,1.91,1.42,7.02,2.95,10.58c0.31,0.71,0.75,1.36,1.41,1.93c0.49,1.27,1.57,2.42,2.11,3.57
		c0.54,1.72-0.54,3.45,0,5.17c2.16,5.17,8.09,9.19,5.54,15.78c-0.12,0.78-0.18,1.55-0.2,2.32c-0.14,6.94,3.5,13.66,0.58,20.41
		c-0.14,0.76-0.16,1.51-0.09,2.26c0.28,3,2.08,5.93,3.87,8.61c0.37,0.72,0.54,1.39,0.55,2.03c0.01,0.64-0.13,1.26-0.32,1.87
		c-2.38,7.01-1.31,15.05-1.97,22.56c0.14,0.73,0.24,1.47,0.27,2.23s-0.01,1.53-0.15,2.32c-0.54,1.15,1.08,2.87,1.08,4.02
		c0.27,0.86-0.13,1.87-0.63,2.93c-0.25,0.53-0.52,1.08-0.74,1.63c-0.25,2.91-1.33,6.36,0.29,9.23s0,5.74,0,8.61
		c0,1.15,1.08,1.72,1.62,2.3c0.54,2.3-0.54,4.02-1.13,6.29c-0.27,0.87-0.5,1.75-0.71,2.64c-1.44,6.25-1.32,13.03,2.92,18.06
		c1.62,1.72-0.54,4.02-1.8,5.73c-0.43,0.59-0.76,1.16-0.9,1.74c-1.08,6.32,3.23,12.06-2.26,17.13c-0.42,0.72-0.73,1.5-0.9,2.35
		c-0.08,0.94-0.08,1.87-0.08,2.8c0,1.01,0,2.02,0.01,3.02c4.3,7.42,1.61,14.89,0.09,22.88c-0.1,0.93-0.1,1.83-0.1,2.71
		c0,0.88,0,1.75,0,2.61c0,0.95,0,1.88,0,2.81c1.62,7.43,5.39,16.62,0.09,23.69c-0.08,0.63-0.09,1.25-0.09,1.85
		c0,0.77,0,1.52,0.01,2.27c-0.07,0.68-0.06,1.35,0.01,2.01s0.2,1.31,0.38,1.94c-0.23,5.04-1.3,9.95-2.16,14.97
		c-0.14,0.84-0.28,1.68-0.41,2.52c2.18,8.72-0.51,16.76-3.97,24.26c-0.33,0.7-0.7,1.37-1.1,2.02c-2.02,3.24-4.99,5.83-9.13,7.36
		c-0.65,0.48-1.31,0.94-1.98,1.4c-1.34,0.91-2.71,1.77-4.07,2.62c-0.73,0.43-1.48,0.82-2.24,1.17c-4.61,2.1-9.9,2.84-14.88,3.16
		c-0.69,0.16-1.38,0.3-2.07,0.43C1012.77,778.64,1009.93,778.9,1007.03,778.9z"/>
</g>
<g>
	<path class="st1" d="M701.62,839.52h-2.71c-3.57,0-6.49-2.92-6.49-6.49c0,0,0-22.21,0-39.36c0-0.64,0-1.26,0-1.88
		c0.11-0.74,0.16-1.53,0.18-2.36c0.36-7.25-2.89-16.99,4.58-21.56c0.55-0.21,1.13-0.29,1.73-0.29h2.71c1.79,0,3.41,0.73,4.59,1.91
		c0.39,0.39,0.74,0.83,1.02,1.32c0.89,1.11,1.43,2.19,0.89,3.27c0,0,0,0.49,0,1.37c0,8.86,0,57.6,0,57.6
		C708.12,836.6,705.19,839.52,701.62,839.52z"/>
	<path class="st1" d="M700.54,776.76L700.54,776.76c-0.87,0-1.74-0.02-2.6-0.06c-8.22,0.6-17.96-1.02-23.75-7.28
		c-0.59-0.51-1.22-0.99-1.91-1.41c-0.73-0.5-1.45-1.02-2.17-1.56c-0.95,0.02-2.58,0.56-3.12,0.02c-4.33-4.33-5.41-9.74-10.82-14.07
		c-1.08-1.62-1.08-4.33-1.77-6.65c-0.21-0.78-0.4-1.57-0.58-2.36c-0.19-0.79-0.37-1.57-0.58-2.35c-4.09-7.05-2.47-15.71-5.06-23.13
		c0.07-0.52,0.15-1.03,0.23-1.55c0.32-2.06,0.65-4.09,0.55-6.13c-0.04-0.76-0.13-1.53-0.31-2.3c-0.59-2.62-3.84-5.87-1.67-8.03
		c4.87-6.49,4.87-12.44,3.3-19.22c-0.02-0.75-0.04-1.49-0.05-2.22c0-3.56,0-7.25,0-11.03c0-0.65,0-1.31,0-1.98
		c-0.11-1.77-0.69-3.55-1.46-5.3c-0.38-0.88-0.82-1.75-1.25-2.62c-0.81-1.58-0.97-3.07-0.74-4.49c0.12-0.71,0.33-1.41,0.6-2.12
		c2.86-8.35,1.24-17.01,2.86-25.09c0-0.72,0-1.43,0-2.15c0-0.68-0.02-1.37-0.11-2.1c-1.55-4.94-5.49-9.83-5.93-14.25
		c-0.07-0.74-0.05-1.46,0.06-2.19c4.36-6.94,4.36-13.97-2.19-19.63c0.01-0.73,0.06-1.47,0.15-2.2c0.8-6.63,4.42-13.43,1.19-20.08
		c-0.47-0.33-1.01-0.73-1.28-1.27c-1.35-3.16-0.45-6.31,0.33-9.31c0.15-0.63,0.3-1.24,0.42-1.87c1.95-3.42,5.19-7.21,4.65-11
		c-0.54-4.87-2.16-9.74-2.37-14.94c-0.14-0.77-0.27-1.54-0.38-2.3c-0.3-2.29-0.28-4.57,0.28-6.82c0.21-0.82,0.48-1.63,0.84-2.45
		c4.33-5.41,4.33-12.98,7.03-19.48c0.81-2.43,2.71-3.79,4.77-4.99c0.69-0.4,1.4-0.79,2.09-1.23c6.12-9.46,13.15-20.28,26.68-17.58
		c2.16,0.54,4.33-2.71,7.03-2.16c3.79,0,6.49,0.54,9.28-1.81c0.66-0.23,1.31-0.38,1.93-0.46c1.88-0.23,3.61,0.17,5.37,0.96
		c0.5,0.23,1.01,0.48,1.61,0.68c8.32-2.07,11.03,2.8,15.24,8.71c0.61,0.37,1.15,0.72,1.69,1.08c0.51,0.35,1.02,0.71,1.52,1.07
		c2.86,2.21,6.64,1.66,9.35,3.29c3.16,1.8,1.43,6.61,2.96,9.96c0.31,0.67,0.75,1.29,1.42,1.82c0.49,1.2,1.58,2.28,2.12,3.36
		c0.54,1.62-0.54,3.25,0,4.87c2.16,4.87,8.12,8.66,5.56,14.87c-0.12,0.73-0.19,1.46-0.2,2.19c-0.14,6.54,3.51,12.87,0.58,19.23
		c-0.14,0.71-0.16,1.42-0.09,2.13c0.28,2.83,2.08,5.59,3.89,8.12c0.38,0.68,0.54,1.31,0.55,1.92c0.01,0.61-0.13,1.18-0.32,1.76
		c-2.39,6.6-1.31,14.18-1.97,21.25c0.14,0.69,0.24,1.39,0.27,2.1c0.03,0.71-0.01,1.44-0.15,2.18c-0.54,1.08,1.08,2.71,1.08,3.79
		c0.27,0.81-0.14,1.76-0.63,2.76c-0.25,0.5-0.52,1.01-0.74,1.53c-0.25,2.74-1.33,5.99,0.29,8.69c1.62,2.71,0,5.41,0,8.12
		c0,1.08,1.08,1.62,1.62,2.16c0.54,2.16-0.54,3.79-1.14,5.93c-0.27,0.82-0.51,1.65-0.71,2.49c-1.45,5.89-1.33,12.28,2.93,17.01
		c1.62,1.62-0.54,3.79-1.8,5.4c-0.43,0.56-0.76,1.1-0.9,1.64c-1.08,5.95,3.25,11.36-2.26,16.14c-0.42,0.68-0.74,1.41-0.9,2.22
		c-0.08,0.88-0.08,1.76-0.08,2.64c0,0.96,0,1.91,0.01,2.85c4.32,6.99,1.62,14.03,0.09,21.55c-0.1,0.88-0.1,1.72-0.1,2.55
		c0,0.83,0,1.65,0,2.46c0,0.89,0,1.77,0,2.64c1.62,7,5.41,15.66,0.09,22.32c-0.08,0.59-0.09,1.18-0.09,1.75c0,0.73,0,1.43,0.01,2.14
		c-0.07,0.64-0.06,1.27,0.01,1.89c0.07,0.62,0.2,1.23,0.38,1.83c-0.23,4.75-1.3,9.38-2.17,14.1c-0.14,0.79-0.28,1.58-0.41,2.37
		c2.19,8.21-0.51,15.79-3.99,22.85c-0.33,0.66-0.7,1.29-1.11,1.9c-2.03,3.05-5.01,5.49-9.16,6.93c-0.65,0.45-1.32,0.89-1.99,1.32
		c-1.35,0.85-2.72,1.67-4.09,2.46c-0.73,0.4-1.48,0.77-2.25,1.1c-4.63,1.98-9.94,2.68-14.93,2.97c-0.69,0.15-1.38,0.28-2.08,0.4
		C706.3,776.51,703.45,776.76,700.54,776.76z"/>
</g>
<g>
	<path class="st2" d="M926.43,849.5h-2.68c-3.54,0-6.44-2.9-6.44-6.44c0,0,0-22.03,0-39.05c0-0.63,0-1.25,0-1.87
		c0.11-0.74,0.16-1.52,0.18-2.34c0.35-7.19-2.87-16.85,4.55-21.39c0.55-0.21,1.12-0.29,1.71-0.29h2.68c1.77,0,3.38,0.72,4.55,1.89
		c0.39,0.39,0.73,0.83,1.01,1.3c0.88,1.1,1.42,2.17,0.88,3.24c0,0,0,0.48,0,1.36c0,8.79,0,57.13,0,57.13
		C932.87,846.6,929.97,849.5,926.43,849.5z"/>
	<path class="st2" d="M925.36,787.25L925.36,787.25c-0.86,0-1.72-0.02-2.58-0.06c-8.16,0.6-17.82-1.01-23.55-7.22
		c-0.58-0.51-1.21-0.98-1.9-1.39c-0.73-0.5-1.44-1.01-2.15-1.55c-0.94,0.02-2.55,0.56-3.09,0.02c-4.29-4.29-5.37-9.66-10.73-13.95
		c-1.07-1.61-1.07-4.29-1.76-6.59c-0.21-0.77-0.39-1.55-0.58-2.34c-0.19-0.78-0.37-1.56-0.58-2.33c-4.06-6.99-2.45-15.58-5.02-22.94
		c0.07-0.51,0.15-1.03,0.23-1.54c0.32-2.04,0.64-4.06,0.55-6.08c-0.04-0.76-0.13-1.52-0.3-2.28c-0.59-2.6-3.81-5.82-1.66-7.96
		c4.83-6.44,4.83-12.34,3.27-19.07c-0.02-0.75-0.04-1.47-0.05-2.2c0-3.53,0-7.19,0-10.94c0-0.65,0-1.3,0-1.96
		c-0.11-1.75-0.69-3.52-1.45-5.26c-0.38-0.87-0.81-1.74-1.24-2.6c-0.8-1.57-0.97-3.04-0.74-4.46c0.11-0.71,0.33-1.4,0.6-2.1
		c2.84-8.28,1.23-16.87,2.84-24.89c0-0.71,0-1.42,0-2.13c0-0.67-0.02-1.35-0.11-2.08c-1.54-4.9-5.44-9.75-5.88-14.13
		c-0.07-0.73-0.05-1.45,0.06-2.18c4.33-6.88,4.33-13.86-2.17-19.47c0.01-0.73,0.06-1.46,0.15-2.19c0.79-6.58,4.38-13.32,1.18-19.92
		c-0.47-0.33-1-0.73-1.27-1.26c-1.34-3.13-0.45-6.26,0.33-9.24c0.15-0.62,0.3-1.23,0.42-1.85c1.93-3.4,5.15-7.15,4.62-10.91
		c-0.54-4.83-2.15-9.66-2.36-14.82c-0.14-0.76-0.27-1.52-0.37-2.28c-0.3-2.28-0.28-4.53,0.28-6.77c0.2-0.81,0.48-1.62,0.84-2.43
		c4.29-5.37,4.29-12.88,6.98-19.32c0.8-2.41,2.68-3.76,4.74-4.95c0.68-0.4,1.39-0.78,2.07-1.22c6.07-9.39,13.05-20.12,26.46-17.44
		c2.15,0.54,4.29-2.68,6.98-2.15c3.76,0,6.44,0.54,9.2-1.8c0.66-0.23,1.3-0.37,1.92-0.45c1.86-0.23,3.58,0.16,5.33,0.95
		c0.5,0.22,1,0.48,1.59,0.67c8.26-2.06,10.94,2.77,15.12,8.64c0.61,0.36,1.15,0.71,1.68,1.07c0.51,0.35,1.01,0.7,1.51,1.06
		c2.83,2.19,6.59,1.65,9.27,3.26c3.13,1.79,1.42,6.56,2.94,9.88c0.3,0.67,0.74,1.27,1.4,1.81c0.49,1.19,1.56,2.26,2.1,3.34
		c0.54,1.61-0.54,3.22,0,4.83c2.15,4.83,8.05,8.59,5.52,14.75c-0.12,0.73-0.18,1.45-0.2,2.17c-0.14,6.48,3.48,12.77,0.58,19.07
		c-0.14,0.71-0.16,1.41-0.09,2.11c0.28,2.8,2.07,5.55,3.86,8.05c0.37,0.67,0.54,1.3,0.55,1.9c0.01,0.6-0.13,1.18-0.32,1.75
		c-2.37,6.55-1.3,14.06-1.96,21.08c0.14,0.68,0.24,1.38,0.27,2.08s-0.01,1.43-0.15,2.17c-0.54,1.07,1.07,2.68,1.07,3.76
		c0.27,0.8-0.13,1.74-0.63,2.74c-0.25,0.5-0.52,1.01-0.73,1.52c-0.25,2.72-1.32,5.94,0.29,8.62c1.61,2.68,0,5.37,0,8.05
		c0,1.07,1.07,1.61,1.61,2.15c0.54,2.15-0.54,3.76-1.13,5.88c-0.26,0.81-0.5,1.63-0.71,2.47c-1.44,5.84-1.32,12.18,2.91,16.87
		c1.61,1.61-0.54,3.76-1.79,5.35c-0.42,0.55-0.76,1.09-0.89,1.62c-1.07,5.9,3.22,11.27-2.25,16.01c-0.41,0.67-0.73,1.4-0.9,2.2
		c-0.08,0.88-0.08,1.75-0.08,2.62c0,0.95,0,1.89,0.01,2.83c4.29,6.94,1.6,13.91,0.09,21.38c-0.1,0.87-0.1,1.71-0.1,2.53
		c0,0.82,0,1.63,0,2.44c0,0.89,0,1.76,0,2.62c1.61,6.94,5.37,15.53,0.09,22.14c-0.08,0.59-0.09,1.17-0.09,1.73
		c0,0.72,0,1.42,0.01,2.12c-0.07,0.64-0.06,1.26,0.01,1.88c0.07,0.61,0.2,1.22,0.37,1.81c-0.23,4.71-1.29,9.3-2.15,13.99
		c-0.14,0.78-0.28,1.57-0.41,2.35c2.17,8.15-0.51,15.66-3.96,22.67c-0.33,0.65-0.69,1.28-1.1,1.89c-2.01,3.03-4.97,5.45-9.09,6.87
		c-0.65,0.45-1.31,0.88-1.97,1.31c-1.33,0.85-2.7,1.65-4.05,2.44c-0.72,0.4-1.47,0.76-2.23,1.09c-4.59,1.96-9.86,2.66-14.81,2.95
		c-0.69,0.15-1.37,0.28-2.06,0.4C931.07,787,928.24,787.25,925.36,787.25z"/>
</g>
<g>
	<path class="st2" d="M618.55,840.1h-2.47c-3.25,0-5.92-2.66-5.92-5.92c0,0,0-20.24,0-35.88c0-0.58,0-1.15,0-1.72
		c0.1-0.68,0.15-1.39,0.17-2.15c0.33-6.61-2.63-15.48,4.18-19.65c0.5-0.19,1.03-0.27,1.57-0.27h2.47c1.63,0,3.11,0.67,4.18,1.74
		c0.36,0.36,0.67,0.76,0.93,1.2c0.81,1.01,1.3,1.99,0.81,2.98c0,0,0,0.44,0,1.25c0,8.08,0,52.5,0,52.5
		C624.47,837.44,621.8,840.1,618.55,840.1z"/>
	<path class="st2" d="M617.56,782.9L617.56,782.9c-0.79,0-1.58-0.02-2.37-0.06c-7.49,0.55-16.37-0.93-21.64-6.63
		c-0.54-0.47-1.11-0.9-1.74-1.28c-0.67-0.46-1.32-0.93-1.98-1.42c-0.87,0.02-2.35,0.51-2.84,0.02c-3.94-3.94-4.93-8.88-9.86-12.82
		c-0.99-1.48-0.99-3.94-1.62-6.06c-0.19-0.71-0.36-1.43-0.53-2.15c-0.17-0.72-0.34-1.43-0.53-2.14c-3.73-6.42-2.25-14.31-4.61-21.08
		c0.06-0.47,0.14-0.94,0.21-1.41c0.29-1.88,0.59-3.73,0.5-5.59c-0.03-0.7-0.12-1.39-0.28-2.09c-0.54-2.39-3.5-5.35-1.53-7.32
		c4.44-5.92,4.44-11.34,3-17.52c-0.02-0.69-0.03-1.35-0.05-2.03c0-3.25,0-6.61,0-10.06c0-0.6,0-1.19,0-1.8
		c-0.1-1.61-0.63-3.23-1.33-4.83c-0.35-0.8-0.74-1.6-1.14-2.39c-0.74-1.44-0.89-2.79-0.68-4.1c0.1-0.65,0.3-1.29,0.55-1.93
		c2.61-7.61,1.13-15.5,2.61-22.87c0-0.65,0-1.31,0-1.96c0-0.62-0.02-1.24-0.1-1.91c-1.42-4.5-5-8.96-5.41-12.98
		c-0.07-0.67-0.05-1.33,0.05-2c3.98-6.32,3.98-12.73-1.99-17.89c0.01-0.67,0.05-1.34,0.14-2.01c0.73-6.05,4.03-12.24,1.09-18.3
		c-0.43-0.3-0.92-0.67-1.17-1.16c-1.23-2.88-0.41-5.75,0.31-8.49c0.14-0.57,0.27-1.13,0.38-1.7c1.78-3.12,4.73-6.57,4.24-10.02
		c-0.49-4.44-1.97-8.88-2.16-13.62c-0.12-0.7-0.25-1.4-0.34-2.1c-0.28-2.09-0.26-4.17,0.26-6.22c0.19-0.75,0.44-1.49,0.77-2.23
		c3.94-4.93,3.94-11.83,6.41-17.75c0.74-2.22,2.47-3.45,4.35-4.55c0.63-0.37,1.28-0.72,1.91-1.12c5.58-8.63,11.99-18.49,24.32-16.02
		c1.97,0.49,3.94-2.47,6.41-1.97c3.45,0,5.92,0.49,8.45-1.65c0.61-0.21,1.19-0.34,1.76-0.42c1.71-0.21,3.29,0.15,4.89,0.87
		c0.46,0.21,0.92,0.44,1.46,0.62c7.59-1.89,10.05,2.55,13.89,7.94c0.56,0.33,1.05,0.66,1.54,0.99c0.47,0.32,0.93,0.64,1.39,0.98
		c2.6,2.01,6.05,1.52,8.52,3c2.88,1.64,1.3,6.03,2.7,9.08c0.28,0.61,0.68,1.17,1.29,1.66c0.45,1.09,1.44,2.08,1.93,3.06
		c0.49,1.48-0.49,2.96,0,4.44c1.97,4.44,7.4,7.89,5.07,13.55c-0.11,0.67-0.17,1.33-0.18,1.99c-0.13,5.96,3.2,11.73,0.53,17.53
		c-0.13,0.65-0.15,1.3-0.08,1.94c0.26,2.58,1.9,5.1,3.54,7.4c0.34,0.62,0.49,1.19,0.5,1.75s-0.12,1.08-0.3,1.6
		c-2.18,6.02-1.19,12.92-1.8,19.37c0.13,0.63,0.22,1.26,0.25,1.91c0.03,0.65-0.01,1.31-0.14,1.99c-0.49,0.99,0.99,2.47,0.99,3.45
		c0.25,0.74-0.12,1.6-0.58,2.51c-0.23,0.46-0.47,0.92-0.67,1.4c-0.23,2.5-1.21,5.46,0.27,7.92c1.48,2.47,0,4.93,0,7.4
		c0,0.99,0.99,1.48,1.48,1.97c0.49,1.97-0.49,3.45-1.04,5.4c-0.24,0.74-0.46,1.5-0.65,2.27c-1.32,5.36-1.21,11.19,2.67,15.5
		c1.48,1.48-0.49,3.45-1.65,4.92c-0.39,0.51-0.7,1-0.82,1.49c-0.99,5.42,2.96,10.36-2.06,14.71c-0.38,0.62-0.67,1.29-0.82,2.02
		c-0.07,0.81-0.07,1.61-0.07,2.41c0,0.87,0,1.74,0.01,2.6c3.94,6.37,1.47,12.78,0.09,19.64c-0.09,0.8-0.09,1.57-0.09,2.33
		c0,0.75,0,1.5,0,2.24c0,0.81,0,1.62,0,2.41c1.48,6.38,4.93,14.27,0.08,20.34c-0.07,0.54-0.08,1.07-0.08,1.59c0,0.66,0,1.3,0,1.95
		c-0.06,0.59-0.05,1.16,0.01,1.73s0.18,1.12,0.34,1.66c-0.21,4.33-1.19,8.55-1.98,12.85c-0.13,0.72-0.26,1.44-0.37,2.16
		c2,7.48-0.47,14.39-3.64,20.83c-0.3,0.6-0.64,1.18-1.01,1.73c-1.85,2.78-4.57,5-8.35,6.32c-0.6,0.41-1.2,0.81-1.81,1.2
		c-1.23,0.78-2.48,1.52-3.72,2.25c-0.66,0.37-1.35,0.7-2.05,1c-4.22,1.8-9.06,2.44-13.61,2.71c-0.63,0.14-1.26,0.26-1.89,0.37
		C622.81,782.67,620.21,782.9,617.56,782.9z"/>
</g>
<g>
	<path class="st2" d="M1072.67,841.28h-2.07c-2.73,0-4.96-2.23-4.96-4.96c0,0,0-16.96,0-30.07c0-0.49,0-0.97,0-1.44
		c0.08-0.57,0.12-1.17,0.14-1.8c0.27-5.54-2.21-12.98,3.5-16.47c0.42-0.16,0.86-0.22,1.32-0.22h2.07c1.36,0,2.6,0.56,3.5,1.46
		c0.3,0.3,0.56,0.64,0.78,1c0.68,0.84,1.09,1.67,0.68,2.5c0,0,0,0.37,0,1.05c0,6.77,0,44,0,44
		C1077.63,839.05,1075.4,841.28,1072.67,841.28z"/>
	<path class="st2" d="M1071.84,793.33L1071.84,793.33c-0.67,0-1.33-0.02-1.99-0.05c-6.28,0.46-13.72-0.78-18.14-5.56
		c-0.45-0.39-0.93-0.76-1.46-1.07c-0.56-0.38-1.11-0.78-1.66-1.19c-0.73,0.02-1.97,0.43-2.38,0.02c-3.31-3.31-4.13-7.44-8.27-10.75
		c-0.83-1.24-0.83-3.31-1.35-5.08c-0.16-0.59-0.3-1.2-0.45-1.8c-0.14-0.6-0.29-1.2-0.45-1.79c-3.13-5.39-1.89-12-3.86-17.67
		c0.05-0.4,0.11-0.79,0.18-1.18c0.25-1.57,0.5-3.13,0.42-4.68c-0.03-0.58-0.1-1.17-0.23-1.75c-0.45-2-2.93-4.48-1.28-6.13
		c3.72-4.96,3.72-9.51,2.52-14.69c-0.02-0.57-0.03-1.13-0.04-1.7c0-2.72,0-5.54,0-8.43c0-0.5,0-1,0-1.51
		c-0.08-1.35-0.53-2.71-1.12-4.05c-0.29-0.67-0.62-1.34-0.96-2c-0.62-1.21-0.74-2.34-0.57-3.43c0.09-0.55,0.25-1.08,0.46-1.62
		c2.18-6.38,0.94-12.99,2.18-19.17c0-0.55,0-1.09,0-1.64c0-0.52-0.01-1.04-0.09-1.6c-1.19-3.77-4.19-7.51-4.53-10.88
		c-0.06-0.56-0.04-1.11,0.04-1.68c3.33-5.3,3.33-10.67-1.67-15c0-0.56,0.05-1.12,0.11-1.68c0.61-5.07,3.38-10.26,0.91-15.34
		c-0.36-0.25-0.77-0.56-0.98-0.97c-1.03-2.41-0.34-4.82,0.26-7.12c0.12-0.48,0.23-0.95,0.32-1.43c1.49-2.62,3.97-5.51,3.56-8.4
		c-0.41-3.72-1.65-7.44-1.81-11.41c-0.1-0.59-0.21-1.17-0.29-1.76c-0.23-1.75-0.22-3.49,0.22-5.21c0.16-0.63,0.37-1.25,0.65-1.87
		c3.31-4.13,3.31-9.92,5.37-14.88c0.62-1.86,2.07-2.89,3.65-3.82c0.53-0.31,1.07-0.6,1.6-0.94c4.67-7.23,10.05-15.5,20.38-13.43
		c1.65,0.41,3.31-2.07,5.37-1.65c2.89,0,4.96,0.41,7.09-1.39c0.51-0.17,1-0.29,1.48-0.35c1.44-0.18,2.76,0.13,4.1,0.73
		c0.38,0.17,0.77,0.37,1.23,0.52c6.36-1.58,8.43,2.14,11.64,6.66c0.47,0.28,0.88,0.55,1.29,0.83c0.39,0.27,0.78,0.54,1.16,0.82
		c2.18,1.68,5.07,1.27,7.14,2.51c2.41,1.38,1.09,5.05,2.26,7.61c0.23,0.51,0.57,0.98,1.08,1.39c0.38,0.92,1.2,1.74,1.62,2.57
		c0.41,1.24-0.41,2.48,0,3.72c1.65,3.72,6.2,6.61,4.25,11.36c-0.09,0.56-0.14,1.12-0.15,1.67c-0.11,4.99,2.68,9.83,0.44,14.69
		c-0.1,0.55-0.12,1.09-0.07,1.63c0.22,2.16,1.59,4.27,2.97,6.2c0.29,0.52,0.41,1,0.42,1.46s-0.1,0.91-0.25,1.35
		c-1.83,5.04-1,10.83-1.51,16.24c0.11,0.53,0.18,1.06,0.21,1.6c0.02,0.54-0.01,1.1-0.11,1.67c-0.41,0.83,0.83,2.07,0.83,2.89
		c0.21,0.62-0.1,1.34-0.48,2.11c-0.19,0.38-0.4,0.77-0.57,1.17c-0.19,2.1-1.02,4.57,0.22,6.64c1.24,2.07,0,4.13,0,6.2
		c0,0.83,0.83,1.24,1.24,1.65c0.41,1.65-0.41,2.89-0.87,4.53c-0.2,0.62-0.39,1.26-0.54,1.9c-1.11,4.5-1.02,9.38,2.24,12.99
		c1.24,1.24-0.41,2.89-1.38,4.12c-0.33,0.42-0.58,0.84-0.69,1.25c-0.83,4.55,2.48,8.68-1.73,12.33c-0.32,0.52-0.56,1.08-0.69,1.69
		c-0.06,0.67-0.06,1.35-0.06,2.02c0,0.73,0,1.46,0.01,2.18c3.3,5.34,1.23,10.72,0.07,16.46c-0.08,0.67-0.08,1.31-0.08,1.95
		c0,0.63,0,1.26,0,1.88c0,0.68,0,1.36,0,2.02c1.24,5.35,4.13,11.96,0.07,17.05c-0.06,0.45-0.07,0.9-0.07,1.33c0,0.55,0,1.09,0,1.63
		c-0.05,0.49-0.05,0.97,0.01,1.45s0.16,0.94,0.29,1.39c-0.18,3.63-1,7.16-1.66,10.77c-0.11,0.6-0.22,1.21-0.31,1.81
		c1.67,6.27-0.39,12.06-3.05,17.46c-0.25,0.5-0.53,0.99-0.84,1.45c-1.55,2.33-3.83,4.19-7,5.29c-0.5,0.35-1.01,0.68-1.52,1.01
		c-1.03,0.65-2.08,1.27-3.12,1.88c-0.56,0.31-1.13,0.59-1.72,0.84c-3.53,1.51-7.59,2.05-11.41,2.27c-0.53,0.11-1.06,0.22-1.59,0.31
		C1076.24,793.14,1074.06,793.33,1071.84,793.33z"/>
</g>
<g>
	<path class="st2" d="M773.62,849.08h-2.86c-3.78,0-6.87-3.09-6.87-6.87c0,0,0-23.49,0-41.65c0-0.67,0-1.34,0-1.99
		c0.11-0.79,0.17-1.62,0.19-2.5c0.38-7.67-3.06-17.97,4.85-22.81c0.59-0.22,1.2-0.31,1.83-0.31h2.86c1.89,0,3.61,0.77,4.85,2.02
		c0.42,0.41,0.78,0.88,1.08,1.39c0.94,1.17,1.51,2.32,0.94,3.46c0,0,0,0.52,0,1.45c0,9.38,0,60.94,0,60.94
		C780.49,845.99,777.4,849.08,773.62,849.08z"/>
	<path class="st2" d="M772.47,782.68L772.47,782.68c-0.92,0-1.84-0.02-2.75-0.07c-8.7,0.64-19-1.08-25.12-7.7
		c-0.62-0.54-1.29-1.05-2.02-1.49c-0.78-0.53-1.54-1.08-2.3-1.65c-1.01,0.03-2.73,0.6-3.3,0.03c-4.58-4.58-5.72-10.3-11.45-14.88
		c-1.14-1.72-1.14-4.58-1.88-7.03c-0.22-0.82-0.42-1.66-0.62-2.49c-0.2-0.83-0.4-1.67-0.62-2.48c-4.33-7.46-2.61-16.62-5.35-24.47
		c0.07-0.55,0.16-1.09,0.24-1.64c0.34-2.18,0.69-4.33,0.58-6.49c-0.04-0.81-0.14-1.62-0.32-2.43c-0.63-2.77-4.06-6.21-1.77-8.5
		c5.15-6.87,5.15-13.17,3.49-20.34c-0.03-0.8-0.04-1.57-0.05-2.35c0-3.77,0-7.67,0-11.67c0-0.69,0-1.39,0-2.09
		c-0.11-1.87-0.73-3.75-1.55-5.61c-0.41-0.93-0.86-1.85-1.33-2.77c-0.85-1.67-1.03-3.24-0.79-4.76c0.12-0.76,0.35-1.5,0.64-2.25
		c3.03-8.84,1.31-18,3.03-26.55c0-0.76,0-1.51,0-2.27c0-0.72-0.02-1.44-0.12-2.22c-1.64-5.22-5.81-10.4-6.27-15.07
		c-0.08-0.78-0.06-1.54,0.06-2.32c4.62-7.34,4.62-14.78-2.31-20.77c0.01-0.77,0.06-1.55,0.16-2.33c0.85-7.02,4.68-14.21,1.26-21.24
		c-0.5-0.35-1.07-0.77-1.36-1.35c-1.43-3.34-0.48-6.68,0.35-9.85c0.16-0.66,0.32-1.31,0.45-1.98c2.06-3.62,5.5-7.63,4.92-11.64
		c-0.57-5.15-2.29-10.3-2.51-15.81c-0.14-0.81-0.29-1.63-0.4-2.43c-0.32-2.43-0.3-4.84,0.3-7.22c0.22-0.87,0.51-1.73,0.89-2.59
		c4.58-5.72,4.58-13.74,7.44-20.61c0.86-2.58,2.86-4.01,5.05-5.28c0.73-0.43,1.48-0.83,2.21-1.3c6.47-10.01,13.92-21.46,28.23-18.6
		c2.29,0.57,4.58-2.86,7.44-2.29c4.01,0,6.87,0.57,9.81-1.92c0.7-0.24,1.38-0.4,2.05-0.48c1.99-0.25,3.82,0.17,5.68,1.01
		c0.53,0.24,1.06,0.51,1.7,0.72c8.81-2.19,11.67,2.96,16.12,9.22c0.65,0.39,1.22,0.76,1.79,1.15c0.54,0.37,1.08,0.75,1.61,1.14
		c3.02,2.33,7.03,1.76,9.89,3.48c3.34,1.91,1.51,7,3.13,10.54c0.32,0.71,0.79,1.36,1.5,1.93c0.52,1.27,1.67,2.41,2.24,3.56
		c0.57,1.72-0.57,3.43,0,5.15c2.29,5.15,8.59,9.16,5.88,15.73c-0.13,0.77-0.2,1.55-0.21,2.31c-0.15,6.92,3.72,13.62,0.62,20.34
		c-0.15,0.76-0.17,1.51-0.1,2.25c0.3,2.99,2.21,5.92,4.11,8.59c0.4,0.72,0.57,1.39,0.58,2.03c0.01,0.64-0.14,1.25-0.34,1.86
		c-2.53,6.99-1.39,15-2.09,22.49c0.15,0.73,0.26,1.47,0.29,2.22c0.03,0.75-0.01,1.52-0.16,2.31c-0.57,1.14,1.14,2.86,1.14,4.01
		c0.29,0.86-0.14,1.86-0.67,2.92c-0.26,0.53-0.55,1.07-0.78,1.62c-0.26,2.9-1.41,6.34,0.31,9.2c1.72,2.86,0,5.72,0,8.59
		c0,1.14,1.14,1.72,1.72,2.29c0.57,2.29-0.57,4.01-1.2,6.27c-0.28,0.86-0.53,1.74-0.75,2.63c-1.53,6.23-1.41,12.99,3.1,18
		c1.72,1.72-0.57,4.01-1.91,5.71c-0.45,0.59-0.81,1.16-0.95,1.73c-1.14,6.3,3.43,12.02-2.39,17.08c-0.44,0.72-0.78,1.49-0.96,2.34
		c-0.08,0.93-0.08,1.87-0.08,2.79c0,1.01,0,2.02,0.01,3.01c4.57,7.4,1.71,14.84,0.1,22.8c-0.11,0.93-0.11,1.82-0.11,2.7
		c0,0.88,0,1.74,0,2.6c0,0.94,0,1.88,0,2.8c1.72,7.41,5.72,16.57,0.1,23.62c-0.08,0.63-0.1,1.25-0.1,1.85c0,0.77,0,1.51,0.01,2.26
		c-0.07,0.68-0.06,1.35,0.01,2c0.07,0.66,0.21,1.3,0.4,1.93c-0.25,5.03-1.38,9.92-2.3,14.92c-0.15,0.83-0.3,1.67-0.43,2.51
		c2.32,8.69-0.54,16.7-4.22,24.18c-0.35,0.7-0.74,1.37-1.17,2.01c-2.15,3.23-5.3,5.81-9.69,7.33c-0.69,0.48-1.39,0.94-2.11,1.39
		c-1.42,0.9-2.88,1.76-4.32,2.61c-0.77,0.43-1.57,0.81-2.38,1.16c-4.9,2.09-10.51,2.83-15.8,3.15c-0.73,0.16-1.46,0.3-2.2,0.43
		C778.57,782.41,775.55,782.68,772.47,782.68z"/>
</g>
<g>
	<path class="st3" d="M870.67,426.01c-2.39,0.93-4.93,0.59-8.14,0.59c-3.09-0.62-5.55,3.09-8.02,2.47
		c-15.43-3.09-23.45,9.26-30.43,20.05c-0.79,0.51-1.6,0.95-2.39,1.41c-2.36,1.38-4.52,2.92-5.45,5.7
		c-3.09,7.4-3.09,16.04-8.02,22.21c-0.41,0.93-0.73,1.86-0.96,2.79c-0.65,2.57-0.67,5.16-0.32,7.78c0.12,0.87,0.27,1.75,0.43,2.62
		c0.24,5.93,2.09,11.49,2.71,17.04c0.62,4.32-3.09,8.64-5.31,12.54c-0.14,0.72-0.31,1.42-0.48,2.13c-0.9,3.42-1.92,7.02-0.38,10.62
		c0.31,0.62,0.93,1.08,1.46,1.45c3.68,7.58-0.45,15.33-1.36,22.9c-0.1,0.84-0.16,1.68-0.17,2.51c7.47,6.46,7.47,14.48,2.49,22.39
		c-0.13,0.84-0.15,1.66-0.07,2.5c0.51,5.03,4.99,10.62,6.76,16.25c0.11,0.84,0.13,1.62,0.13,2.39c0,0.82,0,1.63,0,2.45
		c-1.85,9.22,0,19.09-3.26,28.62c-0.31,0.81-0.56,1.61-0.69,2.42c-0.26,1.63-0.07,3.33,0.85,5.13c0.5,0.99,0.99,1.99,1.43,2.99
		c0.88,2,1.54,4.03,1.67,6.05c0,0.76,0,1.51,0,2.25c0,4.32,0,8.52,0,12.58c0.01,0.84,0.03,1.68,0.06,2.54
		c1.79,7.73,1.79,14.52-3.76,21.93c-2.47,2.47,1.23,6.17,1.91,9.16c0.2,0.87,0.31,1.75,0.35,2.62c0.11,2.33-0.26,4.65-0.63,6.99
		c-0.09,0.59-0.18,1.18-0.26,1.77c2.95,8.47,1.1,18.34,5.77,26.38c0.24,0.88,0.45,1.78,0.67,2.67c0.21,0.9,0.43,1.8,0.67,2.69
		c0.79,2.64,0.79,5.73,2.02,7.58c6.17,4.94,7.4,11.11,12.34,16.04c0.62,0.62,2.47,0,3.55-0.03c0.82,0.61,1.64,1.21,2.47,1.78
		c0.79,0.48,1.51,1.02,2.18,1.6c6.6,7.13,17.71,8.99,27.08,8.3c0.98,0.05,1.97,0.07,2.96,0.07h0c0.04,0,0.08,0,0.12,0V426.01z"/>
	<path class="st4" d="M870.07,426.26c2.39,0.93,4.93,0.59,8.14,0.59c3.09-0.62,5.55,3.09,8.02,2.47
		c15.43-3.09,23.45,9.26,30.43,20.05c0.79,0.51,1.6,0.95,2.39,1.41c2.36,1.38,4.52,2.92,5.45,5.7c3.09,7.4,3.09,16.04,8.02,22.21
		c0.41,0.93,0.73,1.86,0.96,2.79c0.65,2.57,0.67,5.16,0.32,7.78c-0.12,0.87-0.27,1.75-0.43,2.62c-0.24,5.93-2.09,11.49-2.71,17.04
		c-0.62,4.32,3.09,8.64,5.31,12.54c0.14,0.72,0.31,1.42,0.48,2.13c0.9,3.42,1.92,7.02,0.38,10.62c-0.31,0.62-0.93,1.08-1.46,1.45
		c-3.68,7.58,0.45,15.33,1.36,22.9c0.1,0.84,0.16,1.68,0.17,2.51c-7.47,6.46-7.47,14.48-2.49,22.39c0.13,0.84,0.15,1.66,0.07,2.5
		c-0.51,5.03-4.99,10.62-6.76,16.25c-0.11,0.84-0.13,1.62-0.13,2.39c0,0.82,0,1.63,0,2.45c1.85,9.22,0,19.09,3.26,28.62
		c0.31,0.81,0.56,1.61,0.69,2.42c0.26,1.63,0.07,3.33-0.85,5.13c-0.5,0.99-0.99,1.99-1.43,2.99c-0.88,2-1.54,4.03-1.67,6.05
		c0,0.76,0,1.51,0,2.25c0,4.32,0,8.52,0,12.58c-0.01,0.84-0.03,1.68-0.06,2.54c-1.79,7.73-1.79,14.52,3.76,21.93
		c2.47,2.47-1.23,6.17-1.91,9.16c-0.2,0.87-0.31,1.75-0.35,2.62c-0.11,2.33,0.26,4.65,0.63,6.99c0.09,0.59,0.18,1.18,0.26,1.77
		c-2.95,8.47-1.1,18.34-5.77,26.38c-0.24,0.88-0.45,1.78-0.67,2.67c-0.21,0.9-0.43,1.8-0.67,2.69c-0.79,2.64-0.79,5.73-2.02,7.58
		c-6.17,4.94-7.4,11.11-12.34,16.04c-0.62,0.62-2.47,0-3.55-0.03c-0.82,0.61-1.64,1.21-2.47,1.78c-0.79,0.48-1.51,1.02-2.18,1.6
		c-6.6,7.13-17.71,8.99-27.08,8.3c-0.98,0.05-1.97,0.07-2.96,0.07h0c-0.04,0-0.08,0-0.12,0V426.26z"/>
	<path class="st5" d="M875.42,850.52h-1.62c-2.14,0-3.89-13.4-3.89-29.78c0,0,0-101.84,0-180.54c0-2.91,0-5.8,0-8.64
		c0.06-3.41,0.1-7.01,0.11-10.82c0.21-33.25-1.73-77.91,2.74-98.9c0.33-0.96,0.68-1.34,1.03-1.34h1.62c1.07,0,2.04,3.35,2.74,8.75
		c0.24,1.8,0.44,3.83,0.61,6.03c0.53,5.07,0.85,10.04,0.53,15c0,0,0,2.24,0,6.3c0,40.64,0,264.17,0,264.17
		C879.31,837.12,877.56,850.52,875.42,850.52z"/>
	<path class="st5" d="M874.68,588.58c-12.6,2.71-21.6-0.89-27.99-6.94c-0.1-0.1-0.21-0.2-0.31-0.3
		c-5.89-5.58-9.66-12.37-11.91-19.91c-0.02-0.12-0.04-0.25-0.06-0.38c-0.83-5.45,1.81-12.29,7.98-17.47
		c-1.72,4.42-2.5,8.53-2.47,12.31c0.01,1.89,0.22,3.69,0.61,5.4c0.33,1.84,0.83,3.58,1.49,5.23c4.32,12.51,17.05,19.08,34.43,18.22
		c0.16,0.24,0.13,0.96,0.07,1.19C876.5,586.77,875.87,587.73,874.68,588.58z"/>
	<path class="st5" d="M870.35,622.67c11.08,6.57,20.76,6.03,28.74,2.32c0.13-0.06,0.26-0.12,0.39-0.18
		c7.36-3.42,13.09-8.66,17.62-15.09c0.06-0.11,0.12-0.22,0.18-0.34c2.52-4.91,2.19-12.22-2.01-19.11c0.23,4.74-0.35,8.89-1.57,12.46
		c-0.61,1.79-1.39,3.43-2.3,4.93c-0.89,1.64-1.93,3.13-3.07,4.49c-8.07,10.49-22.24,12.67-38.43,6.33c-0.23,0.17-0.43,0.87-0.44,1.1
		C869.2,620.39,869.49,621.49,870.35,622.67z"/>
	<path class="st5" d="M872.87,676c-11.06,6.61-20.74,6.1-28.73,2.41c-0.13-0.06-0.26-0.12-0.39-0.18
		c-7.37-3.39-13.12-8.61-17.67-15.03c-0.06-0.11-0.12-0.22-0.18-0.34c-2.54-4.9-2.23-12.22,1.94-19.11
		c-0.21,4.74,0.38,8.88,1.61,12.45c0.62,1.78,1.4,3.42,2.32,4.92c0.9,1.64,1.94,3.12,3.09,4.48c8.11,10.46,22.28,12.59,38.46,6.2
		c0.23,0.17,0.43,0.87,0.44,1.1C874.01,673.71,873.72,674.82,872.87,676z"/>
	<path class="st5" d="M873.93,705.49c12.38,3.56,21.61,0.58,28.39-5.03c0.11-0.09,0.22-0.18,0.33-0.28
		c6.26-5.17,10.48-11.69,13.23-19.06c0.03-0.12,0.06-0.25,0.09-0.37c1.2-5.38-0.97-12.38-6.78-17.97c1.42,4.53,1.91,8.68,1.64,12.45
		c-0.14,1.88-0.47,3.67-0.98,5.35c-0.45,1.81-1.07,3.52-1.84,5.12c-5.16,12.19-18.31,17.88-35.58,15.85
		c-0.18,0.22-0.19,0.95-0.15,1.18C872.24,703.56,872.8,704.56,873.93,705.49z"/>
	<ellipse class="st6" cx="834.67" cy="523.25" rx="41" ry="51.25"/>
	<ellipse class="st7" cx="916.67" cy="572.25" rx="29" ry="36.25"/>
	<ellipse class="st7" cx="918.67" cy="672.4" rx="29" ry="28.9"/>
	<ellipse class="st8" cx="834.67" cy="643.04" rx="29" ry="36.25"/>
</g>
<g>
	<path class="st3" d="M1002.47,576.81c-1.52,0.59-3.12,0.38-5.16,0.38c-1.96-0.39-3.52,1.96-5.08,1.56
		c-9.78-1.96-14.86,5.87-19.28,12.71c-0.5,0.32-1.01,0.6-1.51,0.89c-1.5,0.87-2.86,1.85-3.45,3.61c-1.96,4.69-1.96,10.17-5.08,14.08
		c-0.26,0.59-0.46,1.18-0.61,1.77c-0.41,1.63-0.42,3.27-0.2,4.93c0.07,0.55,0.17,1.11,0.27,1.66c0.15,3.76,1.33,7.28,1.72,10.8
		c0.39,2.74-1.96,5.47-3.36,7.95c-0.09,0.45-0.19,0.9-0.3,1.35c-0.57,2.17-1.22,4.45-0.24,6.73c0.2,0.39,0.59,0.68,0.93,0.92
		c2.33,4.8-0.28,9.72-0.86,14.51c-0.06,0.53-0.1,1.06-0.11,1.59c4.73,4.09,4.73,9.18,1.58,14.19c-0.08,0.53-0.09,1.05-0.04,1.59
		c0.32,3.19,3.16,6.73,4.29,10.3c0.07,0.53,0.08,1.03,0.08,1.52c0,0.52,0,1.04,0,1.55c-1.17,5.84,0,12.1-2.07,18.14
		c-0.2,0.51-0.35,1.02-0.44,1.53c-0.17,1.03-0.05,2.11,0.54,3.25c0.32,0.63,0.63,1.26,0.91,1.9c0.56,1.27,0.98,2.56,1.06,3.83
		c0,0.48,0,0.96,0,1.43c0,2.74,0,5.4,0,7.97c0.01,0.53,0.02,1.06,0.04,1.61c1.14,4.9,1.14,9.2-2.38,13.9
		c-1.56,1.56,0.78,3.91,1.21,5.8c0.13,0.55,0.2,1.11,0.22,1.66c0.07,1.47-0.17,2.94-0.4,4.43c-0.06,0.37-0.12,0.75-0.17,1.12
		c1.87,5.37,0.7,11.62,3.66,16.72c0.15,0.56,0.29,1.13,0.42,1.7c0.14,0.57,0.27,1.14,0.42,1.7c0.5,1.67,0.5,3.63,1.28,4.8
		c3.91,3.13,4.69,7.04,7.82,10.17c0.39,0.39,1.56,0,2.25-0.02c0.52,0.39,1.04,0.77,1.57,1.13c0.5,0.3,0.96,0.64,1.38,1.02
		c4.18,4.52,11.22,5.69,17.16,5.26c0.62,0.03,1.25,0.05,1.88,0.05h0c0.03,0,0.05,0,0.08,0V576.81z"/>
	<path class="st4" d="M1002.09,576.96c1.52,0.59,3.12,0.38,5.16,0.38c1.96-0.39,3.52,1.96,5.08,1.56
		c9.78-1.96,14.86,5.87,19.28,12.71c0.5,0.32,1.01,0.6,1.51,0.89c1.5,0.87,2.86,1.85,3.45,3.61c1.96,4.69,1.96,10.17,5.08,14.08
		c0.26,0.59,0.46,1.18,0.61,1.77c0.41,1.63,0.42,3.27,0.2,4.93c-0.07,0.55-0.17,1.11-0.27,1.66c-0.15,3.76-1.33,7.28-1.72,10.8
		c-0.39,2.74,1.96,5.47,3.36,7.95c0.09,0.45,0.19,0.9,0.3,1.35c0.57,2.17,1.22,4.45,0.24,6.73c-0.2,0.39-0.59,0.68-0.93,0.92
		c-2.33,4.8,0.28,9.72,0.86,14.51c0.06,0.53,0.1,1.06,0.11,1.59c-4.73,4.09-4.73,9.18-1.58,14.19c0.08,0.53,0.1,1.05,0.04,1.59
		c-0.32,3.19-3.16,6.73-4.29,10.3c-0.07,0.53-0.08,1.03-0.08,1.52c0,0.52,0,1.04,0,1.55c1.17,5.84,0,12.1,2.07,18.14
		c0.2,0.51,0.35,1.02,0.44,1.53c0.17,1.03,0.05,2.11-0.54,3.25c-0.32,0.63-0.63,1.26-0.91,1.9c-0.56,1.27-0.98,2.56-1.06,3.83
		c0,0.48,0,0.96,0,1.43c0,2.74,0,5.4,0,7.97c-0.01,0.53-0.02,1.06-0.04,1.61c-1.14,4.9-1.14,9.2,2.38,13.9
		c1.56,1.56-0.78,3.91-1.21,5.8c-0.13,0.55-0.2,1.11-0.22,1.66c-0.07,1.47,0.17,2.94,0.4,4.43c0.06,0.37,0.12,0.75,0.17,1.12
		c-1.87,5.37-0.7,11.62-3.66,16.72c-0.15,0.56-0.29,1.13-0.42,1.7c-0.14,0.57-0.27,1.14-0.42,1.7c-0.5,1.67-0.5,3.63-1.28,4.8
		c-3.91,3.13-4.69,7.04-7.82,10.17c-0.39,0.39-1.56,0-2.25-0.02c-0.52,0.39-1.04,0.77-1.57,1.13c-0.5,0.3-0.96,0.64-1.38,1.02
		c-4.18,4.52-11.22,5.69-17.16,5.26c-0.62,0.03-1.25,0.05-1.88,0.05h0c-0.03,0-0.05,0-0.08,0V576.96z"/>
	<path class="st5" d="M1005.48,845.84h-1.03c-1.35,0-2.46-8.49-2.46-18.87c0,0,0-64.55,0-114.42c0-1.85,0-3.67,0-5.48
		c0.04-2.16,0.06-4.44,0.07-6.86c0.14-21.07-1.1-49.38,1.74-62.68c0.21-0.61,0.43-0.85,0.65-0.85h1.03c0.68,0,1.29,2.12,1.74,5.54
		c0.15,1.14,0.28,2.42,0.39,3.82c0.34,3.22,0.54,6.36,0.34,9.51c0,0,0,1.42,0,3.99c0,25.76,0,167.42,0,167.42
		C1007.95,837.35,1006.84,845.84,1005.48,845.84z"/>
	<path class="st5" d="M1005.02,679.83c-7.98,1.72-13.69-0.56-17.74-4.4c-0.07-0.06-0.13-0.12-0.2-0.19
		c-3.74-3.54-6.12-7.84-7.55-12.62c-0.01-0.08-0.03-0.16-0.04-0.24c-0.53-3.46,1.15-7.79,5.06-11.08c-1.09,2.8-1.58,5.41-1.57,7.8
		c0.01,1.2,0.14,2.34,0.39,3.43c0.21,1.17,0.53,2.27,0.94,3.32c2.74,7.93,10.81,12.09,21.82,11.55c0.1,0.15,0.08,0.61,0.04,0.75
		C1006.16,678.69,1005.77,679.3,1005.02,679.83z"/>
	<path class="st5" d="M1002.27,701.44c7.02,4.17,13.16,3.82,18.22,1.47c0.08-0.04,0.16-0.08,0.25-0.12
		c4.67-2.17,8.3-5.49,11.17-9.57c0.04-0.07,0.08-0.14,0.11-0.21c1.6-3.11,1.39-7.75-1.27-12.11c0.14,3-0.22,5.63-0.99,7.89
		c-0.39,1.13-0.88,2.17-1.46,3.12c-0.57,1.04-1.22,1.98-1.95,2.85c-5.12,6.65-14.09,8.03-24.36,4.01c-0.15,0.11-0.27,0.55-0.28,0.7
		C1001.54,699.99,1001.72,700.7,1002.27,701.44z"/>
	<path class="st5" d="M1003.87,735.24c-7.01,4.19-13.14,3.86-18.21,1.53c-0.08-0.04-0.16-0.08-0.25-0.12
		c-4.67-2.15-8.32-5.46-11.2-9.53c-0.04-0.07-0.08-0.14-0.11-0.21c-1.61-3.1-1.42-7.74,1.23-12.11c-0.13,3,0.24,5.63,1.02,7.89
		c0.39,1.13,0.89,2.17,1.47,3.12c0.57,1.04,1.23,1.98,1.96,2.84c5.14,6.63,14.12,7.98,24.37,3.93c0.15,0.11,0.27,0.55,0.28,0.7
		C1004.59,733.79,1004.41,734.49,1003.87,735.24z"/>
	<path class="st5" d="M1004.54,753.93c7.85,2.25,13.69,0.37,17.99-3.19c0.07-0.06,0.14-0.12,0.21-0.18
		c3.97-3.28,6.64-7.41,8.38-12.08c0.02-0.08,0.04-0.16,0.06-0.24c0.76-3.41-0.62-7.85-4.3-11.39c0.9,2.87,1.21,5.5,1.04,7.89
		c-0.09,1.19-0.3,2.32-0.62,3.39c-0.29,1.15-0.68,2.23-1.16,3.25c-3.27,7.72-11.6,11.33-22.55,10.05c-0.11,0.14-0.12,0.6-0.09,0.75
		C1003.47,752.71,1003.82,753.34,1004.54,753.93z"/>
	<ellipse class="st6" cx="979.66" cy="638.43" rx="25.98" ry="32.48"/>
	<ellipse class="st7" cx="1031.63" cy="669.49" rx="18.38" ry="22.97"/>
	<ellipse class="st7" cx="1032.89" cy="732.96" rx="18.38" ry="18.31"/>
	<ellipse class="st8" cx="979.66" cy="714.35" rx="18.38" ry="22.97"/>
</g>
<g>
	<path class="st3" d="M734.53,529.5c-1.8,0.7-3.69,0.45-6.11,0.45c-2.31-0.46-4.16,2.31-6.02,1.85
		c-11.57-2.31-17.58,6.94-22.82,15.04c-0.59,0.38-1.2,0.71-1.79,1.05c-1.77,1.03-3.39,2.19-4.08,4.27
		c-2.31,5.55-2.31,12.03-6.02,16.66c-0.31,0.69-0.55,1.39-0.72,2.09c-0.48,1.93-0.5,3.87-0.24,5.83c0.09,0.65,0.2,1.31,0.32,1.97
		c0.18,4.45,1.57,8.62,2.03,12.78c0.46,3.24-2.31,6.48-3.98,9.41c-0.1,0.54-0.23,1.06-0.36,1.6c-0.67,2.57-1.44,5.27-0.29,7.97
		c0.23,0.46,0.69,0.81,1.1,1.09c2.76,5.68-0.34,11.5-1.02,17.17c-0.08,0.63-0.12,1.26-0.13,1.89c5.6,4.84,5.6,10.86,1.87,16.79
		c-0.09,0.63-0.11,1.25-0.05,1.88c0.38,3.77,3.74,7.96,5.07,12.18c0.08,0.63,0.1,1.21,0.1,1.79c0,0.61,0,1.22,0,1.84
		c-1.39,6.92,0,14.32-2.45,21.46c-0.23,0.61-0.42,1.2-0.52,1.81c-0.2,1.22-0.05,2.49,0.64,3.84c0.38,0.74,0.74,1.49,1.07,2.24
		c0.66,1.5,1.16,3.03,1.25,4.54c0,0.57,0,1.13,0,1.69c0,3.24,0,6.39,0,9.44c0.01,0.63,0.02,1.26,0.04,1.9
		c1.35,5.8,1.35,10.89-2.82,16.44c-1.85,1.85,0.93,4.63,1.43,6.87c0.15,0.65,0.23,1.31,0.26,1.96c0.08,1.74-0.2,3.48-0.47,5.24
		c-0.07,0.44-0.14,0.88-0.2,1.32c2.21,6.35,0.83,13.75,4.33,19.78c0.18,0.66,0.34,1.33,0.5,2.01c0.16,0.67,0.32,1.35,0.5,2.01
		c0.59,1.98,0.59,4.3,1.52,5.68c4.63,3.7,5.55,8.33,9.25,12.03c0.46,0.46,1.85,0,2.67-0.02c0.61,0.46,1.23,0.91,1.86,1.33
		c0.59,0.36,1.13,0.76,1.64,1.2c4.95,5.35,13.28,6.74,20.31,6.22c0.74,0.03,1.48,0.05,2.22,0.05h0c0.03,0,0.06,0,0.09,0V529.5z"/>
	<path class="st4" d="M734.08,529.68c1.8,0.7,3.69,0.45,6.11,0.45c2.31-0.46,4.16,2.31,6.02,1.85c11.57-2.31,17.58,6.94,22.82,15.04
		c0.59,0.38,1.2,0.71,1.79,1.05c1.77,1.03,3.39,2.19,4.08,4.27c2.31,5.55,2.31,12.03,6.02,16.66c0.31,0.69,0.55,1.39,0.72,2.09
		c0.48,1.93,0.5,3.87,0.24,5.83c-0.09,0.65-0.2,1.31-0.32,1.97c-0.18,4.45-1.57,8.62-2.03,12.78c-0.46,3.24,2.31,6.48,3.98,9.41
		c0.1,0.54,0.23,1.06,0.36,1.6c0.67,2.57,1.44,5.27,0.29,7.97c-0.23,0.46-0.69,0.81-1.1,1.09c-2.76,5.68,0.34,11.5,1.02,17.17
		c0.08,0.63,0.12,1.26,0.13,1.89c-5.6,4.84-5.6,10.86-1.87,16.79c0.09,0.63,0.11,1.25,0.05,1.88c-0.38,3.77-3.74,7.96-5.07,12.18
		c-0.08,0.63-0.1,1.21-0.1,1.79c0,0.61,0,1.22,0,1.84c1.39,6.92,0,14.32,2.45,21.46c0.23,0.61,0.42,1.2,0.52,1.81
		c0.2,1.22,0.05,2.49-0.64,3.84c-0.38,0.74-0.74,1.49-1.07,2.24c-0.66,1.5-1.16,3.03-1.25,4.54c0,0.57,0,1.13,0,1.69
		c0,3.24,0,6.39,0,9.44c-0.01,0.63-0.02,1.26-0.04,1.9c-1.35,5.8-1.35,10.89,2.82,16.44c1.85,1.85-0.93,4.63-1.43,6.87
		c-0.15,0.65-0.23,1.31-0.26,1.96c-0.08,1.74,0.2,3.48,0.47,5.24c0.07,0.44,0.14,0.88,0.2,1.32c-2.21,6.35-0.83,13.75-4.33,19.78
		c-0.18,0.66-0.34,1.33-0.5,2.01c-0.16,0.67-0.32,1.35-0.5,2.01c-0.59,1.98-0.59,4.3-1.52,5.68c-4.63,3.7-5.55,8.33-9.25,12.03
		c-0.46,0.46-1.85,0-2.67-0.02c-0.61,0.46-1.23,0.91-1.86,1.33c-0.59,0.36-1.13,0.76-1.64,1.2c-4.95,5.35-13.28,6.74-20.31,6.22
		c-0.74,0.03-1.48,0.05-2.22,0.05h0c-0.03,0-0.06,0-0.09,0V529.68z"/>
	<path class="st5" d="M738.09,847.84h-1.21c-1.6,0-2.91-10.05-2.91-22.33c0,0,0-76.37,0-135.39c0-2.19,0-4.35,0-6.48
		c0.05-2.56,0.07-5.25,0.08-8.11c0.16-24.93-1.3-58.43,2.06-74.16c0.25-0.72,0.51-1.01,0.77-1.01h1.21c0.8,0,1.53,2.51,2.06,6.56
		c0.18,1.35,0.33,2.87,0.46,4.52c0.4,3.8,0.64,7.53,0.4,11.25c0,0,0,1.68,0,4.72c0,30.48,0,198.1,0,198.1
		C741.01,837.8,739.69,847.84,738.09,847.84z"/>
	<path class="st5" d="M737.54,651.41c-9.45,2.03-16.2-0.66-20.99-5.21c-0.08-0.07-0.15-0.15-0.23-0.22
		c-4.42-4.19-7.25-9.28-8.93-14.93c-0.02-0.09-0.03-0.19-0.05-0.28c-0.62-4.09,1.36-9.21,5.98-13.1c-1.29,3.31-1.87,6.4-1.86,9.23
		c0.01,1.42,0.17,2.77,0.46,4.05c0.24,1.38,0.62,2.68,1.12,3.92c3.24,9.38,12.79,14.31,25.82,13.67c0.12,0.18,0.09,0.72,0.05,0.89
		C738.9,650.06,738.43,650.78,737.54,651.41z"/>
	<path class="st5" d="M734.28,676.98c8.31,4.93,15.57,4.52,21.55,1.74c0.1-0.04,0.19-0.09,0.29-0.14
		c5.52-2.56,9.82-6.49,13.21-11.32c0.05-0.08,0.09-0.17,0.14-0.25c1.89-3.68,1.64-9.17-1.51-14.33c0.17,3.55-0.26,6.66-1.18,9.34
		c-0.46,1.34-1.04,2.57-1.72,3.7c-0.67,1.23-1.45,2.35-2.31,3.37c-6.06,7.86-16.68,9.5-28.82,4.75c-0.17,0.13-0.32,0.66-0.33,0.83
		C733.42,675.26,733.64,676.09,734.28,676.98z"/>
	<path class="st5" d="M736.18,716.97c-8.29,4.96-15.55,4.57-21.55,1.81c-0.1-0.04-0.19-0.09-0.29-0.14
		c-5.53-2.55-9.84-6.46-13.25-11.27c-0.05-0.08-0.09-0.17-0.14-0.25c-1.9-3.67-1.68-9.16,1.46-14.33c-0.16,3.55,0.28,6.66,1.21,9.34
		c0.46,1.34,1.05,2.57,1.74,3.69c0.67,1.23,1.45,2.34,2.32,3.36c6.08,7.84,16.71,9.44,28.84,4.65c0.17,0.13,0.32,0.65,0.33,0.83
		C737.03,715.25,736.82,716.08,736.18,716.97z"/>
	<path class="st5" d="M736.97,739.08c9.29,2.67,16.2,0.43,21.29-3.77c0.08-0.07,0.16-0.14,0.25-0.21c4.69-3.88,7.86-8.77,9.92-14.29
		c0.02-0.09,0.05-0.19,0.07-0.28c0.9-4.04-0.73-9.28-5.08-13.48c1.06,3.39,1.44,6.51,1.23,9.33c-0.1,1.41-0.35,2.75-0.73,4.01
		c-0.34,1.36-0.8,2.64-1.38,3.84c-3.87,9.14-13.73,13.41-26.68,11.89c-0.13,0.17-0.14,0.72-0.11,0.88
		C735.7,737.64,736.12,738.39,736.97,739.08z"/>
	<ellipse class="st6" cx="707.53" cy="602.42" rx="30.75" ry="38.43"/>
	<ellipse class="st7" cx="769.03" cy="639.17" rx="21.75" ry="27.18"/>
	<ellipse class="st7" cx="770.53" cy="714.27" rx="21.75" ry="21.67"/>
	<ellipse class="st8" cx="707.53" cy="692.25" rx="21.75" ry="27.18"/>
</g>
<g>
	<path class="st3" d="M631.84,616.26c-1.31,0.51-2.7,0.33-4.46,0.33c-1.69-0.34-3.04,1.69-4.39,1.35
		c-8.45-1.69-12.84,5.07-16.66,10.98c-0.43,0.28-0.88,0.52-1.31,0.77c-1.29,0.75-2.48,1.6-2.98,3.12
		c-1.69,4.06-1.69,8.79-4.39,12.17c-0.23,0.51-0.4,1.02-0.53,1.53c-0.35,1.41-0.37,2.83-0.18,4.26c0.06,0.48,0.15,0.96,0.23,1.44
		c0.13,3.25,1.15,6.29,1.48,9.33c0.34,2.37-1.69,4.73-2.91,6.87c-0.08,0.39-0.17,0.78-0.26,1.17c-0.49,1.88-1.05,3.85-0.21,5.82
		c0.17,0.34,0.51,0.59,0.8,0.8c2.02,4.15-0.25,8.4-0.75,12.54c-0.06,0.46-0.09,0.92-0.09,1.38c4.09,3.54,4.09,7.93,1.37,12.26
		c-0.07,0.46-0.08,0.91-0.04,1.37c0.28,2.76,2.73,5.81,3.7,8.9c0.06,0.46,0.07,0.89,0.07,1.31c0,0.45,0,0.89,0,1.34
		c-1.01,5.05,0,10.46-1.79,15.67c-0.17,0.44-0.31,0.88-0.38,1.33c-0.14,0.89-0.04,1.82,0.46,2.81c0.27,0.54,0.54,1.09,0.78,1.64
		c0.48,1.1,0.85,2.21,0.91,3.31c0,0.42,0,0.83,0,1.23c0,2.36,0,4.67,0,6.89c0.01,0.46,0.02,0.92,0.03,1.39
		c0.98,4.24,0.98,7.95-2.06,12.01c-1.35,1.35,0.68,3.38,1.05,5.02c0.11,0.48,0.17,0.96,0.19,1.43c0.06,1.27-0.14,2.54-0.35,3.83
		c-0.05,0.32-0.1,0.64-0.14,0.97c1.62,4.64,0.6,10.04,3.16,14.45c0.13,0.48,0.25,0.97,0.36,1.46c0.12,0.49,0.23,0.99,0.37,1.47
		c0.43,1.45,0.43,3.14,1.11,4.15c3.38,2.7,4.06,6.08,6.76,8.79c0.34,0.34,1.35,0,1.95-0.01c0.45,0.34,0.9,0.66,1.36,0.97
		c0.43,0.26,0.83,0.56,1.19,0.88c3.61,3.91,9.7,4.92,14.83,4.54c0.54,0.02,1.08,0.04,1.62,0.04h0c0.02,0,0.04,0,0.07,0V616.26z"/>
	<path class="st4" d="M631.51,616.4c1.31,0.51,2.7,0.33,4.46,0.33c1.69-0.34,3.04,1.69,4.39,1.35c8.45-1.69,12.84,5.07,16.66,10.98
		c0.43,0.28,0.88,0.52,1.31,0.77c1.29,0.75,2.48,1.6,2.98,3.12c1.69,4.06,1.69,8.79,4.39,12.17c0.23,0.51,0.4,1.02,0.53,1.53
		c0.35,1.41,0.37,2.83,0.18,4.26c-0.06,0.48-0.15,0.96-0.23,1.44c-0.13,3.25-1.15,6.29-1.48,9.33c-0.34,2.37,1.69,4.73,2.91,6.87
		c0.08,0.39,0.17,0.78,0.26,1.17c0.49,1.88,1.05,3.85,0.21,5.82c-0.17,0.34-0.51,0.59-0.8,0.8c-2.02,4.15,0.25,8.4,0.75,12.54
		c0.06,0.46,0.09,0.92,0.09,1.38c-4.09,3.54-4.09,7.93-1.37,12.26c0.07,0.46,0.08,0.91,0.04,1.37c-0.28,2.76-2.73,5.81-3.7,8.9
		c-0.06,0.46-0.07,0.89-0.07,1.31c0,0.45,0,0.89,0,1.34c1.01,5.05,0,10.46,1.79,15.67c0.17,0.44,0.31,0.88,0.38,1.33
		c0.14,0.89,0.04,1.82-0.46,2.81c-0.27,0.54-0.54,1.09-0.78,1.64c-0.48,1.1-0.85,2.21-0.91,3.31c0,0.42,0,0.83,0,1.23
		c0,2.36,0,4.67,0,6.89c-0.01,0.46-0.02,0.92-0.03,1.39c-0.98,4.24-0.98,7.95,2.06,12.01c1.35,1.35-0.68,3.38-1.05,5.02
		c-0.11,0.48-0.17,0.96-0.19,1.43c-0.06,1.27,0.14,2.54,0.35,3.83c0.05,0.32,0.1,0.64,0.14,0.97c-1.62,4.64-0.6,10.04-3.16,14.45
		c-0.13,0.48-0.25,0.97-0.36,1.46c-0.12,0.49-0.23,0.99-0.37,1.47c-0.43,1.45-0.43,3.14-1.11,4.15c-3.38,2.7-4.06,6.08-6.76,8.79
		c-0.34,0.34-1.35,0-1.95-0.01c-0.45,0.34-0.9,0.66-1.36,0.97c-0.43,0.26-0.83,0.56-1.19,0.88c-3.61,3.91-9.7,4.92-14.83,4.54
		c-0.54,0.03-1.08,0.04-1.62,0.04h0c-0.02,0-0.04,0-0.07,0V616.4z"/>
	<path class="st5" d="M634.45,848.76h-0.89c-1.17,0-2.13-7.34-2.13-16.31c0,0,0-55.78,0-98.88c0-1.6,0-3.18,0-4.73
		c0.04-1.87,0.05-3.84,0.06-5.92c0.12-18.21-0.95-42.67,1.5-54.16c0.18-0.53,0.37-0.74,0.57-0.74h0.89c0.59,0,1.12,1.83,1.5,4.79
		c0.13,0.99,0.24,2.1,0.33,3.3c0.29,2.78,0.47,5.5,0.29,8.21c0,0,0,1.22,0,3.45c0,22.26,0,144.68,0,144.68
		C636.57,841.42,635.62,848.76,634.45,848.76z"/>
	<path class="st5" d="M634.04,705.3c-6.9,1.48-11.83-0.48-15.33-3.8c-0.06-0.05-0.11-0.11-0.17-0.16
		c-3.23-3.06-5.29-6.78-6.52-10.91c-0.01-0.07-0.02-0.14-0.03-0.21c-0.46-2.99,0.99-6.73,4.37-9.57c-0.94,2.42-1.37,4.67-1.36,6.74
		c0.01,1.03,0.12,2.02,0.34,2.96c0.18,1.01,0.46,1.96,0.81,2.87c2.37,6.85,9.34,10.45,18.86,9.98c0.09,0.13,0.07,0.53,0.04,0.65
		C635.04,704.31,634.69,704.84,634.04,705.3z"/>
	<path class="st5" d="M631.67,723.97c6.07,3.6,11.37,3.3,15.74,1.27c0.07-0.03,0.14-0.07,0.21-0.1c4.03-1.87,7.17-4.74,9.65-8.27
		c0.03-0.06,0.07-0.12,0.1-0.18c1.38-2.69,1.2-6.7-1.1-10.46c0.12,2.59-0.19,4.87-0.86,6.82c-0.33,0.98-0.76,1.88-1.26,2.7
		c-0.49,0.9-1.06,1.71-1.68,2.46c-4.42,5.74-12.18,6.94-21.05,3.47c-0.13,0.09-0.23,0.48-0.24,0.6
		C631.04,722.72,631.2,723.33,631.67,723.97z"/>
	<path class="st5" d="M633.05,753.18c-6.06,3.62-11.36,3.34-15.74,1.32c-0.07-0.03-0.14-0.07-0.21-0.1
		c-4.04-1.86-7.19-4.72-9.68-8.23c-0.03-0.06-0.07-0.12-0.1-0.18c-1.39-2.68-1.22-6.69,1.07-10.47c-0.11,2.59,0.21,4.87,0.88,6.82
		c0.34,0.98,0.77,1.87,1.27,2.7c0.49,0.9,1.06,1.71,1.69,2.45c4.44,5.73,12.2,6.9,21.06,3.4c0.13,0.09,0.23,0.48,0.24,0.6
		C633.67,751.92,633.52,752.53,633.05,753.18z"/>
	<path class="st5" d="M633.63,769.33c6.78,1.95,11.83,0.32,15.55-2.76c0.06-0.05,0.12-0.1,0.18-0.15c3.43-2.83,5.74-6.4,7.24-10.44
		c0.02-0.07,0.03-0.14,0.05-0.2c0.66-2.95-0.53-6.78-3.71-9.84c0.78,2.48,1.05,4.76,0.9,6.82c-0.08,1.03-0.26,2.01-0.54,2.93
		c-0.25,0.99-0.59,1.93-1.01,2.8c-2.82,6.68-10.03,9.79-19.49,8.68c-0.1,0.12-0.1,0.52-0.08,0.65
		C632.7,768.28,633.01,768.82,633.63,769.33z"/>
	<ellipse class="st6" cx="612.13" cy="669.52" rx="22.46" ry="28.07"/>
	<ellipse class="st7" cx="657.04" cy="696.36" rx="15.88" ry="19.85"/>
	<ellipse class="st7" cx="658.13" cy="751.21" rx="15.88" ry="15.83"/>
	<ellipse class="st8" cx="612.13" cy="735.13" rx="15.88" ry="19.85"/>
</g>
<path id="clouds_1_" class="st9" d="M917.27,226.27c-1.8,0-3.53,0.28-5.16,0.8c-5.03-7.03-13.25-11.62-22.55-11.62
	c-2.53,0-4.98,0.35-7.3,0.98c-5.22-3.6-11.55-5.71-18.38-5.71c-0.28,0-0.56,0.01-0.84,0.02c-0.1-9.36-7.71-16.92-17.09-16.92
	c-2.35,0-4.6,0.48-6.64,1.34c-8.55-15.31-24.9-25.67-43.68-25.67c-24.93,0-45.59,18.24-49.38,42.1c-6.15,1.45-11.62,4.65-15.86,9.05
	c-1.64-0.3-3.32-0.47-5.04-0.47c-9.89,0-18.57,5.19-23.47,12.99c-2.45-1.38-5.28-2.18-8.29-2.18c-9.33,0-16.9,7.56-16.9,16.9
	c0,9.33,7.56,16.9,16.9,16.9c3.01,0,5.84-0.79,8.29-2.18c4.9,7.8,13.58,12.99,23.47,12.99c3.1,0,6.07-0.52,8.85-1.45
	c5.45,6.69,13.39,10.91,22.24,10.91c8.62,0,16.39-4.01,21.82-10.41c8.3,10.9,20.81,17.84,34.81,17.84
	c14.99,0,28.28-7.97,36.51-20.23c4.32,2.13,9.18,3.33,14.32,3.33c6.82,0,13.15-2.11,18.38-5.71c2.33,0.63,4.77,0.98,7.3,0.98
	c9.3,0,17.53-4.59,22.55-11.62c1.63,0.52,3.36,0.8,5.16,0.8c9.33,0,16.9-7.56,16.9-16.9S926.6,226.27,917.27,226.27z"/>
<path class="st9" d="M681.67,346.5c-6.26,0-12.16,1.52-17.37,4.21c-9.55-18.53-28.85-31.21-51.13-31.21
	c-22.05,0-41.18,12.41-50.83,30.62c-4.05-1.06-8.29-1.62-12.67-1.62c-15.07,0-28.58,6.68-37.75,17.23
	c-5.52-4.52-12.57-7.23-20.25-7.23c-17.67,0-32,14.33-32,32c0,17.67,14.33,32,32,32c4.54,0,8.86-0.95,12.78-2.66
	c8.01,16.94,25.24,28.66,45.22,28.66c16.03,0,30.28-7.55,39.43-19.28c7.32,3.38,15.47,5.28,24.07,5.28
	c17.79,0,33.68-8.08,44.23-20.76c6.58,5.47,15.04,8.76,24.27,8.76c20.99,0,38-17.01,38-38S702.66,346.5,681.67,346.5z"/>
<path class="st9" d="M1106.21,375.11c-3.83,0-7.44,0.93-10.62,2.57c-5.84-11.33-17.65-19.09-31.27-19.09
	c-13.48,0-25.19,7.59-31.09,18.73c-2.47-0.65-5.07-0.99-7.75-0.99c-9.22,0-17.48,4.09-23.09,10.54c-3.37-2.76-7.69-4.42-12.39-4.42
	c-10.81,0-19.57,8.76-19.57,19.57c0,10.81,8.76,19.57,19.57,19.57c2.78,0,5.42-0.58,7.82-1.63c4.9,10.36,15.44,17.53,27.66,17.53
	c9.8,0,18.52-4.62,24.12-11.79c4.48,2.07,9.46,3.23,14.72,3.23c10.88,0,20.6-4.94,27.05-12.7c4.03,3.35,9.2,5.36,14.84,5.36
	c12.84,0,23.24-10.41,23.24-23.24S1119.05,375.11,1106.21,375.11z"/>
<path class="st10" d="M459.67,831.77c0.35-1.57,0.23-3.23,0.23-5.34c-0.23-2.02,1.17-3.64,0.94-5.26
	c-1.17-10.11,3.51-15.37,7.6-19.94c0.19-0.52,0.36-1.05,0.53-1.56c0.52-1.55,1.11-2.96,2.16-3.57c1.17-0.84,2.42-1.33,3.65-1.85
	c0.62-0.26,1.23-0.53,1.82-0.85c7.07-3.9,11.07-13.9,19.74-13.87c0.72-0.22,1.44-0.42,2.19-0.61c3.26-2.17,6.17-3.31,9.06-3.81
	c0.72-0.13,1.44-0.21,2.19-0.31c4.26-0.7,8.56-1.03,12.75-0.77c0.7,0.04,1.39,0.1,2.08,0.2c7.06,1.27,12.06,4.27,17.12,8.84
	c0.55,0.53,1.1,1.07,1.66,1.6c2.24,2.14,4.6,4.21,7.48,5.8c0.63,0.55,1.28,1.05,1.96,1.52c3.4,2.34,7.47,3.67,12.1,3.83
	c0.72,0.2,1.45,0.39,2.17,0.57c2.17,0.54,4.31,0.98,6.34,1.36c0.59,0.37,1.18,0.75,1.77,1.13c4.45,6.63,11.45,9.63,16.7,15.5
	c0.3,0.75,0.55,1.53,0.75,2.36c0.19,0.68,0.35,1.37,0.49,2.06c0.57,2.77,0.76,5.64,0.39,8.61c0,0.8-0.02,1.59-0.05,2.35
	c0.02,0.64,0.03,1.29,0.03,1.94v0c0,0.03,0,0.05,0,0.08H459.67z"/>
<path class="st11" d="M460.67,828.5c0.14-0.51,0.18-1.04,0.19-1.62c0.01-0.57-0.02-1.19-0.05-1.9c-4.14-8.5-5.14-17.5,1.48-24.18
	c0.33-0.79,0.68-1.57,1.05-2.34c1.13-2.31,2.59-4.46,4.42-6.39c0.42-0.71,0.92-1.4,1.47-2.03c3.85-4.43,10.18-6.01,16.59-4.74
	c0.7-0.05,1.41-0.09,2.11-0.08c2.94,0.03,5.98,0.71,9.16,2.06c0.64,0.27,1.28,0.57,1.93,0.9c0.89-0.22,1.73-0.36,2.55-0.42
	s1.59-0.04,2.35,0.07c6.74,1.66,11.74,9.66,20.22,10.93c0.88,0,1.74-0.02,2.58-0.07c5.04-0.26,9.43-1.12,13.56,0.92
	c0.69,0.34,1.38,0.75,2.09,1.21c7.29,2.67,16.29,2.67,18.16,11.19c0.18,0.27,0,1.06,0.03,1.53c0.51,0.7,1.06,1.3,1.64,1.83
	c0.58,0.53,1.2,0.99,1.84,1.4c6.62,1.72,13.62,4.72,19.62,8.72c-7,9-16,2-23.72,3.55c-0.73-0.04-1.44-0.08-2.13-0.09
	s-1.38,0-2.03,0.04c-0.86-0.04-1.7-0.08-2.54-0.14c-0.83-0.05-1.65-0.12-2.48-0.18c-0.75-0.05-1.51-0.1-2.26-0.13
	c-0.75-0.03-1.49-0.05-2.23-0.05c-0.53,0-1.06,0-1.61,0C514.77,828.5,460.67,828.5,460.67,828.5z"/>
<path class="st10" d="M1221.5,833.2c-0.16-1.6,0.17-3.23,0.43-5.32c0.48-1.98-0.72-3.76-0.28-5.33c2.4-9.89-1.6-15.68-5.1-20.72
	c-0.13-0.54-0.23-1.08-0.34-1.62c-0.33-1.6-0.74-3.08-1.71-3.81c-1.06-0.98-2.24-1.62-3.4-2.29c-0.58-0.33-1.15-0.67-1.7-1.07
	c-6.54-4.74-9.28-15.16-17.89-16.19c-0.68-0.31-1.38-0.59-2.09-0.87c-2.97-2.55-5.72-4.04-8.52-4.9c-0.7-0.21-1.4-0.39-2.14-0.57
	c-4.15-1.22-8.37-2.07-12.56-2.33c-0.7-0.04-1.4-0.07-2.09-0.05c-7.16,0.39-12.49,2.76-18.07,6.67c-0.61,0.46-1.22,0.93-1.84,1.39
	c-2.48,1.84-5.09,3.61-8.14,4.83c-0.69,0.47-1.4,0.89-2.13,1.27c-3.66,1.9-7.86,2.72-12.48,2.31c-0.74,0.11-1.49,0.21-2.22,0.3
	c-2.22,0.27-4.4,0.45-6.46,0.57c-0.63,0.3-1.26,0.6-1.9,0.9c-5.23,6.03-12.55,8.15-18.47,13.33c-0.39,0.7-0.74,1.45-1.04,2.25
	c-0.27,0.65-0.52,1.32-0.74,1.99c-0.9,2.68-1.45,5.5-1.44,8.49c-0.1,0.79-0.18,1.58-0.24,2.34c-0.1,0.64-0.19,1.28-0.27,1.92v0
	c0,0.03-0.01,0.05-0.01,0.08L1221.5,833.2z"/>
<path class="st11" d="M1220.91,835.83c-0.07-0.53-0.05-1.06,0.01-1.63c0.06-0.57,0.16-1.18,0.28-1.88
	c5.15-7.92,7.25-16.73,1.5-24.18c-0.24-0.82-0.48-1.64-0.76-2.45c-0.84-2.43-2.02-4.75-3.6-6.88c-0.33-0.76-0.74-1.5-1.21-2.19
	c-3.28-4.87-9.37-7.21-15.88-6.74c-0.69-0.14-1.38-0.26-2.09-0.34c-2.92-0.33-6.02-0.03-9.35,0.92c-0.67,0.19-1.34,0.41-2.03,0.65
	c-0.85-0.33-1.68-0.57-2.48-0.73c-0.8-0.16-1.58-0.23-2.35-0.22c-6.89,0.82-12.84,8.15-21.41,8.36c-0.87-0.1-1.72-0.24-2.55-0.38
	c-4.97-0.88-9.22-2.26-13.57-0.75c-0.72,0.25-1.46,0.58-2.23,0.95c-7.56,1.76-16.5,0.65-19.4,8.88c-0.21,0.24-0.13,1.06-0.22,1.51
	c-0.59,0.63-1.21,1.16-1.85,1.62c-0.64,0.46-1.31,0.84-2,1.16c-6.78,0.9-14.09,3.02-20.54,6.25c5.84,9.79,15.63,3.95,23.11,6.43
	c0.73,0.04,1.44,0.1,2.13,0.17c0.69,0.07,1.36,0.17,2.01,0.29c0.86,0.07,1.7,0.13,2.53,0.18c0.83,0.05,1.65,0.09,2.48,0.12
	c0.75,0.04,1.51,0.09,2.25,0.15c0.75,0.06,1.49,0.13,2.22,0.22c0.52,0.06,1.05,0.13,1.59,0.2
	C1167.21,829.2,1220.91,835.83,1220.91,835.83z"/>
</svg>
