<?xml version="1.0" encoding="utf-8"?>
<!-- Generator: Adobe Illustrator 24.1.2, SVG Export Plug-In . SVG Version: 6.00 Build 0)  -->
<svg version="1.1" id="Layer_1" xmlns="http://www.w3.org/2000/svg" xmlns:xlink="http://www.w3.org/1999/xlink" x="0px" y="0px"
	 viewBox="0 0 1000 800" style="enable-background:new 0 0 1000 800;" xml:space="preserve">
<g id="Backgouornd">
	<g id="sky">
		
			<linearGradient id="SVGID_1_" gradientUnits="userSpaceOnUse" x1="497.3396" y1="337.54" x2="497.3396" y2="730.4266" gradientTransform="matrix(1 0 0 -1 0 802)">
			<stop  offset="0" style="stop-color:#A5D6FA"/>
			<stop  offset="0.3311" style="stop-color:#BFE2FB;stop-opacity:0.6689"/>
			<stop  offset="1" style="stop-color:#FFFFFF;stop-opacity:0"/>
		</linearGradient>
		<path style="fill:url(#SVGID_1_);" d="M847.41,464.46c0.08-3.38-0.17-6.79,0.12-10.18C866.5,237.46,683.5,65.46,497.03,71.74
			c-202.42,6.82-363.53,160.72-350.5,382.54c0.17,2.92,0.04,5.84,0.09,8.74c103.61-14.51,221-22.69,345.38-22.69
			C620.4,440.34,741.36,449.06,847.41,464.46z"/>
	</g>
	<g id="ground">
		
			<linearGradient id="SVGID_2_" gradientUnits="userSpaceOnUse" x1="497.015" y1="362.54" x2="497.015" y2="29.26" gradientTransform="matrix(1 0 0 -1 0 802)">
			<stop  offset="0.191" style="stop-color:#5D992F"/>
			<stop  offset="0.1976" style="stop-color:#5F9A31;stop-opacity:0.9918"/>
			<stop  offset="0.4934" style="stop-color:#A3C588;stop-opacity:0.6262"/>
			<stop  offset="0.7345" style="stop-color:#D4E4C8;stop-opacity:0.3281"/>
			<stop  offset="0.9093" style="stop-color:#F3F8F0;stop-opacity:0.1121"/>
			<stop  offset="1" style="stop-color:#FFFFFF;stop-opacity:0"/>
		</linearGradient>
		<path style="fill:url(#SVGID_2_);" d="M497.03,772.74c190.46,0,337.47-146.28,350.38-313c-106.04-12.94-227-20.28-355.41-20.28
			c-124.37,0-241.76,6.88-345.38,19.07C158.5,630.46,306.13,772.74,497.03,772.74z"/>
	</g>
</g>
<g id="Moundatin1">
	<g>
		<polygon style="fill:#478862;" points="503.96,464.52 677.38,464.52 590.67,245.49 503.96,26.46 		"/>
	</g>
	<g>
		<polygon style="fill:#307864;" points="505.09,464.53 331.66,464.53 418.37,245.49 505.09,26.46 		"/>
	</g>
</g>
<g id="Moundtain2">
	<g>
		<polygon style="fill:#439C4E;" points="704.57,464.69 834.5,464.69 769.54,313.67 704.57,162.65 		"/>
	</g>
	<g>
		<polygon style="fill:#2C9047;" points="705.42,464.69 575.49,464.69 640.45,313.67 705.42,162.65 		"/>
	</g>
</g>
<g id="Mountain3">
	<g>
		<polygon style="fill:#2F6C4D;" points="303.07,464.53 437.52,464.53 370.3,308.25 303.07,151.98 		"/>
	</g>
	<g>
		<polygon style="fill:#22624C;" points="303.95,464.53 169.5,464.53 236.72,308.25 303.95,151.98 303.95,395.52 		"/>
	</g>
</g>
<g id="bushes1">
	<g>
		<path style="fill:#22624C;" d="M843.91,468.5c-0.21-1.04-0.1-2.13-0.06-3.53c0.19-1.33-0.71-2.43-0.53-3.49
			c0.93-6.66-2.08-10.21-4.71-13.29c-0.12-0.35-0.22-0.7-0.33-1.04c-0.32-1.03-0.69-1.98-1.37-2.39c-0.76-0.58-1.58-0.92-2.39-1.28
			c-0.4-0.18-0.8-0.37-1.19-0.59c-4.61-2.69-7.09-9.36-12.82-9.48c-0.47-0.16-0.95-0.3-1.43-0.44c-2.12-1.48-4.02-2.28-5.92-2.67
			c-0.47-0.09-0.95-0.16-1.44-0.24c-2.81-0.53-5.64-0.81-8.41-0.71c-0.46,0.02-0.93,0.05-1.38,0.1c-4.68,0.72-8.03,2.63-11.45,5.57
			c-0.37,0.34-0.74,0.69-1.12,1.03c-1.51,1.37-3.11,2.71-5.04,3.71c-0.42,0.35-0.86,0.68-1.32,0.97c-2.28,1.49-4.99,2.3-8.06,2.33
			c-0.48,0.12-0.97,0.24-1.44,0.34c-1.44,0.32-2.86,0.58-4.21,0.8c-0.39,0.24-0.79,0.48-1.19,0.72c-3.05,4.31-7.72,6.18-11.27,9.97
			c-0.21,0.49-0.39,1-0.54,1.55c-0.14,0.45-0.26,0.9-0.36,1.36c-0.42,1.82-0.59,3.71-0.39,5.68c-0.01,0.53-0.02,1.05-0.01,1.55
			c-0.02,0.43-0.04,0.85-0.05,1.28l0,0c0,0.02,0,0.03,0,0.05L843.91,468.5z"/>
	</g>
	<g>
		<path style="fill:#478862;" d="M845.52,471.11c-0.16-0.77-0.07-1.59-0.05-2.62c0.14-0.99-0.53-1.8-0.4-2.59
			c0.69-4.95-1.54-7.58-3.5-9.87c-0.09-0.26-0.16-0.52-0.24-0.77c-0.24-0.77-0.51-1.47-1.02-1.78c-0.57-0.43-1.17-0.68-1.77-0.95
			c-0.3-0.13-0.59-0.27-0.88-0.44c-3.42-2-5.27-6.95-9.52-7.04c-0.35-0.12-0.7-0.22-1.06-0.32c-1.57-1.1-2.99-1.7-4.4-1.98
			c-0.35-0.07-0.71-0.12-1.07-0.17c-2.09-0.39-4.19-0.61-6.25-0.53c-0.34,0.01-0.69,0.03-1.02,0.08c-3.48,0.54-5.97,1.95-8.5,4.13
			c-0.28,0.25-0.55,0.51-0.83,0.77c-1.12,1.02-2.31,2.01-3.74,2.75c-0.31,0.26-0.64,0.5-0.98,0.72c-1.7,1.11-3.71,1.71-5.98,1.73
			c-0.36,0.09-0.72,0.17-1.07,0.25c-1.07,0.24-2.13,0.43-3.13,0.59c-0.29,0.18-0.59,0.35-0.88,0.53c-2.26,3.2-5.73,4.59-8.37,7.41
			c-0.16,0.36-0.29,0.74-0.4,1.15c-0.1,0.33-0.19,0.67-0.26,1.01c-0.31,1.35-0.44,2.76-0.29,4.22c-0.01,0.39-0.01,0.78,0,1.15
			c-0.02,0.32-0.03,0.63-0.04,0.95l0,0c0,0.01,0,0.02,0,0.04L845.52,471.11z"/>
	</g>
	<g>
		<path style="fill:#22624C;" d="M770.71,465.68c-0.48-1.05,0.43-2.14,1.13-3.54c1.33-1.34-2.06-2.44-0.87-3.5
			c6.63-6.69-4.76-10.25-14.71-13.36c-0.38-0.35-0.67-0.7-0.98-1.05c-0.96-1.04-2.14-1.99-4.89-2.41c-3.01-0.58-6.35-0.92-9.63-1.29
			c-1.64-0.18-3.26-0.37-4.82-0.6c-18.54-2.71-26.43-9.41-50.76-9.53c-1.92-0.16-3.91-0.3-5.91-0.44
			c-8.42-1.49-16.21-2.3-24.13-2.68c-1.98-0.09-3.99-0.17-6.05-0.24c-11.74-0.54-23.66-0.82-35.5-0.72c-1.98,0.02-3.95,0.04-5.9,0.1
			c-20.21,0.72-35.22,2.64-50.92,5.58c-1.72,0.34-3.43,0.69-5.17,1.04c-6.97,1.38-14.32,2.72-22.91,3.72
			c-1.94,0.36-3.94,0.68-5.99,0.98c-10.31,1.49-22.15,2.31-35.2,2.34c-2.09,0.12-4.2,0.24-6.26,0.34
			c-6.26,0.32-12.42,0.58-18.23,0.8c-1.77,0.24-3.55,0.48-5.35,0.72c-14.67,4.32-35.31,6.2-51.95,10.01
			c-1.09,0.49-2.07,1.01-2.9,1.55c-0.75,0.45-1.45,0.91-2.06,1.36c-2.5,1.83-4.01,3.73-3.94,5.7c-0.27,0.53-0.48,1.06-0.64,1.56
			c-0.27,0.43-0.52,0.86-0.73,1.29l0,0c0,0.02-0.03,0.03-0.03,0.05L770.71,465.68z"/>
	</g>
	<g>
		<path style="fill:#22624C;" d="M413.45,465.13c-0.21-1.04-0.1-2.13-0.06-3.53c0.19-1.33-0.71-2.43-0.53-3.49
			c0.93-6.66-2.08-10.21-4.71-13.29c-0.12-0.35-0.22-0.7-0.33-1.04c-0.32-1.03-0.69-1.98-1.37-2.39c-0.76-0.58-1.58-0.92-2.39-1.28
			c-0.4-0.18-0.8-0.37-1.19-0.59c-4.61-2.69-7.09-9.36-12.82-9.48c-0.47-0.16-0.95-0.3-1.43-0.44c-2.12-1.48-4.02-2.28-5.92-2.67
			c-0.47-0.09-0.95-0.16-1.44-0.24c-2.81-0.53-5.64-0.81-8.41-0.71c-0.46,0.02-0.93,0.05-1.38,0.1c-4.68,0.72-8.03,2.63-11.45,5.57
			c-0.37,0.34-0.74,0.69-1.12,1.03c-1.51,1.37-3.11,2.71-5.04,3.71c-0.42,0.35-0.86,0.68-1.32,0.97c-2.28,1.49-4.99,2.3-8.06,2.33
			c-0.48,0.12-0.97,0.24-1.44,0.34c-1.44,0.32-2.86,0.58-4.21,0.8c-0.39,0.24-0.79,0.48-1.19,0.72c-3.05,4.31-7.72,6.18-11.27,9.97
			c-0.21,0.49-0.39,1-0.54,1.55c-0.14,0.45-0.26,0.9-0.36,1.36c-0.42,1.82-0.59,3.71-0.39,5.68c-0.01,0.53-0.02,1.05-0.01,1.55
			c-0.02,0.43-0.04,0.85-0.05,1.28l0,0c0,0.02,0,0.03,0,0.05L413.45,465.13z"/>
	</g>
	<g>
		<path style="fill:#2F6C4D;" d="M171.06,468.43c0.29-1.04-0.13-2.14-0.43-3.54c-0.62-1.35,1.17-2.42,0.6-3.49
			c-3.11-6.72,2.89-10.22,8.14-13.26c0.21-0.35,0.37-0.69,0.55-1.04c0.54-1.03,1.18-1.97,2.61-2.38c1.57-0.56,3.3-0.89,5-1.24
			c0.85-0.17,1.69-0.35,2.5-0.57c9.64-2.6,13.99-9.25,26.48-9.23c1-0.15,2.02-0.28,3.06-0.4c4.39-1.44,8.43-2.2,12.51-2.54
			c1.02-0.08,2.05-0.14,3.12-0.2c6.05-0.47,12.19-0.69,18.26-0.52c1.01,0.03,2.03,0.07,3.03,0.14c10.35,0.84,17.97,2.83,25.9,5.86
			c0.87,0.35,1.73,0.71,2.61,1.07c3.52,1.41,7.23,2.79,11.6,3.85c0.98,0.37,1.99,0.7,3.04,1.01c5.23,1.55,11.27,2.43,17.97,2.53
			c1.07,0.13,2.15,0.26,3.2,0.38c3.2,0.36,6.35,0.65,9.33,0.9c0.9,0.25,1.8,0.5,2.72,0.75c7.35,4.4,17.86,6.39,26.23,10.29
			c0.54,0.49,1.02,1.02,1.42,1.57c0.37,0.45,0.7,0.91,1,1.37c1.2,1.84,1.9,3.75,1.77,5.72c0.12,0.53,0.2,1.06,0.26,1.56
			c0.12,0.43,0.23,0.86,0.32,1.29l0,0c0,0.02,0.01,0.03,0.01,0.05L171.06,468.43z"/>
	</g>
	<g>
		<path style="fill:#478862;" d="M551.81,467.08c0.16-0.77,0.07-1.59,0.05-2.62c-0.14-0.99,0.53-1.8,0.4-2.59
			c-0.69-4.95,1.54-7.58,3.5-9.87c0.09-0.26,0.16-0.52,0.24-0.77c0.24-0.77,0.51-1.47,1.02-1.78c0.57-0.43,1.17-0.68,1.77-0.95
			c0.3-0.13,0.59-0.27,0.88-0.44c3.42-2,5.27-6.95,9.52-7.04c0.35-0.12,0.7-0.22,1.06-0.32c1.57-1.1,2.99-1.7,4.4-1.98
			c0.35-0.07,0.71-0.12,1.07-0.17c2.09-0.39,4.19-0.61,6.25-0.53c0.34,0.01,0.69,0.03,1.02,0.08c3.48,0.54,5.97,1.95,8.5,4.13
			c0.28,0.25,0.55,0.51,0.83,0.77c1.12,1.02,2.31,2.01,3.74,2.75c0.31,0.26,0.64,0.5,0.98,0.72c1.7,1.11,3.71,1.71,5.98,1.73
			c0.36,0.09,0.72,0.17,1.07,0.25c1.07,0.24,2.13,0.43,3.13,0.59c0.29,0.18,0.59,0.35,0.88,0.53c2.26,3.2,5.73,4.59,8.37,7.41
			c0.16,0.36,0.29,0.74,0.4,1.15c0.1,0.33,0.19,0.67,0.26,1.01c0.31,1.35,0.44,2.76,0.29,4.22c0.01,0.39,0.01,0.78,0,1.15
			c0.02,0.32,0.03,0.63,0.04,0.95l0,0c0,0.01,0,0.02,0,0.04L551.81,467.08z"/>
	</g>
	<g>
		<path style="fill:#478862;" d="M355.97,470.08c0.16-0.77,0.07-1.59,0.05-2.62c-0.14-0.99,0.53-1.8,0.4-2.59
			c-0.69-4.95,1.54-7.58,3.5-9.87c0.09-0.26,0.16-0.52,0.24-0.77c0.24-0.77,0.51-1.47,1.02-1.78c0.57-0.43,1.17-0.68,1.77-0.95
			c0.3-0.13,0.59-0.27,0.88-0.44c3.42-2,5.27-6.95,9.52-7.04c0.35-0.12,0.7-0.22,1.06-0.32c1.57-1.1,2.99-1.7,4.4-1.98
			c0.35-0.07,0.71-0.12,1.07-0.17c2.09-0.39,4.19-0.61,6.25-0.53c0.34,0.01,0.69,0.03,1.02,0.08c3.48,0.54,5.97,1.95,8.5,4.13
			c0.28,0.25,0.55,0.51,0.83,0.77c1.12,1.02,2.31,2.01,3.74,2.75c0.31,0.26,0.64,0.5,0.98,0.72c1.7,1.11,3.71,1.71,5.98,1.73
			c0.36,0.09,0.72,0.17,1.07,0.25c1.07,0.24,2.13,0.43,3.13,0.59c0.29,0.18,0.59,0.35,0.88,0.53c2.26,3.2,5.73,4.59,8.37,7.41
			c0.16,0.36,0.29,0.74,0.4,1.15c0.1,0.33,0.19,0.67,0.26,1.01c0.31,1.35,0.44,2.76,0.29,4.22c0.01,0.39,0.01,0.78,0,1.15
			c0.02,0.32,0.03,0.63,0.04,0.95l0,0c0,0.01,0,0.02,0,0.04L355.97,470.08z"/>
	</g>
</g>
<g id="Trees">
	<g>
		<path style="fill:#6DB032;" d="M214.33,326.89c-0.87,0.34-1.78,0.21-2.94,0.21c-1.11-0.22-2.01,1.11-2.9,0.89
			c-5.57-1.11-8.47,3.34-11,7.25c-0.29,0.18-0.58,0.34-0.86,0.51c-0.85,0.5-1.63,1.05-1.97,2.06c-1.11,2.68-1.11,5.8-2.9,8.03
			c-0.15,0.33-0.26,0.67-0.35,1.01c-0.23,0.93-0.24,1.87-0.12,2.81c0.04,0.32,0.1,0.63,0.16,0.95c0.09,2.14,0.76,4.15,0.98,6.16
			c0.22,1.56-1.11,3.12-1.92,4.53c-0.05,0.26-0.11,0.51-0.17,0.77c-0.32,1.24-0.7,2.54-0.14,3.84c0.11,0.22,0.33,0.39,0.53,0.52
			c1.33,2.74-0.16,5.54-0.49,8.28c-0.04,0.3-0.06,0.61-0.06,0.91c2.7,2.33,2.7,5.23,0.9,8.09c-0.05,0.3-0.05,0.6-0.02,0.9
			c0.18,1.82,1.8,3.84,2.44,5.87c0.04,0.3,0.05,0.58,0.05,0.86c0,0.3,0,0.59,0,0.89c-0.67,3.33,0,6.9-1.18,10.34
			c-0.11,0.29-0.2,0.58-0.25,0.87c-0.09,0.59-0.03,1.2,0.31,1.85c0.18,0.36,0.36,0.72,0.52,1.08c0.32,0.72,0.56,1.46,0.6,2.19
			c0,0.27,0,0.55,0,0.81c0,1.56,0,3.08,0,4.55c0.01,0.3,0.01,0.61,0.02,0.92c0.65,2.79,0.65,5.25-1.36,7.92
			c-0.89,0.89,0.45,2.23,0.69,3.31c0.07,0.32,0.11,0.63,0.13,0.95c0.04,0.84-0.1,1.68-0.23,2.53c-0.03,0.21-0.07,0.42-0.09,0.64
			c1.07,3.06,0.4,6.63,2.08,9.53c0.09,0.32,0.16,0.64,0.24,0.97c0.08,0.32,0.15,0.65,0.24,0.97c0.28,0.96,0.28,2.07,0.73,2.74
			c2.23,1.78,2.68,4.01,4.46,5.8c0.22,0.22,0.89,0,1.28-0.01c0.29,0.22,0.59,0.44,0.89,0.64c0.29,0.17,0.55,0.37,0.79,0.58
			c2.38,2.58,6.4,3.25,9.79,3c0.36,0.02,0.71,0.03,1.07,0.03l0,0c0.01,0,0.03,0,0.04,0L214.33,326.89L214.33,326.89z"/>
		<path style="fill:#5D992F;" d="M214.11,326.98c0.87,0.34,1.78,0.21,2.94,0.21c1.11-0.22,2.01,1.11,2.9,0.89
			c5.57-1.11,8.47,3.34,11,7.25c0.29,0.18,0.58,0.34,0.86,0.51c0.85,0.5,1.63,1.05,1.97,2.06c1.11,2.68,1.11,5.8,2.9,8.03
			c0.15,0.33,0.26,0.67,0.35,1.01c0.23,0.93,0.24,1.87,0.12,2.81c-0.04,0.32-0.1,0.63-0.16,0.95c-0.09,2.14-0.76,4.15-0.98,6.16
			c-0.22,1.56,1.11,3.12,1.92,4.53c0.05,0.26,0.11,0.51,0.17,0.77c0.32,1.24,0.7,2.54,0.14,3.84c-0.11,0.22-0.33,0.39-0.53,0.52
			c-1.33,2.74,0.16,5.54,0.49,8.28c0.04,0.3,0.06,0.61,0.06,0.91c-2.7,2.33-2.7,5.23-0.9,8.09c0.05,0.3,0.05,0.6,0.02,0.9
			c-0.18,1.82-1.8,3.84-2.44,5.87c-0.04,0.3-0.05,0.58-0.05,0.86c0,0.3,0,0.59,0,0.89c0.67,3.33,0,6.9,1.18,10.34
			c0.11,0.29,0.2,0.58,0.25,0.87c0.09,0.59,0.03,1.2-0.31,1.85c-0.18,0.36-0.36,0.72-0.52,1.08c-0.32,0.72-0.56,1.46-0.6,2.19
			c0,0.27,0,0.55,0,0.81c0,1.56,0,3.08,0,4.55c-0.01,0.3-0.01,0.61-0.02,0.92c-0.65,2.79-0.65,5.25,1.36,7.92
			c0.89,0.89-0.45,2.23-0.69,3.31c-0.07,0.32-0.11,0.63-0.13,0.95c-0.04,0.84,0.1,1.68,0.23,2.53c0.03,0.21,0.07,0.42,0.09,0.64
			c-1.07,3.06-0.4,6.63-2.08,9.53c-0.09,0.32-0.16,0.64-0.24,0.97c-0.08,0.32-0.15,0.65-0.24,0.97c-0.28,0.96-0.28,2.07-0.73,2.74
			c-2.23,1.78-2.68,4.01-4.46,5.8c-0.22,0.22-0.89,0-1.28-0.01c-0.29,0.22-0.59,0.44-0.89,0.64c-0.29,0.17-0.55,0.37-0.79,0.58
			c-2.38,2.58-6.4,3.25-9.79,3c-0.36,0.02-0.71,0.03-1.07,0.03l0,0c-0.01,0-0.03,0-0.04,0L214.11,326.98L214.11,326.98z"/>
		<path style="fill:#5F3224;" d="M216.04,480.3h-0.59c-0.77,0-1.4-4.84-1.4-10.76c0,0,0-36.8,0-65.24c0-1.05,0-2.1,0-3.12
			c0.02-1.23,0.04-2.53,0.04-3.91c0.08-12.01-0.62-28.16,0.99-35.74c0.12-0.35,0.24-0.49,0.37-0.49h0.59c0.39,0,0.74,1.21,0.99,3.16
			c0.09,0.65,0.16,1.38,0.22,2.18c0.19,1.83,0.31,3.63,0.19,5.42c0,0,0,0.81,0,2.28c0,14.69,0,95.47,0,95.47
			C217.45,475.46,216.82,480.3,216.04,480.3z"/>
		<path style="fill:#5F3224;" d="M215.78,385.64c-4.55,0.98-7.8-0.32-10.11-2.51c-0.04-0.04-0.07-0.07-0.11-0.11
			c-2.13-2.02-3.49-4.47-4.3-7.2c-0.01-0.04-0.02-0.09-0.02-0.14c-0.3-1.97,0.65-4.44,2.88-6.32c-0.62,1.6-0.9,3.08-0.89,4.45
			c0,0.68,0.08,1.33,0.22,1.95c0.12,0.66,0.3,1.29,0.54,1.89c1.56,4.52,6.16,6.9,12.44,6.59c0.06,0.09,0.05,0.35,0.02,0.43
			C216.43,384.99,216.21,385.33,215.78,385.64z"/>
		<path style="fill:#5F3224;" d="M214.21,397.96c4,2.38,7.5,2.18,10.39,0.84c0.05-0.02,0.09-0.04,0.14-0.07
			c2.66-1.24,4.73-3.13,6.37-5.45c0.02-0.04,0.04-0.08,0.07-0.12c0.91-1.77,0.79-4.42-0.73-6.9c0.08,1.71-0.12,3.21-0.57,4.5
			c-0.22,0.65-0.5,1.24-0.83,1.78c-0.32,0.59-0.7,1.13-1.11,1.62c-2.92,3.79-8.04,4.58-13.89,2.29c-0.08,0.06-0.15,0.32-0.16,0.4
			C213.79,397.13,213.9,397.53,214.21,397.96z"/>
		<path style="fill:#5F3224;" d="M215.12,417.23c-4,2.39-7.49,2.2-10.38,0.87c-0.05-0.02-0.09-0.04-0.14-0.07
			c-2.67-1.23-4.74-3.11-6.39-5.43c-0.02-0.04-0.04-0.08-0.07-0.12c-0.92-1.77-0.81-4.41,0.7-6.91c-0.08,1.71,0.14,3.21,0.58,4.5
			c0.22,0.64,0.5,1.24,0.84,1.78c0.33,0.59,0.7,1.13,1.12,1.62c2.93,3.78,8.05,4.55,13.9,2.24c0.08,0.06,0.15,0.32,0.16,0.4
			C215.53,416.4,215.43,416.8,215.12,417.23z"/>
		<path style="fill:#5F3224;" d="M215.5,427.89c4.48,1.29,7.81,0.21,10.26-1.82c0.04-0.03,0.08-0.07,0.12-0.1
			c2.26-1.87,3.79-4.22,4.78-6.89c0.01-0.04,0.02-0.09,0.03-0.13c0.43-1.95-0.35-4.47-2.45-6.5c0.51,1.64,0.69,3.14,0.59,4.5
			c-0.05,0.68-0.17,1.32-0.35,1.93c-0.16,0.65-0.39,1.27-0.66,1.85c-1.86,4.4-6.62,6.46-12.86,5.73c-0.06,0.08-0.07,0.34-0.05,0.43
			C214.89,427.19,215.09,427.55,215.5,427.89z"/>
		<ellipse style="fill:#9ABF41;" cx="201.32" cy="362.03" rx="14.82" ry="18.52"/>
		<ellipse style="fill:#80A735;" cx="230.95" cy="379.74" rx="10.48" ry="13.1"/>
		<ellipse style="fill:#80A735;" cx="231.67" cy="415.93" rx="10.48" ry="10.44"/>
		<ellipse style="fill:#95C233;" cx="201.32" cy="405.32" rx="10.48" ry="13.1"/>
	</g>
	<g>
		<path style="fill:#6DB032;" d="M437.5,324.8c-0.87,0.34-1.78,0.21-2.94,0.21c-1.11-0.22-2.01,1.11-2.9,0.89
			c-5.57-1.11-8.47,3.34-11,7.25c-0.29,0.18-0.58,0.34-0.86,0.51c-0.85,0.5-1.63,1.05-1.97,2.06c-1.11,2.68-1.11,5.8-2.9,8.03
			c-0.15,0.33-0.26,0.67-0.35,1.01c-0.23,0.93-0.24,1.87-0.12,2.81c0.04,0.32,0.1,0.63,0.16,0.95c0.09,2.14,0.76,4.15,0.98,6.16
			c0.22,1.56-1.11,3.12-1.92,4.53c-0.05,0.26-0.11,0.51-0.17,0.77c-0.32,1.24-0.7,2.54-0.14,3.84c0.11,0.22,0.33,0.39,0.53,0.52
			c1.33,2.74-0.16,5.54-0.49,8.28c-0.04,0.3-0.06,0.61-0.06,0.91c2.7,2.33,2.7,5.23,0.9,8.09c-0.05,0.3-0.05,0.6-0.02,0.9
			c0.18,1.82,1.8,3.84,2.44,5.87c0.04,0.3,0.05,0.58,0.05,0.86c0,0.3,0,0.59,0,0.89c-0.67,3.33,0,6.9-1.18,10.34
			c-0.11,0.29-0.2,0.58-0.25,0.87c-0.09,0.59-0.03,1.2,0.31,1.85c0.18,0.36,0.36,0.72,0.52,1.08c0.32,0.72,0.56,1.46,0.6,2.19
			c0,0.27,0,0.55,0,0.81c0,1.56,0,3.08,0,4.55c0.01,0.3,0.01,0.61,0.02,0.92c0.65,2.79,0.65,5.25-1.36,7.92
			c-0.89,0.89,0.45,2.23,0.69,3.31c0.07,0.32,0.11,0.63,0.13,0.95c0.04,0.84-0.1,1.68-0.23,2.53c-0.03,0.21-0.07,0.42-0.09,0.64
			c1.07,3.06,0.4,6.63,2.08,9.53c0.09,0.32,0.16,0.64,0.24,0.97c0.08,0.32,0.15,0.65,0.24,0.97c0.28,0.96,0.28,2.07,0.73,2.74
			c2.23,1.78,2.68,4.01,4.46,5.8c0.22,0.22,0.89,0,1.28-0.01c0.29,0.22,0.59,0.44,0.89,0.64c0.29,0.17,0.55,0.37,0.79,0.58
			c2.39,2.58,6.4,3.25,9.79,3c0.36,0.02,0.71,0.03,1.07,0.03l0,0c0.01,0,0.03,0,0.04,0L437.5,324.8L437.5,324.8z"/>
		<path style="fill:#5D992F;" d="M437.28,324.89c0.87,0.34,1.78,0.21,2.94,0.21c1.11-0.22,2.01,1.11,2.9,0.89
			c5.57-1.11,8.47,3.34,11,7.25c0.29,0.18,0.58,0.34,0.86,0.51c0.85,0.5,1.63,1.05,1.97,2.06c1.11,2.68,1.11,5.8,2.9,8.03
			c0.15,0.33,0.26,0.67,0.35,1.01c0.23,0.93,0.24,1.87,0.12,2.81c-0.04,0.32-0.1,0.63-0.15,0.95c-0.09,2.14-0.76,4.15-0.98,6.16
			c-0.22,1.56,1.11,3.12,1.92,4.53c0.05,0.26,0.11,0.51,0.17,0.77c0.32,1.24,0.7,2.54,0.14,3.84c-0.11,0.22-0.33,0.39-0.53,0.52
			c-1.33,2.74,0.16,5.54,0.49,8.28c0.04,0.3,0.06,0.61,0.06,0.91c-2.7,2.33-2.7,5.23-0.9,8.09c0.05,0.3,0.05,0.6,0.02,0.9
			c-0.18,1.82-1.8,3.84-2.44,5.87c-0.04,0.3-0.05,0.58-0.05,0.86c0,0.3,0,0.59,0,0.89c0.67,3.33,0,6.9,1.18,10.34
			c0.11,0.29,0.2,0.58,0.25,0.87c0.09,0.59,0.03,1.2-0.31,1.85c-0.18,0.36-0.36,0.72-0.52,1.08c-0.32,0.72-0.56,1.46-0.6,2.19
			c0,0.27,0,0.55,0,0.81c0,1.56,0,3.08,0,4.55c-0.01,0.3-0.01,0.61-0.02,0.92c-0.65,2.79-0.65,5.25,1.36,7.92
			c0.89,0.89-0.45,2.23-0.69,3.31c-0.07,0.32-0.11,0.63-0.13,0.95c-0.04,0.84,0.1,1.68,0.23,2.53c0.03,0.21,0.07,0.42,0.09,0.64
			c-1.07,3.06-0.4,6.63-2.08,9.53c-0.09,0.32-0.16,0.64-0.24,0.97c-0.08,0.32-0.15,0.65-0.24,0.97c-0.28,0.96-0.28,2.07-0.73,2.74
			c-2.23,1.78-2.68,4.01-4.46,5.8c-0.22,0.22-0.89,0-1.28-0.01c-0.29,0.22-0.59,0.44-0.89,0.64c-0.29,0.17-0.55,0.37-0.79,0.58
			c-2.38,2.58-6.4,3.25-9.79,3c-0.36,0.02-0.71,0.03-1.07,0.03l0,0c-0.01,0-0.03,0-0.04,0V324.89H437.28z"/>
		<path style="fill:#5F3224;" d="M439.22,478.21h-0.59c-0.77,0-1.4-4.84-1.4-10.76c0,0,0-36.8,0-65.24c0-1.05,0-2.1,0-3.12
			c0.02-1.23,0.04-2.53,0.04-3.91c0.08-12.01-0.62-28.16,0.99-35.74c0.12-0.35,0.24-0.49,0.37-0.49h0.59c0.39,0,0.74,1.21,0.99,3.16
			c0.09,0.65,0.16,1.38,0.22,2.18c0.19,1.83,0.31,3.63,0.19,5.42c0,0,0,0.81,0,2.28c0,14.69,0,95.47,0,95.47
			C440.62,473.37,439.99,478.21,439.22,478.21z"/>
		<path style="fill:#5F3224;" d="M438.95,383.55c-4.55,0.98-7.8-0.32-10.11-2.51c-0.04-0.04-0.07-0.07-0.11-0.11
			c-2.13-2.02-3.49-4.47-4.3-7.2c-0.01-0.04-0.02-0.09-0.02-0.14c-0.3-1.97,0.65-4.44,2.88-6.32c-0.62,1.6-0.9,3.08-0.89,4.45
			c0,0.68,0.08,1.33,0.22,1.95c0.12,0.66,0.3,1.29,0.54,1.89c1.56,4.52,6.16,6.9,12.44,6.59c0.06,0.09,0.05,0.35,0.02,0.43
			C439.61,382.9,439.38,383.24,438.95,383.55z"/>
		<path style="fill:#5F3224;" d="M437.38,395.87c4,2.38,7.5,2.18,10.39,0.84c0.05-0.02,0.09-0.04,0.14-0.07
			c2.66-1.24,4.73-3.13,6.37-5.45c0.02-0.04,0.04-0.08,0.07-0.12c0.91-1.77,0.79-4.42-0.73-6.9c0.08,1.71-0.12,3.21-0.57,4.5
			c-0.22,0.65-0.5,1.24-0.83,1.78c-0.32,0.59-0.7,1.13-1.11,1.62c-2.92,3.79-8.04,4.58-13.89,2.29c-0.08,0.06-0.15,0.32-0.16,0.4
			C436.97,395.05,437.07,395.45,437.38,395.87z"/>
		<path style="fill:#5F3224;" d="M438.29,415.14c-4,2.39-7.49,2.2-10.38,0.87c-0.05-0.02-0.09-0.04-0.14-0.07
			c-2.67-1.23-4.74-3.11-6.39-5.43c-0.02-0.04-0.04-0.08-0.07-0.12c-0.92-1.77-0.81-4.41,0.7-6.91c-0.08,1.71,0.14,3.21,0.58,4.5
			c0.22,0.64,0.5,1.24,0.84,1.78c0.33,0.59,0.7,1.13,1.12,1.62c2.93,3.78,8.05,4.55,13.9,2.24c0.08,0.06,0.15,0.32,0.16,0.4
			C438.71,414.32,438.6,414.72,438.29,415.14z"/>
		<path style="fill:#5F3224;" d="M438.68,425.8c4.48,1.29,7.81,0.21,10.26-1.82c0.04-0.03,0.08-0.07,0.12-0.1
			c2.26-1.87,3.79-4.22,4.78-6.89c0.01-0.04,0.02-0.09,0.03-0.13c0.43-1.95-0.35-4.47-2.45-6.5c0.51,1.64,0.69,3.14,0.59,4.5
			c-0.05,0.68-0.17,1.32-0.35,1.93c-0.16,0.65-0.39,1.27-0.66,1.85c-1.86,4.4-6.62,6.46-12.86,5.73c-0.06,0.08-0.07,0.34-0.05,0.43
			C438.07,425.1,438.27,425.47,438.68,425.8z"/>
		<ellipse style="fill:#9ABF41;" cx="424.49" cy="359.94" rx="14.82" ry="18.52"/>
		<ellipse style="fill:#80A735;" cx="454.12" cy="377.65" rx="10.48" ry="13.1"/>
		<ellipse style="fill:#80A735;" cx="454.85" cy="413.84" rx="10.48" ry="10.44"/>
		<ellipse style="fill:#95C233;" cx="424.49" cy="403.23" rx="10.48" ry="13.1"/>
	</g>
	<g>
		<path style="fill:#6DB032;" d="M533.09,276.95c-1.16,0.45-2.39,0.29-3.96,0.29c-1.5-0.3-2.7,1.5-3.9,1.2
			c-7.5-1.5-11.39,4.5-14.78,9.74c-0.38,0.25-0.78,0.46-1.16,0.68c-1.15,0.67-2.2,1.42-2.65,2.77c-1.5,3.6-1.5,7.8-3.9,10.79
			c-0.2,0.45-0.35,0.9-0.47,1.36c-0.31,1.25-0.33,2.51-0.16,3.78c0.06,0.42,0.13,0.85,0.21,1.28c0.12,2.88,1.02,5.58,1.32,8.28
			c0.3,2.1-1.5,4.2-2.58,6.1c-0.07,0.35-0.15,0.69-0.23,1.04c-0.44,1.66-0.94,3.41-0.19,5.16c0.15,0.3,0.45,0.52,0.71,0.71
			c1.79,3.68-0.22,7.45-0.66,11.13c-0.05,0.41-0.08,0.82-0.08,1.22c3.63,3.14,3.63,7.03,1.21,10.88c-0.06,0.41-0.07,0.81-0.03,1.22
			c0.25,2.45,2.43,5.16,3.29,7.89c0.05,0.41,0.06,0.79,0.06,1.16c0,0.4,0,0.79,0,1.19c-0.9,4.48,0,9.28-1.58,13.91
			c-0.15,0.39-0.27,0.78-0.33,1.18c-0.13,0.79-0.04,1.62,0.41,2.49c0.24,0.48,0.48,0.97,0.7,1.45c0.43,0.97,0.75,1.96,0.81,2.94
			c0,0.37,0,0.73,0,1.09c0,2.1,0,4.14,0,6.11c0.01,0.41,0.01,0.81,0.03,1.23c0.87,3.76,0.87,7.06-1.83,10.65
			c-1.2,1.2,0.6,3,0.93,4.45c0.1,0.42,0.15,0.85,0.17,1.27c0.05,1.13-0.13,2.26-0.31,3.4c-0.04,0.29-0.09,0.57-0.13,0.86
			c1.43,4.11,0.54,8.91,2.8,12.82c0.12,0.43,0.22,0.86,0.32,1.3s0.21,0.87,0.32,1.31c0.38,1.28,0.38,2.78,0.98,3.68
			c3,2.4,3.6,5.4,6,7.8c0.3,0.3,1.2,0,1.73-0.01c0.4,0.3,0.8,0.59,1.2,0.86c0.38,0.23,0.73,0.49,1.06,0.78
			c3.21,3.47,8.6,4.37,13.16,4.03c0.48,0.02,0.96,0.03,1.44,0.03l0,0c0.02,0,0.04,0,0.06,0v-171.5H533.09z"/>
		<path style="fill:#5D992F;" d="M532.79,277.07c1.16,0.45,2.39,0.29,3.96,0.29c1.5-0.3,2.7,1.5,3.9,1.2
			c7.5-1.5,11.39,4.5,14.78,9.74c0.38,0.25,0.78,0.46,1.16,0.68c1.15,0.67,2.2,1.42,2.65,2.77c1.5,3.6,1.5,7.8,3.9,10.79
			c0.2,0.45,0.35,0.9,0.47,1.36c0.31,1.25,0.33,2.51,0.16,3.78c-0.06,0.42-0.13,0.85-0.21,1.28c-0.12,2.88-1.02,5.58-1.32,8.28
			c-0.3,2.1,1.5,4.2,2.58,6.1c0.07,0.35,0.15,0.69,0.23,1.04c0.44,1.66,0.94,3.41,0.19,5.16c-0.15,0.3-0.45,0.52-0.71,0.71
			c-1.79,3.68,0.22,7.45,0.66,11.13c0.05,0.41,0.08,0.82,0.08,1.22c-3.63,3.14-3.63,7.03-1.21,10.88c0.06,0.41,0.07,0.81,0.03,1.22
			c-0.25,2.45-2.43,5.16-3.29,7.89c-0.05,0.41-0.06,0.79-0.06,1.16c0,0.4,0,0.79,0,1.19c0.9,4.48,0,9.28,1.58,13.91
			c0.15,0.39,0.27,0.78,0.33,1.18c0.13,0.79,0.04,1.62-0.41,2.49c-0.24,0.48-0.48,0.97-0.7,1.45c-0.43,0.97-0.75,1.96-0.81,2.94
			c0,0.37,0,0.73,0,1.09c0,2.1,0,4.14,0,6.11c-0.01,0.41-0.01,0.81-0.03,1.23c-0.87,3.76-0.87,7.06,1.83,10.65
			c1.2,1.2-0.6,3-0.93,4.45c-0.1,0.42-0.15,0.85-0.17,1.27c-0.05,1.13,0.13,2.26,0.31,3.4c0.04,0.29,0.09,0.57,0.13,0.86
			c-1.43,4.11-0.54,8.91-2.8,12.82c-0.12,0.43-0.22,0.86-0.32,1.3c-0.1,0.44-0.21,0.87-0.32,1.31c-0.38,1.28-0.38,2.78-0.98,3.68
			c-3,2.4-3.6,5.4-6,7.8c-0.3,0.3-1.2,0-1.73-0.01c-0.4,0.3-0.8,0.59-1.2,0.86c-0.38,0.23-0.73,0.49-1.06,0.78
			c-3.21,3.47-8.6,4.37-13.16,4.03c-0.48,0.02-0.96,0.03-1.44,0.03l0,0c-0.02,0-0.04,0-0.06,0v-171.5H532.79z"/>
		<path style="fill:#5F3224;" d="M535.39,483.21h-0.79c-1.04,0-1.89-6.51-1.89-14.47c0,0,0-49.48,0-87.72c0-1.42,0-2.82,0-4.2
			c0.03-1.66,0.05-3.4,0.05-5.26c0.1-16.15-0.84-37.86,1.33-48.05c0.16-0.47,0.33-0.65,0.5-0.65h0.79c0.52,0,0.99,1.63,1.33,4.25
			c0.11,0.87,0.21,1.86,0.3,2.93c0.26,2.46,0.42,4.88,0.26,7.29c0,0,0,1.09,0,3.06c0,19.75,0,128.36,0,128.36
			C537.28,476.7,536.43,483.21,535.39,483.21z"/>
		<path style="fill:#5F3224;" d="M535.04,355.94c-6.12,1.32-10.49-0.43-13.6-3.37c-0.05-0.05-0.1-0.1-0.15-0.14
			c-2.86-2.71-4.7-6.01-5.78-9.67c-0.01-0.06-0.02-0.12-0.03-0.18c-0.4-2.65,0.88-5.97,3.88-8.49c-0.84,2.15-1.21,4.15-1.2,5.98
			c0.01,0.92,0.11,1.79,0.3,2.63c0.16,0.89,0.4,1.74,0.72,2.54c2.1,6.08,8.29,9.27,16.73,8.85c0.08,0.11,0.06,0.47,0.03,0.58
			C535.92,355.06,535.61,355.53,535.04,355.94z"/>
		<path style="fill:#5F3224;" d="M532.93,372.5c5.38,3.19,10.09,2.93,13.97,1.13c0.06-0.03,0.13-0.06,0.19-0.09
			c3.58-1.66,6.36-4.21,8.56-7.33c0.03-0.05,0.06-0.11,0.09-0.16c1.23-2.38,1.07-5.94-0.98-9.28c0.11,2.3-0.17,4.32-0.76,6.05
			c-0.3,0.87-0.67,1.66-1.12,2.39c-0.43,0.8-0.94,1.52-1.49,2.18c-3.92,5.1-10.8,6.16-18.67,3.08c-0.11,0.08-0.21,0.42-0.21,0.54
			C532.37,371.39,532.51,371.93,532.93,372.5z"/>
		<path style="fill:#5F3224;" d="M534.15,398.41c-5.37,3.21-10.08,2.96-13.96,1.17c-0.06-0.03-0.13-0.06-0.19-0.09
			c-3.58-1.65-6.38-4.19-8.59-7.3c-0.03-0.05-0.06-0.11-0.09-0.16c-1.23-2.38-1.09-5.94,0.95-9.29c-0.1,2.3,0.18,4.32,0.78,6.05
			c0.3,0.87,0.68,1.66,1.13,2.39c0.44,0.8,0.94,1.52,1.5,2.18c3.94,5.08,10.83,6.12,18.69,3.01c0.11,0.08,0.21,0.42,0.22,0.54
			C534.71,397.3,534.57,397.84,534.15,398.41z"/>
		<path style="fill:#5F3224;" d="M534.67,412.74c6.02,1.73,10.5,0.28,13.8-2.44c0.05-0.04,0.11-0.09,0.16-0.13
			c3.04-2.51,5.09-5.68,6.43-9.26c0.02-0.06,0.03-0.12,0.04-0.18c0.58-2.62-0.47-6.02-3.29-8.73c0.69,2.2,0.93,4.22,0.79,6.05
			c-0.07,0.91-0.23,1.78-0.48,2.6c-0.22,0.88-0.52,1.71-0.89,2.49c-2.51,5.92-8.9,8.69-17.29,7.7c-0.09,0.11-0.09,0.46-0.07,0.57
			C533.85,411.81,534.12,412.29,534.67,412.74z"/>
		<ellipse style="fill:#9ABF41;" cx="515.59" cy="324.2" rx="19.92" ry="24.9"/>
		<ellipse style="fill:#80A735;" cx="555.44" cy="348" rx="14.09" ry="17.61"/>
		<ellipse style="fill:#80A735;" cx="556.41" cy="396.66" rx="14.09" ry="14.04"/>
		<ellipse style="fill:#95C233;" cx="515.59" cy="382.4" rx="14.09" ry="17.61"/>
	</g>
	<g>
		<path style="fill:#6DB032;" d="M291.5,324.8c-0.87,0.34-1.78,0.21-2.94,0.21c-1.11-0.22-2.01,1.11-2.9,0.89
			c-5.57-1.11-8.47,3.34-11,7.25c-0.29,0.18-0.58,0.34-0.86,0.51c-0.85,0.5-1.63,1.05-1.97,2.06c-1.11,2.68-1.11,5.8-2.9,8.03
			c-0.15,0.33-0.26,0.67-0.35,1.01c-0.23,0.93-0.24,1.87-0.12,2.81c0.04,0.32,0.1,0.63,0.16,0.95c0.09,2.14,0.76,4.15,0.98,6.16
			c0.22,1.56-1.11,3.12-1.92,4.53c-0.05,0.26-0.11,0.51-0.17,0.77c-0.32,1.24-0.7,2.54-0.14,3.84c0.11,0.22,0.33,0.39,0.53,0.52
			c1.33,2.74-0.16,5.54-0.49,8.28c-0.04,0.3-0.06,0.61-0.06,0.91c2.7,2.33,2.7,5.23,0.9,8.09c-0.05,0.3-0.05,0.6-0.02,0.9
			c0.18,1.82,1.8,3.84,2.44,5.87c0.04,0.3,0.05,0.58,0.05,0.86c0,0.3,0,0.59,0,0.89c-0.67,3.33,0,6.9-1.18,10.34
			c-0.11,0.29-0.2,0.58-0.25,0.87c-0.09,0.59-0.03,1.2,0.31,1.85c0.18,0.36,0.36,0.72,0.52,1.08c0.32,0.72,0.56,1.46,0.6,2.19
			c0,0.27,0,0.55,0,0.81c0,1.56,0,3.08,0,4.55c0.01,0.3,0.01,0.61,0.02,0.92c0.65,2.79,0.65,5.25-1.36,7.92
			c-0.89,0.89,0.45,2.23,0.69,3.31c0.07,0.32,0.11,0.63,0.13,0.95c0.04,0.84-0.1,1.68-0.23,2.53c-0.03,0.21-0.07,0.42-0.09,0.64
			c1.07,3.06,0.4,6.63,2.08,9.53c0.09,0.32,0.16,0.64,0.24,0.97c0.08,0.32,0.15,0.65,0.24,0.97c0.28,0.96,0.28,2.07,0.73,2.74
			c2.23,1.78,2.68,4.01,4.46,5.8c0.22,0.22,0.89,0,1.28-0.01c0.29,0.22,0.59,0.44,0.89,0.64c0.29,0.17,0.55,0.37,0.79,0.58
			c2.39,2.58,6.4,3.25,9.79,3c0.36,0.02,0.71,0.03,1.07,0.03l0,0c0.01,0,0.03,0,0.04,0L291.5,324.8L291.5,324.8z"/>
		<path style="fill:#5D992F;" d="M291.28,324.89c0.87,0.34,1.78,0.21,2.94,0.21c1.11-0.22,2.01,1.11,2.9,0.89
			c5.57-1.11,8.47,3.34,11,7.25c0.29,0.18,0.58,0.34,0.86,0.51c0.85,0.5,1.63,1.05,1.97,2.06c1.11,2.68,1.11,5.8,2.9,8.03
			c0.15,0.33,0.26,0.67,0.35,1.01c0.23,0.93,0.24,1.87,0.12,2.81c-0.04,0.32-0.1,0.63-0.15,0.95c-0.09,2.14-0.76,4.15-0.98,6.16
			c-0.22,1.56,1.11,3.12,1.92,4.53c0.05,0.26,0.11,0.51,0.17,0.77c0.32,1.24,0.7,2.54,0.14,3.84c-0.11,0.22-0.33,0.39-0.53,0.52
			c-1.33,2.74,0.16,5.54,0.49,8.28c0.04,0.3,0.06,0.61,0.06,0.91c-2.7,2.33-2.7,5.23-0.9,8.09c0.05,0.3,0.05,0.6,0.02,0.9
			c-0.18,1.82-1.8,3.84-2.44,5.87c-0.04,0.3-0.05,0.58-0.05,0.86c0,0.3,0,0.59,0,0.89c0.67,3.33,0,6.9,1.18,10.34
			c0.11,0.29,0.2,0.58,0.25,0.87c0.09,0.59,0.03,1.2-0.31,1.85c-0.18,0.36-0.36,0.72-0.52,1.08c-0.32,0.72-0.56,1.46-0.6,2.19
			c0,0.27,0,0.55,0,0.81c0,1.56,0,3.08,0,4.55c-0.01,0.3-0.01,0.61-0.02,0.92c-0.65,2.79-0.65,5.25,1.36,7.92
			c0.89,0.89-0.45,2.23-0.69,3.31c-0.07,0.32-0.11,0.63-0.13,0.95c-0.04,0.84,0.1,1.68,0.23,2.53c0.03,0.21,0.07,0.42,0.09,0.64
			c-1.07,3.06-0.4,6.63-2.08,9.53c-0.09,0.32-0.16,0.64-0.24,0.97c-0.08,0.32-0.15,0.65-0.24,0.97c-0.28,0.96-0.28,2.07-0.73,2.74
			c-2.23,1.78-2.68,4.01-4.46,5.8c-0.22,0.22-0.89,0-1.28-0.01c-0.29,0.22-0.59,0.44-0.89,0.64c-0.29,0.17-0.55,0.37-0.79,0.58
			c-2.38,2.58-6.4,3.25-9.79,3c-0.36,0.02-0.71,0.03-1.07,0.03l0,0c-0.01,0-0.03,0-0.04,0V324.89H291.28z"/>
		<path style="fill:#5F3224;" d="M293.22,478.21h-0.59c-0.77,0-1.4-4.84-1.4-10.76c0,0,0-36.8,0-65.24c0-1.05,0-2.1,0-3.12
			c0.02-1.23,0.04-2.53,0.04-3.91c0.08-12.01-0.62-28.16,0.99-35.74c0.12-0.35,0.24-0.49,0.37-0.49h0.59c0.39,0,0.74,1.21,0.99,3.16
			c0.09,0.65,0.16,1.38,0.22,2.18c0.19,1.83,0.31,3.63,0.19,5.42c0,0,0,0.81,0,2.28c0,14.69,0,95.47,0,95.47
			C294.62,473.37,293.99,478.21,293.22,478.21z"/>
		<path style="fill:#5F3224;" d="M292.95,383.55c-4.55,0.98-7.8-0.32-10.11-2.51c-0.04-0.04-0.07-0.07-0.11-0.11
			c-2.13-2.02-3.49-4.47-4.3-7.2c-0.01-0.04-0.02-0.09-0.02-0.14c-0.3-1.97,0.65-4.44,2.88-6.32c-0.62,1.6-0.9,3.08-0.89,4.45
			c0,0.68,0.08,1.33,0.22,1.95c0.12,0.66,0.3,1.29,0.54,1.89c1.56,4.52,6.16,6.9,12.44,6.59c0.06,0.09,0.05,0.35,0.02,0.43
			C293.61,382.9,293.38,383.24,292.95,383.55z"/>
		<path style="fill:#5F3224;" d="M291.38,395.87c4,2.38,7.5,2.18,10.39,0.84c0.05-0.02,0.09-0.04,0.14-0.07
			c2.66-1.24,4.73-3.13,6.37-5.45c0.02-0.04,0.04-0.08,0.07-0.12c0.91-1.77,0.79-4.42-0.73-6.9c0.08,1.71-0.12,3.21-0.57,4.5
			c-0.22,0.65-0.5,1.24-0.83,1.78c-0.32,0.59-0.7,1.13-1.11,1.62c-2.92,3.79-8.04,4.58-13.89,2.29c-0.08,0.06-0.15,0.32-0.16,0.4
			C290.97,395.05,291.07,395.45,291.38,395.87z"/>
		<path style="fill:#5F3224;" d="M292.29,415.14c-4,2.39-7.49,2.2-10.38,0.87c-0.05-0.02-0.09-0.04-0.14-0.07
			c-2.67-1.23-4.74-3.11-6.39-5.43c-0.02-0.04-0.04-0.08-0.07-0.12c-0.92-1.77-0.81-4.41,0.7-6.91c-0.08,1.71,0.14,3.21,0.58,4.5
			c0.22,0.64,0.5,1.24,0.84,1.78c0.33,0.59,0.7,1.13,1.12,1.62c2.93,3.78,8.05,4.55,13.9,2.24c0.08,0.06,0.15,0.32,0.16,0.4
			C292.71,414.32,292.6,414.72,292.29,415.14z"/>
		<path style="fill:#5F3224;" d="M292.68,425.8c4.48,1.29,7.81,0.21,10.26-1.82c0.04-0.03,0.08-0.07,0.12-0.1
			c2.26-1.87,3.79-4.22,4.78-6.89c0.01-0.04,0.02-0.09,0.03-0.13c0.43-1.95-0.35-4.47-2.45-6.5c0.51,1.64,0.69,3.14,0.59,4.5
			c-0.05,0.68-0.17,1.32-0.35,1.93c-0.16,0.65-0.39,1.27-0.66,1.85c-1.86,4.4-6.62,6.46-12.86,5.73c-0.06,0.08-0.07,0.34-0.05,0.43
			C292.07,425.1,292.27,425.47,292.68,425.8z"/>
		<ellipse style="fill:#9ABF41;" cx="278.49" cy="359.94" rx="14.82" ry="18.52"/>
		<ellipse style="fill:#80A735;" cx="308.12" cy="377.65" rx="10.48" ry="13.1"/>
		<ellipse style="fill:#80A735;" cx="308.85" cy="413.84" rx="10.48" ry="10.44"/>
		<ellipse style="fill:#95C233;" cx="278.49" cy="403.23" rx="10.48" ry="13.1"/>
	</g>
	<g>
		<path style="fill:#6DB032;" d="M650.9,297.46c-1.01,0.39-2.07,0.25-3.43,0.25c-1.3-0.26-2.34,1.3-3.38,1.04
			c-6.5-1.3-9.87,3.9-12.81,8.44c-0.33,0.21-0.67,0.4-1,0.59c-0.99,0.58-1.9,1.23-2.29,2.4c-1.3,3.12-1.3,6.76-3.38,9.35
			c-0.17,0.39-0.31,0.78-0.41,1.17c-0.27,1.08-0.28,2.17-0.14,3.28c0.05,0.37,0.11,0.74,0.18,1.1c0.1,2.5,0.88,4.84,1.14,7.18
			c0.26,1.82-1.3,3.64-2.24,5.28c-0.06,0.3-0.13,0.6-0.2,0.9c-0.38,1.44-0.81,2.96-0.16,4.47c0.13,0.26,0.39,0.45,0.62,0.61
			c1.55,3.19-0.19,6.46-0.57,9.64c-0.04,0.35-0.07,0.71-0.07,1.06c3.15,2.72,3.15,6.1,1.05,9.43c-0.05,0.35-0.06,0.7-0.03,1.05
			c0.21,2.12,2.1,4.47,2.85,6.84c0.05,0.35,0.06,0.68,0.06,1.01c0,0.34,0,0.69,0,1.03c-0.78,3.88,0,8.04-1.37,12.05
			c-0.13,0.34-0.23,0.68-0.29,1.02c-0.11,0.69-0.03,1.4,0.36,2.16c0.21,0.42,0.42,0.84,0.6,1.26c0.37,0.84,0.65,1.7,0.7,2.55
			c0,0.32,0,0.64,0,0.95c0,1.82,0,3.59,0,5.3c0.01,0.35,0.01,0.71,0.02,1.07c0.76,3.26,0.76,6.11-1.58,9.23
			c-1.04,1.04,0.52,2.6,0.8,3.86c0.08,0.37,0.13,0.74,0.15,1.1c0.05,0.98-0.11,1.96-0.27,2.94c-0.04,0.25-0.08,0.5-0.11,0.74
			c1.24,3.56,0.46,7.72,2.43,11.11c0.1,0.37,0.19,0.75,0.28,1.13s0.18,0.76,0.28,1.13c0.33,1.11,0.33,2.41,0.85,3.19
			c2.6,2.08,3.12,4.68,5.2,6.76c0.26,0.26,1.04,0,1.5-0.01c0.34,0.26,0.69,0.51,1.04,0.75c0.33,0.2,0.64,0.43,0.92,0.68
			c2.78,3,7.46,3.78,11.4,3.49c0.41,0.02,0.83,0.03,1.25,0.03l0,0c0.02,0,0.03,0,0.05,0V297.46z"/>
		<path style="fill:#5D992F;" d="M650.65,297.57c1.01,0.39,2.07,0.25,3.43,0.25c1.3-0.26,2.34,1.3,3.38,1.04
			c6.5-1.3,9.87,3.9,12.81,8.44c0.33,0.21,0.67,0.4,1,0.59c0.99,0.58,1.9,1.23,2.29,2.4c1.3,3.12,1.3,6.76,3.38,9.35
			c0.17,0.39,0.31,0.78,0.41,1.17c0.27,1.08,0.28,2.17,0.14,3.28c-0.05,0.37-0.11,0.74-0.18,1.1c-0.1,2.5-0.88,4.84-1.14,7.18
			c-0.26,1.82,1.3,3.64,2.24,5.28c0.06,0.3,0.13,0.6,0.2,0.9c0.38,1.44,0.81,2.96,0.16,4.47c-0.13,0.26-0.39,0.45-0.62,0.61
			c-1.55,3.19,0.19,6.46,0.57,9.64c0.04,0.35,0.07,0.71,0.07,1.06c-3.15,2.72-3.15,6.1-1.05,9.43c0.05,0.35,0.06,0.7,0.03,1.05
			c-0.21,2.12-2.1,4.47-2.85,6.84c-0.05,0.35-0.06,0.68-0.06,1.01c0,0.34,0,0.69,0,1.03c0.78,3.88,0,8.04,1.37,12.05
			c0.13,0.34,0.23,0.68,0.29,1.02c0.11,0.69,0.03,1.4-0.36,2.16c-0.21,0.42-0.42,0.84-0.6,1.26c-0.37,0.84-0.65,1.7-0.7,2.55
			c0,0.32,0,0.64,0,0.95c0,1.82,0,3.59,0,5.3c-0.01,0.35-0.01,0.71-0.02,1.07c-0.76,3.26-0.76,6.11,1.58,9.23
			c1.04,1.04-0.52,2.6-0.8,3.86c-0.08,0.37-0.13,0.74-0.15,1.1c-0.05,0.98,0.11,1.96,0.27,2.94c0.04,0.25,0.08,0.5,0.11,0.74
			c-1.24,3.56-0.46,7.72-2.43,11.11c-0.1,0.37-0.19,0.75-0.28,1.13s-0.18,0.76-0.28,1.13c-0.33,1.11-0.33,2.41-0.85,3.19
			c-2.6,2.08-3.12,4.68-5.2,6.76c-0.26,0.26-1.04,0-1.5-0.01c-0.34,0.26-0.69,0.51-1.04,0.75c-0.33,0.2-0.64,0.43-0.92,0.68
			c-2.78,3-7.46,3.78-11.4,3.49c-0.41,0.02-0.83,0.03-1.25,0.03l0,0c-0.02,0-0.03,0-0.05,0V297.57z"/>
		<path style="fill:#5F3224;" d="M652.9,476.21h-0.68c-0.9,0-1.64-5.64-1.64-12.54c0,0,0-42.88,0-76.02c0-1.23,0-2.44,0-3.64
			c0.03-1.44,0.04-2.95,0.05-4.55c0.09-14-0.73-32.81,1.15-41.64c0.14-0.41,0.28-0.57,0.43-0.57h0.68c0.45,0,0.86,1.41,1.16,3.68
			c0.1,0.76,0.19,1.61,0.26,2.54c0.22,2.14,0.36,4.23,0.22,6.32c0,0,0,0.94,0,2.65c0,17.11,0,111.23,0,111.23
			C654.54,470.57,653.8,476.21,652.9,476.21z"/>
		<path style="fill:#5F3224;" d="M652.59,365.91c-5.3,1.14-9.09-0.37-11.78-2.92c-0.04-0.04-0.09-0.08-0.13-0.13
			c-2.48-2.35-4.07-5.21-5.01-8.38c-0.01-0.05-0.02-0.11-0.03-0.16c-0.35-2.3,0.76-5.17,3.36-7.36c-0.72,1.86-1.05,3.59-1.04,5.18
			c0.01,0.79,0.09,1.55,0.26,2.28c0.14,0.77,0.35,1.51,0.63,2.2c1.82,5.27,7.18,8.03,14.5,7.67c0.07,0.1,0.05,0.41,0.03,0.5
			C653.36,365.16,653.09,365.56,652.59,365.91z"/>
		<path style="fill:#5F3224;" d="M650.77,380.27c4.67,2.77,8.74,2.54,12.1,0.98c0.05-0.03,0.11-0.05,0.16-0.08
			c3.1-1.44,5.51-3.65,7.42-6.36c0.03-0.05,0.05-0.09,0.08-0.14c1.06-2.07,0.92-5.15-0.85-8.04c0.1,1.99-0.15,3.74-0.66,5.25
			c-0.26,0.75-0.58,1.44-0.97,2.08c-0.38,0.69-0.81,1.32-1.29,1.89c-3.4,4.42-9.36,5.33-16.18,2.67c-0.1,0.07-0.18,0.37-0.19,0.46
			C650.28,379.31,650.4,379.77,650.77,380.27z"/>
		<path style="fill:#5F3224;" d="M651.83,402.73c-4.66,2.78-8.73,2.57-12.1,1.02c-0.05-0.03-0.11-0.05-0.16-0.08
			c-3.11-1.43-5.53-3.63-7.44-6.33c-0.03-0.05-0.05-0.09-0.08-0.14c-1.07-2.06-0.94-5.14,0.82-8.05c-0.09,2,0.16,3.74,0.68,5.24
			c0.26,0.75,0.59,1.44,0.98,2.07c0.38,0.69,0.82,1.32,1.3,1.89c3.41,4.4,9.38,5.3,16.19,2.61c0.1,0.07,0.18,0.37,0.19,0.46
			C652.31,401.76,652.19,402.23,651.83,402.73z"/>
		<path style="fill:#5F3224;" d="M652.27,415.14c5.21,1.5,9.1,0.24,11.96-2.12c0.05-0.04,0.09-0.08,0.14-0.12
			c2.64-2.18,4.41-4.92,5.57-8.03c0.01-0.05,0.03-0.1,0.04-0.16c0.51-2.27-0.41-5.21-2.85-7.57c0.6,1.91,0.81,3.66,0.69,5.24
			c-0.06,0.79-0.2,1.54-0.41,2.25c-0.19,0.76-0.45,1.48-0.77,2.16c-2.17,5.13-7.71,7.53-14.98,6.68c-0.08,0.09-0.08,0.4-0.06,0.5
			C651.56,414.33,651.8,414.75,652.27,415.14z"/>
		<ellipse style="fill:#9ABF41;" cx="635.75" cy="338.41" rx="17.26" ry="21.58"/>
		<ellipse style="fill:#80A735;" cx="670.27" cy="359.04" rx="12.21" ry="15.26"/>
		<ellipse style="fill:#80A735;" cx="671.12" cy="401.21" rx="12.21" ry="12.17"/>
		<ellipse style="fill:#95C233;" cx="635.75" cy="388.85" rx="12.21" ry="15.26"/>
	</g>
	<g>
		<path style="fill:#6DB032;" d="M786.57,347.46c-0.93,0.28-1.91,0.18-3.17,0.18c-1.2-0.19-2.16,0.93-3.12,0.74
			c-6-0.93-9.12,2.78-11.83,6.03c-0.31,0.15-0.62,0.28-0.93,0.42c-0.92,0.41-1.76,0.88-2.12,1.71c-1.2,2.23-1.2,4.82-3.12,6.68
			c-0.16,0.28-0.28,0.56-0.37,0.84c-0.25,0.77-0.26,1.55-0.13,2.34c0.05,0.26,0.11,0.52,0.17,0.79c0.09,1.78,0.81,3.45,1.05,5.12
			c0.24,1.3-1.2,2.6-2.06,3.77c-0.05,0.21-0.12,0.43-0.19,0.64c-0.35,1.03-0.75,2.11-0.15,3.19c0.12,0.19,0.36,0.32,0.57,0.44
			c1.43,2.28-0.17,4.61-0.53,6.88c-0.04,0.25-0.06,0.5-0.07,0.76c2.9,1.94,2.9,4.35,0.97,6.73c-0.05,0.25-0.06,0.5-0.03,0.75
			c0.2,1.51,1.94,3.19,2.63,4.88c0.04,0.25,0.05,0.49,0.05,0.72c0,0.25,0,0.49,0,0.74c-0.72,2.77,0,5.74-1.27,8.6
			c-0.12,0.24-0.22,0.48-0.27,0.73c-0.1,0.49-0.03,1,0.33,1.54c0.19,0.3,0.39,0.6,0.56,0.9c0.34,0.6,0.6,1.21,0.65,1.82
			c0,0.23,0,0.45,0,0.68c0,1.3,0,2.56,0,3.78c0.01,0.25,0.01,0.5,0.02,0.76c0.7,2.32,0.7,4.36-1.46,6.59
			c-0.96,0.74,0.48,1.85,0.74,2.75c0.08,0.26,0.12,0.52,0.14,0.79c0.04,0.7-0.1,1.4-0.25,2.1c-0.04,0.18-0.07,0.35-0.1,0.53
			c1.15,2.54,0.43,5.51,2.24,7.93c0.09,0.26,0.18,0.53,0.26,0.8s0.17,0.54,0.26,0.81c0.31,0.79,0.31,1.72,0.79,2.28
			c2.4,1.48,2.88,3.34,4.8,4.82c0.24,0.19,0.96,0,1.38-0.01c0.32,0.18,0.64,0.36,0.96,0.53c0.31,0.14,0.59,0.31,0.85,0.48
			c2.57,2.14,6.88,2.7,10.53,2.49c0.38,0.01,0.77,0.02,1.15,0.02l0,0c0.02,0,0.03,0,0.05,0V347.46H786.57z"/>
		<path style="fill:#5D992F;" d="M786.33,347.54c0.93,0.28,1.91,0.18,3.17,0.18c1.2-0.19,2.16,0.93,3.12,0.74
			c6-0.93,9.12,2.78,11.83,6.03c0.31,0.15,0.62,0.28,0.93,0.42c0.92,0.41,1.76,0.88,2.12,1.71c1.2,2.23,1.2,4.82,3.12,6.68
			c0.16,0.28,0.28,0.56,0.37,0.84c0.25,0.77,0.26,1.55,0.13,2.34c-0.05,0.26-0.11,0.52-0.17,0.79c-0.09,1.78-0.81,3.45-1.05,5.12
			c-0.24,1.3,1.2,2.6,2.06,3.77c0.05,0.21,0.12,0.43,0.19,0.64c0.35,1.03,0.75,2.11,0.15,3.19c-0.12,0.19-0.36,0.32-0.57,0.44
			c-1.43,2.28,0.17,4.61,0.53,6.88c0.04,0.25,0.06,0.5,0.07,0.76c-2.9,1.94-2.9,4.35-0.97,6.73c0.05,0.25,0.06,0.5,0.03,0.75
			c-0.2,1.51-1.94,3.19-2.63,4.88c-0.04,0.25-0.05,0.49-0.05,0.72c0,0.25,0,0.49,0,0.74c0.72,2.77,0,5.74,1.27,8.6
			c0.12,0.24,0.22,0.48,0.27,0.73c0.1,0.49,0.03,1-0.33,1.54c-0.19,0.3-0.39,0.6-0.56,0.9c-0.34,0.6-0.6,1.21-0.65,1.82
			c0,0.23,0,0.45,0,0.68c0,1.3,0,2.56,0,3.78c-0.01,0.25-0.01,0.5-0.02,0.76c-0.7,2.32-0.7,4.36,1.46,6.59
			c0.96,0.74-0.48,1.85-0.74,2.75c-0.08,0.26-0.12,0.52-0.14,0.79c-0.04,0.7,0.1,1.4,0.25,2.1c0.04,0.18,0.07,0.35,0.1,0.53
			c-1.15,2.54-0.43,5.51-2.24,7.93c-0.09,0.26-0.18,0.53-0.26,0.8s-0.17,0.54-0.26,0.81c-0.31,0.79-0.31,1.72-0.79,2.28
			c-2.4,1.48-2.88,3.34-4.8,4.82c-0.24,0.19-0.96,0-1.38-0.01c-0.32,0.18-0.64,0.36-0.96,0.53c-0.31,0.14-0.59,0.31-0.85,0.48
			c-2.57,2.14-6.88,2.7-10.53,2.49c-0.38,0.01-0.77,0.02-1.15,0.02l0,0c-0.02,0-0.03,0-0.05,0V347.54H786.33z"/>
		<path style="fill:#5F3224;" d="M788.41,475.05h-0.63c-0.83,0-1.51-4.03-1.51-8.95c0,0,0-30.61,0-54.26c0-0.88,0-1.74,0-2.6
			c0.03-1.03,0.04-2.11,0.04-3.25c0.08-9.99-0.67-23.42,1.07-29.72c0.13-0.29,0.26-0.4,0.4-0.4h0.63c0.42,0,0.79,1.01,1.07,2.63
			c0.09,0.54,0.17,1.15,0.24,1.81c0.21,1.52,0.33,3.02,0.21,4.51c0,0,0,0.67,0,1.89c0,12.21,0,79.39,0,79.39
			C789.92,471.02,789.24,475.05,788.41,475.05z"/>
		<path style="fill:#5F3224;" d="M788.13,396.32c-4.9,0.81-8.4-0.27-10.88-2.09c-0.04-0.03-0.08-0.06-0.12-0.09
			c-2.29-1.68-3.76-3.72-4.63-5.98c-0.01-0.04-0.02-0.08-0.02-0.11c-0.32-1.64,0.7-3.69,3.1-5.25c-0.67,1.33-0.97,2.57-0.96,3.7
			c0,0.57,0.09,1.11,0.24,1.62c0.13,0.55,0.32,1.08,0.58,1.57c1.68,3.76,6.63,5.73,13.38,5.48c0.06,0.07,0.05,0.29,0.03,0.36
			C788.83,395.78,788.59,396.07,788.13,396.32z"/>
		<path style="fill:#5F3224;" d="M786.44,406.57c4.31,1.98,8.07,1.81,11.17,0.7c0.05-0.02,0.1-0.04,0.15-0.06
			c2.86-1.03,5.09-2.6,6.85-4.54c0.02-0.03,0.05-0.07,0.07-0.1c0.98-1.47,0.85-3.67-0.78-5.74c0.09,1.42-0.13,2.67-0.61,3.74
			c-0.24,0.54-0.54,1.03-0.89,1.48c-0.35,0.49-0.75,0.94-1.19,1.35c-3.14,3.15-8.64,3.81-14.94,1.9c-0.09,0.05-0.17,0.26-0.17,0.33
			C785.99,405.88,786.11,406.21,786.44,406.57z"/>
		<path style="fill:#5F3224;" d="M787.42,422.6c-4.3,1.99-8.06,1.83-11.17,0.73c-0.05-0.02-0.1-0.04-0.15-0.05
			c-2.87-1.02-5.1-2.59-6.87-4.52c-0.02-0.03-0.05-0.07-0.07-0.1c-0.99-1.47-0.87-3.67,0.76-5.74c-0.08,1.42,0.15,2.67,0.63,3.74
			c0.24,0.54,0.54,1.03,0.9,1.48c0.35,0.49,0.75,0.94,1.2,1.35c3.15,3.14,8.66,3.78,14.95,1.86c0.09,0.05,0.17,0.26,0.17,0.33
			C787.86,421.91,787.75,422.24,787.42,422.6z"/>
		<path style="fill:#5F3224;" d="M787.83,431.46c4.81,1.07,8.4,0.17,11.04-1.51c0.04-0.03,0.09-0.05,0.13-0.08
			c2.43-1.55,4.07-3.51,5.14-5.73c0.01-0.04,0.02-0.07,0.03-0.11c0.47-1.62-0.38-3.72-2.64-5.4c0.55,1.36,0.74,2.61,0.64,3.74
			c-0.05,0.57-0.18,1.1-0.38,1.61c-0.17,0.54-0.42,1.06-0.71,1.54c-2.01,3.66-7.12,5.37-13.83,4.76c-0.07,0.07-0.07,0.29-0.06,0.35
			C787.18,430.88,787.39,431.18,787.83,431.46z"/>
		<ellipse style="fill:#9ABF41;" cx="772.57" cy="376.69" rx="15.94" ry="15.4"/>
		<ellipse style="fill:#80A735;" cx="804.45" cy="391.41" rx="11.27" ry="10.89"/>
		<ellipse style="fill:#80A735;" cx="805.23" cy="421.51" rx="11.27" ry="8.68"/>
		<ellipse style="fill:#95C233;" cx="772.57" cy="412.69" rx="11.27" ry="10.89"/>
	</g>
</g>
<g id="Bushes2">
	<path style="fill:#92BC59;" d="M182.26,481.46c0.07-0.21,0.1-0.43,0.1-0.67s-0.01-0.49-0.03-0.78c-2.2-3.49-2.73-7.19,0.79-9.94
		c0.18-0.32,0.36-0.65,0.56-0.96c0.6-0.95,1.37-1.83,2.34-2.63c0.22-0.29,0.49-0.58,0.78-0.83c2.04-1.82,5.4-2.47,8.8-1.95
		c0.37-0.02,0.75-0.04,1.12-0.03c1.56,0.01,3.17,0.29,4.86,0.85c0.34,0.11,0.68,0.23,1.02,0.37c0.47-0.09,0.92-0.15,1.35-0.17
		c0.43-0.02,0.84-0.02,1.25,0.03c3.58,0.68,6.23,3.97,10.73,4.49c0.47,0,0.92-0.01,1.37-0.03c2.67-0.11,5-0.46,7.19,0.38
		c0.37,0.14,0.73,0.31,1.11,0.5c3.87,1.1,8.64,1.1,9.63,4.6c0.1,0.11,0,0.44,0.02,0.63c0.27,0.29,0.56,0.53,0.87,0.75
		s0.64,0.41,0.98,0.58c3.52,0.71,7.23,1.94,10.41,3.59c-3.71,3.7-8.49,0.82-12.58,1.46c-0.39-0.02-0.76-0.03-1.13-0.04
		c-0.37,0-0.73,0-1.08,0.02c-0.46-0.02-0.9-0.03-1.35-0.06c-0.44-0.02-0.88-0.05-1.32-0.07c-0.4-0.02-0.8-0.04-1.2-0.05
		c-0.4-0.01-0.79-0.02-1.18-0.02c-0.28,0-0.56,0-0.85,0C210.95,481.46,182.26,481.46,182.26,481.46z"/>
	<path style="fill:#92BC59;" d="M318.08,480.46c-0.06-0.23-0.08-0.47-0.09-0.73s0.01-0.54,0.02-0.86c1.87-3.83,2.32-7.9-0.67-10.91
		c-0.15-0.36-0.31-0.71-0.47-1.06c-0.51-1.04-1.17-2.01-1.99-2.88c-0.19-0.32-0.42-0.63-0.66-0.92c-1.74-2-4.59-2.71-7.48-2.14
		c-0.32-0.02-0.64-0.04-0.95-0.04c-1.33,0.01-2.7,0.32-4.13,0.93c-0.29,0.12-0.58,0.26-0.87,0.41c-0.4-0.1-0.78-0.16-1.15-0.19
		s-0.72-0.02-1.06,0.03c-3.04,0.75-5.3,4.36-9.12,4.93c-0.4,0-0.79-0.01-1.16-0.03c-2.27-0.12-4.25-0.51-6.12,0.42
		c-0.31,0.15-0.62,0.34-0.94,0.55c-3.29,1.2-7.35,1.2-8.19,5.05c-0.08,0.12,0,0.48-0.01,0.69c-0.23,0.32-0.48,0.59-0.74,0.83
		c-0.26,0.24-0.54,0.45-0.83,0.63c-2.99,0.78-6.15,2.13-8.86,3.94c3.16,4.06,7.22,0.9,10.7,1.6c0.33-0.02,0.65-0.04,0.96-0.04
		s0.62,0,0.92,0.02c0.39-0.02,0.77-0.04,1.15-0.06c0.37-0.02,0.74-0.05,1.12-0.08c0.34-0.02,0.68-0.05,1.02-0.06
		s0.67-0.02,1.01-0.02c0.24,0,0.48,0,0.73,0C293.67,480.46,318.08,480.46,318.08,480.46z"/>
	<path style="fill:#92BC59;" d="M459.36,484.46c-0.06-0.23-0.08-0.47-0.09-0.73s0.01-0.54,0.02-0.86c1.87-3.83,2.32-7.9-0.67-10.91
		c-0.15-0.36-0.31-0.71-0.47-1.06c-0.51-1.04-1.17-2.01-1.99-2.88c-0.19-0.32-0.42-0.63-0.66-0.92c-1.74-2-4.59-2.71-7.48-2.14
		c-0.32-0.02-0.64-0.04-0.95-0.04c-1.33,0.01-2.7,0.32-4.13,0.93c-0.29,0.12-0.58,0.26-0.87,0.41c-0.4-0.1-0.78-0.16-1.15-0.19
		s-0.72-0.02-1.06,0.03c-3.04,0.75-5.3,4.36-9.12,4.93c-0.4,0-0.79-0.01-1.16-0.03c-2.27-0.12-4.25-0.51-6.12,0.42
		c-0.31,0.15-0.62,0.34-0.94,0.55c-3.29,1.2-7.35,1.2-8.19,5.05c-0.08,0.12,0,0.48-0.01,0.69c-0.23,0.32-0.48,0.59-0.74,0.83
		c-0.26,0.24-0.54,0.45-0.83,0.63c-2.99,0.78-6.15,2.13-8.86,3.94c3.16,4.06,7.22,0.9,10.7,1.6c0.33-0.02,0.65-0.04,0.96-0.04
		s0.62,0,0.92,0.02c0.39-0.02,0.77-0.04,1.15-0.06c0.37-0.02,0.74-0.05,1.12-0.08c0.34-0.02,0.68-0.05,1.02-0.06
		s0.67-0.02,1.01-0.02c0.24,0,0.48,0,0.73,0C434.95,484.46,459.36,484.46,459.36,484.46z"/>
	<path style="fill:#92BC59;" d="M561.36,485.46c-0.06-0.23-0.08-0.47-0.09-0.73s0.01-0.54,0.02-0.86c1.87-3.83,2.32-7.9-0.67-10.91
		c-0.15-0.36-0.31-0.71-0.47-1.06c-0.51-1.04-1.17-2.01-1.99-2.88c-0.19-0.32-0.42-0.63-0.66-0.92c-1.74-2-4.59-2.71-7.48-2.14
		c-0.32-0.02-0.64-0.04-0.95-0.04c-1.33,0.01-2.7,0.32-4.13,0.93c-0.29,0.12-0.58,0.26-0.87,0.41c-0.4-0.1-0.78-0.16-1.15-0.19
		s-0.72-0.02-1.06,0.03c-3.04,0.75-5.3,4.36-9.12,4.93c-0.4,0-0.79-0.01-1.16-0.03c-2.27-0.12-4.25-0.51-6.12,0.42
		c-0.31,0.15-0.62,0.34-0.94,0.55c-3.29,1.2-7.35,1.2-8.19,5.05c-0.08,0.12,0,0.48-0.01,0.69c-0.23,0.32-0.48,0.59-0.74,0.83
		s-0.54,0.45-0.83,0.63c-2.99,0.78-6.15,2.13-8.86,3.94c3.16,4.06,7.22,0.9,10.7,1.6c0.33-0.02,0.65-0.04,0.96-0.04
		s0.62,0,0.92,0.02c0.39-0.02,0.77-0.04,1.15-0.06c0.37-0.02,0.74-0.05,1.12-0.08c0.34-0.02,0.68-0.05,1.02-0.06
		s0.67-0.02,1.01-0.02c0.24,0,0.48,0,0.73,0C536.95,485.46,561.36,485.46,561.36,485.46z"/>
	<path style="fill:#92BC59;" d="M639.29,485.46c0.06-0.23,0.08-0.47,0.09-0.73s-0.01-0.54-0.02-0.86c-1.87-3.83-2.32-7.9,0.67-10.91
		c0.15-0.36,0.31-0.71,0.47-1.06c0.51-1.04,1.17-2.01,1.99-2.88c0.19-0.32,0.42-0.63,0.66-0.92c1.74-2,4.59-2.71,7.48-2.14
		c0.32-0.02,0.64-0.04,0.95-0.04c1.33,0.01,2.7,0.32,4.13,0.93c0.29,0.12,0.58,0.26,0.87,0.41c0.4-0.1,0.78-0.16,1.15-0.19
		s0.72-0.02,1.06,0.03c3.04,0.75,5.3,4.36,9.12,4.93c0.4,0,0.78-0.01,1.16-0.03c2.27-0.12,4.25-0.51,6.12,0.42
		c0.31,0.15,0.62,0.34,0.94,0.55c3.29,1.2,7.35,1.2,8.19,5.05c0.08,0.12,0,0.48,0.01,0.69c0.23,0.32,0.48,0.59,0.74,0.83
		s0.54,0.45,0.83,0.63c2.99,0.78,6.15,2.13,8.86,3.94c-3.16,4.06-7.22,0.9-10.7,1.6c-0.33-0.02-0.65-0.04-0.96-0.04
		s-0.62,0-0.92,0.02c-0.39-0.02-0.77-0.04-1.15-0.06c-0.37-0.02-0.74-0.05-1.12-0.08c-0.34-0.02-0.68-0.05-1.02-0.06
		s-0.67-0.02-1.01-0.02c-0.24,0-0.48,0-0.73,0C663.7,485.46,639.29,485.46,639.29,485.46z"/>
	<path style="fill:#92BC59;" d="M665.36,485.46c-0.06-0.23-0.08-0.47-0.09-0.73s0.01-0.54,0.02-0.86c1.87-3.83,2.32-7.9-0.67-10.91
		c-0.15-0.36-0.31-0.71-0.47-1.06c-0.51-1.04-1.17-2.01-1.99-2.88c-0.19-0.32-0.42-0.63-0.66-0.92c-1.74-2-4.59-2.71-7.48-2.14
		c-0.32-0.02-0.64-0.04-0.95-0.04c-1.33,0.01-2.7,0.32-4.13,0.93c-0.29,0.12-0.58,0.26-0.87,0.41c-0.4-0.1-0.78-0.16-1.15-0.19
		s-0.72-0.02-1.06,0.03c-3.04,0.75-5.3,4.36-9.12,4.93c-0.4,0-0.79-0.01-1.16-0.03c-2.27-0.12-4.25-0.51-6.12,0.42
		c-0.31,0.15-0.62,0.34-0.94,0.55c-3.29,1.2-7.35,1.2-8.19,5.05c-0.08,0.12,0,0.48-0.01,0.69c-0.23,0.32-0.48,0.59-0.74,0.83
		s-0.54,0.45-0.83,0.63c-2.99,0.78-6.15,2.13-8.86,3.94c3.16,4.06,7.22,0.9,10.7,1.6c0.33-0.02,0.65-0.04,0.96-0.04
		s0.62,0,0.92,0.02c0.39-0.02,0.77-0.04,1.15-0.06c0.37-0.02,0.74-0.05,1.12-0.08c0.34-0.02,0.68-0.05,1.02-0.06
		s0.67-0.02,1.01-0.02c0.24,0,0.48,0,0.73,0C640.95,485.46,665.36,485.46,665.36,485.46z"/>
	<path style="fill:#92BC59;" d="M535.71,484.46c0.06-0.23,0.08-0.47,0.09-0.73c0-0.26-0.01-0.54-0.02-0.86
		c-1.87-3.83-2.32-7.9,0.67-10.91c0.15-0.36,0.31-0.71,0.47-1.06c0.51-1.04,1.17-2.01,1.99-2.88c0.19-0.32,0.42-0.63,0.66-0.92
		c1.74-2,4.59-2.71,7.48-2.14c0.32-0.02,0.64-0.04,0.95-0.04c1.33,0.01,2.7,0.32,4.13,0.93c0.29,0.12,0.58,0.26,0.87,0.41
		c0.4-0.1,0.78-0.16,1.15-0.19s0.72-0.02,1.06,0.03c3.04,0.75,5.3,4.36,9.12,4.93c0.4,0,0.79-0.01,1.16-0.03
		c2.27-0.12,4.25-0.51,6.12,0.42c0.31,0.15,0.62,0.34,0.94,0.55c3.29,1.2,7.35,1.2,8.19,5.05c0.08,0.12,0,0.48,0.01,0.69
		c0.23,0.32,0.48,0.59,0.74,0.83s0.54,0.45,0.83,0.63c2.99,0.78,6.15,2.13,8.86,3.94c-3.16,4.06-7.22,0.9-10.7,1.6
		c-0.33-0.02-0.65-0.04-0.96-0.04s-0.62,0-0.92,0.02c-0.39-0.02-0.77-0.04-1.15-0.06c-0.37-0.02-0.74-0.05-1.12-0.08
		c-0.34-0.02-0.68-0.05-1.02-0.06s-0.67-0.02-1.01-0.02c-0.24,0-0.48,0-0.73,0C560.11,484.46,535.71,484.46,535.71,484.46z"/>
	<path style="fill:#92BC59;" d="M543.77,484.46c-0.06-0.23-0.08-0.47-0.09-0.73s0.01-0.54,0.02-0.86c1.87-3.83,2.32-7.9-0.67-10.91
		c-0.15-0.36-0.31-0.71-0.47-1.06c-0.51-1.04-1.17-2.01-1.99-2.88c-0.19-0.32-0.42-0.63-0.66-0.92c-1.74-2-4.59-2.71-7.48-2.14
		c-0.32-0.02-0.64-0.04-0.95-0.04c-1.33,0.01-2.7,0.32-4.13,0.93c-0.29,0.12-0.58,0.26-0.87,0.41c-0.4-0.1-0.78-0.16-1.15-0.19
		s-0.72-0.02-1.06,0.03c-3.04,0.75-5.3,4.36-9.12,4.93c-0.4,0-0.79-0.01-1.16-0.03c-2.27-0.12-4.25-0.51-6.12,0.42
		c-0.31,0.15-0.62,0.34-0.94,0.55c-3.29,1.2-7.35,1.2-8.19,5.05c-0.08,0.12,0,0.48-0.01,0.69c-0.23,0.32-0.48,0.59-0.74,0.83
		c-0.26,0.24-0.54,0.45-0.83,0.63c-2.99,0.78-6.15,2.13-8.86,3.94c3.16,4.06,7.22,0.9,10.7,1.6c0.33-0.02,0.65-0.04,0.96-0.04
		s0.62,0,0.92,0.02c0.39-0.02,0.77-0.04,1.15-0.06c0.37-0.02,0.74-0.05,1.12-0.08c0.34-0.02,0.68-0.05,1.02-0.06
		s0.67-0.02,1.01-0.02c0.24,0,0.48,0,0.73,0C519.37,484.46,543.77,484.46,543.77,484.46z"/>
	<path style="fill:#92BC59;" d="M773.71,484.46c0.06-0.23,0.08-0.47,0.09-0.73c0-0.26-0.01-0.54-0.02-0.86
		c-1.87-3.83-2.32-7.9,0.67-10.91c0.15-0.36,0.31-0.71,0.47-1.06c0.51-1.04,1.17-2.01,1.99-2.88c0.19-0.32,0.42-0.63,0.66-0.92
		c1.74-2,4.59-2.71,7.48-2.14c0.32-0.02,0.64-0.04,0.95-0.04c1.33,0.01,2.7,0.32,4.13,0.93c0.29,0.12,0.58,0.26,0.87,0.41
		c0.4-0.1,0.78-0.16,1.15-0.19s0.72-0.02,1.06,0.03c3.04,0.75,5.3,4.36,9.12,4.93c0.4,0,0.79-0.01,1.16-0.03
		c2.27-0.12,4.25-0.51,6.12,0.42c0.31,0.15,0.62,0.34,0.94,0.55c3.29,1.2,7.35,1.2,8.19,5.05c0.08,0.12,0,0.48,0.01,0.69
		c0.23,0.32,0.48,0.59,0.74,0.83s0.54,0.45,0.83,0.63c2.99,0.78,6.15,2.13,8.86,3.94c-3.16,4.06-7.22,0.9-10.7,1.6
		c-0.33-0.02-0.65-0.04-0.96-0.04s-0.62,0-0.92,0.02c-0.39-0.02-0.77-0.04-1.15-0.06c-0.37-0.02-0.74-0.05-1.12-0.08
		c-0.34-0.02-0.68-0.05-1.02-0.06s-0.67-0.02-1.01-0.02c-0.24,0-0.48,0-0.73,0C798.11,484.46,773.71,484.46,773.71,484.46z"/>
	<path style="fill:#92BC59;" d="M799.77,484.46c-0.06-0.23-0.08-0.47-0.09-0.73s0.01-0.54,0.02-0.86c1.87-3.83,2.32-7.9-0.67-10.91
		c-0.15-0.36-0.31-0.71-0.47-1.06c-0.51-1.04-1.17-2.01-1.99-2.88c-0.19-0.32-0.42-0.63-0.66-0.92c-1.74-2-4.59-2.71-7.48-2.14
		c-0.32-0.02-0.64-0.04-0.95-0.04c-1.33,0.01-2.7,0.32-4.13,0.93c-0.29,0.12-0.58,0.26-0.87,0.41c-0.4-0.1-0.78-0.16-1.15-0.19
		s-0.72-0.02-1.06,0.03c-3.04,0.75-5.3,4.36-9.12,4.93c-0.4,0-0.79-0.01-1.16-0.03c-2.27-0.12-4.25-0.51-6.12,0.42
		c-0.31,0.15-0.62,0.34-0.94,0.55c-3.29,1.2-7.35,1.2-8.19,5.05c-0.08,0.12,0,0.48-0.01,0.69c-0.23,0.32-0.48,0.59-0.74,0.83
		s-0.54,0.45-0.83,0.63c-2.99,0.78-6.15,2.13-8.86,3.94c3.16,4.06,7.22,0.9,10.7,1.6c0.33-0.02,0.65-0.04,0.96-0.04
		s0.62,0,0.92,0.02c0.39-0.02,0.77-0.04,1.15-0.06c0.37-0.02,0.74-0.05,1.12-0.08c0.34-0.02,0.68-0.05,1.02-0.06
		s0.67-0.02,1.01-0.02c0.24,0,0.48,0,0.73,0C775.37,484.46,799.77,484.46,799.77,484.46z"/>
</g>
<g id="TurbineStand">
	<g>
		<polygon style="fill:#F9FCFD;" points="317.52,506.46 308.47,506.46 311.48,373.44 314.31,373.44 		"/>
	</g>
	<g>
		<polygon style="fill:#F9FCFD;" points="501.17,515.12 489.06,515.12 493.09,337.32 496.87,337.32 		"/>
	</g>
	<g>
		<polygon style="fill:#F9FCFD;" points="709.03,500.12 699.49,500.12 702.66,360.04 705.64,360.04 		"/>
	</g>
</g>

<g id="turbine3">
	<path id="TurbinWings" style="fill:#98D4C2;" d="M530.44,297.69c0,0,12.4-21.49,17.21-51.23l-52.68,91.26l-0.46-0.8
		c0.07,0.36,0.13,0.71,0.2,1.06c-33.2-11.82-52.38-10.63-52.38-10.63s-24.81,0-52.97,10.71h105.37c6.38,34.02,16.8,49.77,16.8,49.77
		s12.41,21.5,35.76,40.52L495,337.77C521.87,314.91,530.44,297.69,530.44,297.69z"/>
	<circle style="fill:#0C4C37;" cx="495.17" cy="337.5" r="4.63"/>
</g>
<g id="turbine2">
	<path id="TurbineWings_1_" style="fill:#98D4C2;" d="M339.42,343.79c0,0,9.28-16.08,12.88-38.33l-39.42,68.28l-0.34-0.59
		c0.05,0.26,0.1,0.52,0.15,0.78c-24.83-8.83-39.18-7.95-39.18-7.95s-18.57,0-39.63,8.01h78.82c4.78,25.46,12.58,37.25,12.58,37.25
		s9.28,16.07,26.75,30.31l-39.13-67.77C333.01,356.67,339.42,343.79,339.42,343.79z"/>
	<circle style="fill:#0C4C37;" cx="313.03" cy="373.58" r="3.46"/>
</g>
<g id="turbine1">
	<path id="TurbineWings" style="fill:#98D4C2;" d="M732.1,327.82c0,0,9.76-16.93,13.55-40.36l-41.5,71.89l-0.36-0.62
		c0.05,0.28,0.11,0.56,0.16,0.84c-26.15-9.3-41.27-8.38-41.27-8.38s-19.56,0-41.73,8.44h83.01c5.03,26.8,13.24,39.21,13.24,39.21
		s9.77,16.93,28.17,31.92l-41.19-71.36C725.34,341.38,732.1,327.82,732.1,327.82z"/>
	<circle style="fill:#0C4C37;" cx="704.3" cy="359.19" r="3.65"/>
</g>
<g id="Bushes3">
	<path style="fill:#92BC59;" d="M328.71,503.64c-0.12-0.17-0.24-0.36-0.36-0.58c-0.11-0.22-0.22-0.46-0.32-0.75
		c-0.01-0.19,0.03-0.52-0.01-0.63c-0.36-3.5-2.1-3.5-3.51-4.6c-0.14-0.19-0.27-0.36-0.4-0.5c-0.8-0.84-1.65-0.48-2.62-0.38
		c-0.16,0.02-0.33,0.03-0.5,0.03c-1.64-0.52-2.6-3.81-3.91-4.49c-0.15-0.05-0.3-0.05-0.45-0.03c-0.16,0.02-0.32,0.08-0.49,0.17
		c-0.13-0.14-0.25-0.26-0.37-0.37c-0.61-0.55-1.2-0.83-1.77-0.85c-0.14,0-0.27,0.01-0.41,0.03c-0.03-0.01-0.07-0.02-0.1-0.03
		c-0.1-0.04-0.2-0.07-0.3-0.09c-0.05-0.01-0.1-0.02-0.14-0.03c-0.09-0.01-0.17-0.02-0.26-0.02s-0.18,0.01-0.26,0.02
		c-0.05,0.01-0.1,0.01-0.14,0.03c-0.1,0.02-0.2,0.05-0.3,0.09c-0.03,0.01-0.07,0.02-0.1,0.03c-0.14-0.02-0.27-0.04-0.41-0.03
		c-0.57,0.01-1.16,0.29-1.77,0.85c-0.12,0.11-0.25,0.23-0.37,0.37c-0.17-0.09-0.33-0.15-0.49-0.17c-0.16-0.02-0.31-0.02-0.45,0.03
		c-1.3,0.68-2.27,3.97-3.91,4.49c-0.17,0-0.34-0.01-0.5-0.03c-0.97-0.11-1.82-0.46-2.62,0.38c-0.13,0.14-0.27,0.31-0.4,0.5
		c-1.41,1.1-3.15,1.1-3.51,4.6c-0.03,0.11,0,0.44-0.01,0.63c-0.1,0.29-0.2,0.53-0.32,0.75c-0.11,0.22-0.23,0.41-0.36,0.58
		c-1.28,0.71-2.63,1.94-3.79,3.59c1.35,3.7,3.09,0.82,4.58,1.46c0.14-0.02,0.28-0.03,0.41-0.04c0.13,0,0.27,0,0.39,0.02
		c0.17-0.02,0.33-0.03,0.49-0.06c0.16-0.02,0.32-0.05,0.48-0.07c0.14-0.02,0.29-0.04,0.44-0.05c0.14-0.01,0.29-0.02,0.43-0.02
		c0.1,0,0.2,0,0.31,0c2.29,0,5.3,0,8.11,0c0,0,3.82,0,8.11,0c2.81,0,5.83,0,8.11,0c0.11,0,0.21,0,0.31,0c0.14,0,0.29,0.01,0.43,0.02
		c0.14,0.01,0.29,0.03,0.44,0.05c0.16,0.02,0.32,0.05,0.48,0.07c0.16,0.02,0.32,0.04,0.49,0.06c0.13-0.02,0.26-0.02,0.39-0.02
		s0.27,0.02,0.41,0.04c1.49-0.64,3.23,2.24,4.58-1.46C331.34,505.59,329.99,504.35,328.71,503.64z"/>
	<path style="fill:#92BC59;" d="M510.97,514.64c-0.12-0.17-0.24-0.36-0.36-0.58c-0.11-0.22-0.22-0.46-0.32-0.75
		c-0.01-0.19,0.03-0.52-0.01-0.63c-0.36-3.5-2.1-3.5-3.51-4.6c-0.14-0.19-0.27-0.36-0.4-0.5c-0.8-0.84-1.65-0.48-2.62-0.38
		c-0.16,0.02-0.33,0.03-0.5,0.03c-1.64-0.52-2.6-3.81-3.91-4.49c-0.15-0.05-0.3-0.05-0.45-0.03c-0.16,0.02-0.32,0.08-0.49,0.17
		c-0.13-0.14-0.25-0.26-0.37-0.37c-0.61-0.55-1.2-0.83-1.77-0.85c-0.14,0-0.27,0.01-0.41,0.03c-0.03-0.01-0.07-0.02-0.1-0.03
		c-0.1-0.04-0.2-0.07-0.3-0.09c-0.05-0.01-0.1-0.02-0.14-0.03c-0.09-0.01-0.17-0.02-0.26-0.02s-0.18,0.01-0.26,0.02
		c-0.05,0.01-0.1,0.01-0.14,0.03c-0.1,0.02-0.2,0.05-0.3,0.09c-0.03,0.01-0.07,0.02-0.1,0.03c-0.14-0.02-0.27-0.04-0.41-0.03
		c-0.57,0.01-1.16,0.29-1.77,0.85c-0.12,0.11-0.25,0.23-0.37,0.37c-0.17-0.09-0.33-0.15-0.49-0.17c-0.16-0.02-0.31-0.02-0.45,0.03
		c-1.3,0.68-2.27,3.97-3.91,4.49c-0.17,0-0.34-0.01-0.5-0.03c-0.97-0.11-1.82-0.46-2.62,0.38c-0.13,0.14-0.27,0.31-0.4,0.5
		c-1.41,1.1-3.15,1.1-3.51,4.6c-0.03,0.11,0,0.44-0.01,0.63c-0.1,0.29-0.2,0.53-0.32,0.75c-0.11,0.22-0.23,0.41-0.36,0.58
		c-1.28,0.71-2.63,1.94-3.79,3.59c1.35,3.7,3.09,0.82,4.58,1.46c0.14-0.02,0.28-0.03,0.41-0.04c0.13,0,0.27,0,0.39,0.02
		c0.17-0.02,0.33-0.03,0.49-0.06c0.16-0.02,0.32-0.05,0.48-0.07c0.14-0.02,0.29-0.04,0.44-0.05c0.14-0.01,0.29-0.02,0.43-0.02
		c0.1,0,0.2,0,0.31,0c2.29,0,5.3,0,8.11,0c0,0,3.82,0,8.11,0c2.81,0,5.83,0,8.11,0c0.11,0,0.21,0,0.31,0c0.14,0,0.29,0.01,0.43,0.02
		c0.14,0.01,0.29,0.03,0.44,0.05c0.16,0.02,0.32,0.05,0.48,0.07s0.32,0.04,0.49,0.06c0.13-0.02,0.26-0.02,0.39-0.02
		s0.27,0.02,0.41,0.04c1.49-0.64,3.23,2.24,4.58-1.46C513.6,516.59,512.25,515.35,510.97,514.64z"/>
	<path style="fill:#92BC59;" d="M719.77,500.64c-0.12-0.17-0.24-0.36-0.36-0.58c-0.11-0.22-0.22-0.46-0.32-0.75
		c-0.01-0.19,0.03-0.52-0.01-0.63c-0.36-3.5-2.1-3.5-3.51-4.6c-0.14-0.19-0.27-0.36-0.4-0.5c-0.8-0.84-1.65-0.48-2.62-0.38
		c-0.16,0.02-0.33,0.03-0.5,0.03c-1.64-0.52-2.6-3.81-3.91-4.49c-0.15-0.05-0.3-0.05-0.45-0.03c-0.16,0.02-0.32,0.08-0.49,0.17
		c-0.13-0.14-0.25-0.26-0.37-0.37c-0.61-0.55-1.2-0.83-1.77-0.85c-0.14,0-0.27,0.01-0.41,0.03c-0.03-0.01-0.07-0.02-0.1-0.03
		c-0.1-0.04-0.2-0.07-0.3-0.09c-0.05-0.01-0.1-0.02-0.14-0.03c-0.09-0.01-0.17-0.02-0.26-0.02s-0.18,0.01-0.26,0.02
		c-0.05,0.01-0.1,0.01-0.14,0.03c-0.1,0.02-0.2,0.05-0.3,0.09c-0.03,0.01-0.07,0.02-0.1,0.03c-0.14-0.02-0.27-0.04-0.41-0.03
		c-0.57,0.01-1.16,0.29-1.77,0.85c-0.12,0.11-0.25,0.23-0.37,0.37c-0.17-0.09-0.33-0.15-0.49-0.17c-0.16-0.02-0.31-0.02-0.45,0.03
		c-1.3,0.68-2.27,3.97-3.91,4.49c-0.17,0-0.34-0.01-0.5-0.03c-0.97-0.11-1.82-0.46-2.62,0.38c-0.13,0.14-0.27,0.31-0.4,0.5
		c-1.41,1.1-3.15,1.1-3.51,4.6c-0.03,0.11,0,0.44-0.01,0.63c-0.1,0.29-0.2,0.53-0.32,0.75c-0.11,0.22-0.23,0.41-0.36,0.58
		c-1.28,0.71-2.63,1.94-3.79,3.59c1.35,3.7,3.09,0.82,4.58,1.46c0.14-0.02,0.28-0.03,0.41-0.04c0.13,0,0.27,0,0.39,0.02
		c0.17-0.02,0.33-0.03,0.49-0.06c0.16-0.02,0.32-0.05,0.48-0.07c0.14-0.02,0.29-0.04,0.44-0.05c0.14-0.01,0.29-0.02,0.43-0.02
		c0.1,0,0.2,0,0.31,0c2.29,0,5.3,0,8.11,0c0,0,3.82,0,8.11,0c2.81,0,5.83,0,8.11,0c0.11,0,0.21,0,0.31,0c0.14,0,0.29,0.01,0.43,0.02
		c0.14,0.01,0.29,0.03,0.44,0.05c0.16,0.02,0.32,0.05,0.48,0.07c0.16,0.02,0.32,0.04,0.49,0.06c0.13-0.02,0.26-0.02,0.39-0.02
		s0.27,0.02,0.41,0.04c1.49-0.64,3.23,2.24,4.58-1.46C722.4,502.59,721.05,501.35,719.77,500.64z"/>
</g>
</svg>
